<svg width="60" height="60" viewBox="0 0 60 60" fill="none" xmlns="http://www.w3.org/2000/svg">
<g clip-path="url(#clip0_2_2259)">
<path d="M30 60C46.5685 60 60 46.5685 60 30C60 13.4315 46.5685 0 30 0C13.4315 0 0 13.4315 0 30C0 46.5685 13.4315 60 30 60Z" fill="#2CA01C"/>
<path d="M7.23123 29.9908C7.23363 36.7732 12.7032 42.2884 19.4856 42.3484H21.2208V37.8148H19.4856C15.2808 38.962 10.944 36.4828 9.79923 32.278C9.78963 32.2444 9.78243 32.2108 9.77283 32.1772C8.59443 27.9172 11.0616 23.5036 15.3072 22.2772H16.1736C17.2608 22.0396 18.3864 22.0396 19.4736 22.2772H23.688V46.3468C23.6664 48.8932 25.7136 50.9764 28.26 51.0004V17.5108H19.512C12.6816 17.5468 7.17603 23.1124 7.21203 29.9428V29.9452L7.23123 29.9908ZM40.5312 17.5156H38.796V22.2892H40.5312C44.7264 21.1444 49.0536 23.6164 50.1984 27.8092C50.208 27.8404 50.2152 27.874 50.2248 27.9052C51.396 32.1508 48.936 36.5476 44.7072 37.7716H43.8408C42.7536 38.0092 41.628 38.0092 40.5408 37.7716H36.3264V13.7044C36.348 11.158 34.3008 9.07478 31.7544 9.05078V42.5884H40.5024C47.3928 42.4804 52.8912 36.8092 52.7856 29.9188C52.68 23.1796 47.244 17.7412 40.5024 17.6356L40.5312 17.5156Z" fill="white"/>
</g>
<defs>
<clipPath id="clip0_2_2259">
<rect width="60" height="60" fill="white"/>
</clipPath>
</defs>
</svg>
