<svg width="60" height="68" viewBox="0 0 60 68" fill="none" xmlns="http://www.w3.org/2000/svg">
<path d="M27.673 2.20034C28.1628 2.20034 28.4077 2.44438 28.8975 2.68842C25.9588 3.9086 23.02 7.0811 21.5507 13.9142L16.163 15.3784C17.8773 10.4976 21.3058 2.20034 27.673 2.20034ZM30.3669 4.64072C30.8567 6.10494 31.3464 7.81321 31.3464 10.4976C31.3464 10.7417 31.3464 10.7417 31.3464 10.9857L24.2445 12.938C25.7139 7.81321 28.1628 5.61687 30.3669 4.64072ZM36.7341 9.0334L33.5505 10.0095C33.5505 9.76551 33.5505 9.52147 33.5505 9.27743C33.5505 7.08109 33.3056 5.37283 32.8158 3.9086C34.5301 4.39668 35.9994 6.59302 36.7341 9.0334ZM52.6522 12.938C52.6522 12.694 52.4073 12.4499 52.1624 12.4499C51.6726 12.4499 46.5299 11.9618 46.5299 11.9618C46.5299 11.9618 42.8565 8.30128 42.3667 8.05725C41.8769 7.56917 41.1422 7.81321 40.8973 7.81321C40.8973 7.81321 40.1626 8.05725 38.9382 8.54532C37.7137 5.12879 35.5096 1.9563 31.8362 1.9563H31.5913C30.6118 0.492076 29.1424 0.00400045 27.9179 0.00400045C19.1017 -0.240037 14.9385 10.7417 13.4692 16.3545C11.51 16.8426 9.55087 17.5747 7.34682 18.3068C5.38767 18.7949 5.38767 19.0389 5.14278 20.7472C4.89788 21.9674 0 60.5254 0 60.5254L38.9382 67.8465L59.9991 63.2098C59.9991 63.2098 52.6522 13.4261 52.6522 12.938Z" fill="#8DB849"/>
<path d="M51.9185 12.4502C51.6736 12.4502 46.5308 11.9621 46.5308 11.9621C46.5308 11.9621 42.8574 8.30155 42.3676 8.05751C42.1227 7.81348 42.1227 7.81348 41.8778 7.81348L38.9391 67.8468L60 63.2101C60 63.2101 52.6532 13.4263 52.6532 12.9383C52.6532 12.6942 52.1634 12.4502 51.9185 12.4502Z" fill="#5A863E"/>
<path d="M31.8343 24.1637L29.1405 31.9729C29.1405 31.9729 26.9364 30.7527 23.9977 30.7527C19.8345 30.7527 19.5896 33.1931 19.5896 33.9252C19.5896 37.3417 28.8956 38.806 28.8956 47.1032C28.8956 53.6923 24.7324 57.8409 19.0998 57.8409C12.4877 57.8409 9.05917 53.6923 9.05917 53.6923L10.7734 47.8354C10.7734 47.8354 14.2019 50.7638 17.1407 50.7638C19.0998 50.7638 19.8345 49.2996 19.8345 48.0794C19.8345 43.4427 12.2428 43.1986 12.2428 35.6335C12.2428 29.2885 16.8958 23.1875 25.9569 23.1875C30.1201 22.9435 31.8343 24.1637 31.8343 24.1637Z" fill="#FFFFFE"/>
</svg>
