<svg width="124" height="51" viewBox="0 0 124 51" fill="none" xmlns="http://www.w3.org/2000/svg">
<g clip-path="url(#clip0_2_2270)">
<path d="M8.71439 19.7888C8.71439 18.4743 9.81659 17.9685 11.6424 17.9685C14.26 17.9685 17.5666 18.744 20.1844 20.1261V12.204C17.3256 11.0916 14.5012 10.6534 11.6424 10.6534C4.65 10.6534 0 14.2268 0 20.1937C0 29.4974 13.0888 28.0143 13.0888 32.026C13.0888 33.5764 11.7112 34.0822 9.7822 34.0822C6.92341 34.0822 3.2722 32.9359 0.378781 31.3853V39.4084C3.5822 40.7568 6.82 41.3297 9.7822 41.3297C16.9466 41.3297 21.8722 37.8578 21.8722 31.8236C21.8378 21.7779 8.71439 23.5644 8.71439 19.7888ZM31.9988 3.91142L23.5944 5.66423L23.56 32.6662C23.56 37.6556 27.3834 41.3297 32.4812 41.3297C35.3056 41.3297 37.3722 40.8241 38.5088 40.2173V33.3742C37.4068 33.8124 31.9644 35.3631 31.9644 30.3739V18.4067H38.5088V11.2265H31.9644L31.9988 3.91142ZM49.2212 13.721L48.67 11.2265H41.23V40.7229H49.8412V20.7329C51.8732 18.1372 55.3178 18.6091 56.3856 18.9799V11.2265C55.2834 10.8219 51.2534 10.0803 49.2212 13.721ZM58.4866 11.2265H67.1322V40.7229H58.4866V11.2265ZM58.4866 8.6645L67.1322 6.84414V0.000976562L58.4866 1.78768V8.6645ZM85.1122 10.6534C81.7366 10.6534 79.5666 12.204 78.3612 13.2829L77.9132 11.1929H70.3356V50.4988L78.9466 48.7123L78.9812 39.1723C80.2212 40.0488 82.0466 41.296 85.0778 41.296C91.2434 41.296 96.8578 36.4418 96.8578 25.7557C96.8234 15.9796 91.14 10.6534 85.1122 10.6534ZM83.0456 33.8798C81.0134 33.8798 79.8076 33.172 78.9812 32.2955L78.9466 19.7888C79.8422 18.8113 81.0822 18.1372 83.0456 18.1372C86.18 18.1372 88.35 21.5755 88.35 25.9915C88.35 30.5088 86.2144 33.8798 83.0456 33.8798ZM124 26.0928C124 17.4629 119.729 10.6534 111.566 10.6534C103.368 10.6534 98.4076 17.4631 98.4076 26.0254C98.4076 36.172 104.263 41.296 112.668 41.296C116.767 41.296 119.867 40.3859 122.209 39.105V32.3628C119.867 33.509 117.18 34.217 113.77 34.217C110.429 34.217 107.467 33.0708 107.088 29.093H123.931C123.931 28.6545 124 26.9017 124 26.0928ZM106.984 22.8903C106.984 19.0811 109.361 17.4965 111.531 17.4965C113.632 17.4965 115.871 19.0811 115.871 22.8903H106.984Z" fill="#6772E5"/>
</g>
<defs>
<clipPath id="clip0_2_2270">
<rect width="124" height="50.7273" fill="white"/>
</clipPath>
</defs>
</svg>
