<svg width="96" height="57" viewBox="0 0 96 57" fill="none" xmlns="http://www.w3.org/2000/svg">
<g clip-path="url(#clip0_2_2254)">
<path d="M8.9134 0H87.0478C91.9928 0 95.9956 3.97696 95.9956 8.89014V38.5231C95.9956 43.4362 91.9928 47.4132 87.0478 47.4132H59.0278L62.8738 56.7709L45.9595 47.4132H8.95239C4.00773 47.4132 0.00498771 43.4362 0.00498771 38.5231V8.89014C-0.0343836 4.01608 3.96799 0 8.9134 0Z" fill="#9B5C8F"/>
<path d="M5.47076 8.10325C6.01708 7.36635 6.83638 6.9789 7.92903 6.90141C9.91934 6.74605 11.051 7.67631 11.324 9.69255C12.5336 17.7955 13.8602 24.6578 15.2648 30.2792L23.8103 14.1125C24.591 12.639 25.5666 11.8638 26.7373 11.7863C28.4542 11.67 29.5075 12.7553 29.9368 15.0427C30.9125 20.1988 32.1611 24.58 33.6437 28.3017C34.6584 18.4545 36.3754 11.3597 38.7946 6.9789C39.3796 5.89329 40.2382 5.35049 41.3699 5.27262C42.2675 5.1955 43.0868 5.46672 43.8282 6.04827C44.5695 6.62982 44.9598 7.36635 45.0378 8.25823C45.0768 8.95602 44.9598 9.53756 44.6478 10.1191C43.1258 12.9106 41.8768 17.6018 40.8626 24.1147C39.8873 30.4342 39.5359 35.3582 39.7699 38.8862C39.8483 39.8549 39.6919 40.708 39.302 41.4449C38.8332 42.2977 38.1313 42.763 37.2336 42.8405C36.219 42.918 35.1657 42.453 34.1511 41.4062C30.5222 37.7228 27.6346 32.2176 25.5276 24.8903C22.991 29.8527 21.118 33.5744 19.9084 36.0556C17.6061 40.4368 15.6552 42.6855 14.0162 42.8017C12.9626 42.8792 12.0653 41.9873 11.285 40.1268C9.29502 35.0479 7.14872 25.239 4.84682 10.7007C4.69046 9.69254 4.92443 8.80066 5.47076 8.10325ZM89.3264 14.19C87.9218 11.7475 85.8534 10.2745 83.0832 9.69255C82.3415 9.53756 81.6396 9.46007 80.9759 9.46007C77.23 9.46007 74.1864 11.3984 71.8061 15.2756C69.7768 18.5708 68.7626 22.215 68.7626 26.2084C68.7626 29.1936 69.3869 31.7523 70.6355 33.8848C72.0401 36.3272 74.1084 37.8003 76.8787 38.3818C77.62 38.5372 78.3223 38.6147 78.986 38.6147C82.7709 38.6147 85.8144 36.6763 88.1557 32.7992C90.1847 29.4648 91.1993 25.8206 91.1993 21.8276C91.2383 18.8036 90.575 16.2833 89.3264 14.19ZM84.4098 24.9291C83.8635 27.4877 82.8878 29.3874 81.4439 30.6667C80.3126 31.6748 79.2589 32.101 78.2837 31.9073C77.347 31.7135 76.5663 30.8995 75.9814 29.3874C75.5127 28.1855 75.2791 26.9837 75.2791 25.8593C75.2791 24.8903 75.3571 23.9209 75.552 23.0294C75.9034 21.4398 76.5667 19.8888 77.62 18.4158C78.908 16.5158 80.2736 15.7409 81.6782 16.0121C82.6149 16.2058 83.3956 17.0202 83.9805 18.532C84.4488 19.7339 84.6828 20.9357 84.6828 22.0601C84.6828 23.0682 84.6048 24.0375 84.4098 24.9291ZM64.8993 14.19C63.4947 11.7475 61.3874 10.2745 58.6561 9.69255C57.9148 9.53756 57.2125 9.46007 56.5488 9.46007C52.8029 9.46007 49.7593 11.3984 47.3791 15.2756C45.3501 18.5708 44.3355 22.215 44.3355 26.2084C44.3355 29.1936 44.9598 31.7523 46.2084 33.8848C47.613 36.3272 49.6814 37.8003 52.4516 38.3818C53.1933 38.5372 53.8952 38.6147 54.5589 38.6147C58.3438 38.6147 61.3874 36.6763 63.7287 32.7992C65.758 29.4648 66.7722 25.8206 66.7722 21.8276C66.7722 18.8036 66.1479 16.2833 64.8993 14.19ZM59.9438 24.9291C59.3974 27.4877 58.4218 29.3874 56.9782 30.6667C55.8465 31.6748 54.7929 32.101 53.8172 31.9073C52.8809 31.7135 52.1006 30.8995 51.5149 29.3874C51.047 28.1855 50.813 26.9837 50.813 25.8593C50.813 24.8903 50.891 23.9209 51.086 23.0294C51.4373 21.4398 52.1006 19.8888 53.1543 18.4158C54.4419 16.5158 55.8075 15.7409 57.2121 16.0121C58.1488 16.2058 58.9295 17.0202 59.5144 18.532C59.9831 19.7339 60.2167 20.9357 60.2167 22.0601C60.2561 23.0682 60.1387 24.0375 59.9438 24.9291Z" fill="white"/>
</g>
<defs>
<clipPath id="clip0_2_2254">
<rect width="96" height="57" fill="white"/>
</clipPath>
</defs>
</svg>
