<svg width="60" height="61" viewBox="0 0 60 61" fill="none" xmlns="http://www.w3.org/2000/svg">
<path d="M29.9427 60.3237C46.4763 60.3237 59.8798 46.9674 59.8798 30.4934C59.8798 14.0168 46.4777 0.663086 29.9427 0.663086C13.4077 0.663086 0.00426483 14.0168 0.00426483 30.4934C0.00426483 46.9674 13.4077 60.3237 29.9427 60.3237Z" fill="#13B5EA"/>
<path d="M14.3356 30.4134L19.4442 25.308C19.5972 25.1329 19.6774 24.9065 19.6686 24.6747C19.6597 24.4429 19.5625 24.2232 19.3966 24.0602C19.2307 23.8972 19.0086 23.8032 18.7755 23.7973C18.5424 23.7913 18.3157 23.8739 18.1417 24.0283L13.0357 29.1112L7.90981 24.019C7.73673 23.8491 7.50291 23.7546 7.25977 23.7562C7.01664 23.7578 6.7841 23.8555 6.61333 24.0276C6.44255 24.1998 6.34752 24.4324 6.34915 24.6742C6.35077 24.9161 6.44892 25.1474 6.62199 25.3172L11.7306 30.4054L6.62466 35.4976C6.53453 35.5805 6.46207 35.6806 6.41155 35.7919C6.36104 35.9032 6.3335 36.0235 6.33058 36.1456C6.32766 36.2677 6.3494 36.3891 6.39454 36.5027C6.43967 36.6163 6.50726 36.7197 6.59332 36.8068C6.67937 36.8939 6.78213 36.9629 6.8955 37.0098C7.00887 37.0567 7.13055 37.0804 7.25332 37.0797C7.3761 37.0789 7.49746 37.0536 7.61023 37.0053C7.723 36.957 7.82487 36.8867 7.90981 36.7985L13.0291 31.7037L18.1284 36.7786C18.254 36.9115 18.417 37.0037 18.5961 37.0432C18.7752 37.0826 18.9621 37.0676 19.1324 36.9999C19.3027 36.9322 19.4486 36.815 19.5511 36.6637C19.6535 36.5124 19.7078 36.3338 19.7068 36.1514C19.7074 36.0319 19.6841 35.9136 19.6383 35.8032C19.5926 35.6928 19.5252 35.5925 19.4402 35.5082L14.3342 30.4081M44.7059 30.4121C44.7059 31.3271 45.4525 32.0697 46.3723 32.0697C46.8143 32.0695 47.2381 31.8947 47.5505 31.5837C47.8629 31.2727 48.0383 30.851 48.0381 30.4114C48.0379 29.9718 47.8622 29.5502 47.5495 29.2395C47.2369 28.9288 46.813 28.7543 46.371 28.7545C45.4551 28.7545 44.7099 29.4971 44.7099 30.4121M41.553 30.4121C41.553 27.7665 43.7127 25.6116 46.371 25.6116C49.024 25.6116 51.1877 27.7665 51.1877 30.4121C51.1877 33.0576 49.0253 35.2125 46.371 35.2125C45.0925 35.2104 43.867 34.7037 42.9637 33.8037C42.0604 32.9036 41.553 31.6838 41.553 30.4121ZM39.6573 30.4121C39.6573 34.0986 42.6702 37.1009 46.371 37.1009C50.0718 37.1009 53.0847 34.1012 53.0847 30.4134C53.0847 26.7269 50.0718 23.7246 46.371 23.7246C44.5897 23.7281 42.8824 24.4343 41.6238 25.6882C40.3652 26.9422 39.658 28.6401 39.6573 30.4121ZM39.1814 23.8387H38.9014C38.0549 23.8387 37.239 24.1039 36.5577 24.6277C36.5109 24.4251 36.3967 24.2442 36.2336 24.1142C36.0706 23.9843 35.8682 23.9129 35.6592 23.9116C35.5397 23.9116 35.4214 23.9351 35.311 23.9807C35.2007 24.0264 35.1005 24.0933 35.0163 24.1776C34.932 24.2619 34.8654 24.3619 34.8201 24.4719C34.7749 24.5819 34.752 24.6998 34.7527 24.8186L34.7553 36.0837C34.7683 36.3165 34.8705 36.5355 35.0408 36.6955C35.2112 36.8556 35.4368 36.9447 35.6711 36.9443C35.9055 36.944 36.1308 36.8543 36.3007 36.6937C36.4706 36.5331 36.5721 36.3139 36.5844 36.0811V29.1536C36.5844 26.8462 36.7977 25.9127 38.7814 25.666C38.9681 25.6435 39.1654 25.6474 39.168 25.6474C39.7093 25.6275 40.0959 25.2549 40.0959 24.7523C40.0952 24.5101 39.998 24.2781 39.8255 24.107C39.6531 23.936 39.4195 23.84 39.176 23.84M21.6025 29.3127C21.6025 29.2862 21.6052 29.2597 21.6065 29.2358C21.8729 28.1893 22.4845 27.2619 23.3436 26.6021C24.2026 25.9423 25.2593 25.5883 26.3446 25.5967C27.4299 25.6051 28.481 25.9754 29.3296 26.6484C30.1782 27.3215 30.7752 28.2582 31.0252 29.3088H21.6012L21.6025 29.3127ZM32.8983 29.1403C32.5036 27.2798 31.4811 25.7509 29.9253 24.7696C28.7979 24.0656 27.4864 23.7088 26.1556 23.7442C24.8249 23.7796 23.5344 24.2056 22.4464 24.9685C21.3454 25.7563 20.5066 26.8539 20.0379 28.1198C19.5691 29.3858 19.4919 30.7623 19.8161 32.0723C20.1551 33.3761 20.8791 34.5489 21.8948 35.4393C22.9104 36.3297 24.1711 36.8969 25.514 37.0677C26.3245 37.1658 27.1137 37.1207 27.927 36.9086C28.6391 36.7364 29.3176 36.4478 29.9347 36.0546C30.5839 35.6395 31.1265 35.0905 31.6544 34.4341C31.6624 34.4208 31.6731 34.4115 31.6838 34.3983C32.049 33.9474 31.9811 33.3029 31.5811 32.9979C31.2425 32.7393 30.6746 32.6346 30.2293 33.2048C30.1333 33.3427 30.0253 33.4833 29.9093 33.6225C29.5534 34.0137 29.1121 34.3917 28.5842 34.686C27.9096 35.0441 27.1444 35.247 26.3312 35.2523C23.6676 35.2218 22.2438 33.3692 21.7358 32.0485C21.6471 31.798 21.5789 31.5408 21.5319 31.2793L21.5185 31.1401H31.0772C32.3863 31.1109 33.0902 30.1893 32.8956 29.1377L32.8983 29.1403Z" fill="white"/>
</svg>
