<svg width="28" height="28" viewBox="0 0 28 28" fill="none" xmlns="http://www.w3.org/2000/svg">
<rect width="28" height="28" rx="8" fill="#231F20"/>
<path d="M11.6666 21.7782H16.3333C20.2222 21.7782 21.7777 20.2227 21.7777 16.3338V11.6671C21.7777 7.77821 20.2222 6.22266 16.3333 6.22266H11.6666C7.77772 6.22266 6.22217 7.77821 6.22217 11.6671V16.3338C6.22217 20.2227 7.77772 21.7782 11.6666 21.7782Z" stroke="white" stroke-width="1.5" stroke-linecap="round" stroke-linejoin="round"/>
<path d="M14.0001 16.7218C15.5035 16.7218 16.7223 15.503 16.7223 13.9996C16.7223 12.4961 15.5035 11.2773 14.0001 11.2773C12.4966 11.2773 11.2778 12.4961 11.2778 13.9996C11.2778 15.503 12.4966 16.7218 14.0001 16.7218Z" stroke="white" stroke-width="1.5" stroke-linecap="round" stroke-linejoin="round"/>
<path d="M18.3837 10.1113H18.3927" stroke="white" stroke-width="1.5" stroke-linecap="round" stroke-linejoin="round"/>
</svg>
