<svg width="28" height="28" viewBox="0 0 28 28" fill="none" xmlns="http://www.w3.org/2000/svg">
<rect width="28" height="28" rx="8" fill="#231F20"/>
<path d="M8.32216 6.22266C7.7518 6.22266 7.23328 6.43359 6.84439 6.82907C6.42959 7.2509 6.22217 7.77819 6.22217 8.33186C6.22217 8.91189 6.4555 9.43921 6.84439 9.83469C7.23328 10.2302 7.77772 10.4675 8.29625 10.4411H8.34811C8.86664 10.4411 9.35922 10.2302 9.74811 9.83469C10.137 9.43921 10.3703 8.91189 10.3703 8.33186C10.3962 7.77819 10.1629 7.25087 9.77402 6.85539C9.38513 6.43356 8.86661 6.22266 8.32216 6.22266ZM9.38514 9.46559C9.09994 9.75562 8.71105 9.94017 8.29625 9.91381C7.90736 9.91381 7.49256 9.75562 7.20736 9.46559C6.89625 9.17556 6.7407 8.75373 6.7407 8.33189C6.7407 7.91006 6.89625 7.51458 7.20736 7.19819C7.49256 6.90817 7.88144 6.74997 8.32216 6.74997C8.71105 6.74997 9.09994 6.90817 9.38514 7.19819C9.69625 7.51458 9.8518 7.91006 9.8518 8.33189C9.8518 8.75373 9.69625 9.17556 9.38514 9.46559ZM9.33327 10.9684H7.23328C6.81847 10.9684 6.48142 11.3112 6.48142 11.7594V20.9873C6.48142 21.4091 6.84439 21.7782 7.25919 21.7782H9.33327C9.74808 21.7782 10.111 21.4091 10.111 21.0136V11.7594C10.111 11.3375 9.74808 10.9684 9.33327 10.9684ZM9.59252 21.0136C9.59252 21.1454 9.46288 21.2509 9.33327 21.2509H7.25919C7.12955 21.2509 6.99994 21.1191 6.99994 20.9873V11.7594C6.99994 11.6275 7.10364 11.4957 7.23328 11.4957H9.33327C9.46291 11.4957 9.59252 11.6276 9.59252 11.7594V21.0136ZM18.1481 10.7047H17.6036C16.5925 10.7047 15.6333 11.153 15.011 11.8648V11.4957C15.011 11.2321 14.7518 10.9684 14.4925 10.9684H11.8999C11.6666 10.9684 11.3814 11.1793 11.3814 11.4693V21.3036C11.3814 21.5936 11.6666 21.7781 11.8999 21.7781H14.7518C14.9851 21.7781 15.2703 21.5936 15.2703 21.3036V15.6087C15.2703 14.7386 15.8925 14.0531 16.6962 14.0531C17.111 14.0531 17.4999 14.2113 17.7851 14.5013C18.0444 14.7386 18.1481 15.1077 18.1481 15.5823V21.2509C18.1481 21.5145 18.4073 21.7782 18.6666 21.7782H21.2592C21.5184 21.7782 21.7777 21.5145 21.7777 21.2509V14.4486C21.7777 12.3394 20.1962 10.7047 18.1481 10.7047ZM21.2592 21.2245L21.2332 21.2509H18.6925L18.6666 15.5823C18.6666 14.9496 18.511 14.475 18.174 14.1323C17.7851 13.7368 17.2666 13.5258 16.7221 13.5258C15.6333 13.5522 14.7777 14.4486 14.7777 15.6087V21.2509H11.9259V11.4957H14.4925L14.5184 11.5221V13.1831L15.2184 12.4712L15.2443 12.4449C15.7629 11.7066 16.6703 11.2321 17.6295 11.2321H18.174C19.911 11.2321 21.2592 12.6558 21.2592 14.4486V21.2245Z" fill="white" stroke="white" stroke-width="0.5"/>
</svg>
