<svg width="750" height="312" viewBox="0 0 750 312" fill="none" xmlns="http://www.w3.org/2000/svg">
<mask id="path-1-outside-1_368_2691" maskUnits="userSpaceOnUse" x="45.2923" y="9.16869" width="668.122" height="279.081" fill="black">
<rect fill="white" x="45.2923" y="9.16869" width="668.122" height="279.081"/>
<path d="M64.0375 228.718L51.3525 207.951C55.9791 198.13 60.3735 188.601 64.5357 179.365C68.6975 170.013 72.7436 160.894 76.674 152.009C80.7205 143.007 84.6509 134.122 88.465 125.354C92.2792 116.586 96.0934 107.819 99.9076 99.0508C103.722 90.2831 107.594 81.4568 111.524 72.5718C115.571 63.6864 119.676 54.5673 123.838 45.2146C127.999 35.8619 132.335 26.3335 136.846 16.6292L153.996 16.5499L189.777 36.3347C185.609 44.1707 181.673 51.5973 177.968 58.6145C174.38 65.6312 170.908 72.4723 167.552 79.1379C164.195 85.6868 160.897 92.2355 157.657 98.7838C154.417 105.216 151.06 111.706 147.587 118.256C144.23 124.805 140.7 131.646 136.995 138.78C133.407 145.796 129.529 153.164 125.361 160.884L108.328 189.663L266.527 188.931L266.685 227.781L64.0375 228.718ZM176.947 279.647L176.573 188.297L181.521 114.424L227.721 114.21L228.396 279.409L176.947 279.647ZM400.715 281.412C382.515 281.496 366.925 277.835 353.945 270.428C341.081 263.021 330.54 252.92 322.321 240.124C314.218 227.211 308.266 212.597 304.466 196.281C300.666 179.849 298.787 162.707 298.831 144.857C299.074 118.605 303.822 95.833 313.077 76.54C322.447 57.1299 334.986 42.1384 350.693 31.5657C366.4 20.9929 384.112 15.661 403.828 15.5698C422.261 15.4846 437.85 18.9126 450.596 25.8537C463.457 32.6777 473.821 42.1382 481.687 54.2353C489.67 66.3318 495.444 80.3053 499.008 96.1556C502.573 111.889 504.333 128.623 504.289 146.357C504.166 173.424 499.654 197.07 490.754 217.295C481.969 237.403 469.783 253.092 454.196 264.365C438.609 275.637 420.782 281.319 400.715 281.412ZM401.948 240.456C416.998 240.503 428.401 233.042 436.156 218.073C444.029 203.103 447.9 179.868 447.771 148.368C447.695 129.702 445.996 113.493 442.673 99.7411C439.35 85.9897 434.289 75.338 427.492 67.786C420.694 60.234 412.162 56.4817 401.896 56.5292C386.846 56.5988 375.325 63.8855 367.335 78.3892C359.461 92.8924 355.582 114.494 355.7 143.194C355.775 161.744 357.477 178.361 360.803 193.046C364.246 207.613 369.369 219.14 376.17 227.625C382.971 236.11 391.564 240.387 401.948 240.456ZM546.923 274.611L546.428 239.263C552.033 240.404 557.871 241.427 563.941 242.332C570.011 243.121 575.613 243.503 580.746 243.479C594.862 243.414 607.338 241.548 618.173 237.881C629.008 234.214 637.446 229.042 643.485 222.364C649.524 215.569 652.525 207.68 652.488 198.697C652.46 191.814 650.859 185.521 647.686 179.819C644.512 174 639.36 169.474 632.23 166.24C625.101 163.007 615.587 161.767 603.69 162.522L583.235 167.342L575.045 133.254C582.04 131.939 588.683 130.333 594.976 128.437C601.267 126.425 606.8 124.183 611.573 121.71C621.004 117.117 628.099 111.659 632.856 105.337C637.73 98.8977 640.268 91.8858 640.47 84.3015C640.897 74.3828 637.833 67.0468 631.28 62.2938C624.728 57.5407 616.26 55.1881 605.876 55.2361C593.976 55.2911 583.776 57.2633 575.275 61.1527C566.891 64.9248 559.674 68.9832 553.625 73.3279L536.691 40.6808C540.41 37.1636 546.345 33.3445 554.495 29.2234C562.644 25.1023 572.022 21.6173 582.627 18.7682C593.232 15.8025 604.017 14.2943 614.984 14.2436C630.967 14.1697 644.918 16.4969 656.838 21.2251C668.757 25.9534 678.002 32.8524 684.573 41.9222C691.259 50.8747 694.629 61.8259 694.682 74.7758C694.729 86.209 692.321 96.4869 687.458 105.609C682.595 114.615 675.977 122.404 667.603 128.977C659.23 135.549 649.861 140.959 639.495 145.207L639.472 139.607C655.456 139.766 668.535 142.856 678.71 148.875C689.001 154.778 696.615 162.443 701.554 171.87C706.492 181.181 708.982 191.028 709.025 201.411C709.083 215.527 704.353 228.674 694.836 240.852C685.435 252.912 672.058 262.657 654.705 270.088C637.469 277.517 617.126 281.286 593.676 281.395C584.11 281.439 575.415 280.663 567.591 279.065C559.769 277.585 552.879 276.1 546.923 274.611Z"/>
</mask>
<path d="M64.0375 228.718L60.6237 230.804L61.7989 232.728L64.0539 232.718L64.0375 228.718ZM51.3525 207.951L47.7341 206.248L46.8153 208.199L47.9387 210.038L51.3525 207.951ZM64.5357 179.365L68.1824 181.007L68.1862 180.998L68.1901 180.99L64.5357 179.365ZM76.674 152.009L73.0258 150.37L73.0209 150.381L73.016 150.392L76.674 152.009ZM88.465 125.354L92.1329 126.948L88.465 125.354ZM99.9076 99.0508L96.2398 97.4568L99.9076 99.0508ZM111.524 72.5718L107.884 70.9155L107.875 70.9353L107.866 70.9553L111.524 72.5718ZM123.838 45.2146L127.492 46.8392L127.492 46.8392L123.838 45.2146ZM136.846 16.6292L136.829 12.6292L134.289 12.641L133.219 14.9448L136.846 16.6292ZM153.996 16.5499L155.933 13.0491L155.021 12.5451L153.979 12.5499L153.996 16.5499ZM189.777 36.3347L193.308 38.2116L195.156 34.7373L191.714 32.8339L189.777 36.3347ZM177.968 58.6145L174.431 56.7485L174.419 56.7716L174.407 56.7949L177.968 58.6145ZM167.552 79.1379L171.111 80.9609L171.118 80.9481L171.124 80.9352L167.552 79.1379ZM157.657 98.7838L161.229 100.582L161.236 100.569L161.242 100.556L157.657 98.7838ZM147.587 118.256L144.053 116.383L144.04 116.408L144.027 116.433L147.587 118.256ZM136.995 138.78L133.446 136.938L133.44 136.949L133.434 136.96L136.995 138.78ZM125.361 160.884L128.803 162.92L128.843 162.852L128.88 162.783L125.361 160.884ZM108.328 189.663L104.886 187.627L101.295 193.695L108.345 193.663L108.328 189.663ZM266.527 188.931L270.526 188.913L270.51 184.913L266.51 184.931L266.527 188.931ZM266.685 227.781L266.702 231.781L270.702 231.763L270.685 227.763L266.685 227.781ZM176.947 279.647L172.947 279.665L172.963 283.665L176.963 283.647L176.947 279.647ZM176.573 188.297L172.582 188.032L172.573 188.174L172.573 188.316L176.573 188.297ZM181.521 114.424L181.505 110.424L177.779 110.441L177.53 114.158L181.521 114.424ZM227.721 114.21L231.721 114.192L231.704 110.192L227.704 110.21L227.721 114.21ZM228.396 279.409L228.413 283.409L232.413 283.39L232.396 279.39L228.396 279.409ZM64.0375 228.718L67.4514 226.632L54.7663 205.865L51.3525 207.951L47.9387 210.038L60.6237 230.804L64.0375 228.718ZM51.3525 207.951L54.971 209.654C59.6064 199.814 64.0102 190.265 68.1824 181.007L64.5357 179.365L60.8891 177.723C56.7367 186.938 52.3517 196.446 47.7341 206.248L51.3525 207.951ZM64.5357 179.365L68.1901 180.99C72.353 171.635 76.4003 162.513 80.3319 153.625L76.674 152.009L73.016 150.392C69.0869 159.274 65.042 168.39 60.8814 177.741L64.5357 179.365ZM76.674 152.009L80.3221 153.647C84.3751 144.631 88.312 135.731 92.1329 126.948L88.465 125.354L84.7972 123.76C80.9897 132.512 77.0659 141.383 73.0258 150.37L76.674 152.009ZM88.465 125.354L92.1329 126.948C92.1409 126.929 92.3036 126.556 92.3116 126.537C92.3197 126.519 92.4824 126.145 92.4904 126.126C92.4985 126.108 92.6612 125.734 92.6692 125.715C92.6773 125.697 92.84 125.323 92.848 125.304C92.8561 125.286 93.0187 124.912 93.0268 124.893C93.0349 124.875 93.1975 124.501 93.2056 124.482C93.2137 124.464 93.3763 124.09 93.3844 124.071C93.3924 124.053 93.5551 123.679 93.5632 123.66C93.5712 123.642 93.7339 123.268 93.742 123.249C93.75 123.231 93.9127 122.857 93.9207 122.838C93.9288 122.82 94.0915 122.446 94.0995 122.427C94.1076 122.409 94.2703 122.035 94.2783 122.016C94.2864 121.998 94.4491 121.624 94.4571 121.605C94.4652 121.587 94.6278 121.213 94.6359 121.194C94.644 121.176 94.8066 120.802 94.8147 120.783C94.8228 120.765 94.9854 120.391 94.9935 120.372C95.0015 120.354 95.1642 119.98 95.1723 119.961C95.1803 119.943 95.343 119.569 95.3511 119.55C95.3591 119.532 95.5218 119.158 95.5299 119.139C95.5379 119.121 95.7006 118.747 95.7086 118.728C95.7167 118.71 95.8794 118.336 95.8874 118.317C95.8955 118.299 96.0582 117.925 96.0662 117.906C96.0743 117.888 96.237 117.514 96.245 117.495C96.2531 117.477 96.4157 117.103 96.4238 117.084C96.4319 117.066 96.5945 116.692 96.6026 116.673C96.6107 116.655 96.7733 116.281 96.7814 116.262C96.7894 116.244 96.9521 115.87 96.9602 115.851C96.9682 115.833 97.1309 115.459 97.139 115.44C97.147 115.422 97.3097 115.048 97.3178 115.029C97.3258 115.011 97.4885 114.637 97.4965 114.618C97.5046 114.6 97.6673 114.226 97.6753 114.207C97.6834 114.189 97.8461 113.815 97.8541 113.796C97.9692 113.532 98.4542 112.417 98.5693 112.152C98.6844 111.888 99.1693 110.773 99.2844 110.509C99.3995 110.244 99.8845 109.129 99.9996 108.865C100.23 108.335 100.485 107.75 100.715 107.221C100.945 106.692 101.2 106.106 101.43 105.577C101.66 105.048 101.915 104.462 102.145 103.933C102.375 103.404 102.63 102.818 102.86 102.289C103.09 101.76 103.345 101.174 103.575 100.645L99.9076 99.0508L96.2398 97.4568C96.2317 97.4753 96.069 97.8493 96.061 97.8678C96.0529 97.8863 95.8902 98.2603 95.8822 98.2788C95.8741 98.2973 95.7115 98.6713 95.7034 98.6898C95.6953 98.7083 95.5327 99.0822 95.5246 99.1008C95.5165 99.1193 95.3539 99.4932 95.3458 99.5118C95.3378 99.5303 95.1751 99.9042 95.167 99.9227C95.159 99.9413 94.9963 100.315 94.9882 100.334C94.9802 100.352 94.8175 100.726 94.8094 100.745C94.8014 100.763 94.6387 101.137 94.6307 101.156C94.6226 101.174 94.4599 101.548 94.4519 101.567C94.4438 101.585 94.2811 101.959 94.2731 101.978C94.265 101.996 94.1024 102.37 94.0943 102.389C94.0862 102.407 93.9236 102.781 93.9155 102.8C93.9074 102.818 93.7448 103.192 93.7367 103.211C93.7286 103.229 93.566 103.603 93.5579 103.622C93.5499 103.64 93.3872 104.014 93.3791 104.033C93.3711 104.051 93.2084 104.425 93.2003 104.444C93.1923 104.462 93.0296 104.836 93.0216 104.855C93.0135 104.873 92.8508 105.247 92.8428 105.266C92.8347 105.284 92.672 105.658 92.664 105.677C92.6559 105.695 92.4932 106.069 92.4852 106.088C92.4771 106.106 92.3145 106.48 92.3064 106.499C92.2983 106.517 92.1357 106.891 92.1276 106.91C92.1195 106.928 91.9569 107.302 91.9488 107.321C91.9408 107.339 91.7781 107.713 91.77 107.731C91.762 107.75 91.5993 108.124 91.5912 108.142C91.5832 108.161 91.4205 108.535 91.4125 108.553C91.4044 108.572 91.2417 108.946 91.2337 108.964C91.2256 108.983 91.0629 109.357 91.0549 109.375C91.0468 109.394 90.8841 109.768 90.8761 109.786C90.868 109.805 90.7053 110.179 90.6973 110.197C90.6892 110.216 90.5266 110.59 90.5185 110.608C90.4034 110.873 89.9184 111.988 89.8033 112.252C89.6883 112.517 89.2033 113.632 89.0882 113.896C88.9731 114.161 88.4881 115.276 88.373 115.54C88.2579 115.805 87.773 116.92 87.6579 117.184C87.5428 117.449 87.0578 118.564 86.9427 118.828C86.8276 119.093 86.3426 120.208 86.2276 120.472C86.1125 120.737 85.6275 121.852 85.5124 122.116C85.3973 122.381 84.9123 123.495 84.7972 123.76L88.465 125.354ZM99.9076 99.0508L103.575 100.645C107.386 91.8848 111.255 83.066 115.182 74.1884L111.524 72.5718L107.866 70.9553C103.933 79.8476 100.057 88.6814 96.2398 97.4568L99.9076 99.0508ZM111.524 72.5718L115.164 74.2282C119.217 65.3317 123.326 56.202 127.492 46.8392L123.838 45.2146L120.183 43.59C116.026 52.9326 111.926 62.0411 107.884 70.9155L111.524 72.5718ZM123.838 45.2146L127.492 46.8392C131.644 37.5074 135.971 27.9988 140.473 18.3135L136.846 16.6292L133.219 14.9448C128.699 24.6681 124.354 34.2165 120.183 43.59L123.838 45.2146ZM136.846 16.6292L136.862 20.6292L154.012 20.5499L153.996 16.5499L153.979 12.5499L136.829 12.6292L136.846 16.6292ZM153.996 16.5499L152.059 20.0507L187.84 39.8354L189.777 36.3347L191.714 32.8339L155.933 13.0491L153.996 16.5499ZM189.777 36.3347L186.246 34.4577C182.076 42.297 178.138 49.7272 174.431 56.7485L177.968 58.6145L181.505 60.4805C185.207 53.4674 189.142 46.0444 193.308 38.2116L189.777 36.3347ZM177.968 58.6145L174.407 56.7949C170.815 63.8185 167.339 70.6671 163.979 77.3406L167.552 79.1379L171.124 80.9352C174.476 74.2775 177.945 67.4438 181.529 60.4342L177.968 58.6145ZM167.552 79.1379L163.992 77.3149C160.627 83.8805 157.32 90.4461 154.072 97.0115L157.657 98.7838L161.242 100.556C164.473 94.0248 167.763 87.4931 171.111 80.9609L167.552 79.1379ZM157.657 98.7838L154.085 96.9856C150.857 103.392 147.513 109.858 144.053 116.383L147.587 118.256L151.12 120.128C154.606 113.555 157.976 107.039 161.229 100.582L157.657 98.7838ZM147.587 118.256L144.027 116.433C140.674 122.975 137.147 129.81 133.446 136.938L136.995 138.78L140.545 140.622C144.252 133.482 147.786 126.634 151.146 120.079L147.587 118.256ZM136.995 138.78L133.434 136.96C129.861 143.947 125.997 151.289 121.841 158.985L125.361 160.884L128.88 162.783C133.061 155.04 136.953 147.646 140.557 140.599L136.995 138.78ZM125.361 160.884L121.919 158.848L104.886 187.627L108.328 189.663L111.77 191.699L128.803 162.92L125.361 160.884ZM108.328 189.663L108.345 193.663L266.543 192.931L266.527 188.931L266.51 184.931L108.312 185.663L108.328 189.663ZM266.527 188.931L262.527 188.95L262.685 227.8L266.685 227.781L270.685 227.763L270.526 188.913L266.527 188.931ZM266.685 227.781L266.669 223.781L64.0212 224.718L64.0375 228.718L64.0539 232.718L266.702 231.781L266.685 227.781ZM176.947 279.647L180.947 279.628L180.573 188.279L176.573 188.297L172.573 188.316L172.947 279.665L176.947 279.647ZM176.573 188.297L180.564 188.563L185.512 114.689L181.521 114.424L177.53 114.158L172.582 188.032L176.573 188.297ZM181.521 114.424L181.537 118.424L227.737 118.21L227.721 114.21L227.704 110.21L181.505 110.424L181.521 114.424ZM227.721 114.21L223.721 114.229L224.396 279.427L228.396 279.409L232.396 279.39L231.721 114.192L227.721 114.21ZM228.396 279.409L228.38 275.409L176.93 275.647L176.947 279.647L176.963 283.647L228.413 283.409L228.396 279.409ZM353.945 270.428L351.947 273.895L351.954 273.899L351.961 273.903L353.945 270.428ZM322.321 240.124L318.932 242.251L318.943 242.269L318.955 242.287L322.321 240.124ZM304.466 196.281L300.569 197.184L300.571 197.19L304.466 196.281ZM298.831 144.857L294.831 144.822L294.831 144.835L294.831 144.849L298.831 144.857ZM313.077 76.54L309.475 74.8026L309.47 74.8116L313.077 76.54ZM350.693 31.5657L348.461 28.2477L348.461 28.2477L350.693 31.5657ZM450.595 25.8537L448.681 29.3668L448.7 29.3772L448.719 29.3874L450.595 25.8537ZM481.687 54.2353L478.333 56.4171L478.341 56.4284L478.348 56.4397L481.687 54.2353ZM499.008 96.1556L495.106 97.0353L495.107 97.0414L499.008 96.1556ZM504.289 146.357L508.289 146.373L508.289 146.365L504.289 146.357ZM490.754 217.295L487.093 215.685L487.088 215.695L490.754 217.295ZM454.196 264.365L451.853 261.124L454.196 264.365ZM401.948 240.456L401.919 244.456L401.933 244.456L401.948 240.456ZM436.156 218.073L432.616 216.212L432.611 216.223L432.605 216.234L436.156 218.073ZM442.673 99.7411L438.784 100.683L442.673 99.7411ZM427.492 67.786L430.465 65.109L427.492 67.786ZM367.335 78.3892L363.831 76.4604L363.825 76.4712L363.82 76.4821L367.335 78.3892ZM360.803 193.046L356.902 193.931L356.906 193.95L356.911 193.968L360.803 193.046ZM376.17 227.625L379.292 225.122L376.17 227.625ZM400.715 281.412L400.699 277.412C383.048 277.494 368.18 273.945 355.929 266.954L353.945 270.428L351.961 273.903C365.67 281.725 381.982 285.499 400.732 285.412L400.715 281.412ZM353.945 270.428L355.942 266.961C343.646 259.881 333.569 250.232 325.687 237.961L322.321 240.124L318.955 242.287C327.511 255.607 338.516 266.161 351.947 273.895L353.945 270.428ZM322.321 240.124L325.709 237.997C317.864 225.494 312.071 211.299 308.362 195.372L304.466 196.281L300.571 197.19C304.461 213.895 310.572 228.928 318.932 242.251L322.321 240.124ZM304.466 196.281L308.363 195.378C304.636 179.261 302.788 162.426 302.831 144.864L298.831 144.857L294.831 144.849C294.787 162.988 296.696 180.436 300.569 197.184L304.466 196.281ZM298.831 144.857L302.831 144.891C303.069 119.096 307.733 96.9264 316.683 78.2685L313.077 76.54L309.47 74.8116C299.911 94.7397 295.078 118.114 294.831 144.822L298.831 144.857ZM313.077 76.54L316.679 78.2775C325.784 59.4161 337.885 45.0078 352.925 34.8836L350.693 31.5657L348.461 28.2477C332.088 39.2689 319.11 54.8436 309.475 74.8026L313.077 76.54ZM350.693 31.5657L352.925 34.8836C367.949 24.7709 384.883 19.6575 403.844 19.5698L403.828 15.5698L403.812 11.5699C383.34 11.6645 364.851 17.2149 348.461 28.2477L350.693 31.5657ZM403.828 15.5698L403.844 19.5698C421.781 19.4869 436.667 22.8238 448.681 29.3668L450.595 25.8537L452.51 22.3406C439.034 15.0013 422.741 11.4824 403.812 11.5699L403.828 15.5698ZM450.595 25.8537L448.719 29.3874C460.987 35.8964 470.84 44.894 478.333 56.4171L481.687 54.2353L485.041 52.0534C476.801 39.3823 465.927 29.4589 452.472 22.32L450.595 25.8537ZM481.687 54.2353L478.348 56.4397C486.034 68.0867 491.634 81.6004 495.106 97.0353L499.008 96.1556L502.911 95.2759C499.253 79.0102 493.305 64.577 485.026 52.0308L481.687 54.2353ZM499.008 96.1556L495.107 97.0414C498.599 112.455 500.332 128.887 500.289 146.349L504.289 146.357L508.289 146.365C508.334 128.36 506.547 111.324 502.91 95.2699L499.008 96.1556ZM504.289 146.357L500.289 146.341C500.168 172.98 495.729 196.063 487.093 215.685L490.754 217.295L494.415 218.905C503.58 198.078 508.164 173.869 508.289 146.373L504.289 146.357ZM490.754 217.295L487.088 215.695C478.549 235.241 466.783 250.327 451.853 261.124L454.196 264.365L456.539 267.605C472.783 255.858 485.389 239.564 494.419 218.895L490.754 217.295ZM454.196 264.365L451.853 261.124C436.974 271.884 419.968 277.323 400.699 277.412L400.715 281.412L400.732 285.412C421.595 285.316 440.243 279.39 456.539 267.605L454.196 264.365ZM401.948 240.456L401.933 244.456C410.156 244.482 417.552 242.446 423.976 238.242C430.376 234.055 435.588 227.864 439.708 219.911L436.156 218.073L432.605 216.234C428.97 223.251 424.602 228.275 419.599 231.549C414.62 234.806 408.79 236.477 401.962 236.456L401.948 240.456ZM436.156 218.073L439.697 219.933C448.036 204.074 451.901 180.03 451.771 148.35L447.772 148.368L443.772 148.387C443.9 179.705 440.021 202.131 432.616 216.212L436.156 218.073ZM447.772 148.368L451.771 148.35C451.694 129.465 449.976 112.932 446.561 98.7996L442.673 99.7411L438.784 100.683C442.015 114.054 443.696 129.939 443.772 148.387L447.772 148.368ZM442.673 99.7411L446.561 98.7996C443.14 84.6424 437.847 73.3101 430.465 65.109L427.492 67.786L424.518 70.4629C430.732 77.3659 435.56 87.337 438.784 100.683L442.673 99.7411ZM427.492 67.786L430.465 65.109C422.897 56.7003 413.272 52.4766 401.879 52.5292L401.896 56.5292L401.912 60.5292C411.052 60.4869 418.492 63.7677 424.518 70.4629L427.492 67.786ZM401.896 56.5292L401.879 52.5292C385.209 52.6063 372.437 60.8402 363.831 76.4604L367.335 78.3892L370.838 80.318C378.214 66.9307 388.483 60.5913 401.912 60.5292L401.896 56.5292ZM367.335 78.3892L363.82 76.4821C355.468 91.8652 351.581 114.271 351.7 143.212L355.7 143.194L359.7 143.175C359.583 114.717 363.453 93.9197 370.85 80.2963L367.335 78.3892ZM355.7 143.194L351.7 143.212C351.776 161.99 353.498 178.905 356.902 193.931L360.803 193.046L364.705 192.16C361.455 177.816 359.774 161.498 359.7 143.175L355.7 143.194ZM360.803 193.046L356.911 193.968C360.442 208.908 365.763 221.039 373.048 230.128L376.17 227.625L379.292 225.122C372.974 217.24 368.051 206.318 364.696 192.124L360.803 193.046ZM376.17 227.625L373.048 230.128C380.561 239.501 390.267 244.379 401.919 244.456L401.948 240.456L401.976 236.456C392.861 236.396 385.381 232.72 379.292 225.122L376.17 227.625ZM546.923 274.611L542.923 274.669L542.966 277.745L545.951 278.492L546.923 274.611ZM546.428 239.263L547.228 235.343L542.359 234.352L542.429 239.321L546.428 239.263ZM563.941 242.332L563.349 246.288L563.386 246.294L563.424 246.299L563.941 242.332ZM618.173 237.881L616.893 234.092L618.173 237.881ZM643.485 222.364L646.451 225.046L646.463 225.033L646.474 225.02L643.485 222.364ZM647.686 179.819L644.174 181.736L644.182 181.751L644.191 181.766L647.686 179.819ZM603.69 162.522L603.439 158.53L603.103 158.552L602.775 158.629L603.69 162.522ZM583.235 167.342L579.345 168.278L580.275 172.148L584.15 171.235L583.235 167.342ZM575.045 133.254L574.308 129.323L570.173 130.101L571.156 134.191L575.045 133.254ZM594.976 128.437L596.128 132.267L596.16 132.257L596.192 132.247L594.976 128.437ZM611.573 121.71L609.823 118.115L609.779 118.136L609.735 118.159L611.573 121.71ZM632.856 105.337L629.667 102.924L629.661 102.933L632.856 105.337ZM640.47 84.3015L636.474 84.1319L636.473 84.1644L636.472 84.1969L640.47 84.3015ZM575.275 61.1527L576.915 64.8004L576.926 64.7952L576.938 64.7899L575.275 61.1527ZM553.625 73.3279L550.074 75.1711L552.202 79.2736L555.957 76.5763L553.625 73.3279ZM536.691 40.6808L533.944 37.7754L531.752 39.8479L533.14 42.5241L536.691 40.6808ZM554.494 29.2234L552.691 25.654L552.691 25.654L554.494 29.2234ZM582.627 18.7682L583.663 22.6312L583.683 22.6259L583.702 22.6204L582.627 18.7682ZM684.573 41.9222L681.333 44.27L681.35 44.2936L681.367 44.3169L684.573 41.9222ZM687.458 105.609L690.977 107.509L690.983 107.499L690.988 107.49L687.458 105.609ZM667.603 128.977L670.072 132.123L667.603 128.977ZM639.495 145.207L635.495 145.225L635.519 151.158L641.01 148.908L639.495 145.207ZM639.472 139.607L639.514 135.607L635.455 135.566L635.472 139.625L639.472 139.607ZM678.71 148.875L676.672 152.318L676.695 152.332L676.718 152.345L678.71 148.875ZM701.554 171.87L698.011 173.728L698.015 173.737L698.02 173.746L701.554 171.87ZM694.836 240.852L691.685 238.39L691.682 238.394L694.836 240.852ZM654.705 270.088L653.133 266.411L653.124 266.414L654.705 270.088ZM567.591 279.065L568.393 275.146L568.365 275.141L568.337 275.135L567.591 279.065ZM546.923 274.611L550.923 274.553L550.428 239.205L546.428 239.263L542.429 239.321L542.923 274.669L546.923 274.611ZM546.428 239.263L545.629 243.183C551.307 244.338 557.214 245.373 563.349 246.288L563.941 242.332L564.533 238.376C558.527 237.48 552.759 236.469 547.228 235.343L546.428 239.263ZM563.941 242.332L563.424 246.299C569.638 247.106 575.42 247.504 580.762 247.479L580.746 243.479L580.73 239.479C575.805 239.502 570.384 239.135 564.458 238.365L563.941 242.332ZM580.746 243.479L580.762 247.479C595.212 247.412 608.129 245.503 619.454 241.67L618.173 237.881L616.893 234.092C606.548 237.593 594.513 239.416 580.73 239.479L580.746 243.479ZM618.173 237.881L619.454 241.67C630.764 237.842 639.846 232.35 646.451 225.046L643.485 222.364L640.519 219.682C635.046 225.734 627.253 230.586 616.893 234.092L618.173 237.881ZM643.485 222.364L646.474 225.02C653.16 217.498 656.529 208.66 656.488 198.679L652.488 198.697L648.488 198.716C648.521 206.701 645.888 213.64 640.496 219.708L643.485 222.364ZM652.488 198.697L656.488 198.679C656.458 191.158 654.701 184.197 651.182 177.873L647.686 179.819L644.191 181.766C647.018 186.846 648.463 192.469 648.488 198.716L652.488 198.697ZM647.686 179.819L651.198 177.902C647.537 171.19 641.656 166.122 633.884 162.597L632.231 166.24L630.577 169.883C637.064 172.826 641.488 176.81 644.174 181.736L647.686 179.819ZM632.231 166.24L633.884 162.597C625.926 158.988 615.678 157.754 603.439 158.53L603.69 162.522L603.941 166.514C615.497 165.781 624.275 167.025 630.577 169.883L632.231 166.24ZM603.69 162.522L602.775 158.629L582.319 163.449L583.235 167.342L584.15 171.235L604.605 166.416L603.69 162.522ZM583.235 167.342L587.124 166.406L578.934 132.318L575.045 133.254L571.156 134.191L579.345 168.278L583.235 167.342ZM575.045 133.254L575.782 137.186C582.906 135.846 589.688 134.207 596.128 132.267L594.976 128.437L593.824 124.607C587.678 126.459 581.174 128.032 574.308 129.323L575.045 133.254ZM594.976 128.437L596.192 132.247C602.652 130.181 608.399 127.858 613.411 125.262L611.573 121.71L609.735 118.159C605.2 120.507 599.883 122.669 593.759 124.627L594.976 128.437ZM611.573 121.71L613.323 125.306C623.146 120.522 630.81 114.707 636.052 107.741L632.856 105.337L629.661 102.933C625.388 108.611 618.863 113.711 609.823 118.115L611.573 121.71ZM632.856 105.337L636.045 107.75C641.389 100.69 644.243 92.8804 644.469 84.406L640.47 84.3015L636.472 84.1969C636.293 90.8913 634.071 97.1056 629.667 102.924L632.856 105.337ZM640.47 84.3015L644.467 84.471C644.936 73.5579 641.522 64.7798 633.63 59.0554L631.28 62.2938L628.931 65.5321C634.144 69.3138 636.858 75.2076 636.474 84.1319L640.47 84.3015ZM631.28 62.2938L633.63 59.0554C626.217 53.6787 616.852 51.1853 605.86 51.2362L605.876 55.2361L605.893 59.2361C615.667 59.1909 623.238 61.4027 628.931 65.5321L631.28 62.2938ZM605.876 55.2361L605.86 51.2362C593.542 51.2931 582.751 53.3344 573.613 57.5154L575.275 61.1527L576.938 64.7899C584.801 61.1923 594.411 59.2892 605.893 59.2361L605.876 55.2361ZM575.275 61.1527L573.636 57.505C565.062 61.3623 557.602 65.5477 551.293 70.0795L553.625 73.3279L555.957 76.5763C561.746 72.4188 568.72 68.4873 576.915 64.8004L575.275 61.1527ZM553.625 73.3279L557.176 71.4846L540.242 38.8376L536.691 40.6808L533.14 42.5241L550.074 75.1711L553.625 73.3279ZM536.691 40.6808L539.439 43.5863C542.739 40.4654 548.268 36.8532 556.298 32.7928L554.494 29.2234L552.691 25.654C544.421 29.8357 538.082 33.8618 533.944 37.7754L536.691 40.6808ZM554.494 29.2234L556.298 32.7928C564.159 28.8176 573.272 25.4228 583.663 22.6312L582.627 18.7682L581.591 14.9052C570.772 17.8117 561.129 21.3871 552.691 25.654L554.494 29.2234ZM582.627 18.7682L583.702 22.6204C593.964 19.7507 604.393 18.2926 615 18.2435L614.984 14.2436L614.967 10.2436C603.641 10.296 592.5 11.8543 581.552 14.9161L582.627 18.7682ZM614.984 14.2436L615 18.2435C630.594 18.1714 644.018 20.4437 655.361 24.9434L656.838 21.2251L658.314 17.5069C645.819 12.55 631.34 10.1679 614.967 10.2436L614.984 14.2436ZM656.838 21.2251L655.361 24.9434C666.679 29.4332 675.27 35.9006 681.333 44.27L684.573 41.9222L687.812 39.5743C680.734 29.8043 670.835 22.4737 658.314 17.5069L656.838 21.2251ZM684.573 41.9222L681.367 44.3169C687.463 52.478 690.632 62.5602 690.682 74.7942L694.682 74.7758L698.682 74.7573C698.626 61.0916 695.055 49.2713 687.778 39.5274L684.573 41.9222ZM694.682 74.7758L690.682 74.7942C690.726 85.6372 688.448 95.2513 683.928 103.729L687.458 105.609L690.988 107.49C696.194 97.7226 698.731 86.7808 698.682 74.7573L694.682 74.7758ZM687.458 105.609L683.939 103.71C679.347 112.214 673.094 119.584 665.135 125.83L667.603 128.977L670.072 132.123C678.86 125.225 685.843 117.017 690.977 107.509L687.458 105.609ZM667.603 128.977L665.135 125.83C657.067 132.163 648.022 137.39 637.979 141.505L639.495 145.207L641.01 148.908C651.7 144.527 661.393 138.935 670.072 132.123L667.603 128.977ZM639.495 145.207L643.494 145.188L643.472 139.588L639.472 139.607L635.472 139.625L635.495 145.225L639.495 145.207ZM639.472 139.607L639.43 143.606C654.949 143.761 667.278 146.761 676.672 152.318L678.71 148.875L680.748 145.432C669.792 138.951 655.963 135.771 639.514 135.607L639.472 139.607ZM678.71 148.875L676.718 152.345C686.427 157.914 693.465 165.05 698.011 173.728L701.554 171.87L705.098 170.012C699.766 159.835 691.574 151.642 680.701 145.405L678.71 148.875ZM701.554 171.87L698.02 173.746C702.66 182.493 704.985 191.704 705.025 201.429L709.025 201.411L713.025 201.392C712.98 190.351 710.325 179.868 705.088 169.994L701.554 171.87ZM709.025 201.411L705.025 201.429C705.079 214.561 700.704 226.849 691.685 238.39L694.836 240.852L697.987 243.314C708.002 230.499 713.087 216.494 713.025 201.392L709.025 201.411ZM694.836 240.852L691.682 238.394C682.784 249.809 670.008 259.185 653.133 266.411L654.705 270.088L656.278 273.765C674.109 266.13 688.087 256.015 697.99 243.31L694.836 240.852ZM654.705 270.088L653.124 266.414C636.489 273.585 616.701 277.288 593.66 277.395L593.676 281.395L593.692 285.395C617.551 285.285 638.449 281.45 656.287 273.761L654.705 270.088ZM593.676 281.395L593.66 277.395C584.316 277.438 575.901 276.679 568.393 275.146L567.591 279.065L566.789 282.985C574.928 284.646 583.903 285.44 593.692 285.395L593.676 281.395ZM567.591 279.065L568.337 275.135C560.569 273.665 553.758 272.196 547.895 270.73L546.923 274.611L545.951 278.492C552 280.004 558.968 281.505 566.845 282.996L567.591 279.065Z" fill="#795CF5" mask="url(#path-1-outside-1_368_2691)"/>
<path d="M52.7824 232.708L40.0973 211.941C44.7238 202.12 49.1182 192.591 53.2804 183.355C57.4422 174.002 61.4882 164.883 65.4185 155.999C69.4651 146.996 73.3954 138.112 77.2096 129.344C81.0237 120.576 84.8379 111.808 88.652 103.041C92.4662 94.2729 96.3384 85.4466 100.269 76.5617C104.316 67.6763 108.42 58.5572 112.582 49.2045C116.744 39.8519 121.08 30.3234 125.59 20.6191L142.74 20.5399L178.521 40.3248C174.353 48.1608 170.417 55.5874 166.712 62.6046C163.124 69.6213 159.652 76.4624 156.296 83.1279C152.94 89.6769 149.641 96.2255 146.401 102.774C143.161 109.206 139.804 115.696 136.331 122.246C132.974 128.795 129.444 135.636 125.74 142.77C122.152 149.786 118.274 157.154 114.105 164.874L97.0729 193.653L255.271 192.922L255.43 231.772L52.7824 232.708ZM165.692 283.637L165.318 192.287L170.266 118.414L216.465 118.2L217.141 283.399L165.692 283.637ZM389.46 285.403C371.26 285.487 355.67 281.826 342.69 274.419C329.826 267.012 319.285 256.91 311.066 244.115C302.963 231.202 297.011 216.588 293.211 200.272C289.41 183.839 287.532 166.698 287.575 148.847C287.818 122.596 292.567 99.8236 301.821 80.5306C311.192 61.1204 323.73 46.129 339.437 35.5563C355.144 24.9837 372.856 19.6518 392.572 19.5607C411.005 19.4756 426.595 22.9036 439.34 29.8447C452.201 36.6687 462.565 46.1293 470.431 58.2264C478.414 70.323 484.188 84.2965 487.753 100.147C491.317 115.881 493.077 132.614 493.033 150.348C492.911 177.415 488.399 201.062 479.499 221.286C470.714 241.394 458.528 257.083 442.941 268.356C427.354 279.628 409.527 285.31 389.46 285.403ZM390.693 244.447C405.743 244.494 417.146 237.033 424.901 222.063C432.773 207.094 436.645 183.859 436.516 152.359C436.44 133.693 434.74 117.484 431.417 103.732C428.094 89.9807 423.034 79.3289 416.236 71.7769C409.439 64.2249 400.906 60.4726 390.64 60.5201C375.59 60.5896 364.07 67.8762 356.079 82.38C348.205 96.8832 344.327 118.485 344.444 147.184C344.52 165.734 346.221 182.352 349.548 197.036C352.991 211.604 358.113 223.13 364.915 231.616C371.716 240.101 380.309 244.378 390.693 244.447ZM535.668 278.602L535.173 243.254C540.778 244.395 546.616 245.418 552.686 246.323C558.756 247.112 564.358 247.494 569.491 247.471C583.607 247.406 596.083 245.54 606.918 241.873C617.753 238.206 626.191 233.034 632.23 226.356C638.269 219.561 641.27 211.672 641.233 202.689C641.205 195.806 639.604 189.513 636.431 183.811C633.257 177.992 628.105 173.466 620.975 170.232C613.845 166.998 604.332 165.759 592.435 166.514L571.979 171.333L563.79 137.246C570.784 135.93 577.428 134.325 583.72 132.429C590.012 130.416 595.544 128.174 600.318 125.702C609.749 121.108 616.843 115.651 621.601 109.329C626.475 102.889 629.013 95.8775 629.215 88.2932C629.641 78.3744 626.578 71.0385 620.025 66.2854C613.472 61.5323 605.004 59.1797 594.621 59.2277C582.721 59.2827 572.52 61.2548 564.02 65.1441C555.635 68.9162 548.418 72.9746 542.369 77.3193L525.435 44.6722C529.154 41.1549 535.089 37.3358 543.239 33.2148C551.389 29.0937 560.766 25.6087 571.371 22.7597C581.976 19.794 592.761 18.2858 603.728 18.2352C619.711 18.1613 633.662 20.4886 645.582 25.2169C657.501 29.9452 666.746 36.8442 673.317 45.914C680.003 54.8665 683.373 65.8177 683.426 78.7676C683.473 90.2009 681.065 100.479 676.202 109.601C671.339 118.607 664.721 126.396 656.348 132.968C647.975 139.54 638.605 144.95 628.239 149.198L628.216 143.598C644.2 143.758 657.28 146.847 667.454 152.867C677.745 158.77 685.36 166.435 690.299 175.862C695.237 185.173 697.727 195.019 697.77 205.403C697.827 219.519 693.098 232.666 683.581 244.844C674.18 256.904 660.803 266.649 643.45 274.079C626.214 281.509 605.871 285.278 582.421 285.386C572.854 285.431 564.16 284.654 556.336 283.057C548.514 281.576 541.624 280.092 535.668 278.602Z" fill="#1AD1B9"/>
</svg>
