<svg width="750" height="312" viewBox="0 0 750 312" fill="none" xmlns="http://www.w3.org/2000/svg">
<mask id="path-1-outside-1_368_2599" maskUnits="userSpaceOnUse" x="74.2915" y="9.22417" width="627.122" height="278.892" fill="black">
<rect fill="white" x="74.2915" y="9.22417" width="627.122" height="278.892"/>
<path d="M103.687 283.485C100.77 283.499 96.9196 283.342 92.1349 283.014C87.4669 282.685 83.3812 282.121 79.8779 281.32L79.7233 243.521C81.9404 243.627 84.0992 243.734 86.1997 243.841C88.4163 243.83 90.5163 243.821 92.4996 243.812C112.099 243.721 129.065 241.426 143.397 236.926C157.845 232.426 168.961 226.075 176.744 217.872C184.527 209.669 188.396 199.968 188.35 188.768C188.296 175.585 184.407 165.919 176.682 159.772C169.073 153.623 156.752 150.589 139.719 150.667C132.369 150.701 124.44 151.73 115.932 153.752C107.54 155.774 99.3246 158.204 91.2861 161.041L81.2883 155.488L91.0593 19.9909L234.908 19.3258L230.189 63.6231L130.265 64.0851L124.537 118.362C131.878 116.228 139.047 114.62 146.042 113.538C153.038 112.455 159.686 111.9 165.986 111.87C191.069 111.754 210.112 118.258 223.116 131.382C236.236 144.388 242.844 162.616 242.94 186.065C242.996 199.832 239.898 212.621 233.647 224.434C227.394 236.13 218.278 246.38 206.297 255.186C194.316 263.991 179.703 270.884 162.456 275.864C145.21 280.843 125.62 283.384 103.687 283.485ZM388.239 281.47C370.039 281.554 354.449 277.893 341.469 270.486C328.605 263.079 318.064 252.977 309.845 240.182C301.742 227.269 295.79 212.655 291.99 196.339C288.19 179.906 286.311 162.765 286.355 144.914C286.598 118.663 291.346 95.8907 300.601 76.5977C309.971 57.1875 322.51 42.1961 338.217 31.6233C353.924 21.0506 371.636 15.7187 391.352 15.6275C409.785 15.5423 425.374 18.9703 438.12 25.9114C450.981 32.7353 461.345 42.1959 469.211 54.293C477.194 66.3895 482.968 80.363 486.532 96.2133C490.097 111.947 491.857 128.681 491.813 146.414C491.69 173.482 487.178 197.128 478.278 217.353C469.493 237.46 457.307 253.15 441.72 264.422C426.133 275.694 408.306 281.377 388.239 281.47ZM389.472 240.514C404.522 240.561 415.925 233.1 423.681 218.13C431.553 203.16 435.424 179.925 435.296 148.426C435.219 129.759 433.52 113.55 430.197 99.7988C426.874 86.0474 421.813 75.3956 415.016 67.8436C408.218 60.2917 399.686 56.5394 389.42 56.5869C374.37 56.6565 362.849 63.9431 354.859 78.4469C346.985 92.9501 343.106 114.552 343.224 143.251C343.299 161.801 345.001 178.419 348.328 193.103C351.77 207.671 356.893 219.197 363.694 227.683C370.496 236.168 379.088 240.445 389.472 240.514ZM534.447 274.669L533.952 239.321C539.557 240.461 545.395 241.484 551.465 242.39C557.535 243.178 563.137 243.561 568.27 243.537C582.386 243.472 594.862 241.606 605.697 237.939C616.532 234.272 624.97 229.1 631.009 222.422C637.048 215.627 640.049 207.738 640.012 198.755C639.984 191.872 638.384 185.579 635.21 179.877C632.036 174.058 626.884 169.532 619.755 166.298C612.625 163.064 603.111 161.825 591.214 162.58L570.759 167.4L562.569 133.312C569.564 131.996 576.207 130.391 582.5 128.495C588.791 126.483 594.324 124.24 599.097 121.768C608.529 117.175 615.623 111.717 620.38 105.395C625.254 98.9553 627.792 91.9435 627.995 84.3592C628.421 74.4404 625.357 67.1045 618.804 62.3514C612.252 57.5983 603.784 55.2458 593.4 55.2938C581.501 55.3488 571.3 57.321 562.799 61.2103C554.415 64.9825 547.198 69.0409 541.149 73.3856L524.215 40.7385C527.934 37.2213 533.869 33.4021 542.019 29.2811C550.168 25.16 559.546 21.675 570.151 18.8259C580.756 15.8602 591.541 14.352 602.508 14.3013C618.491 14.2274 632.442 16.5545 644.362 21.2828C656.281 26.0111 665.526 32.9101 672.097 41.9798C678.783 50.9323 682.153 61.8835 682.206 74.8334C682.253 86.2667 679.845 96.5446 674.982 105.667C670.119 114.673 663.501 122.462 655.127 129.034C646.754 135.606 637.385 141.016 627.019 145.264L626.996 139.664C642.98 139.824 656.059 142.913 666.234 148.933C676.525 154.836 684.14 162.5 689.078 171.928C694.016 181.238 696.507 191.085 696.549 201.468C696.607 215.585 691.877 228.732 682.36 240.909C672.959 252.97 659.582 262.715 642.229 270.145C624.993 277.575 604.65 281.344 581.2 281.453C571.634 281.497 562.939 280.72 555.115 279.123C547.293 277.643 540.403 276.158 534.447 274.669Z"/>
</mask>
<path d="M92.1349 283.014L91.8521 287.004L91.8593 287.004L92.1349 283.014ZM79.8779 281.32L75.8779 281.339L75.8909 284.513L78.9849 285.22L79.8779 281.32ZM79.7233 243.521L79.9172 239.525L75.7061 239.323L75.7233 243.539L79.7233 243.521ZM86.1997 243.841L85.9941 247.836L86.105 247.841L86.216 247.841L86.1997 243.841ZM143.397 236.926L142.209 233.107L142.201 233.11L143.397 236.926ZM176.744 217.872L179.645 220.624L176.744 217.872ZM176.682 159.772L174.167 162.883L174.178 162.893L174.19 162.902L176.682 159.772ZM115.932 153.752L115.008 149.861L114.996 149.864L115.932 153.752ZM91.2861 161.041L89.3423 164.538L90.9166 165.413L92.6156 164.813L91.2861 161.041ZM81.2883 155.488L77.2987 155.202L77.1152 157.746L79.3445 158.984L81.2883 155.488ZM91.0593 19.9909L91.0429 15.9909L87.3363 16.0081L87.0697 19.7053L91.0593 19.9909ZM234.908 19.3258L238.885 19.7475L239.358 15.3052L234.891 15.3259L234.908 19.3258ZM230.189 63.6231L230.205 67.6231L233.787 67.6065L234.166 64.0447L230.189 63.6231ZM130.265 64.0851L130.249 60.0851L126.663 60.1017L126.287 63.6674L130.265 64.0851ZM124.537 118.362L120.559 117.944L119.934 123.865L125.651 122.203L124.537 118.362ZM146.042 113.538L145.433 109.585L145.433 109.585L146.042 113.538ZM223.116 131.382L220.274 134.198L220.286 134.21L220.299 134.223L223.116 131.382ZM233.647 224.434L237.174 226.318L237.178 226.311L237.182 226.303L233.647 224.434ZM206.297 255.186L203.929 251.963L206.297 255.186ZM162.456 275.864L163.564 279.706L162.456 275.864ZM103.687 283.485L103.671 279.485C100.893 279.498 97.1512 279.348 92.4105 279.023L92.1349 283.014L91.8593 287.004C96.688 287.335 100.648 287.499 103.703 287.485L103.687 283.485ZM92.1349 283.014L92.4178 279.024C87.8974 278.706 84.024 278.164 80.7709 277.421L79.8779 281.32L78.9849 285.22C82.7384 286.078 87.0363 286.665 91.8521 287.004L92.1349 283.014ZM79.8779 281.32L83.8778 281.302L83.7233 243.502L79.7233 243.521L75.7233 243.539L75.8779 281.339L79.8779 281.32ZM79.7233 243.521L79.5294 247.516C81.7429 247.622 83.8978 247.729 85.9941 247.836L86.1997 243.841L86.4052 239.846C84.3007 239.739 82.138 239.632 79.9172 239.525L79.7233 243.521ZM86.1997 243.841L86.216 247.841C86.2204 247.841 86.2247 247.841 86.229 247.841C86.2333 247.841 86.2377 247.841 86.242 247.841C86.2463 247.841 86.2507 247.841 86.255 247.841C86.2593 247.84 86.2636 247.84 86.268 247.84C86.2723 247.84 86.2766 247.84 86.2809 247.84C86.2853 247.84 86.2896 247.84 86.2939 247.84C86.2982 247.84 86.3026 247.84 86.3069 247.84C86.3112 247.84 86.3155 247.84 86.3198 247.84C86.3242 247.84 86.3285 247.84 86.3328 247.84C86.3371 247.84 86.3414 247.84 86.3458 247.84C86.3501 247.84 86.3544 247.84 86.3587 247.84C86.3631 247.84 86.3674 247.84 86.3717 247.84C86.376 247.84 86.3803 247.84 86.3846 247.84C86.389 247.84 86.3933 247.84 86.3976 247.84C86.4019 247.84 86.4062 247.84 86.4105 247.84C86.4149 247.84 86.4192 247.84 86.4235 247.84C86.4278 247.84 86.4321 247.84 86.4364 247.84C86.4408 247.84 86.4451 247.84 86.4494 247.84C86.4537 247.84 86.458 247.84 86.4623 247.84C86.4666 247.84 86.4709 247.84 86.4753 247.839C86.4796 247.839 86.4839 247.839 86.4882 247.839C86.4925 247.839 86.4968 247.839 86.5011 247.839C86.5054 247.839 86.5097 247.839 86.514 247.839C86.5184 247.839 86.5227 247.839 86.527 247.839C86.5313 247.839 86.5356 247.839 86.5399 247.839C86.5442 247.839 86.5485 247.839 86.5528 247.839C86.5571 247.839 86.5614 247.839 86.5657 247.839C86.57 247.839 86.5743 247.839 86.5786 247.839C86.5829 247.839 86.5873 247.839 86.5916 247.839C86.5959 247.839 86.6002 247.839 86.6045 247.839C86.6088 247.839 86.6131 247.839 86.6174 247.839C86.6217 247.839 86.626 247.839 86.6303 247.839C86.6346 247.839 86.6389 247.839 86.6432 247.839C86.6475 247.839 86.6518 247.839 86.6561 247.839C86.6604 247.839 86.6647 247.839 86.669 247.839C86.6733 247.839 86.6776 247.839 86.6819 247.839C86.6862 247.839 86.6905 247.839 86.6948 247.838C86.6991 247.838 86.7034 247.838 86.7076 247.838C86.7119 247.838 86.7162 247.838 86.7205 247.838C86.7248 247.838 86.7291 247.838 86.7334 247.838C86.7377 247.838 86.742 247.838 86.7463 247.838C86.7506 247.838 86.7549 247.838 86.7592 247.838C86.7635 247.838 86.7678 247.838 86.772 247.838C86.7763 247.838 86.7806 247.838 86.7849 247.838C86.7892 247.838 86.7935 247.838 86.7978 247.838C86.8021 247.838 86.8064 247.838 86.8107 247.838C86.8149 247.838 86.8192 247.838 86.8235 247.838C86.8278 247.838 86.8321 247.838 86.8364 247.838C86.8407 247.838 86.845 247.838 86.8492 247.838C86.8535 247.838 86.8578 247.838 86.8621 247.838C86.8664 247.838 86.8707 247.838 86.8749 247.838C86.8792 247.838 86.8835 247.838 86.8878 247.838C86.8921 247.838 86.8964 247.838 86.9006 247.838C86.9049 247.838 86.9092 247.837 86.9135 247.837C86.9178 247.837 86.9221 247.837 86.9263 247.837C86.9306 247.837 86.9349 247.837 86.9392 247.837C86.9435 247.837 86.9477 247.837 86.952 247.837C86.9563 247.837 86.9606 247.837 86.9648 247.837C86.9691 247.837 86.9734 247.837 86.9777 247.837C86.982 247.837 86.9862 247.837 86.9905 247.837C86.9948 247.837 86.9991 247.837 87.0033 247.837C87.0076 247.837 87.0119 247.837 87.0162 247.837C87.0204 247.837 87.0247 247.837 87.029 247.837C87.0333 247.837 87.0375 247.837 87.0418 247.837C87.0461 247.837 87.0503 247.837 87.0546 247.837C87.0589 247.837 87.0632 247.837 87.0674 247.837C87.0717 247.837 87.076 247.837 87.0802 247.837C87.0845 247.837 87.0888 247.837 87.093 247.837C87.0973 247.837 87.1016 247.837 87.1059 247.837C87.1101 247.837 87.1144 247.837 87.1187 247.837C87.1229 247.837 87.1272 247.836 87.1314 247.836C87.1357 247.836 87.14 247.836 87.1442 247.836C87.1485 247.836 87.1528 247.836 87.157 247.836C87.1613 247.836 87.1656 247.836 87.1698 247.836C87.1741 247.836 87.1784 247.836 87.1826 247.836C87.1869 247.836 87.1911 247.836 87.1954 247.836C87.1997 247.836 87.2039 247.836 87.2082 247.836C87.2125 247.836 87.2167 247.836 87.221 247.836C87.2252 247.836 87.2295 247.836 87.2338 247.836C87.238 247.836 87.2423 247.836 87.2465 247.836C87.2508 247.836 87.255 247.836 87.2593 247.836C87.2636 247.836 87.2678 247.836 87.2721 247.836C87.2763 247.836 87.2806 247.836 87.2848 247.836C87.2891 247.836 87.2933 247.836 87.2976 247.836C87.3019 247.836 87.3061 247.836 87.3104 247.836C87.3146 247.836 87.3189 247.836 87.3231 247.836C87.3274 247.836 87.3316 247.836 87.3359 247.836C87.3401 247.835 87.3444 247.835 87.3486 247.835C87.3529 247.835 87.3571 247.835 87.3614 247.835C87.3656 247.835 87.3699 247.835 87.3741 247.835C87.3784 247.835 87.3826 247.835 87.3869 247.835C87.3911 247.835 87.3954 247.835 87.3996 247.835C87.4039 247.835 87.4081 247.835 87.4124 247.835C87.4166 247.835 87.4209 247.835 87.4251 247.835C87.4294 247.835 87.4336 247.835 87.4378 247.835C87.4421 247.835 87.4463 247.835 87.4506 247.835C87.4548 247.835 87.4591 247.835 87.4633 247.835C87.4676 247.835 87.4718 247.835 87.476 247.835C87.4803 247.835 87.4845 247.835 87.4888 247.835C87.493 247.835 87.4972 247.835 87.5015 247.835C87.5057 247.835 87.51 247.835 87.5142 247.835C87.5184 247.835 87.5227 247.835 87.5269 247.835C87.5312 247.835 87.5354 247.835 87.5396 247.835C87.5439 247.835 87.5481 247.835 87.5523 247.835C87.5566 247.834 87.5608 247.834 87.5651 247.834C87.5693 247.834 87.5735 247.834 87.5778 247.834C87.582 247.834 87.5862 247.834 87.5905 247.834C87.5947 247.834 87.5989 247.834 87.6032 247.834C87.6074 247.834 87.6116 247.834 87.6159 247.834C87.6201 247.834 87.6243 247.834 87.6286 247.834C87.6328 247.834 87.637 247.834 87.6413 247.834C87.6455 247.834 87.6497 247.834 87.6539 247.834C87.6582 247.834 87.6624 247.834 87.6666 247.834C87.6709 247.834 87.6751 247.834 87.6793 247.834C87.6836 247.834 87.6878 247.834 87.692 247.834C87.6962 247.834 87.7005 247.834 87.7047 247.834C87.7089 247.834 87.7131 247.834 87.7174 247.834C87.7216 247.834 87.7258 247.834 87.73 247.834C87.7343 247.834 87.7385 247.834 87.7427 247.834C87.7469 247.834 87.7512 247.834 87.7554 247.834C87.7596 247.834 87.7638 247.834 87.768 247.834C87.7723 247.833 87.7765 247.833 87.7807 247.833C87.7849 247.833 87.7891 247.833 87.7934 247.833C87.7976 247.833 87.8018 247.833 87.806 247.833C87.8102 247.833 87.8145 247.833 87.8187 247.833C87.8229 247.833 87.8271 247.833 87.8313 247.833C87.8355 247.833 87.8398 247.833 87.844 247.833C87.8482 247.833 87.8524 247.833 87.8566 247.833C87.8608 247.833 87.8651 247.833 87.8693 247.833C87.8735 247.833 87.8777 247.833 87.8819 247.833C87.8861 247.833 87.8903 247.833 87.8946 247.833C87.8988 247.833 87.903 247.833 87.9072 247.833C87.9114 247.833 87.9156 247.833 87.9198 247.833C87.924 247.833 87.9283 247.833 87.9325 247.833C87.9367 247.833 87.9409 247.833 87.9451 247.833C87.9493 247.833 87.9535 247.833 87.9577 247.833C87.9619 247.833 87.9661 247.833 87.9703 247.833C87.9745 247.833 87.9788 247.833 87.983 247.833C87.9872 247.833 87.9914 247.832 87.9956 247.832C87.9998 247.832 88.004 247.832 88.0082 247.832C88.0124 247.832 88.0166 247.832 88.0208 247.832C88.025 247.832 88.0292 247.832 88.0334 247.832C88.0376 247.832 88.0418 247.832 88.046 247.832C88.0502 247.832 88.0544 247.832 88.0586 247.832C88.0628 247.832 88.067 247.832 88.0712 247.832C88.0754 247.832 88.0796 247.832 88.0838 247.832C88.088 247.832 88.0922 247.832 88.0964 247.832C88.1006 247.832 88.1048 247.832 88.109 247.832C88.1132 247.832 88.1174 247.832 88.1216 247.832C88.1258 247.832 88.13 247.832 88.1342 247.832C88.1384 247.832 88.1426 247.832 88.1468 247.832C88.151 247.832 88.1552 247.832 88.1594 247.832C88.1636 247.832 88.1678 247.832 88.172 247.832C88.1762 247.832 88.1803 247.832 88.1845 247.832C88.1887 247.832 88.1929 247.832 88.1971 247.832C88.2013 247.832 88.2055 247.831 88.2097 247.831C88.2139 247.831 88.2181 247.831 88.2222 247.831C88.2264 247.831 88.2306 247.831 88.2348 247.831C88.239 247.831 88.2432 247.831 88.2474 247.831C88.2516 247.831 88.2558 247.831 88.2599 247.831C88.2641 247.831 88.2683 247.831 88.2725 247.831C88.2767 247.831 88.2809 247.831 88.2851 247.831C88.2892 247.831 88.2934 247.831 88.2976 247.831C88.3018 247.831 88.306 247.831 88.3102 247.831C88.3144 247.831 88.3185 247.831 88.3227 247.831C88.3269 247.831 88.3311 247.831 88.3353 247.831C88.3394 247.831 88.3436 247.831 88.3478 247.831C88.352 247.831 88.3562 247.831 88.3603 247.831C88.3645 247.831 88.3687 247.831 88.3729 247.831C88.3771 247.831 88.3812 247.831 88.3854 247.831C88.3896 247.831 88.3938 247.831 88.398 247.831C88.4021 247.831 88.4063 247.831 88.4105 247.831C88.4147 247.831 88.4188 247.831 88.423 247.83C88.4272 247.83 88.4314 247.83 88.4355 247.83C88.4397 247.83 88.4439 247.83 88.4481 247.83C88.4522 247.83 88.4564 247.83 88.4606 247.83C88.4648 247.83 88.4689 247.83 88.4731 247.83C88.4773 247.83 88.4814 247.83 88.4856 247.83C88.4898 247.83 88.494 247.83 88.4981 247.83C88.5023 247.83 88.5065 247.83 88.5106 247.83C88.5148 247.83 88.519 247.83 88.5231 247.83C88.5273 247.83 88.5315 247.83 88.5356 247.83C88.5398 247.83 88.544 247.83 88.5481 247.83C88.5523 247.83 88.5565 247.83 88.5606 247.83C88.5648 247.83 88.569 247.83 88.5731 247.83C88.5773 247.83 88.5815 247.83 88.5856 247.83C88.5898 247.83 88.594 247.83 88.5981 247.83C88.6023 247.83 88.6064 247.83 88.6106 247.83C88.6148 247.83 88.6189 247.83 88.6231 247.83C88.6273 247.83 88.6314 247.83 88.6356 247.83C88.6397 247.829 88.6439 247.829 88.6481 247.829C88.6522 247.829 88.6564 247.829 88.6605 247.829C88.6647 247.829 88.6688 247.829 88.673 247.829C88.6772 247.829 88.6813 247.829 88.6855 247.829C88.6896 247.829 88.6938 247.829 88.6979 247.829C88.7021 247.829 88.7063 247.829 88.7104 247.829C88.7146 247.829 88.7187 247.829 88.7229 247.829C88.727 247.829 88.7312 247.829 88.7353 247.829C88.7395 247.829 88.7436 247.829 88.7478 247.829C88.7519 247.829 88.7561 247.829 88.7602 247.829C88.7644 247.829 88.7685 247.829 88.7727 247.829C88.7769 247.829 88.781 247.829 88.7851 247.829C88.7893 247.829 88.7934 247.829 88.7976 247.829C88.8017 247.829 88.8059 247.829 88.81 247.829C88.8142 247.829 88.8183 247.829 88.8225 247.829C88.8266 247.829 88.8308 247.829 88.8349 247.829C88.8391 247.829 88.8432 247.829 88.8474 247.829C88.8515 247.829 88.8556 247.828 88.8598 247.828C88.8639 247.828 88.8681 247.828 88.8722 247.828C88.8764 247.828 88.8805 247.828 88.8847 247.828C88.8888 247.828 88.8929 247.828 88.8971 247.828C88.9012 247.828 88.9054 247.828 88.9095 247.828C88.9136 247.828 88.9178 247.828 88.9219 247.828C88.9261 247.828 88.9302 247.828 88.9343 247.828C88.9385 247.828 88.9426 247.828 88.9468 247.828C88.9509 247.828 88.955 247.828 88.9592 247.828C88.9633 247.828 88.9674 247.828 88.9716 247.828C88.9757 247.828 88.9799 247.828 88.984 247.828C88.9881 247.828 88.9923 247.828 88.9964 247.828C89.0005 247.828 89.0047 247.828 89.0088 247.828C89.0129 247.828 89.0171 247.828 89.0212 247.828C89.0253 247.828 89.0295 247.828 89.0336 247.828C89.0377 247.828 89.0419 247.828 89.046 247.828C89.0501 247.828 89.0542 247.828 89.0584 247.828C89.0625 247.828 89.0666 247.828 89.0708 247.827C89.0749 247.827 89.079 247.827 89.0831 247.827C89.0873 247.827 89.0914 247.827 89.0955 247.827C89.0997 247.827 89.1038 247.827 89.1079 247.827C89.112 247.827 89.1162 247.827 89.1203 247.827C89.1244 247.827 89.1285 247.827 89.1327 247.827C89.1368 247.827 89.1409 247.827 89.145 247.827C89.1492 247.827 89.1533 247.827 89.1574 247.827C89.1615 247.827 89.1657 247.827 89.1698 247.827C89.1739 247.827 89.178 247.827 89.1821 247.827C89.1863 247.827 89.1904 247.827 89.1945 247.827C89.1986 247.827 89.2027 247.827 89.2069 247.827C89.211 247.827 89.2151 247.827 89.2192 247.827C89.2233 247.827 89.2275 247.827 89.2316 247.827C89.2357 247.827 89.2398 247.827 89.2439 247.827C89.248 247.827 89.2522 247.827 89.2563 247.827C89.2604 247.827 89.2645 247.827 89.2686 247.827C89.2727 247.827 89.2768 247.827 89.281 247.827C89.2851 247.827 89.2892 247.826 89.2933 247.826C89.2974 247.826 89.3015 247.826 89.3056 247.826C89.3098 247.826 89.3139 247.826 89.318 247.826C89.3221 247.826 89.3262 247.826 89.3303 247.826C89.3344 247.826 89.3385 247.826 89.3426 247.826C89.3467 247.826 89.3509 247.826 89.355 247.826C89.3591 247.826 89.3632 247.826 89.3673 247.826C89.3714 247.826 89.3755 247.826 89.3796 247.826C89.3837 247.826 89.3878 247.826 89.3919 247.826C89.396 247.826 89.4001 247.826 89.4043 247.826C89.4084 247.826 89.4125 247.826 89.4166 247.826C89.4207 247.826 89.4248 247.826 89.4289 247.826C89.433 247.826 89.4371 247.826 89.4412 247.826C89.4453 247.826 89.4494 247.826 89.4535 247.826C89.4576 247.826 89.4617 247.826 89.4658 247.826C89.4699 247.826 89.474 247.826 89.4781 247.826C89.4822 247.826 89.4863 247.826 89.4904 247.826C89.4945 247.826 89.4986 247.826 89.5027 247.825C89.5068 247.825 89.5109 247.825 89.515 247.825C89.5191 247.825 89.5232 247.825 89.5273 247.825C89.5314 247.825 89.5355 247.825 89.5396 247.825C89.5437 247.825 89.5477 247.825 89.5518 247.825C89.5559 247.825 89.56 247.825 89.5641 247.825C89.5682 247.825 89.5723 247.825 89.5764 247.825C89.5805 247.825 89.5846 247.825 89.5887 247.825C89.5928 247.825 89.5969 247.825 89.6009 247.825C89.605 247.825 89.6091 247.825 89.6132 247.825C89.6173 247.825 89.6214 247.825 89.6255 247.825C89.6296 247.825 89.6337 247.825 89.6378 247.825C89.6418 247.825 89.6459 247.825 89.65 247.825C89.6541 247.825 89.6582 247.825 89.6623 247.825C89.6664 247.825 89.6705 247.825 89.6745 247.825C89.6786 247.825 89.6827 247.825 89.6868 247.825C89.6909 247.825 89.695 247.825 89.699 247.825C89.7031 247.825 89.7072 247.825 89.7113 247.825C89.7154 247.825 89.7195 247.824 89.7235 247.824C89.7276 247.824 89.7317 247.824 89.7358 247.824C89.7399 247.824 89.7439 247.824 89.748 247.824C89.7521 247.824 89.7562 247.824 89.7603 247.824C89.7643 247.824 89.7684 247.824 89.7725 247.824C89.7766 247.824 89.7807 247.824 89.7847 247.824C89.7888 247.824 89.7929 247.824 89.797 247.824C89.801 247.824 89.8051 247.824 89.8092 247.824C89.8133 247.824 89.8173 247.824 89.8214 247.824C89.8255 247.824 89.8296 247.824 89.8337 247.824C89.8377 247.824 89.8418 247.824 89.8459 247.824C89.8499 247.824 89.854 247.824 89.8581 247.824C89.8622 247.824 89.8662 247.824 89.8703 247.824C89.8744 247.824 89.8784 247.824 89.8825 247.824C89.8866 247.824 89.8907 247.824 89.8947 247.824C89.8988 247.824 89.9029 247.824 89.9069 247.824C89.911 247.824 89.9151 247.824 89.9191 247.824C89.9232 247.824 89.9273 247.824 89.9313 247.824C89.9354 247.823 89.9395 247.823 89.9435 247.823C89.9476 247.823 89.9517 247.823 89.9557 247.823C89.9598 247.823 89.9639 247.823 89.9679 247.823C89.972 247.823 89.9761 247.823 89.9801 247.823C89.9842 247.823 89.9882 247.823 89.9923 247.823C89.9964 247.823 90.0004 247.823 90.0045 247.823C90.0086 247.823 90.0126 247.823 90.0167 247.823C90.0207 247.823 90.0248 247.823 90.0289 247.823C90.0329 247.823 90.037 247.823 90.041 247.823C90.0451 247.823 90.0491 247.823 90.0532 247.823C90.0573 247.823 90.0613 247.823 90.0654 247.823C90.0694 247.823 90.0735 247.823 90.0775 247.823C90.0816 247.823 90.0857 247.823 90.0897 247.823C90.0938 247.823 90.0978 247.823 90.1019 247.823C90.1059 247.823 90.11 247.823 90.114 247.823C90.1181 247.823 90.1221 247.823 90.1262 247.823C90.1303 247.823 90.1343 247.823 90.1384 247.823C90.1424 247.823 90.1465 247.823 90.1505 247.823C90.1546 247.822 90.1586 247.822 90.1627 247.822C90.1667 247.822 90.1708 247.822 90.1748 247.822C90.1789 247.822 90.1829 247.822 90.187 247.822C90.191 247.822 90.1951 247.822 90.1991 247.822C90.2031 247.822 90.2072 247.822 90.2112 247.822C90.2153 247.822 90.2193 247.822 90.2234 247.822C90.2274 247.822 90.2315 247.822 90.2355 247.822C90.2396 247.822 90.2436 247.822 90.2476 247.822C90.2517 247.822 90.2557 247.822 90.2598 247.822C90.2638 247.822 90.2679 247.822 90.2719 247.822C90.2759 247.822 90.28 247.822 90.284 247.822C90.2881 247.822 90.2921 247.822 90.2961 247.822C90.3002 247.822 90.3042 247.822 90.3083 247.822C90.3123 247.822 90.3163 247.822 90.3204 247.822C90.3244 247.822 90.3285 247.822 90.3325 247.822C90.3365 247.822 90.3406 247.822 90.3446 247.822C90.3486 247.822 90.3527 247.822 90.3567 247.822C90.3608 247.822 90.3648 247.822 90.3688 247.821C90.3729 247.821 90.3769 247.821 90.3809 247.821C90.385 247.821 90.389 247.821 90.393 247.821C90.3971 247.821 90.4011 247.821 90.4051 247.821C90.4092 247.821 90.4132 247.821 90.4172 247.821C90.4212 247.821 90.4253 247.821 90.4293 247.821C90.4333 247.821 90.4374 247.821 90.4414 247.821C90.4454 247.821 90.4495 247.821 90.4535 247.821C90.4575 247.821 90.4615 247.821 90.4656 247.821C90.4696 247.821 90.4736 247.821 90.4776 247.821C90.4817 247.821 90.4857 247.821 90.4897 247.821C90.4938 247.821 90.4978 247.821 90.5018 247.821C90.5058 247.821 90.5099 247.821 90.5139 247.821C90.5179 247.821 90.5219 247.821 90.526 247.821C90.53 247.821 90.534 247.821 90.538 247.821C90.542 247.821 90.5461 247.821 90.5501 247.821C90.5541 247.821 90.5581 247.821 90.5621 247.821C90.5662 247.821 90.5702 247.821 90.5742 247.821C90.5782 247.821 90.5822 247.821 90.5863 247.82C90.5903 247.82 90.5943 247.82 90.5983 247.82C90.6023 247.82 90.6064 247.82 90.6104 247.82C90.6144 247.82 90.6184 247.82 90.6224 247.82C90.6264 247.82 90.6305 247.82 90.6345 247.82C90.6385 247.82 90.6425 247.82 90.6465 247.82C90.6505 247.82 90.6545 247.82 90.6586 247.82C90.6626 247.82 90.6666 247.82 90.6706 247.82C90.6746 247.82 90.6786 247.82 90.6826 247.82C90.6866 247.82 90.6907 247.82 90.6947 247.82C90.6987 247.82 90.7027 247.82 90.7067 247.82C90.7107 247.82 90.7147 247.82 90.7187 247.82C90.7227 247.82 90.7267 247.82 90.7307 247.82C90.7348 247.82 90.7388 247.82 90.7428 247.82C90.7468 247.82 90.7508 247.82 90.7548 247.82C90.7588 247.82 90.7628 247.82 90.7668 247.82C90.7708 247.82 90.7748 247.82 90.7788 247.82C90.7828 247.82 90.7868 247.82 90.7908 247.82C90.7948 247.82 90.7988 247.82 90.8028 247.819C90.8068 247.819 90.8109 247.819 90.8148 247.819C90.8189 247.819 90.8229 247.819 90.8269 247.819C90.8309 247.819 90.8349 247.819 90.8389 247.819C90.8429 247.819 90.8469 247.819 90.8509 247.819C90.8549 247.819 90.8589 247.819 90.8629 247.819C90.8669 247.819 90.8708 247.819 90.8748 247.819C90.8788 247.819 90.8828 247.819 90.8868 247.819C90.8908 247.819 90.8948 247.819 90.8988 247.819C90.9028 247.819 90.9068 247.819 90.9108 247.819C90.9148 247.819 90.9188 247.819 90.9228 247.819C90.9268 247.819 90.9308 247.819 90.9348 247.819C90.9388 247.819 90.9428 247.819 90.9468 247.819C90.9507 247.819 90.9547 247.819 90.9587 247.819C90.9627 247.819 90.9667 247.819 90.9707 247.819C90.9747 247.819 90.9787 247.819 90.9827 247.819C90.9867 247.819 90.9906 247.819 90.9946 247.819C90.9986 247.819 91.0026 247.819 91.0066 247.819C91.0106 247.819 91.0146 247.819 91.0186 247.818C91.0225 247.818 91.0265 247.818 91.0305 247.818C91.0345 247.818 91.0385 247.818 91.0425 247.818C91.0465 247.818 91.0504 247.818 91.0544 247.818C91.0584 247.818 91.0624 247.818 91.0664 247.818C91.0704 247.818 91.0743 247.818 91.0783 247.818C91.0823 247.818 91.0863 247.818 91.0903 247.818C91.0943 247.818 91.0982 247.818 91.1022 247.818C91.1062 247.818 91.1102 247.818 91.1142 247.818C91.1181 247.818 91.1221 247.818 91.1261 247.818C91.1301 247.818 91.134 247.818 91.138 247.818C91.142 247.818 91.146 247.818 91.15 247.818C91.1539 247.818 91.1579 247.818 91.1619 247.818C91.1659 247.818 91.1698 247.818 91.1738 247.818C91.1778 247.818 91.1818 247.818 91.1857 247.818C91.1897 247.818 91.1937 247.818 91.1977 247.818C91.2016 247.818 91.2056 247.818 91.2096 247.818C91.2136 247.818 91.2175 247.818 91.2215 247.818C91.2255 247.818 91.2294 247.818 91.2334 247.817C91.2374 247.817 91.2414 247.817 91.2453 247.817C91.2493 247.817 91.2533 247.817 91.2572 247.817C91.2612 247.817 91.2652 247.817 91.2691 247.817C91.2731 247.817 91.2771 247.817 91.281 247.817C91.285 247.817 91.289 247.817 91.2929 247.817C91.2969 247.817 91.3009 247.817 91.3048 247.817C91.3088 247.817 91.3128 247.817 91.3167 247.817C91.3207 247.817 91.3247 247.817 91.3286 247.817C91.3326 247.817 91.3365 247.817 91.3405 247.817C91.3445 247.817 91.3484 247.817 91.3524 247.817C91.3564 247.817 91.3603 247.817 91.3643 247.817C91.3682 247.817 91.3722 247.817 91.3762 247.817C91.3801 247.817 91.3841 247.817 91.388 247.817C91.392 247.817 91.396 247.817 91.3999 247.817C91.4039 247.817 91.4078 247.817 91.4118 247.817C91.4157 247.817 91.4197 247.817 91.4237 247.817C91.4276 247.817 91.4316 247.817 91.4355 247.817C91.4395 247.817 91.4434 247.817 91.4474 247.817C91.4513 247.816 91.4553 247.816 91.4593 247.816C91.4632 247.816 91.4672 247.816 91.4711 247.816C91.4751 247.816 91.479 247.816 91.483 247.816C91.4869 247.816 91.4909 247.816 91.4948 247.816C91.4988 247.816 91.5027 247.816 91.5067 247.816C91.5106 247.816 91.5146 247.816 91.5185 247.816C91.5225 247.816 91.5264 247.816 91.5304 247.816C91.5343 247.816 91.5383 247.816 91.5422 247.816C91.5462 247.816 91.5501 247.816 91.5541 247.816C91.558 247.816 91.562 247.816 91.5659 247.816C91.5698 247.816 91.5738 247.816 91.5777 247.816C91.5817 247.816 91.5856 247.816 91.5896 247.816C91.5935 247.816 91.5975 247.816 91.6014 247.816C91.6053 247.816 91.6093 247.816 91.6132 247.816C91.6172 247.816 91.6211 247.816 91.6251 247.816C91.629 247.816 91.6329 247.816 91.6369 247.816C91.6408 247.816 91.6448 247.816 91.6487 247.816C91.6526 247.816 91.6566 247.816 91.6605 247.816C91.6645 247.816 91.6684 247.815 91.6723 247.815C91.6763 247.815 91.6802 247.815 91.6841 247.815C91.6881 247.815 91.692 247.815 91.6959 247.815C91.6999 247.815 91.7038 247.815 91.7078 247.815C91.7117 247.815 91.7156 247.815 91.7196 247.815C91.7235 247.815 91.7274 247.815 91.7314 247.815C91.7353 247.815 91.7392 247.815 91.7432 247.815C91.7471 247.815 91.751 247.815 91.7549 247.815C91.7589 247.815 91.7628 247.815 91.7667 247.815C91.7707 247.815 91.7746 247.815 91.7785 247.815C91.7825 247.815 91.7864 247.815 91.7903 247.815C91.7943 247.815 91.7982 247.815 91.8021 247.815C91.806 247.815 91.81 247.815 91.8139 247.815C91.8178 247.815 91.8217 247.815 91.8257 247.815C91.8296 247.815 91.8335 247.815 91.8375 247.815C91.8414 247.815 91.8453 247.815 91.8492 247.815C91.8531 247.815 91.8571 247.815 91.861 247.815C91.8649 247.815 91.8688 247.815 91.8728 247.815C91.8767 247.815 91.8806 247.815 91.8845 247.814C91.8885 247.814 91.8924 247.814 91.8963 247.814C91.9002 247.814 91.9041 247.814 91.9081 247.814C91.912 247.814 91.9159 247.814 91.9198 247.814C91.9237 247.814 91.9277 247.814 91.9316 247.814C91.9355 247.814 91.9394 247.814 91.9433 247.814C91.9472 247.814 91.9512 247.814 91.9551 247.814C91.959 247.814 91.9629 247.814 91.9668 247.814C91.9707 247.814 91.9747 247.814 91.9786 247.814C91.9825 247.814 91.9864 247.814 91.9903 247.814C91.9942 247.814 91.9981 247.814 92.002 247.814C92.006 247.814 92.0099 247.814 92.0138 247.814C92.0177 247.814 92.0216 247.814 92.0255 247.814C92.0294 247.814 92.0333 247.814 92.0372 247.814C92.0412 247.814 92.0451 247.814 92.049 247.814C92.0529 247.814 92.0568 247.814 92.0607 247.814C92.0646 247.814 92.0685 247.814 92.0724 247.814C92.0763 247.814 92.0802 247.814 92.0842 247.814C92.0881 247.814 92.092 247.814 92.0959 247.814C92.0998 247.813 92.1037 247.813 92.1076 247.813C92.1115 247.813 92.1154 247.813 92.1193 247.813C92.1232 247.813 92.1271 247.813 92.131 247.813C92.1349 247.813 92.1388 247.813 92.1427 247.813C92.1466 247.813 92.1505 247.813 92.1544 247.813C92.1583 247.813 92.1622 247.813 92.1661 247.813C92.17 247.813 92.1739 247.813 92.1778 247.813C92.1817 247.813 92.1856 247.813 92.1895 247.813C92.1934 247.813 92.1973 247.813 92.2012 247.813C92.2051 247.813 92.209 247.813 92.2129 247.813C92.2168 247.813 92.2207 247.813 92.2246 247.813C92.2285 247.813 92.2324 247.813 92.2363 247.813C92.2402 247.813 92.2441 247.813 92.248 247.813C92.2519 247.813 92.2558 247.813 92.2597 247.813C92.2635 247.813 92.2674 247.813 92.2713 247.813C92.2752 247.813 92.2791 247.813 92.283 247.813C92.2869 247.813 92.2908 247.813 92.2947 247.813C92.2986 247.813 92.3025 247.813 92.3063 247.813C92.3102 247.813 92.3141 247.813 92.318 247.812C92.3219 247.812 92.3258 247.812 92.3297 247.812C92.3336 247.812 92.3375 247.812 92.3413 247.812C92.3452 247.812 92.3491 247.812 92.353 247.812C92.3569 247.812 92.3608 247.812 92.3647 247.812C92.3685 247.812 92.3724 247.812 92.3763 247.812C92.3802 247.812 92.3841 247.812 92.388 247.812C92.3918 247.812 92.3957 247.812 92.3996 247.812C92.4035 247.812 92.4074 247.812 92.4113 247.812C92.4151 247.812 92.419 247.812 92.4229 247.812C92.4268 247.812 92.4307 247.812 92.4345 247.812C92.4384 247.812 92.4423 247.812 92.4462 247.812C92.4501 247.812 92.4539 247.812 92.4578 247.812C92.4617 247.812 92.4656 247.812 92.4694 247.812C92.4733 247.812 92.4772 247.812 92.4811 247.812C92.485 247.812 92.4888 247.812 92.4927 247.812C92.4966 247.812 92.5005 247.812 92.5043 247.812C92.5082 247.812 92.5121 247.812 92.516 247.812L92.4996 243.812L92.4832 239.812C92.4794 239.812 92.4755 239.812 92.4716 239.812C92.4677 239.812 92.4639 239.812 92.46 239.812C92.4561 239.812 92.4522 239.812 92.4484 239.812C92.4445 239.812 92.4406 239.812 92.4367 239.812C92.4329 239.812 92.429 239.812 92.4251 239.812C92.4212 239.812 92.4173 239.812 92.4135 239.812C92.4096 239.812 92.4057 239.812 92.4018 239.812C92.3979 239.812 92.3941 239.812 92.3902 239.812C92.3863 239.812 92.3824 239.812 92.3785 239.812C92.3747 239.812 92.3708 239.812 92.3669 239.812C92.363 239.812 92.3591 239.812 92.3552 239.812C92.3514 239.812 92.3475 239.812 92.3436 239.812C92.3397 239.812 92.3358 239.812 92.3319 239.812C92.3281 239.812 92.3242 239.812 92.3203 239.812C92.3164 239.812 92.3125 239.812 92.3086 239.812C92.3047 239.812 92.3008 239.812 92.297 239.812C92.2931 239.813 92.2892 239.813 92.2853 239.813C92.2814 239.813 92.2775 239.813 92.2736 239.813C92.2697 239.813 92.2659 239.813 92.262 239.813C92.2581 239.813 92.2542 239.813 92.2503 239.813C92.2464 239.813 92.2425 239.813 92.2386 239.813C92.2347 239.813 92.2308 239.813 92.2269 239.813C92.223 239.813 92.2191 239.813 92.2153 239.813C92.2114 239.813 92.2075 239.813 92.2036 239.813C92.1997 239.813 92.1958 239.813 92.1919 239.813C92.188 239.813 92.1841 239.813 92.1802 239.813C92.1763 239.813 92.1724 239.813 92.1685 239.813C92.1646 239.813 92.1607 239.813 92.1568 239.813C92.1529 239.813 92.149 239.813 92.1451 239.813C92.1412 239.813 92.1373 239.813 92.1334 239.813C92.1295 239.813 92.1256 239.813 92.1217 239.813C92.1178 239.813 92.1139 239.813 92.11 239.813C92.1061 239.813 92.1022 239.813 92.0983 239.813C92.0944 239.813 92.0905 239.813 92.0866 239.813C92.0827 239.813 92.0788 239.814 92.0749 239.814C92.071 239.814 92.0671 239.814 92.0632 239.814C92.0593 239.814 92.0553 239.814 92.0514 239.814C92.0475 239.814 92.0436 239.814 92.0397 239.814C92.0358 239.814 92.0319 239.814 92.028 239.814C92.0241 239.814 92.0202 239.814 92.0163 239.814C92.0124 239.814 92.0084 239.814 92.0045 239.814C92.0006 239.814 91.9967 239.814 91.9928 239.814C91.9889 239.814 91.985 239.814 91.9811 239.814C91.9772 239.814 91.9732 239.814 91.9693 239.814C91.9654 239.814 91.9615 239.814 91.9576 239.814C91.9537 239.814 91.9498 239.814 91.9458 239.814C91.9419 239.814 91.938 239.814 91.9341 239.814C91.9302 239.814 91.9263 239.814 91.9224 239.814C91.9184 239.814 91.9145 239.814 91.9106 239.814C91.9067 239.814 91.9028 239.814 91.8989 239.814C91.8949 239.814 91.891 239.814 91.8871 239.814C91.8832 239.814 91.8793 239.814 91.8753 239.814C91.8714 239.814 91.8675 239.814 91.8636 239.814C91.8597 239.815 91.8557 239.815 91.8518 239.815C91.8479 239.815 91.844 239.815 91.84 239.815C91.8361 239.815 91.8322 239.815 91.8283 239.815C91.8244 239.815 91.8204 239.815 91.8165 239.815C91.8126 239.815 91.8087 239.815 91.8047 239.815C91.8008 239.815 91.7969 239.815 91.793 239.815C91.789 239.815 91.7851 239.815 91.7812 239.815C91.7772 239.815 91.7733 239.815 91.7694 239.815C91.7655 239.815 91.7615 239.815 91.7576 239.815C91.7537 239.815 91.7498 239.815 91.7458 239.815C91.7419 239.815 91.738 239.815 91.734 239.815C91.7301 239.815 91.7262 239.815 91.7222 239.815C91.7183 239.815 91.7144 239.815 91.7104 239.815C91.7065 239.815 91.7026 239.815 91.6986 239.815C91.6947 239.815 91.6908 239.815 91.6868 239.815C91.6829 239.815 91.679 239.815 91.675 239.815C91.6711 239.815 91.6672 239.815 91.6632 239.815C91.6593 239.815 91.6554 239.815 91.6514 239.815C91.6475 239.815 91.6435 239.816 91.6396 239.816C91.6357 239.816 91.6317 239.816 91.6278 239.816C91.6239 239.816 91.6199 239.816 91.616 239.816C91.612 239.816 91.6081 239.816 91.6042 239.816C91.6002 239.816 91.5963 239.816 91.5923 239.816C91.5884 239.816 91.5845 239.816 91.5805 239.816C91.5766 239.816 91.5726 239.816 91.5687 239.816C91.5647 239.816 91.5608 239.816 91.5569 239.816C91.5529 239.816 91.549 239.816 91.545 239.816C91.5411 239.816 91.5371 239.816 91.5332 239.816C91.5292 239.816 91.5253 239.816 91.5213 239.816C91.5174 239.816 91.5134 239.816 91.5095 239.816C91.5056 239.816 91.5016 239.816 91.4977 239.816C91.4937 239.816 91.4898 239.816 91.4858 239.816C91.4819 239.816 91.4779 239.816 91.474 239.816C91.47 239.816 91.4661 239.816 91.4621 239.816C91.4582 239.816 91.4542 239.816 91.4503 239.816C91.4463 239.816 91.4424 239.816 91.4384 239.816C91.4344 239.816 91.4305 239.817 91.4265 239.817C91.4226 239.817 91.4186 239.817 91.4147 239.817C91.4107 239.817 91.4068 239.817 91.4028 239.817C91.3989 239.817 91.3949 239.817 91.3909 239.817C91.387 239.817 91.383 239.817 91.3791 239.817C91.3751 239.817 91.3712 239.817 91.3672 239.817C91.3632 239.817 91.3593 239.817 91.3553 239.817C91.3514 239.817 91.3474 239.817 91.3434 239.817C91.3395 239.817 91.3355 239.817 91.3316 239.817C91.3276 239.817 91.3236 239.817 91.3197 239.817C91.3157 239.817 91.3118 239.817 91.3078 239.817C91.3038 239.817 91.2999 239.817 91.2959 239.817C91.2919 239.817 91.288 239.817 91.284 239.817C91.28 239.817 91.2761 239.817 91.2721 239.817C91.2682 239.817 91.2642 239.817 91.2602 239.817C91.2563 239.817 91.2523 239.817 91.2483 239.817C91.2443 239.817 91.2404 239.817 91.2364 239.817C91.2324 239.817 91.2285 239.817 91.2245 239.817C91.2205 239.817 91.2166 239.817 91.2126 239.818C91.2086 239.818 91.2047 239.818 91.2007 239.818C91.1967 239.818 91.1928 239.818 91.1888 239.818C91.1848 239.818 91.1808 239.818 91.1769 239.818C91.1729 239.818 91.1689 239.818 91.1649 239.818C91.161 239.818 91.157 239.818 91.153 239.818C91.1491 239.818 91.1451 239.818 91.1411 239.818C91.1371 239.818 91.1332 239.818 91.1292 239.818C91.1252 239.818 91.1212 239.818 91.1172 239.818C91.1133 239.818 91.1093 239.818 91.1053 239.818C91.1013 239.818 91.0974 239.818 91.0934 239.818C91.0894 239.818 91.0854 239.818 91.0814 239.818C91.0775 239.818 91.0735 239.818 91.0695 239.818C91.0655 239.818 91.0615 239.818 91.0576 239.818C91.0536 239.818 91.0496 239.818 91.0456 239.818C91.0416 239.818 91.0376 239.818 91.0337 239.818C91.0297 239.818 91.0257 239.818 91.0217 239.818C91.0177 239.818 91.0137 239.818 91.0098 239.818C91.0058 239.818 91.0018 239.818 90.9978 239.819C90.9938 239.819 90.9898 239.819 90.9858 239.819C90.9819 239.819 90.9779 239.819 90.9739 239.819C90.9699 239.819 90.9659 239.819 90.9619 239.819C90.9579 239.819 90.9539 239.819 90.9499 239.819C90.946 239.819 90.942 239.819 90.938 239.819C90.934 239.819 90.93 239.819 90.926 239.819C90.922 239.819 90.918 239.819 90.914 239.819C90.91 239.819 90.906 239.819 90.9021 239.819C90.8981 239.819 90.8941 239.819 90.8901 239.819C90.8861 239.819 90.8821 239.819 90.8781 239.819C90.8741 239.819 90.8701 239.819 90.8661 239.819C90.8621 239.819 90.8581 239.819 90.8541 239.819C90.8501 239.819 90.8461 239.819 90.8421 239.819C90.8381 239.819 90.8341 239.819 90.8301 239.819C90.8261 239.819 90.8221 239.819 90.8181 239.819C90.8141 239.819 90.8101 239.819 90.8061 239.819C90.8021 239.819 90.7981 239.819 90.7941 239.819C90.7901 239.819 90.7861 239.819 90.7821 239.819C90.7781 239.82 90.7741 239.82 90.7701 239.82C90.7661 239.82 90.7621 239.82 90.7581 239.82C90.7541 239.82 90.7501 239.82 90.7461 239.82C90.7421 239.82 90.7381 239.82 90.7341 239.82C90.7301 239.82 90.7261 239.82 90.7221 239.82C90.7181 239.82 90.7141 239.82 90.7101 239.82C90.706 239.82 90.702 239.82 90.698 239.82C90.694 239.82 90.69 239.82 90.686 239.82C90.682 239.82 90.678 239.82 90.674 239.82C90.67 239.82 90.666 239.82 90.6619 239.82C90.6579 239.82 90.6539 239.82 90.6499 239.82C90.6459 239.82 90.6419 239.82 90.6379 239.82C90.6339 239.82 90.6299 239.82 90.6258 239.82C90.6218 239.82 90.6178 239.82 90.6138 239.82C90.6098 239.82 90.6058 239.82 90.6018 239.82C90.5977 239.82 90.5937 239.82 90.5897 239.82C90.5857 239.82 90.5817 239.82 90.5777 239.82C90.5736 239.82 90.5696 239.82 90.5656 239.821C90.5616 239.821 90.5576 239.821 90.5536 239.821C90.5495 239.821 90.5455 239.821 90.5415 239.821C90.5375 239.821 90.5334 239.821 90.5294 239.821C90.5254 239.821 90.5214 239.821 90.5174 239.821C90.5133 239.821 90.5093 239.821 90.5053 239.821C90.5013 239.821 90.4973 239.821 90.4932 239.821C90.4892 239.821 90.4852 239.821 90.4812 239.821C90.4771 239.821 90.4731 239.821 90.4691 239.821C90.4651 239.821 90.461 239.821 90.457 239.821C90.453 239.821 90.449 239.821 90.4449 239.821C90.4409 239.821 90.4369 239.821 90.4329 239.821C90.4288 239.821 90.4248 239.821 90.4208 239.821C90.4167 239.821 90.4127 239.821 90.4087 239.821C90.4047 239.821 90.4006 239.821 90.3966 239.821C90.3926 239.821 90.3885 239.821 90.3845 239.821C90.3805 239.821 90.3764 239.821 90.3724 239.821C90.3684 239.821 90.3643 239.821 90.3603 239.821C90.3563 239.821 90.3522 239.821 90.3482 239.822C90.3442 239.822 90.3401 239.822 90.3361 239.822C90.3321 239.822 90.328 239.822 90.324 239.822C90.32 239.822 90.3159 239.822 90.3119 239.822C90.3079 239.822 90.3038 239.822 90.2998 239.822C90.2957 239.822 90.2917 239.822 90.2877 239.822C90.2836 239.822 90.2796 239.822 90.2755 239.822C90.2715 239.822 90.2675 239.822 90.2634 239.822C90.2594 239.822 90.2554 239.822 90.2513 239.822C90.2473 239.822 90.2432 239.822 90.2392 239.822C90.2351 239.822 90.2311 239.822 90.2271 239.822C90.223 239.822 90.219 239.822 90.2149 239.822C90.2109 239.822 90.2068 239.822 90.2028 239.822C90.1988 239.822 90.1947 239.822 90.1907 239.822C90.1866 239.822 90.1826 239.822 90.1785 239.822C90.1745 239.822 90.1704 239.822 90.1664 239.822C90.1623 239.822 90.1583 239.822 90.1542 239.822C90.1502 239.822 90.1461 239.822 90.1421 239.822C90.138 239.822 90.134 239.822 90.13 239.823C90.1259 239.823 90.1218 239.823 90.1178 239.823C90.1137 239.823 90.1097 239.823 90.1056 239.823C90.1016 239.823 90.0975 239.823 90.0935 239.823C90.0894 239.823 90.0854 239.823 90.0813 239.823C90.0773 239.823 90.0732 239.823 90.0692 239.823C90.0651 239.823 90.0611 239.823 90.057 239.823C90.0529 239.823 90.0489 239.823 90.0448 239.823C90.0408 239.823 90.0367 239.823 90.0327 239.823C90.0286 239.823 90.0246 239.823 90.0205 239.823C90.0164 239.823 90.0124 239.823 90.0083 239.823C90.0043 239.823 90.0002 239.823 89.9961 239.823C89.9921 239.823 89.988 239.823 89.984 239.823C89.9799 239.823 89.9758 239.823 89.9718 239.823C89.9677 239.823 89.9637 239.823 89.9596 239.823C89.9555 239.823 89.9515 239.823 89.9474 239.823C89.9433 239.823 89.9393 239.823 89.9352 239.823C89.9311 239.823 89.9271 239.823 89.923 239.823C89.919 239.823 89.9149 239.824 89.9108 239.824C89.9068 239.824 89.9027 239.824 89.8986 239.824C89.8946 239.824 89.8905 239.824 89.8864 239.824C89.8823 239.824 89.8783 239.824 89.8742 239.824C89.8701 239.824 89.8661 239.824 89.862 239.824C89.8579 239.824 89.8539 239.824 89.8498 239.824C89.8457 239.824 89.8417 239.824 89.8376 239.824C89.8335 239.824 89.8294 239.824 89.8254 239.824C89.8213 239.824 89.8172 239.824 89.8132 239.824C89.8091 239.824 89.805 239.824 89.8009 239.824C89.7969 239.824 89.7928 239.824 89.7887 239.824C89.7846 239.824 89.7806 239.824 89.7765 239.824C89.7724 239.824 89.7683 239.824 89.7643 239.824C89.7602 239.824 89.7561 239.824 89.752 239.824C89.7479 239.824 89.7439 239.824 89.7398 239.824C89.7357 239.824 89.7316 239.824 89.7276 239.824C89.7235 239.824 89.7194 239.824 89.7153 239.824C89.7112 239.824 89.7072 239.824 89.7031 239.824C89.699 239.825 89.6949 239.825 89.6908 239.825C89.6867 239.825 89.6827 239.825 89.6786 239.825C89.6745 239.825 89.6704 239.825 89.6663 239.825C89.6623 239.825 89.6582 239.825 89.6541 239.825C89.65 239.825 89.6459 239.825 89.6418 239.825C89.6377 239.825 89.6337 239.825 89.6296 239.825C89.6255 239.825 89.6214 239.825 89.6173 239.825C89.6132 239.825 89.6091 239.825 89.605 239.825C89.601 239.825 89.5969 239.825 89.5928 239.825C89.5887 239.825 89.5846 239.825 89.5805 239.825C89.5764 239.825 89.5723 239.825 89.5682 239.825C89.5641 239.825 89.5601 239.825 89.556 239.825C89.5519 239.825 89.5478 239.825 89.5437 239.825C89.5396 239.825 89.5355 239.825 89.5314 239.825C89.5273 239.825 89.5232 239.825 89.5191 239.825C89.515 239.825 89.5109 239.825 89.5068 239.825C89.5027 239.825 89.4986 239.825 89.4946 239.825C89.4905 239.825 89.4864 239.825 89.4823 239.826C89.4782 239.826 89.4741 239.826 89.47 239.826C89.4659 239.826 89.4618 239.826 89.4577 239.826C89.4536 239.826 89.4495 239.826 89.4454 239.826C89.4413 239.826 89.4372 239.826 89.4331 239.826C89.429 239.826 89.4249 239.826 89.4208 239.826C89.4167 239.826 89.4126 239.826 89.4085 239.826C89.4044 239.826 89.4003 239.826 89.3962 239.826C89.3921 239.826 89.388 239.826 89.3838 239.826C89.3797 239.826 89.3756 239.826 89.3715 239.826C89.3674 239.826 89.3633 239.826 89.3592 239.826C89.3551 239.826 89.351 239.826 89.3469 239.826C89.3428 239.826 89.3387 239.826 89.3346 239.826C89.3305 239.826 89.3264 239.826 89.3223 239.826C89.3181 239.826 89.314 239.826 89.3099 239.826C89.3058 239.826 89.3017 239.826 89.2976 239.826C89.2935 239.826 89.2894 239.826 89.2853 239.826C89.2812 239.826 89.277 239.826 89.2729 239.826C89.2688 239.826 89.2647 239.827 89.2606 239.827C89.2565 239.827 89.2524 239.827 89.2482 239.827C89.2441 239.827 89.24 239.827 89.2359 239.827C89.2318 239.827 89.2277 239.827 89.2236 239.827C89.2194 239.827 89.2153 239.827 89.2112 239.827C89.2071 239.827 89.203 239.827 89.1989 239.827C89.1947 239.827 89.1906 239.827 89.1865 239.827C89.1824 239.827 89.1783 239.827 89.1741 239.827C89.17 239.827 89.1659 239.827 89.1618 239.827C89.1577 239.827 89.1536 239.827 89.1494 239.827C89.1453 239.827 89.1412 239.827 89.1371 239.827C89.1329 239.827 89.1288 239.827 89.1247 239.827C89.1206 239.827 89.1164 239.827 89.1123 239.827C89.1082 239.827 89.1041 239.827 89.1 239.827C89.0958 239.827 89.0917 239.827 89.0876 239.827C89.0835 239.827 89.0793 239.827 89.0752 239.827C89.0711 239.827 89.0669 239.827 89.0628 239.827C89.0587 239.827 89.0546 239.827 89.0504 239.828C89.0463 239.828 89.0422 239.828 89.0381 239.828C89.0339 239.828 89.0298 239.828 89.0257 239.828C89.0215 239.828 89.0174 239.828 89.0133 239.828C89.0091 239.828 89.005 239.828 89.0009 239.828C88.9967 239.828 88.9926 239.828 88.9885 239.828C88.9843 239.828 88.9802 239.828 88.9761 239.828C88.9719 239.828 88.9678 239.828 88.9637 239.828C88.9595 239.828 88.9554 239.828 88.9513 239.828C88.9471 239.828 88.943 239.828 88.9389 239.828C88.9347 239.828 88.9306 239.828 88.9265 239.828C88.9223 239.828 88.9182 239.828 88.914 239.828C88.9099 239.828 88.9058 239.828 88.9016 239.828C88.8975 239.828 88.8934 239.828 88.8892 239.828C88.8851 239.828 88.8809 239.828 88.8768 239.828C88.8726 239.828 88.8685 239.828 88.8644 239.828C88.8602 239.828 88.8561 239.828 88.8519 239.828C88.8478 239.828 88.8437 239.828 88.8395 239.828C88.8354 239.828 88.8312 239.829 88.8271 239.829C88.8229 239.829 88.8188 239.829 88.8146 239.829C88.8105 239.829 88.8064 239.829 88.8022 239.829C88.7981 239.829 88.7939 239.829 88.7898 239.829C88.7856 239.829 88.7815 239.829 88.7773 239.829C88.7732 239.829 88.769 239.829 88.7649 239.829C88.7607 239.829 88.7566 239.829 88.7524 239.829C88.7483 239.829 88.7441 239.829 88.74 239.829C88.7358 239.829 88.7317 239.829 88.7275 239.829C88.7234 239.829 88.7192 239.829 88.7151 239.829C88.7109 239.829 88.7068 239.829 88.7026 239.829C88.6985 239.829 88.6943 239.829 88.6902 239.829C88.686 239.829 88.6818 239.829 88.6777 239.829C88.6735 239.829 88.6694 239.829 88.6652 239.829C88.6611 239.829 88.6569 239.829 88.6528 239.829C88.6486 239.829 88.6444 239.829 88.6403 239.829C88.6361 239.829 88.632 239.829 88.6278 239.829C88.6237 239.829 88.6195 239.829 88.6153 239.83C88.6112 239.83 88.607 239.83 88.6029 239.83C88.5987 239.83 88.5945 239.83 88.5904 239.83C88.5862 239.83 88.5821 239.83 88.5779 239.83C88.5737 239.83 88.5696 239.83 88.5654 239.83C88.5612 239.83 88.5571 239.83 88.5529 239.83C88.5488 239.83 88.5446 239.83 88.5404 239.83C88.5363 239.83 88.5321 239.83 88.5279 239.83C88.5238 239.83 88.5196 239.83 88.5154 239.83C88.5113 239.83 88.5071 239.83 88.5029 239.83C88.4988 239.83 88.4946 239.83 88.4904 239.83C88.4863 239.83 88.4821 239.83 88.4779 239.83C88.4737 239.83 88.4696 239.83 88.4654 239.83C88.4612 239.83 88.4571 239.83 88.4529 239.83C88.4487 239.83 88.4446 239.83 88.4404 239.83C88.4362 239.83 88.432 239.83 88.4279 239.83C88.4237 239.83 88.4195 239.83 88.4153 239.83C88.4112 239.83 88.407 239.83 88.4028 239.83C88.3986 239.831 88.3945 239.831 88.3903 239.831C88.3861 239.831 88.3819 239.831 88.3778 239.831C88.3736 239.831 88.3694 239.831 88.3652 239.831C88.3611 239.831 88.3569 239.831 88.3527 239.831C88.3485 239.831 88.3443 239.831 88.3402 239.831C88.336 239.831 88.3318 239.831 88.3276 239.831C88.3235 239.831 88.3193 239.831 88.3151 239.831C88.3109 239.831 88.3067 239.831 88.3025 239.831C88.2984 239.831 88.2942 239.831 88.29 239.831C88.2858 239.831 88.2816 239.831 88.2775 239.831C88.2733 239.831 88.2691 239.831 88.2649 239.831C88.2607 239.831 88.2565 239.831 88.2523 239.831C88.2482 239.831 88.244 239.831 88.2398 239.831C88.2356 239.831 88.2314 239.831 88.2272 239.831C88.223 239.831 88.2189 239.831 88.2147 239.831C88.2105 239.831 88.2063 239.831 88.2021 239.831C88.1979 239.831 88.1937 239.831 88.1895 239.831C88.1853 239.832 88.1812 239.832 88.177 239.832C88.1728 239.832 88.1686 239.832 88.1644 239.832C88.1602 239.832 88.156 239.832 88.1518 239.832C88.1476 239.832 88.1434 239.832 88.1392 239.832C88.135 239.832 88.1309 239.832 88.1267 239.832C88.1225 239.832 88.1183 239.832 88.1141 239.832C88.1099 239.832 88.1057 239.832 88.1015 239.832C88.0973 239.832 88.0931 239.832 88.0889 239.832C88.0847 239.832 88.0805 239.832 88.0763 239.832C88.0721 239.832 88.0679 239.832 88.0637 239.832C88.0595 239.832 88.0553 239.832 88.0511 239.832C88.0469 239.832 88.0427 239.832 88.0385 239.832C88.0343 239.832 88.0301 239.832 88.0259 239.832C88.0217 239.832 88.0175 239.832 88.0133 239.832C88.0091 239.832 88.0049 239.832 88.0007 239.832C87.9965 239.832 87.9923 239.832 87.9881 239.832C87.9839 239.832 87.9797 239.832 87.9755 239.832C87.9713 239.832 87.9671 239.833 87.9629 239.833C87.9587 239.833 87.9545 239.833 87.9502 239.833C87.946 239.833 87.9418 239.833 87.9376 239.833C87.9334 239.833 87.9292 239.833 87.925 239.833C87.9208 239.833 87.9166 239.833 87.9124 239.833C87.9082 239.833 87.904 239.833 87.8997 239.833C87.8955 239.833 87.8913 239.833 87.8871 239.833C87.8829 239.833 87.8787 239.833 87.8745 239.833C87.8703 239.833 87.8661 239.833 87.8618 239.833C87.8576 239.833 87.8534 239.833 87.8492 239.833C87.845 239.833 87.8408 239.833 87.8366 239.833C87.8323 239.833 87.8281 239.833 87.8239 239.833C87.8197 239.833 87.8155 239.833 87.8113 239.833C87.8071 239.833 87.8028 239.833 87.7986 239.833C87.7944 239.833 87.7902 239.833 87.786 239.833C87.7817 239.833 87.7775 239.833 87.7733 239.833C87.7691 239.833 87.7649 239.833 87.7607 239.833C87.7564 239.833 87.7522 239.834 87.748 239.834C87.7438 239.834 87.7395 239.834 87.7353 239.834C87.7311 239.834 87.7269 239.834 87.7227 239.834C87.7184 239.834 87.7142 239.834 87.71 239.834C87.7058 239.834 87.7015 239.834 87.6973 239.834C87.6931 239.834 87.6889 239.834 87.6846 239.834C87.6804 239.834 87.6762 239.834 87.672 239.834C87.6677 239.834 87.6635 239.834 87.6593 239.834C87.6551 239.834 87.6508 239.834 87.6466 239.834C87.6424 239.834 87.6381 239.834 87.6339 239.834C87.6297 239.834 87.6255 239.834 87.6212 239.834C87.617 239.834 87.6128 239.834 87.6085 239.834C87.6043 239.834 87.6001 239.834 87.5959 239.834C87.5916 239.834 87.5874 239.834 87.5832 239.834C87.5789 239.834 87.5747 239.834 87.5705 239.834C87.5662 239.834 87.562 239.834 87.5578 239.834C87.5535 239.834 87.5493 239.834 87.545 239.834C87.5408 239.834 87.5366 239.835 87.5323 239.835C87.5281 239.835 87.5239 239.835 87.5196 239.835C87.5154 239.835 87.5112 239.835 87.5069 239.835C87.5027 239.835 87.4984 239.835 87.4942 239.835C87.49 239.835 87.4857 239.835 87.4815 239.835C87.4773 239.835 87.473 239.835 87.4688 239.835C87.4645 239.835 87.4603 239.835 87.4561 239.835C87.4518 239.835 87.4476 239.835 87.4433 239.835C87.4391 239.835 87.4348 239.835 87.4306 239.835C87.4264 239.835 87.4221 239.835 87.4179 239.835C87.4136 239.835 87.4094 239.835 87.4051 239.835C87.4009 239.835 87.3966 239.835 87.3924 239.835C87.3882 239.835 87.3839 239.835 87.3797 239.835C87.3754 239.835 87.3712 239.835 87.3669 239.835C87.3627 239.835 87.3584 239.835 87.3542 239.835C87.3499 239.835 87.3457 239.835 87.3414 239.835C87.3372 239.835 87.3329 239.835 87.3287 239.835C87.3244 239.835 87.3202 239.836 87.3159 239.836C87.3117 239.836 87.3074 239.836 87.3032 239.836C87.2989 239.836 87.2947 239.836 87.2904 239.836C87.2862 239.836 87.2819 239.836 87.2777 239.836C87.2734 239.836 87.2691 239.836 87.2649 239.836C87.2606 239.836 87.2564 239.836 87.2521 239.836C87.2479 239.836 87.2436 239.836 87.2394 239.836C87.2351 239.836 87.2308 239.836 87.2266 239.836C87.2223 239.836 87.2181 239.836 87.2138 239.836C87.2096 239.836 87.2053 239.836 87.201 239.836C87.1968 239.836 87.1925 239.836 87.1883 239.836C87.184 239.836 87.1797 239.836 87.1755 239.836C87.1712 239.836 87.167 239.836 87.1627 239.836C87.1584 239.836 87.1542 239.836 87.1499 239.836C87.1456 239.836 87.1414 239.836 87.1371 239.836C87.1329 239.836 87.1286 239.836 87.1243 239.836C87.1201 239.836 87.1158 239.836 87.1115 239.836C87.1073 239.836 87.103 239.837 87.0987 239.837C87.0945 239.837 87.0902 239.837 87.0859 239.837C87.0817 239.837 87.0774 239.837 87.0731 239.837C87.0689 239.837 87.0646 239.837 87.0603 239.837C87.0561 239.837 87.0518 239.837 87.0475 239.837C87.0433 239.837 87.039 239.837 87.0347 239.837C87.0304 239.837 87.0262 239.837 87.0219 239.837C87.0176 239.837 87.0134 239.837 87.0091 239.837C87.0048 239.837 87.0005 239.837 86.9963 239.837C86.992 239.837 86.9877 239.837 86.9834 239.837C86.9792 239.837 86.9749 239.837 86.9706 239.837C86.9663 239.837 86.9621 239.837 86.9578 239.837C86.9535 239.837 86.9492 239.837 86.945 239.837C86.9407 239.837 86.9364 239.837 86.9321 239.837C86.9279 239.837 86.9236 239.837 86.9193 239.837C86.915 239.837 86.9107 239.837 86.9065 239.837C86.9022 239.837 86.8979 239.837 86.8936 239.837C86.8893 239.837 86.8851 239.838 86.8808 239.838C86.8765 239.838 86.8722 239.838 86.8679 239.838C86.8637 239.838 86.8594 239.838 86.8551 239.838C86.8508 239.838 86.8465 239.838 86.8422 239.838C86.8379 239.838 86.8337 239.838 86.8294 239.838C86.8251 239.838 86.8208 239.838 86.8165 239.838C86.8122 239.838 86.8079 239.838 86.8037 239.838C86.7994 239.838 86.7951 239.838 86.7908 239.838C86.7865 239.838 86.7822 239.838 86.7779 239.838C86.7736 239.838 86.7694 239.838 86.7651 239.838C86.7608 239.838 86.7565 239.838 86.7522 239.838C86.7479 239.838 86.7436 239.838 86.7393 239.838C86.735 239.838 86.7307 239.838 86.7265 239.838C86.7222 239.838 86.7179 239.838 86.7136 239.838C86.7093 239.838 86.705 239.838 86.7007 239.838C86.6964 239.838 86.6921 239.838 86.6878 239.838C86.6835 239.838 86.6792 239.838 86.6749 239.838C86.6706 239.839 86.6663 239.839 86.662 239.839C86.6577 239.839 86.6534 239.839 86.6492 239.839C86.6449 239.839 86.6406 239.839 86.6363 239.839C86.632 239.839 86.6277 239.839 86.6234 239.839C86.6191 239.839 86.6148 239.839 86.6105 239.839C86.6062 239.839 86.6019 239.839 86.5976 239.839C86.5933 239.839 86.589 239.839 86.5847 239.839C86.5804 239.839 86.5761 239.839 86.5718 239.839C86.5675 239.839 86.5631 239.839 86.5588 239.839C86.5545 239.839 86.5502 239.839 86.5459 239.839C86.5416 239.839 86.5373 239.839 86.533 239.839C86.5287 239.839 86.5244 239.839 86.5201 239.839C86.5158 239.839 86.5115 239.839 86.5072 239.839C86.5029 239.839 86.4986 239.839 86.4943 239.839C86.4899 239.839 86.4856 239.839 86.4813 239.839C86.477 239.839 86.4727 239.839 86.4684 239.839C86.4641 239.839 86.4598 239.839 86.4555 239.84C86.4512 239.84 86.4468 239.84 86.4425 239.84C86.4382 239.84 86.4339 239.84 86.4296 239.84C86.4253 239.84 86.421 239.84 86.4167 239.84C86.4123 239.84 86.408 239.84 86.4037 239.84C86.3994 239.84 86.3951 239.84 86.3908 239.84C86.3865 239.84 86.3821 239.84 86.3778 239.84C86.3735 239.84 86.3692 239.84 86.3649 239.84C86.3606 239.84 86.3562 239.84 86.3519 239.84C86.3476 239.84 86.3433 239.84 86.339 239.84C86.3347 239.84 86.3303 239.84 86.326 239.84C86.3217 239.84 86.3174 239.84 86.3131 239.84C86.3087 239.84 86.3044 239.84 86.3001 239.84C86.2958 239.84 86.2915 239.84 86.2871 239.84C86.2828 239.84 86.2785 239.84 86.2742 239.84C86.2698 239.84 86.2655 239.84 86.2612 239.84C86.2569 239.84 86.2525 239.84 86.2482 239.84C86.2439 239.84 86.2396 239.841 86.2352 239.841C86.2309 239.841 86.2266 239.841 86.2223 239.841C86.2179 239.841 86.2136 239.841 86.2093 239.841C86.205 239.841 86.2006 239.841 86.1963 239.841C86.192 239.841 86.1876 239.841 86.1833 239.841L86.1997 243.841ZM92.4996 243.812L92.516 247.812C112.401 247.72 129.784 245.392 144.593 240.742L143.397 236.926L142.201 233.11C128.347 237.46 111.798 239.722 92.4832 239.812L92.4996 243.812ZM143.397 236.926L144.584 240.745C159.473 236.108 171.259 229.463 179.645 220.624L176.744 217.872L173.843 215.119C166.663 222.686 156.218 228.744 142.209 233.107L143.397 236.926ZM176.744 217.872L179.645 220.624C188.13 211.682 192.4 200.991 192.35 188.749L188.35 188.768L184.35 188.786C184.392 198.945 180.924 207.657 173.843 215.119L176.744 217.872ZM188.35 188.768L192.35 188.749C192.293 174.789 188.142 163.778 179.173 156.641L176.682 159.772L174.19 162.902C180.672 168.06 184.3 176.381 184.35 188.786L188.35 188.768ZM176.682 159.772L179.197 156.66C170.507 149.638 157.042 146.587 139.703 146.667L139.719 150.667L139.735 154.667C156.463 154.59 167.639 157.609 174.167 162.883L176.682 159.772ZM139.719 150.667L139.703 146.667C131.996 146.703 123.76 147.78 115.008 149.861L115.932 153.752L116.855 157.644C125.12 155.679 132.742 154.7 139.735 154.667L139.719 150.667ZM115.932 153.752L114.996 149.864C106.473 151.918 98.1261 154.386 89.9566 157.269L91.2861 161.041L92.6156 164.813C100.523 162.022 108.606 159.631 116.867 157.641L115.932 153.752ZM91.2861 161.041L93.23 157.544L83.2322 151.991L81.2883 155.488L79.3445 158.984L89.3423 164.538L91.2861 161.041ZM81.2883 155.488L85.2779 155.773L95.0489 20.2765L91.0593 19.9909L87.0697 19.7053L77.2987 155.202L81.2883 155.488ZM91.0593 19.9909L91.0756 23.9909L234.924 23.3258L234.908 19.3258L234.891 15.3259L91.0429 15.9909L91.0593 19.9909ZM234.908 19.3258L230.93 18.9042L226.211 63.2015L230.189 63.6231L234.166 64.0447L238.885 19.7475L234.908 19.3258ZM230.189 63.6231L230.173 59.6232L130.249 60.0851L130.265 64.0851L130.281 68.0851L230.205 67.6231L230.189 63.6231ZM130.265 64.0851L126.287 63.6674L120.559 117.944L124.537 118.362L128.515 118.78L134.243 64.5028L130.265 64.0851ZM124.537 118.362L125.651 122.203C132.84 120.114 139.84 118.545 146.652 117.491L146.042 113.538L145.433 109.585C138.254 110.695 130.916 112.343 123.422 114.521L124.537 118.362ZM146.042 113.538L146.652 117.491C153.475 116.435 159.923 115.899 166.002 115.87L165.986 111.87L165.969 107.87C159.448 107.901 152.601 108.476 145.433 109.585L146.042 113.538ZM165.986 111.87L166.002 115.87C190.407 115.758 208.264 122.077 220.274 134.198L223.116 131.382L225.958 128.565C211.96 114.439 191.731 107.751 165.969 107.87L165.986 111.87ZM223.116 131.382L220.299 134.223C232.477 146.295 238.847 163.395 238.94 186.084L242.94 186.065L246.94 186.047C246.841 161.836 239.995 142.48 225.933 128.54L223.116 131.382ZM242.94 186.065L238.94 186.084C238.993 199.213 236.046 211.352 230.111 222.564L233.647 224.434L237.182 226.303C243.751 213.891 246.999 200.451 246.94 186.047L242.94 186.065ZM233.647 224.434L230.119 222.55C224.181 233.657 215.487 243.468 203.929 251.963L206.297 255.186L208.665 258.408C221.068 249.292 230.607 238.602 237.174 226.318L233.647 224.434ZM206.297 255.186L203.929 251.963C192.398 260.438 178.233 267.145 161.349 272.021L162.456 275.864L163.564 279.706C181.172 274.622 196.234 267.544 208.665 258.408L206.297 255.186ZM162.456 275.864L161.349 272.021C144.525 276.878 125.313 279.385 103.671 279.485L103.687 283.485L103.703 287.485C125.927 287.383 145.894 284.808 163.564 279.706L162.456 275.864ZM341.469 270.486L339.472 273.953L339.478 273.956L339.485 273.96L341.469 270.486ZM309.845 240.182L306.456 242.309L306.468 242.327L306.479 242.345L309.845 240.182ZM291.99 196.339L288.093 197.242L288.095 197.248L291.99 196.339ZM286.355 144.914L282.355 144.879L282.355 144.893L282.355 144.907L286.355 144.914ZM300.601 76.5977L296.999 74.8602L296.994 74.8693L300.601 76.5977ZM338.217 31.6233L335.985 28.3054L335.985 28.3054L338.217 31.6233ZM438.12 25.9114L436.205 29.4245L436.224 29.4349L436.243 29.4451L438.12 25.9114ZM469.211 54.293L465.857 56.4748L465.865 56.4861L465.872 56.4974L469.211 54.293ZM486.532 96.2133L482.63 97.093L482.631 97.0991L486.532 96.2133ZM491.813 146.414L495.813 146.43L495.813 146.422L491.813 146.414ZM478.278 217.353L474.617 215.743L474.612 215.753L478.278 217.353ZM441.72 264.422L439.377 261.181L441.72 264.422ZM389.472 240.514L389.443 244.514L389.457 244.514L389.472 240.514ZM423.681 218.13L420.14 216.27L420.135 216.281L420.129 216.292L423.681 218.13ZM430.197 99.7988L426.309 100.74L430.197 99.7988ZM415.016 67.8436L417.989 65.1667L415.016 67.8436ZM354.859 78.4469L351.356 76.5181L351.35 76.5289L351.344 76.5398L354.859 78.4469ZM348.328 193.103L344.426 193.989L344.43 194.007L344.435 194.025L348.328 193.103ZM363.694 227.683L366.816 225.18L363.694 227.683ZM388.239 281.47L388.223 277.47C370.572 277.551 355.704 274.002 343.453 267.011L341.469 270.486L339.485 273.96C353.194 281.783 369.506 285.556 388.256 285.47L388.239 281.47ZM341.469 270.486L343.466 267.019C331.17 259.939 321.093 250.29 313.211 238.019L309.845 240.182L306.479 242.345C315.035 255.664 326.04 266.218 339.472 273.953L341.469 270.486ZM309.845 240.182L313.233 238.054C305.388 225.552 299.596 211.356 295.886 195.429L291.99 196.339L288.095 197.248C291.985 213.953 298.096 228.986 306.456 242.309L309.845 240.182ZM291.99 196.339L295.887 195.435C292.16 179.318 290.312 162.484 290.355 144.922L286.355 144.914L282.355 144.907C282.311 163.046 284.22 180.494 288.093 197.242L291.99 196.339ZM286.355 144.914L290.355 144.949C290.593 119.154 295.257 96.9841 304.207 78.3262L300.601 76.5977L296.994 74.8693C287.435 94.7973 282.602 118.172 282.355 144.879L286.355 144.914ZM300.601 76.5977L304.203 78.3352C313.308 59.4738 325.409 45.0655 340.449 34.9412L338.217 31.6233L335.985 28.3054C319.612 39.3266 306.634 54.9012 296.999 74.8602L300.601 76.5977ZM338.217 31.6233L340.449 34.9413C355.473 24.8286 372.407 19.7152 391.368 19.6275L391.352 15.6275L391.336 11.6276C370.864 11.7222 352.375 17.2726 335.985 28.3054L338.217 31.6233ZM391.352 15.6275L391.368 19.6275C409.305 19.5446 424.191 22.8815 436.205 29.4245L438.12 25.9114L440.034 22.3983C426.558 15.059 410.265 11.54 391.336 11.6276L391.352 15.6275ZM438.12 25.9114L436.243 29.4451C448.511 35.9541 458.364 44.9517 465.857 56.4748L469.211 54.293L472.565 52.1111C464.325 39.44 453.451 29.5166 439.996 22.3777L438.12 25.9114ZM469.211 54.293L465.872 56.4974C473.558 68.1443 479.159 81.6581 482.63 97.093L486.532 96.2133L490.435 95.3336C486.777 79.0679 480.829 64.6347 472.55 52.0885L469.211 54.293ZM486.532 96.2133L482.631 97.0991C486.123 112.512 487.856 128.944 487.813 146.407L491.813 146.414L495.813 146.422C495.858 128.417 494.071 111.382 490.434 95.3275L486.532 96.2133ZM491.813 146.414L487.813 146.398C487.692 173.038 483.253 196.12 474.617 215.743L478.278 217.353L481.939 218.962C491.104 198.136 495.688 173.926 495.813 146.43L491.813 146.414ZM478.278 217.353L474.612 215.753C466.073 235.299 454.307 250.385 439.377 261.181L441.72 264.422L444.063 267.663C460.307 255.916 472.913 239.621 481.943 218.952L478.278 217.353ZM441.72 264.422L439.377 261.181C424.498 271.942 407.492 277.381 388.223 277.47L388.239 281.47L388.256 285.47C409.119 285.373 427.767 279.447 444.063 267.663L441.72 264.422ZM389.472 240.514L389.457 244.514C397.68 244.539 405.076 242.503 411.501 238.3C417.9 234.113 423.112 227.921 427.232 219.969L423.681 218.13L420.129 216.292C416.494 223.308 412.126 228.332 407.123 231.606C402.144 234.864 396.314 236.535 389.486 236.514L389.472 240.514ZM423.681 218.13L427.221 219.99C435.56 204.132 439.425 180.088 439.296 148.407L435.296 148.426L431.296 148.444C431.424 179.763 427.545 202.189 420.14 216.27L423.681 218.13ZM435.296 148.426L439.296 148.407C439.218 129.522 437.5 112.989 434.085 98.8573L430.197 99.7988L426.309 100.74C429.54 114.111 431.22 129.996 431.296 148.444L435.296 148.426ZM430.197 99.7988L434.085 98.8573C430.664 84.7001 425.371 73.3677 417.989 65.1667L415.016 67.8436L412.042 70.5206C418.256 77.4236 423.084 87.3947 426.309 100.74L430.197 99.7988ZM415.016 67.8436L417.989 65.1667C410.421 56.7579 400.796 52.5342 389.403 52.5869L389.42 56.5869L389.436 60.5868C398.576 60.5446 406.016 63.8254 412.042 70.5206L415.016 67.8436ZM389.42 56.5869L389.403 52.5869C372.733 52.664 359.961 60.8979 351.356 76.5181L354.859 78.4469L358.362 80.3757C365.738 66.9883 376.007 60.6489 389.436 60.5868L389.42 56.5869ZM354.859 78.4469L351.344 76.5398C342.992 91.9229 339.105 114.329 339.224 143.27L343.224 143.251L347.224 143.233C347.107 114.774 350.977 93.9773 358.374 80.354L354.859 78.4469ZM343.224 143.251L339.224 143.27C339.3 162.047 341.022 178.963 344.426 193.989L348.328 193.103L352.229 192.218C348.979 177.874 347.299 161.555 347.224 143.233L343.224 143.251ZM348.328 193.103L344.435 194.025C347.966 208.966 353.288 221.097 360.572 230.185L363.694 227.683L366.816 225.18C360.498 217.298 355.575 206.376 352.22 192.181L348.328 193.103ZM363.694 227.683L360.572 230.185C368.086 239.558 377.791 244.436 389.443 244.514L389.472 240.514L389.5 236.514C380.385 236.453 372.906 232.777 366.816 225.18L363.694 227.683ZM534.447 274.669L530.447 274.727L530.49 277.803L533.475 278.549L534.447 274.669ZM533.952 239.321L534.752 235.401L529.883 234.41L529.953 239.379L533.952 239.321ZM551.465 242.39L550.873 246.346L550.91 246.351L550.948 246.356L551.465 242.39ZM605.697 237.939L604.417 234.15L605.697 237.939ZM631.009 222.422L633.975 225.104L633.987 225.091L633.998 225.078L631.009 222.422ZM635.21 179.877L631.698 181.794L631.707 181.809L631.715 181.823L635.21 179.877ZM591.214 162.58L590.963 158.588L590.627 158.609L590.299 158.687L591.214 162.58ZM570.759 167.4L566.869 168.336L567.799 172.206L571.674 171.293L570.759 167.4ZM562.569 133.312L561.832 129.381L557.697 130.159L558.68 134.249L562.569 133.312ZM582.5 128.495L583.652 132.325L583.684 132.315L583.716 132.305L582.5 128.495ZM599.097 121.768L597.347 118.172L597.303 118.194L597.259 118.216L599.097 121.768ZM620.38 105.395L617.191 102.982L617.185 102.991L620.38 105.395ZM627.995 84.3592L623.998 84.1896L623.997 84.2221L623.996 84.2546L627.995 84.3592ZM562.799 61.2103L564.439 64.8581L564.45 64.8528L564.462 64.8476L562.799 61.2103ZM541.149 73.3856L537.598 75.2288L539.726 79.3313L543.481 76.634L541.149 73.3856ZM524.215 40.7385L521.468 37.833L519.276 39.9056L520.664 42.5818L524.215 40.7385ZM542.019 29.2811L540.215 25.7117L540.215 25.7117L542.019 29.2811ZM570.151 18.8259L571.187 22.6889L571.207 22.6836L571.226 22.6781L570.151 18.8259ZM672.097 41.9798L668.857 44.3277L668.874 44.3512L668.891 44.3746L672.097 41.9798ZM674.982 105.667L678.501 107.566L678.507 107.557L678.512 107.547L674.982 105.667ZM655.127 129.034L657.596 132.18L655.127 129.034ZM627.019 145.264L623.019 145.283L623.043 151.216L628.534 148.965L627.019 145.264ZM626.996 139.664L627.038 135.665L622.979 135.624L622.996 139.683L626.996 139.664ZM666.234 148.933L664.196 152.376L664.219 152.39L664.242 152.403L666.234 148.933ZM689.078 171.928L685.535 173.785L685.539 173.794L685.544 173.803L689.078 171.928ZM682.36 240.909L679.209 238.447L679.206 238.451L682.36 240.909ZM642.229 270.145L640.657 266.468L640.648 266.472L642.229 270.145ZM555.115 279.123L555.918 275.204L555.889 275.198L555.861 275.193L555.115 279.123ZM534.447 274.669L538.447 274.611L537.952 239.262L533.952 239.321L529.953 239.379L530.447 274.727L534.447 274.669ZM533.952 239.321L533.153 243.24C538.831 244.396 544.738 245.431 550.873 246.346L551.465 242.39L552.057 238.433C546.051 237.538 540.283 236.527 534.752 235.401L533.952 239.321ZM551.465 242.39L550.948 246.356C557.162 247.164 562.945 247.562 568.286 247.537L568.27 243.537L568.254 239.537C563.329 239.56 557.908 239.193 551.983 238.423L551.465 242.39ZM568.27 243.537L568.286 247.537C582.736 247.47 595.653 245.56 606.978 241.728L605.697 237.939L604.417 234.15C594.072 237.651 582.037 239.473 568.254 239.537L568.27 243.537ZM605.697 237.939L606.978 241.728C618.288 237.9 627.37 232.408 633.975 225.104L631.009 222.422L628.043 219.74C622.57 225.792 614.777 230.644 604.417 234.15L605.697 237.939ZM631.009 222.422L633.998 225.078C640.684 217.556 644.053 208.718 644.012 198.736L640.012 198.755L636.013 198.773C636.045 206.758 633.412 213.698 628.02 219.765L631.009 222.422ZM640.012 198.755L644.012 198.736C643.982 191.216 642.225 184.254 638.706 177.93L635.21 179.877L631.715 181.823C634.542 186.903 635.987 192.527 636.013 198.773L640.012 198.755ZM635.21 179.877L638.722 177.96C635.061 171.248 629.181 166.18 621.408 162.655L619.755 166.298L618.101 169.941C624.588 172.884 629.012 176.868 631.698 181.794L635.21 179.877ZM619.755 166.298L621.408 162.655C613.45 159.046 603.202 157.811 590.963 158.588L591.214 162.58L591.465 166.572C603.021 165.839 611.799 167.083 618.101 169.941L619.755 166.298ZM591.214 162.58L590.299 158.687L569.843 163.506L570.759 167.4L571.674 171.293L592.129 166.473L591.214 162.58ZM570.759 167.4L574.648 166.463L566.458 132.376L562.569 133.312L558.68 134.249L566.869 168.336L570.759 167.4ZM562.569 133.312L563.307 137.243C570.43 135.903 577.212 134.265 583.652 132.325L582.5 128.495L581.348 124.665C575.202 126.517 568.698 128.09 561.832 129.381L562.569 133.312ZM582.5 128.495L583.716 132.305C590.176 130.239 595.923 127.916 600.935 125.32L599.097 121.768L597.259 118.216C592.725 120.565 587.407 122.726 581.283 124.685L582.5 128.495ZM599.097 121.768L600.847 125.364C610.67 120.58 618.334 114.764 623.576 107.799L620.38 105.395L617.185 102.991C612.912 108.669 606.387 113.769 597.347 118.172L599.097 121.768ZM620.38 105.395L623.569 107.808C628.913 100.747 631.767 92.9381 631.993 84.4637L627.995 84.3592L623.996 84.2546C623.817 90.949 621.595 97.1633 617.192 102.982L620.38 105.395ZM627.995 84.3592L631.991 84.5287C632.46 73.6156 629.046 64.8375 621.154 59.1131L618.804 62.3514L616.455 65.5898C621.668 69.3715 624.382 75.2652 623.998 84.1896L627.995 84.3592ZM618.804 62.3514L621.154 59.1131C613.742 53.7363 604.376 51.243 593.384 51.2938L593.4 55.2938L593.417 59.2938C603.191 59.2486 610.762 61.4604 616.455 65.5898L618.804 62.3514ZM593.4 55.2938L593.384 51.2938C581.066 51.3508 570.275 53.3921 561.137 57.5731L562.799 61.2103L564.462 64.8476C572.325 61.2499 581.935 59.3469 593.417 59.2938L593.4 55.2938ZM562.799 61.2103L561.16 57.5626C552.586 61.42 545.126 65.6053 538.817 70.1372L541.149 73.3856L543.481 76.634C549.27 72.4764 556.244 68.545 564.439 64.8581L562.799 61.2103ZM541.149 73.3856L544.7 71.5423L527.766 38.8953L524.215 40.7385L520.664 42.5818L537.598 75.2288L541.149 73.3856ZM524.215 40.7385L526.963 43.644C530.263 40.5231 535.792 36.9109 543.822 32.8505L542.019 29.2811L540.215 25.7117C531.945 29.8934 525.606 33.9195 521.468 37.833L524.215 40.7385ZM542.019 29.2811L543.822 32.8505C551.683 28.8753 560.796 25.4805 571.187 22.6889L570.151 18.8259L569.115 14.9629C558.296 17.8694 548.653 21.4447 540.215 25.7117L542.019 29.2811ZM570.151 18.8259L571.226 22.6781C581.488 19.8084 591.917 18.3503 602.524 18.3012L602.508 14.3013L602.491 10.3013C591.165 10.3537 580.024 11.912 569.076 14.9738L570.151 18.8259ZM602.508 14.3013L602.524 18.3012C618.118 18.2291 631.542 20.5014 642.885 25.0011L644.362 21.2828L645.838 17.5646C633.343 12.6077 618.864 10.2256 602.491 10.3013L602.508 14.3013ZM644.362 21.2828L642.885 25.0011C654.203 29.4909 662.794 35.9583 668.857 44.3277L672.097 41.9798L675.336 39.632C668.258 29.8619 658.359 22.5313 645.838 17.5646L644.362 21.2828ZM672.097 41.9798L668.891 44.3746C674.987 52.5357 678.156 62.6178 678.206 74.8519L682.206 74.8334L686.206 74.8149C686.15 61.1492 682.58 49.329 675.302 39.5851L672.097 41.9798ZM682.206 74.8334L678.206 74.8519C678.25 85.6949 675.972 95.3089 671.452 103.787L674.982 105.667L678.512 107.547C683.718 97.7802 686.255 86.8384 686.206 74.8149L682.206 74.8334ZM674.982 105.667L671.463 103.768C666.871 112.271 660.618 119.641 652.659 125.888L655.127 129.034L657.596 132.18C666.384 125.283 673.367 117.075 678.501 107.566L674.982 105.667ZM655.127 129.034L652.659 125.888C644.591 132.22 635.546 137.448 625.504 141.563L627.019 145.264L628.534 148.965C639.224 144.585 648.917 138.992 657.596 132.18L655.127 129.034ZM627.019 145.264L631.019 145.246L630.996 139.646L626.996 139.664L622.996 139.683L623.019 145.283L627.019 145.264ZM626.996 139.664L626.954 143.664C642.473 143.819 654.802 146.818 664.196 152.376L666.234 148.933L668.272 145.49C657.316 139.008 643.487 135.829 627.038 135.665L626.996 139.664ZM666.234 148.933L664.242 152.403C673.951 157.972 680.989 165.108 685.535 173.785L689.078 171.928L692.622 170.07C687.29 159.893 679.098 151.699 668.225 145.463L666.234 148.933ZM689.078 171.928L685.544 173.803C690.184 182.551 692.509 191.762 692.549 201.487L696.549 201.468L700.549 201.45C700.504 190.409 697.849 179.926 692.612 170.052L689.078 171.928ZM696.549 201.468L692.549 201.487C692.603 214.619 688.228 226.907 679.209 238.447L682.36 240.909L685.511 243.372C695.526 230.557 700.611 216.551 700.549 201.45L696.549 201.468ZM682.36 240.909L679.206 238.451C670.308 249.867 657.532 259.243 640.657 266.468L642.229 270.145L643.802 273.822C661.633 266.188 675.611 256.072 685.514 243.368L682.36 240.909ZM642.229 270.145L640.648 266.472C624.013 273.643 604.225 277.346 581.184 277.453L581.2 281.453L581.217 285.453C605.075 285.342 625.973 281.507 643.811 273.818L642.229 270.145ZM581.2 281.453L581.184 277.453C571.84 277.496 563.425 276.737 555.918 275.204L555.115 279.123L554.313 283.042C562.453 284.704 571.427 285.498 581.217 285.453L581.2 281.453ZM555.115 279.123L555.861 275.193C548.093 273.723 541.282 272.254 535.419 270.788L534.447 274.669L533.475 278.549C539.524 280.062 546.492 281.562 554.37 283.053L555.115 279.123Z" fill="#795CF5" mask="url(#path-1-outside-1_368_2599)"/>
<path d="M92.4324 287.475C89.5158 287.489 85.6651 287.331 80.8804 287.004C76.2123 286.675 72.1267 286.111 68.6234 285.31L68.4687 247.51C70.6858 247.617 72.8446 247.724 74.945 247.831C77.1617 247.82 79.2616 247.811 81.245 247.801C100.845 247.711 117.81 245.416 132.142 240.916C146.591 236.416 157.706 230.065 165.489 221.862C173.273 213.659 177.141 203.958 177.095 192.758C177.042 179.575 173.152 169.909 165.427 163.762C157.818 157.613 145.497 154.579 128.464 154.657C121.114 154.691 113.185 155.72 104.677 157.742C96.2848 159.764 88.0697 162.194 80.0312 165.031L70.0334 159.477L79.804 23.9807L223.652 23.3161L218.934 67.6134L119.01 68.075L113.282 122.352C120.623 120.218 127.792 118.61 134.787 117.528C141.783 116.445 148.431 115.89 154.731 115.861C179.814 115.745 198.857 122.248 211.861 135.372C224.981 148.378 231.589 166.606 231.685 190.056C231.741 203.822 228.644 216.612 222.392 228.424C216.14 240.12 207.023 250.37 195.042 259.176C183.062 267.981 168.448 274.874 151.202 279.854C133.955 284.833 114.366 287.374 92.4324 287.475ZM376.985 285.461C358.785 285.545 343.195 281.883 330.214 274.476C317.351 267.069 306.809 256.968 298.59 244.172C290.487 231.26 284.536 216.645 280.736 200.329C276.935 183.897 275.056 166.755 275.1 148.905C275.343 122.653 280.091 99.8812 289.346 80.5882C298.716 61.1781 311.255 46.1867 326.962 35.614C342.669 25.0413 360.38 19.7094 380.097 19.6183C398.53 19.5332 414.119 22.9612 426.864 29.9024C439.726 36.7264 450.089 46.1869 457.956 58.284C465.939 70.3806 471.712 84.3541 475.277 100.204C478.842 115.938 480.602 132.672 480.558 150.406C480.435 177.473 475.924 201.119 467.023 221.344C458.239 241.451 446.053 257.141 430.465 268.413C414.878 279.685 397.051 285.368 376.985 285.461ZM378.217 244.504C393.267 244.552 404.67 237.09 412.426 222.121C420.298 207.151 424.17 183.916 424.041 152.417C423.964 133.75 422.265 117.541 418.942 103.79C415.619 90.0383 410.558 79.3866 403.761 71.8346C396.963 64.2826 388.431 60.5303 378.164 60.5777C363.115 60.6472 351.594 67.9339 343.604 82.4376C335.73 96.9408 331.851 118.542 331.969 147.242C332.045 165.792 333.746 182.409 337.073 197.094C340.516 211.662 345.638 223.188 352.439 231.673C359.241 240.159 367.833 244.436 378.217 244.504ZM523.192 278.66L522.698 243.312C528.303 244.453 534.14 245.476 540.21 246.381C546.28 247.17 551.882 247.552 557.015 247.528C571.132 247.463 583.608 245.597 594.443 241.93C605.278 238.264 613.715 233.091 619.754 226.413C625.793 219.619 628.794 211.73 628.758 202.746C628.729 195.863 627.129 189.571 623.955 183.868C620.782 178.05 615.63 173.523 608.5 170.29C601.37 167.056 591.856 165.817 579.959 166.572L559.504 171.391L551.314 137.304C558.309 135.988 564.952 134.382 571.245 132.486C577.536 130.474 583.069 128.232 587.842 125.76C597.274 121.166 604.368 115.708 609.125 109.386C613.999 102.947 616.537 95.9351 616.739 88.3508C617.165 78.4321 614.102 71.0961 607.549 66.343C600.996 61.5899 592.528 59.2374 582.145 59.2853C570.245 59.3403 560.045 61.3124 551.544 65.2018C543.159 68.9739 535.943 73.0322 529.894 77.3769L512.96 44.7298C516.679 41.2126 522.613 37.3934 530.763 33.2724C538.913 29.1514 548.291 25.6664 558.896 22.8173C569.5 19.8516 580.286 18.3435 591.252 18.2928C607.236 18.219 621.187 20.5462 633.106 25.2745C645.026 30.0028 654.271 36.9019 660.841 45.9716C667.528 54.9242 670.898 65.8754 670.951 78.8252C670.998 90.2585 668.59 100.536 663.727 109.659C658.864 118.665 652.246 126.454 643.872 133.026C635.499 139.598 626.13 145.008 615.764 149.256L615.741 143.656C631.725 143.815 644.804 146.905 654.979 152.925C665.27 158.827 672.885 166.492 677.823 175.92C682.761 185.23 685.252 195.077 685.294 205.46C685.352 219.577 680.622 232.724 671.106 244.901C661.705 256.962 648.328 266.707 630.975 274.137C613.738 281.567 593.395 285.336 569.946 285.444C560.379 285.488 551.684 284.712 543.861 283.115C536.038 281.634 529.149 280.149 523.192 278.66Z" fill="#1AD1B9"/>
</svg>
