<svg width="750" height="312" viewBox="0 0 750 312" fill="none" xmlns="http://www.w3.org/2000/svg">
<mask id="path-1-outside-1_368_2508" maskUnits="userSpaceOnUse" x="24.292" y="9.08547" width="707.117" height="278.262" fill="black">
<rect fill="white" x="24.292" y="9.08547" width="707.117" height="278.262"/>
<path d="M43.0168 228.815L30.3317 208.049C34.9583 198.227 39.3527 188.698 43.5149 179.462C47.6767 170.11 51.7228 160.991 55.6532 152.106C59.6997 143.104 63.6301 134.219 67.4443 125.451C71.2584 116.683 75.0726 107.916 78.8868 99.148C82.701 90.3803 86.5732 81.554 90.5036 72.669C94.5506 63.7836 98.6551 54.6645 102.817 45.3118C106.979 35.9591 111.315 26.4307 115.825 16.7264L132.975 16.6471L168.756 36.4319C164.588 44.2679 160.652 51.6945 156.947 58.7117C153.359 65.7284 149.887 72.5695 146.531 79.2351C143.174 85.784 139.876 92.3326 136.636 98.881C133.396 105.313 130.039 111.803 126.566 118.353C123.209 124.902 119.679 131.743 115.975 138.877C112.387 145.894 108.508 153.262 104.34 160.981L87.3074 189.76L245.506 189.029L245.665 227.878L43.0168 228.815ZM155.926 279.744L155.552 188.395L160.5 114.521L206.7 114.307L207.375 279.506L155.926 279.744ZM379.694 281.509C361.495 281.593 345.905 277.932 332.924 270.525C320.06 263.118 309.519 253.017 301.3 240.221C293.197 227.309 287.246 212.694 283.445 196.378C279.645 179.946 277.766 162.804 277.81 144.954C278.053 118.702 282.801 95.9302 292.056 76.6372C301.427 57.227 313.965 42.2356 329.672 31.6628C345.379 21.0901 363.091 15.7582 382.807 15.667C401.24 15.5818 416.83 19.0098 429.575 25.9509C442.436 32.7749 452.8 42.2354 460.666 54.3325C468.649 66.429 474.423 80.4025 477.988 96.2528C481.552 111.987 483.312 128.72 483.268 146.454C483.145 173.521 478.634 197.168 469.733 217.392C460.948 237.5 448.763 253.19 433.175 264.462C417.588 275.734 399.761 281.416 379.694 281.509ZM380.927 240.553C395.977 240.6 407.38 233.139 415.136 218.17C423.008 203.2 426.88 179.965 426.751 148.465C426.674 129.799 424.975 113.59 421.652 99.8383C418.329 86.0869 413.269 75.4351 406.471 67.8832C399.673 60.3312 391.141 56.5789 380.875 56.6264C365.825 56.696 354.305 63.9826 346.314 78.4864C338.44 92.9896 334.561 114.591 334.679 143.291C334.755 161.841 336.456 178.458 339.783 193.143C343.226 207.71 348.348 219.237 355.149 227.722C361.951 236.207 370.543 240.484 380.927 240.553ZM623.051 280.384C604.851 280.468 589.261 276.807 576.281 269.4C563.417 261.993 552.876 251.892 544.657 239.096C536.554 226.183 530.602 211.569 526.802 195.253C523.002 178.821 521.123 161.679 521.167 143.829C521.41 117.577 526.158 94.8051 535.413 75.5121C544.783 56.1019 557.322 41.1104 573.029 30.5377C588.736 19.965 606.448 14.6331 626.164 14.5419C644.597 14.4567 660.186 17.8846 672.932 24.8258C685.793 31.6497 696.157 41.1102 704.023 53.2073C712.006 65.3039 717.78 79.2774 721.344 95.1277C724.909 110.861 726.669 127.595 726.625 145.329C726.502 172.396 721.99 196.042 713.09 216.267C704.305 236.375 692.119 252.064 676.532 263.337C660.945 274.609 643.118 280.291 623.051 280.384ZM624.284 239.428C639.334 239.475 650.737 232.014 658.492 217.045C666.365 202.075 670.236 178.84 670.108 147.34C670.031 128.674 668.332 112.465 665.009 98.7132C661.686 84.9617 656.625 74.31 649.828 66.758C643.03 59.2061 634.498 55.4538 624.232 55.5013C609.182 55.5708 597.661 62.8575 589.671 77.3613C581.797 91.8645 577.918 113.466 578.036 142.166C578.111 160.716 579.813 177.333 583.139 192.018C586.582 206.585 591.705 218.112 598.506 226.597C605.307 235.082 613.9 239.359 624.284 239.428Z"/>
</mask>
<path d="M43.0168 228.815L39.6029 230.902L40.7781 232.826L43.0331 232.815L43.0168 228.815ZM30.3317 208.049L26.7133 206.346L25.7945 208.296L26.9179 210.135L30.3317 208.049ZM43.5149 179.462L47.1616 181.104L47.1655 181.096L47.1693 181.087L43.5149 179.462ZM55.6532 152.106L52.005 150.468L52.0001 150.479L51.9953 150.489L55.6532 152.106ZM67.4443 125.451L71.1121 127.045L67.4443 125.451ZM78.8868 99.148L75.219 97.554L78.8868 99.148ZM90.5036 72.669L86.8636 71.0126L86.8545 71.0325L86.8457 71.0525L90.5036 72.669ZM102.817 45.3118L106.471 46.9364L106.471 46.9364L102.817 45.3118ZM115.825 16.7264L115.809 12.7264L113.269 12.7381L112.198 15.042L115.825 16.7264ZM132.975 16.6471L134.912 13.1463L134 12.6423L132.959 12.6471L132.975 16.6471ZM168.756 36.4319L172.287 38.3088L174.135 34.8345L170.693 32.9311L168.756 36.4319ZM156.947 58.7117L153.41 56.8457L153.398 56.8688L153.386 56.8921L156.947 58.7117ZM146.531 79.2351L150.09 81.0581L150.097 81.0452L150.103 81.0324L146.531 79.2351ZM136.636 98.881L140.208 100.679L140.215 100.666L140.221 100.653L136.636 98.881ZM126.566 118.353L123.032 116.48L123.019 116.505L123.006 116.53L126.566 118.353ZM115.975 138.877L112.425 137.035L112.419 137.046L112.413 137.057L115.975 138.877ZM104.34 160.981L107.782 163.017L107.822 162.949L107.859 162.88L104.34 160.981ZM87.3074 189.76L83.8654 187.724L80.2739 193.793L87.3238 193.76L87.3074 189.76ZM245.506 189.029L249.506 189.01L249.489 185.01L245.489 185.029L245.506 189.029ZM245.665 227.878L245.681 231.878L249.681 231.86L249.665 227.86L245.665 227.878ZM155.926 279.744L151.926 279.762L151.942 283.762L155.942 283.744L155.926 279.744ZM155.552 188.395L151.561 188.129L151.552 188.271L151.552 188.413L155.552 188.395ZM160.5 114.521L160.484 110.521L156.758 110.538L156.509 114.256L160.5 114.521ZM206.7 114.307L210.7 114.289L210.683 110.289L206.683 110.307L206.7 114.307ZM207.375 279.506L207.392 283.506L211.392 283.487L211.375 279.487L207.375 279.506ZM43.0168 228.815L46.4306 226.729L33.7456 205.962L30.3317 208.049L26.9179 210.135L39.6029 230.902L43.0168 228.815ZM30.3317 208.049L33.9502 209.752C38.5856 199.911 42.9895 190.362 47.1616 181.104L43.5149 179.462L39.8683 177.821C35.7159 187.035 31.331 196.543 26.7133 206.346L30.3317 208.049ZM43.5149 179.462L47.1693 181.087C51.3322 171.732 55.3795 162.61 59.3111 153.723L55.6532 152.106L51.9953 150.489C48.0661 159.372 44.0213 168.488 39.8606 177.838L43.5149 179.462ZM55.6532 152.106L59.3014 153.744C63.3543 144.728 67.2913 135.828 71.1121 127.045L67.4443 125.451L63.7765 123.857C59.9689 132.61 56.0451 141.48 52.005 150.468L55.6532 152.106ZM67.4443 125.451L71.1121 127.045C71.1201 127.027 71.2828 126.653 71.2909 126.634C71.2989 126.616 71.4616 126.242 71.4697 126.223C71.4777 126.205 71.6404 125.831 71.6485 125.812C71.6565 125.794 71.8192 125.42 71.8272 125.401C71.8353 125.383 71.998 125.009 72.006 124.99C72.0141 124.972 72.1768 124.598 72.1848 124.579C72.1929 124.561 72.3555 124.187 72.3636 124.168C72.3717 124.15 72.5343 123.776 72.5424 123.757C72.5505 123.739 72.7131 123.365 72.7212 123.346C72.7292 123.328 72.8919 122.954 72.9 122.935C72.908 122.917 73.0707 122.543 73.0788 122.524C73.0868 122.506 73.2495 122.132 73.2576 122.113C73.2656 122.095 73.4283 121.721 73.4363 121.702C73.4444 121.684 73.6071 121.31 73.6151 121.291C73.6232 121.273 73.7859 120.899 73.7939 120.88C73.802 120.862 73.9647 120.488 73.9727 120.469C73.9808 120.451 74.1434 120.077 74.1515 120.058C74.1596 120.04 74.3222 119.666 74.3303 119.647C74.3384 119.629 74.501 119.255 74.5091 119.236C74.5171 119.218 74.6798 118.844 74.6879 118.825C74.6959 118.807 74.8586 118.433 74.8667 118.414C74.8747 118.396 75.0374 118.022 75.0455 118.003C75.0535 117.985 75.2162 117.611 75.2242 117.592C75.2323 117.574 75.395 117.2 75.403 117.182C75.4111 117.163 75.5738 116.789 75.5818 116.771C75.5899 116.752 75.7525 116.378 75.7606 116.36C75.7687 116.341 75.9313 115.967 75.9394 115.949C75.9475 115.93 76.1101 115.556 76.1182 115.538C76.1262 115.519 76.2889 115.145 76.297 115.127C76.305 115.108 76.4677 114.734 76.4758 114.716C76.4838 114.697 76.6465 114.323 76.6546 114.305C76.6626 114.286 76.8253 113.912 76.8333 113.894C76.9484 113.629 77.4334 112.514 77.5485 112.25C77.6636 111.985 78.1486 110.87 78.2637 110.606C78.3787 110.341 78.8637 109.226 78.9788 108.962C79.209 108.433 79.4638 107.847 79.694 107.318C79.9241 106.789 80.179 106.203 80.4091 105.674C80.6393 105.145 80.8941 104.559 81.1243 104.03C81.3545 103.501 81.6093 102.915 81.8395 102.386C82.0696 101.857 82.3244 101.271 82.5546 100.742L78.8868 99.148L75.219 97.554C75.2109 97.5725 75.0483 97.9465 75.0402 97.965C75.0321 97.9835 74.8695 98.3574 74.8614 98.376C74.8534 98.3945 74.6907 98.7684 74.6826 98.787C74.6746 98.8055 74.5119 99.1794 74.5038 99.198C74.4958 99.2165 74.3331 99.5904 74.325 99.6089C74.317 99.6275 74.1543 100.001 74.1463 100.02C74.1382 100.038 73.9755 100.412 73.9675 100.431C73.9594 100.449 73.7967 100.823 73.7887 100.842C73.7806 100.86 73.6179 101.234 73.6099 101.253C73.6018 101.271 73.4392 101.645 73.4311 101.664C73.423 101.682 73.2604 102.056 73.2523 102.075C73.2442 102.093 73.0816 102.467 73.0735 102.486C73.0655 102.504 72.9028 102.878 72.8947 102.897C72.8867 102.915 72.724 103.289 72.7159 103.308C72.7079 103.326 72.5452 103.7 72.5372 103.719C72.5291 103.737 72.3664 104.111 72.3584 104.13C72.3503 104.148 72.1876 104.522 72.1796 104.541C72.1715 104.559 72.0088 104.933 72.0008 104.952C71.9927 104.97 71.8301 105.344 71.822 105.363C71.8139 105.381 71.6513 105.755 71.6432 105.774C71.6351 105.792 71.4725 106.166 71.4644 106.185C71.4564 106.203 71.2937 106.577 71.2856 106.596C71.2776 106.614 71.1149 106.988 71.1068 107.007C71.0988 107.025 70.9361 107.399 70.928 107.418C70.92 107.436 70.7573 107.81 70.7493 107.829C70.7412 107.847 70.5785 108.221 70.5705 108.24C70.5624 108.258 70.3997 108.632 70.3917 108.651C70.3836 108.669 70.2209 109.043 70.2129 109.062C70.2048 109.08 70.0422 109.454 70.0341 109.473C70.026 109.491 69.8634 109.865 69.8553 109.884C69.8472 109.902 69.6846 110.276 69.6765 110.295C69.6685 110.313 69.5058 110.687 69.4977 110.706C69.3826 110.97 68.8977 112.085 68.7826 112.35C68.6675 112.614 68.1825 113.729 68.0674 113.993C67.9523 114.258 67.4673 115.373 67.3523 115.637C67.2372 115.902 66.7522 117.017 66.6371 117.281C66.522 117.546 66.037 118.661 65.9219 118.925C65.8069 119.19 65.3219 120.305 65.2068 120.569C65.0917 120.834 64.6067 121.949 64.4916 122.213C64.3765 122.478 63.8915 123.593 63.7765 123.857L67.4443 125.451ZM78.8868 99.148L82.5546 100.742C86.3655 91.9819 90.2344 83.1631 94.1615 74.2856L90.5036 72.669L86.8457 71.0525C82.9121 79.9448 79.0365 88.7786 75.219 97.554L78.8868 99.148ZM90.5036 72.669L94.1437 74.3254C98.1957 65.4289 102.305 56.2992 106.471 46.9364L102.817 45.3118L99.1625 43.6872C95.0052 53.0298 90.9056 62.1382 86.8636 71.0126L90.5036 72.669ZM102.817 45.3118L106.471 46.9364C110.624 37.6046 114.951 28.096 119.452 18.4107L115.825 16.7264L112.198 15.042C107.679 24.7653 103.334 34.3137 99.1625 43.6872L102.817 45.3118ZM115.825 16.7264L115.841 20.7263L132.991 20.647L132.975 16.6471L132.959 12.6471L115.809 12.7264L115.825 16.7264ZM132.975 16.6471L131.038 20.1478L166.819 39.9326L168.756 36.4319L170.693 32.9311L134.912 13.1463L132.975 16.6471ZM168.756 36.4319L165.225 34.5549C161.055 42.3941 157.117 49.8244 153.41 56.8457L156.947 58.7117L160.484 60.5777C164.187 53.5646 168.121 46.1416 172.287 38.3088L168.756 36.4319ZM156.947 58.7117L153.386 56.8921C149.794 63.9157 146.319 70.7643 142.958 77.4377L146.531 79.2351L150.103 81.0324C153.456 74.3747 156.924 67.541 160.508 60.5313L156.947 58.7117ZM146.531 79.2351L142.971 77.4121C139.606 83.9777 136.3 90.5433 133.051 97.1087L136.636 98.881L140.221 100.653C143.453 94.122 146.742 87.5903 150.09 81.0581L146.531 79.2351ZM136.636 98.881L133.064 97.0828C129.837 103.489 126.493 109.955 123.032 116.48L126.566 118.353L130.099 120.225C133.585 113.652 136.955 107.137 140.208 100.679L136.636 98.881ZM126.566 118.353L123.006 116.53C119.653 123.072 116.126 129.907 112.425 137.035L115.975 138.877L119.524 140.719C123.231 133.579 126.765 126.732 130.125 120.176L126.566 118.353ZM115.975 138.877L112.413 137.057C108.84 144.045 104.976 151.386 100.82 159.082L104.34 160.981L107.859 162.88C112.04 155.137 115.933 147.743 119.536 140.697L115.975 138.877ZM104.34 160.981L100.898 158.945L83.8654 187.724L87.3074 189.76L90.7494 191.796L107.782 163.017L104.34 160.981ZM87.3074 189.76L87.3238 193.76L245.522 193.029L245.506 189.029L245.489 185.029L87.2911 185.76L87.3074 189.76ZM245.506 189.029L241.506 189.047L241.665 227.897L245.665 227.878L249.665 227.86L249.506 189.01L245.506 189.029ZM245.665 227.878L245.648 223.878L43.0004 224.815L43.0168 228.815L43.0331 232.815L245.681 231.878L245.665 227.878ZM155.926 279.744L159.926 279.725L159.552 188.376L155.552 188.395L151.552 188.413L151.926 279.762L155.926 279.744ZM155.552 188.395L159.543 188.66L164.491 114.786L160.5 114.521L156.509 114.256L151.561 188.129L155.552 188.395ZM160.5 114.521L160.517 118.521L206.716 118.307L206.7 114.307L206.683 110.307L160.484 110.521L160.5 114.521ZM206.7 114.307L202.7 114.326L203.375 279.524L207.375 279.506L211.375 279.487L210.7 114.289L206.7 114.307ZM207.375 279.506L207.359 275.506L155.91 275.744L155.926 279.744L155.942 283.744L207.392 283.506L207.375 279.506ZM332.924 270.525L330.927 273.992L330.933 273.996L330.94 274L332.924 270.525ZM301.3 240.221L297.911 242.349L297.923 242.367L297.934 242.384L301.3 240.221ZM283.445 196.378L279.548 197.282L279.55 197.288L283.445 196.378ZM277.81 144.954L273.81 144.919L273.81 144.933L273.81 144.946L277.81 144.954ZM292.056 76.6372L288.454 74.8997L288.45 74.9088L292.056 76.6372ZM329.672 31.6628L327.44 28.3449L327.44 28.3449L329.672 31.6628ZM429.575 25.9509L427.66 29.464L427.679 29.4744L427.699 29.4846L429.575 25.9509ZM460.666 54.3325L457.312 56.5143L457.32 56.5256L457.327 56.5369L460.666 54.3325ZM477.988 96.2528L474.085 97.1325L474.086 97.1386L477.988 96.2528ZM483.268 146.454L487.268 146.47L487.268 146.462L483.268 146.454ZM469.733 217.392L466.072 215.783L466.068 215.793L469.733 217.392ZM433.175 264.462L430.832 261.221L433.175 264.462ZM380.927 240.553L380.898 244.553L380.912 244.553L380.927 240.553ZM415.136 218.17L411.596 216.309L411.59 216.32L411.584 216.331L415.136 218.17ZM421.652 99.8383L417.764 100.78L421.652 99.8383ZM406.471 67.8832L409.445 65.2062L406.471 67.8832ZM346.314 78.4864L342.811 76.5576L342.805 76.5684L342.799 76.5793L346.314 78.4864ZM339.783 193.143L335.882 194.029L335.886 194.047L335.89 194.065L339.783 193.143ZM355.149 227.722L358.271 225.219L355.149 227.722ZM379.694 281.509L379.678 277.509C362.028 277.591 347.16 274.042 334.908 267.051L332.924 270.525L330.94 274C344.649 281.822 360.962 285.596 379.711 285.509L379.694 281.509ZM332.924 270.525L334.922 267.059C322.626 259.978 312.548 250.33 304.666 238.058L301.3 240.221L297.934 242.384C306.49 255.704 317.495 266.258 330.927 273.992L332.924 270.525ZM301.3 240.221L304.688 238.094C296.843 225.591 291.051 211.396 287.341 195.469L283.445 196.378L279.55 197.288C283.44 213.992 289.551 229.026 297.911 242.349L301.3 240.221ZM283.445 196.378L287.343 195.475C283.615 179.358 281.767 162.523 281.81 144.961L277.81 144.954L273.81 144.946C273.766 163.085 275.675 180.534 279.548 197.282L283.445 196.378ZM277.81 144.954L281.81 144.989C282.048 119.193 286.712 97.0236 295.662 78.3657L292.056 76.6372L288.45 74.9088C278.89 94.8369 274.057 118.211 273.81 144.919L277.81 144.954ZM292.056 76.6372L295.658 78.3747C304.764 59.5133 316.864 45.105 331.905 34.9808L329.672 31.6628L327.44 28.3449C311.067 39.3661 298.09 54.9407 288.454 74.8997L292.056 76.6372ZM329.672 31.6628L331.905 34.9808C346.928 24.8681 363.862 19.7547 382.824 19.667L382.807 15.667L382.791 11.6671C362.32 11.7617 343.83 17.3121 327.44 28.3449L329.672 31.6628ZM382.807 15.667L382.824 19.667C400.761 19.5841 415.646 22.921 427.66 29.464L429.575 25.9509L431.489 22.4378C418.013 15.0985 401.72 11.5795 382.791 11.6671L382.807 15.667ZM429.575 25.9509L427.699 29.4846C439.966 35.9936 449.819 44.9912 457.312 56.5143L460.666 54.3325L464.02 52.1506C455.78 39.4795 444.906 29.5561 431.451 22.4172L429.575 25.9509ZM460.666 54.3325L457.327 56.5369C465.013 68.1838 470.614 81.6976 474.085 97.1325L477.988 96.2528L481.89 95.3731C478.232 79.1074 472.285 64.6742 464.005 52.128L460.666 54.3325ZM477.988 96.2528L474.086 97.1386C477.578 112.552 479.311 128.984 479.268 146.446L483.268 146.454L487.268 146.462C487.313 128.457 485.526 111.421 481.889 95.367L477.988 96.2528ZM483.268 146.454L479.268 146.438C479.147 173.077 474.708 196.16 466.072 215.783L469.733 217.392L473.394 219.002C482.56 198.175 487.143 173.966 487.268 146.47L483.268 146.454ZM469.733 217.392L466.068 215.793C457.528 235.339 445.762 250.424 430.832 261.221L433.175 264.462L435.518 267.703C451.763 255.955 464.369 239.661 473.398 218.992L469.733 217.392ZM433.175 264.462L430.832 261.221C415.953 271.981 398.948 277.42 379.678 277.509L379.694 281.509L379.711 285.509C400.574 285.413 419.223 279.487 435.518 267.703L433.175 264.462ZM380.927 240.553L380.912 244.553C389.135 244.579 396.532 242.543 402.956 238.339C409.355 234.152 414.567 227.961 418.687 220.008L415.136 218.17L411.584 216.331C407.949 223.348 403.581 228.372 398.578 231.646C393.599 234.903 387.769 236.574 380.942 236.553L380.927 240.553ZM415.136 218.17L418.676 220.03C427.015 204.171 430.88 180.127 430.751 148.447L426.751 148.465L422.751 148.484C422.879 179.803 419 202.228 411.596 216.309L415.136 218.17ZM426.751 148.465L430.751 148.447C430.673 129.562 428.955 113.029 425.54 98.8968L421.652 99.8383L417.764 100.78C420.995 114.151 422.675 130.036 422.751 148.484L426.751 148.465ZM421.652 99.8383L425.54 98.8968C422.119 84.7396 416.826 73.4072 409.445 65.2062L406.471 67.8832L403.497 70.5601C409.711 77.4631 414.539 87.4342 417.764 100.78L421.652 99.8383ZM406.471 67.8832L409.445 65.2062C401.876 56.7974 392.252 52.5737 380.858 52.6264L380.875 56.6264L380.891 60.6264C390.031 60.5841 397.471 63.8649 403.497 70.5601L406.471 67.8832ZM380.875 56.6264L380.858 52.6264C364.188 52.7035 351.417 60.9374 342.811 76.5576L346.314 78.4864L349.817 80.4152C357.193 67.0278 367.462 60.6884 380.891 60.6264L380.875 56.6264ZM346.314 78.4864L342.799 76.5793C334.447 91.9624 330.56 114.368 330.679 143.309L334.679 143.291L338.679 143.272C338.562 114.814 342.433 94.0168 349.829 80.3935L346.314 78.4864ZM334.679 143.291L330.679 143.309C330.756 162.087 332.478 179.003 335.882 194.029L339.783 193.143L343.684 192.257C340.434 177.913 338.754 161.595 338.679 143.272L334.679 143.291ZM339.783 193.143L335.89 194.065C339.421 209.005 344.743 221.136 352.028 230.225L355.149 227.722L358.271 225.219C351.953 217.337 347.03 206.415 343.675 192.221L339.783 193.143ZM355.149 227.722L352.028 230.225C359.541 239.598 369.246 244.476 380.898 244.553L380.927 240.553L380.956 236.553C371.84 236.493 364.361 232.817 358.271 225.219L355.149 227.722ZM576.281 269.4L574.283 272.867L574.29 272.871L574.297 272.875L576.281 269.4ZM544.657 239.096L541.268 241.224L541.279 241.241L541.291 241.259L544.657 239.096ZM526.802 195.253L522.905 196.157L522.907 196.163L526.802 195.253ZM521.167 143.829L517.167 143.794L517.167 143.807L517.167 143.821L521.167 143.829ZM535.413 75.5121L531.811 73.7746L531.806 73.7837L535.413 75.5121ZM573.029 30.5377L570.797 27.2198L570.797 27.2198L573.029 30.5377ZM672.932 24.8258L671.017 28.3389L671.036 28.3493L671.055 28.3595L672.932 24.8258ZM704.023 53.2073L700.669 55.3892L700.676 55.4005L700.684 55.4118L704.023 53.2073ZM721.344 95.1277L717.442 96.0074L717.443 96.0135L721.344 95.1277ZM726.625 145.329L730.625 145.345L730.625 145.337L726.625 145.329ZM713.09 216.267L709.429 214.658L709.424 214.667L713.09 216.267ZM676.532 263.337L674.189 260.096L676.532 263.337ZM624.284 239.428L624.255 243.428L624.269 243.428L624.284 239.428ZM658.492 217.045L654.952 215.184L654.947 215.195L654.941 215.206L658.492 217.045ZM665.009 98.7132L661.12 99.6547L665.009 98.7132ZM649.828 66.758L652.801 64.0811L649.828 66.758ZM589.671 77.3613L586.167 75.4325L586.161 75.4433L586.156 75.4542L589.671 77.3613ZM583.139 192.018L579.238 192.903L579.242 192.922L579.247 192.94L583.139 192.018ZM598.506 226.597L601.628 224.094L598.506 226.597ZM623.051 280.384L623.035 276.384C605.384 276.466 590.516 272.917 578.265 265.926L576.281 269.4L574.297 272.875C588.006 280.697 604.318 284.471 623.068 284.384L623.051 280.384ZM576.281 269.4L578.278 265.934C565.982 258.853 555.905 249.204 548.023 236.933L544.657 239.096L541.291 241.259C549.847 254.579 560.852 265.133 574.283 272.867L576.281 269.4ZM544.657 239.096L548.045 236.969C540.2 224.466 534.408 210.271 530.698 194.344L526.802 195.253L522.907 196.163C526.797 212.867 532.908 227.901 541.268 241.224L544.657 239.096ZM526.802 195.253L530.699 194.35C526.972 178.233 525.124 161.398 525.167 143.836L521.167 143.829L517.167 143.821C517.123 161.96 519.032 179.408 522.905 196.157L526.802 195.253ZM521.167 143.829L525.167 143.864C525.405 118.068 530.069 95.8985 539.019 77.2405L535.413 75.5121L531.806 73.7837C522.247 93.7117 517.414 117.086 517.167 143.794L521.167 143.829ZM535.413 75.5121L539.015 77.2496C548.12 58.3882 560.221 43.9799 575.261 33.8556L573.029 30.5377L570.797 27.2198C554.424 38.241 541.446 53.8156 531.811 73.7746L535.413 75.5121ZM573.029 30.5377L575.261 33.8556C590.285 23.743 607.219 18.6295 626.18 18.5419L626.164 14.5419L626.148 10.5419C605.676 10.6366 587.187 16.187 570.797 27.2198L573.029 30.5377ZM626.164 14.5419L626.18 18.5419C644.117 18.4589 659.003 21.7959 671.017 28.3389L672.932 24.8258L674.846 21.3127C661.37 13.9734 645.077 10.4544 626.148 10.5419L626.164 14.5419ZM672.932 24.8258L671.055 28.3595C683.323 34.8684 693.176 43.8661 700.669 55.3892L704.023 53.2073L707.377 51.0255C699.137 38.3544 688.263 28.431 674.808 21.2921L672.932 24.8258ZM704.023 53.2073L700.684 55.4118C708.37 67.0587 713.97 80.5724 717.442 96.0074L721.344 95.1277L725.247 94.248C721.589 77.9823 715.641 63.5491 707.362 51.0029L704.023 53.2073ZM721.344 95.1277L717.443 96.0135C720.935 111.427 722.668 127.859 722.625 145.321L726.625 145.329L730.625 145.337C730.67 127.332 728.883 110.296 725.246 94.2419L721.344 95.1277ZM726.625 145.329L722.625 145.313C722.504 171.952 718.064 195.035 709.429 214.658L713.09 216.267L716.751 217.877C725.916 197.05 730.5 172.841 730.625 145.345L726.625 145.329ZM713.09 216.267L709.424 214.667C700.885 234.214 689.119 249.299 674.189 260.096L676.532 263.337L678.875 266.578C695.119 254.83 707.725 238.536 716.755 217.867L713.09 216.267ZM676.532 263.337L674.189 260.096C659.31 270.856 642.304 276.295 623.035 276.384L623.051 280.384L623.068 284.384C643.931 284.288 662.579 278.362 678.875 266.578L676.532 263.337ZM624.284 239.428L624.269 243.428C632.492 243.454 639.888 241.418 646.312 237.214C652.712 233.027 657.924 226.836 662.044 218.883L658.492 217.045L654.941 215.206C651.306 222.223 646.938 227.247 641.935 230.521C636.956 233.778 631.126 235.449 624.298 235.428L624.284 239.428ZM658.492 217.045L662.033 218.905C670.372 203.046 674.237 179.002 674.107 147.322L670.108 147.34L666.108 147.359C666.236 178.677 662.357 201.103 654.952 215.184L658.492 217.045ZM670.108 147.34L674.107 147.322C674.03 128.437 672.312 111.904 668.897 97.7717L665.009 98.7132L661.12 99.6547C664.351 113.026 666.032 128.911 666.108 147.359L670.108 147.34ZM665.009 98.7132L668.897 97.7717C665.476 83.6145 660.183 72.2821 652.801 64.0811L649.828 66.758L646.854 69.435C653.068 76.3379 657.896 86.309 661.12 99.6547L665.009 98.7132ZM649.828 66.758L652.801 64.0811C645.233 55.6723 635.608 51.4486 624.215 51.5013L624.232 55.5013L624.248 59.5012C633.388 59.459 640.828 62.7398 646.854 69.435L649.828 66.758ZM624.232 55.5013L624.215 51.5013C607.545 51.5784 594.773 59.8123 586.167 75.4325L589.671 77.3613L593.174 79.2901C600.55 65.9027 610.819 59.5633 624.248 59.5012L624.232 55.5013ZM589.671 77.3613L586.156 75.4542C577.804 90.8373 573.917 113.243 574.036 142.184L578.036 142.166L582.036 142.147C581.919 113.689 585.789 92.8917 593.186 79.2684L589.671 77.3613ZM578.036 142.166L574.036 142.184C574.112 160.962 575.834 177.877 579.238 192.903L583.139 192.018L587.041 191.132C583.791 176.788 582.11 160.47 582.036 142.147L578.036 142.166ZM583.139 192.018L579.247 192.94C582.778 207.88 588.1 220.011 595.384 229.1L598.506 226.597L601.628 224.094C595.31 216.212 590.387 205.29 587.032 191.096L583.139 192.018ZM598.506 226.597L595.384 229.1C602.897 238.473 612.603 243.351 624.255 243.428L624.284 239.428L624.312 235.428C615.197 235.368 607.717 231.692 601.628 224.094L598.506 226.597Z" fill="#795CF5" mask="url(#path-1-outside-1_368_2508)"/>
<path d="M31.7621 232.805L19.077 212.038C23.7035 202.217 28.0979 192.688 32.2601 183.452C36.4219 174.099 40.4679 164.981 44.3983 156.096C48.4448 147.094 52.3751 138.209 56.1893 129.441C60.0034 120.673 63.8176 111.905 67.6317 103.138C71.4459 94.3701 75.3181 85.5437 79.2485 76.6588C83.2955 67.7734 87.3998 58.6543 91.5616 49.3017C95.7234 39.949 100.059 30.4205 104.57 20.7163L121.72 20.637L157.501 40.4219C153.333 48.2579 149.397 55.6845 145.692 62.7017C142.104 69.7184 138.632 76.5595 135.276 83.2251C131.919 89.774 128.621 96.3226 125.381 102.871C122.141 109.303 118.784 115.793 115.311 122.343C111.954 128.892 108.424 135.733 104.72 142.867C101.132 149.884 97.2534 157.251 93.085 164.971L76.0526 193.75L234.251 193.019L234.41 231.869L31.7621 232.805ZM144.671 283.734L144.298 192.385L149.245 118.511L195.445 118.297L196.121 283.496L144.671 283.734ZM368.44 285.5C350.24 285.584 334.65 281.923 321.67 274.516C308.806 267.109 298.264 257.007 290.045 244.212C281.942 231.299 275.991 216.685 272.191 200.369C268.39 183.936 266.512 166.795 266.555 148.944C266.798 122.693 271.546 99.9207 280.801 80.6277C290.171 61.2176 302.71 46.2261 318.417 35.6535C334.124 25.0808 351.836 19.7489 371.552 19.6578C389.985 19.5727 405.574 23.0007 418.319 29.9419C431.181 36.7659 441.545 46.2264 449.411 58.3235C457.394 70.4201 463.168 84.3936 466.733 100.244C470.297 115.978 472.057 132.711 472.013 150.445C471.89 177.513 467.379 201.159 458.478 221.383C449.694 241.491 437.508 257.181 421.921 268.453C406.333 279.725 388.506 285.407 368.44 285.5ZM369.672 244.544C384.723 244.591 396.125 237.13 403.881 222.161C411.753 207.191 415.625 183.956 415.496 152.456C415.419 133.79 413.72 117.581 410.397 103.829C407.074 90.0778 402.013 79.426 395.216 71.874C388.418 64.322 379.886 60.5697 369.62 60.6172C354.57 60.6867 343.049 67.9733 335.059 82.4771C327.185 96.9803 323.306 118.582 323.424 147.282C323.5 165.831 325.201 182.449 328.528 197.133C331.971 211.701 337.093 223.227 343.895 231.713C350.696 240.198 359.289 244.475 369.672 244.544ZM611.797 284.376C593.597 284.46 578.007 280.798 565.026 273.392C552.163 265.984 541.621 255.883 533.402 243.087C525.299 230.175 519.348 215.56 515.547 199.244C511.747 182.812 509.868 165.67 509.912 147.82C510.155 121.569 514.903 98.7964 524.158 79.5034C533.528 60.0933 546.067 45.1018 561.774 34.5292C577.481 23.9565 595.192 18.6246 614.909 18.5335C633.342 18.4484 648.931 21.8764 661.676 28.8176C674.538 35.6416 684.901 45.1021 692.768 57.1992C700.751 69.2958 706.524 83.2693 710.089 99.1196C713.654 114.853 715.414 131.587 715.37 149.321C715.247 176.388 710.736 200.034 701.835 220.259C693.051 240.367 680.865 256.056 665.277 267.328C649.69 278.601 631.863 284.283 611.797 284.376ZM613.029 243.42C628.079 243.467 639.482 236.006 647.238 221.036C655.11 206.066 658.981 182.832 658.853 151.332C658.776 132.665 657.077 116.456 653.754 102.705C650.431 88.9535 645.37 78.3018 638.573 70.7497C631.775 63.1977 623.243 59.4455 612.976 59.4929C597.927 59.5624 586.406 66.849 578.416 81.3528C570.541 95.856 566.663 117.457 566.781 146.157C566.857 164.707 568.558 181.324 571.885 196.009C575.328 210.577 580.45 222.103 587.251 230.589C594.053 239.074 602.645 243.351 613.029 243.42Z" fill="#1AD1B9"/>
</svg>
