<svg width="750" height="312" viewBox="0 0 750 312" fill="none" xmlns="http://www.w3.org/2000/svg">
<mask id="path-1-outside-1_368_2645" maskUnits="userSpaceOnUse" x="64.2921" y="9.39523" width="600.118" height="277.767" fill="black">
<rect fill="white" x="64.2921" y="9.39523" width="600.118" height="277.767"/>
<path d="M83.178 228.63L70.4929 207.863C75.1195 198.041 79.5139 188.513 83.6761 179.277C87.8379 169.924 91.884 160.805 95.8144 151.92C99.8609 142.918 103.791 134.033 107.605 125.266C111.42 116.498 115.234 107.73 119.048 98.9623C122.862 90.1946 126.734 81.3683 130.665 72.4833C134.712 63.5979 138.816 54.4788 142.978 45.1261C147.14 35.7735 151.476 26.245 155.986 16.5407L173.136 16.4614L208.917 36.2462C204.749 44.0822 200.813 51.5088 197.108 58.526C193.52 65.5427 190.048 72.3838 186.692 79.0494C183.336 85.5983 180.037 92.147 176.797 98.6953C173.557 105.127 170.2 111.618 166.727 118.167C163.37 124.716 159.84 131.557 156.136 138.691C152.548 145.708 148.67 153.076 144.501 160.795L127.469 189.574L285.667 188.843L285.826 227.693L83.178 228.63ZM196.087 279.558L195.714 188.209L200.662 114.335L246.861 114.122L247.537 279.32L196.087 279.558ZM419.856 281.324C401.656 281.408 386.066 277.746 373.085 270.34C360.222 262.932 349.68 252.831 341.461 240.036C333.358 227.123 327.407 212.509 323.607 196.193C319.806 179.76 317.928 162.619 317.971 144.768C318.214 118.517 322.963 95.7445 332.217 76.4516C341.588 57.0414 354.127 42.0499 369.833 31.4772C385.54 20.9044 403.252 15.5725 422.968 15.4814C441.402 15.3961 456.991 18.8241 469.736 25.7652C482.597 32.5892 492.961 42.0497 500.827 54.1468C508.81 66.2433 514.584 80.2168 518.149 96.0671C521.713 111.801 523.473 128.535 523.429 146.268C523.307 173.336 518.795 196.982 509.894 217.207C501.11 237.314 488.924 253.004 473.336 264.276C457.749 275.548 439.922 281.231 419.856 281.324ZM421.088 240.367C436.138 240.414 447.541 232.953 455.297 217.984C463.169 203.014 467.041 179.779 466.912 148.28C466.836 129.613 465.136 113.404 461.813 99.6526C458.49 85.9012 453.43 75.2495 446.632 67.6975C439.835 60.1455 431.303 56.3932 421.036 56.4407C405.986 56.5103 394.466 63.797 386.475 78.3007C378.601 92.8039 374.723 114.405 374.84 143.105C374.916 161.655 376.617 178.272 379.944 192.957C383.387 207.525 388.509 219.051 395.31 227.536C402.112 236.022 410.704 240.299 421.088 240.367ZM604.227 277.671L603.395 74.3228C596.752 75.9869 590.224 77.4754 583.813 78.7884C577.402 80.1014 570.932 81.3563 564.403 82.5532L559.372 50.3761C564.965 48.8335 571.257 46.6461 578.245 43.8138C585.35 40.9809 592.396 37.8566 599.382 34.4409C606.485 31.0247 612.946 27.6115 618.765 24.2012C624.701 20.6737 629.296 17.5608 632.552 14.8624L658.467 18.4176L659.351 277.416L604.227 277.671Z"/>
</mask>
<path d="M83.178 228.63L79.7641 230.716L80.9393 232.64L83.1943 232.63L83.178 228.63ZM70.4929 207.863L66.8745 206.16L65.9557 208.11L67.0791 209.949L70.4929 207.863ZM83.6761 179.277L87.3228 180.919L87.3267 180.91L87.3305 180.901L83.6761 179.277ZM95.8144 151.92L92.1662 150.282L92.1613 150.293L92.1565 150.304L95.8144 151.92ZM107.605 125.266L111.273 126.86L107.605 125.266ZM119.048 98.9623L115.38 97.3683L119.048 98.9623ZM130.665 72.4834L127.025 70.827L127.016 70.8468L127.007 70.8668L130.665 72.4834ZM142.978 45.1261L146.632 46.7507L146.632 46.7507L142.978 45.1261ZM155.986 16.5407L155.97 12.5407L153.43 12.5525L152.359 14.8564L155.986 16.5407ZM173.136 16.4614L175.073 12.9606L174.162 12.4566L173.12 12.4614L173.136 16.4614ZM208.917 36.2462L212.449 38.1231L214.297 34.6488L210.854 32.7454L208.917 36.2462ZM197.108 58.526L193.571 56.66L193.559 56.6831L193.547 56.7064L197.108 58.526ZM186.692 79.0494L190.252 80.8724L190.258 80.8596L190.265 80.8467L186.692 79.0494ZM176.797 98.6953L180.369 100.494L180.376 100.481L180.382 100.468L176.797 98.6953ZM166.727 118.167L163.193 116.295L163.18 116.319L163.167 116.344L166.727 118.167ZM156.136 138.691L152.586 136.849L152.58 136.861L152.575 136.872L156.136 138.691ZM144.501 160.795L147.943 162.831L147.983 162.764L148.02 162.694L144.501 160.795ZM127.469 189.574L124.027 187.538L120.435 193.607L127.485 193.574L127.469 189.574ZM285.667 188.843L289.667 188.824L289.651 184.824L285.651 184.843L285.667 188.843ZM285.826 227.693L285.842 231.693L289.842 231.674L289.826 227.674L285.826 227.693ZM196.087 279.558L192.087 279.577L192.104 283.577L196.104 283.558L196.087 279.558ZM195.714 188.209L191.723 187.944L191.713 188.085L191.714 188.227L195.714 188.209ZM200.662 114.335L200.645 110.335L196.919 110.352L196.67 114.07L200.662 114.335ZM246.861 114.122L250.861 114.103L250.845 110.103L246.845 110.122L246.861 114.122ZM247.537 279.32L247.553 283.32L251.553 283.302L251.537 279.302L247.537 279.32ZM83.178 228.63L86.5918 226.543L73.9068 205.777L70.4929 207.863L67.0791 209.949L79.7641 230.716L83.178 228.63ZM70.4929 207.863L74.1114 209.566C78.7468 199.726 83.1507 190.176 87.3228 180.919L83.6761 179.277L80.0295 177.635C75.8771 186.849 71.4921 196.357 66.8745 206.16L70.4929 207.863ZM83.6761 179.277L87.3305 180.901C91.4934 171.546 95.5407 162.425 99.4723 153.537L95.8144 151.92L92.1565 150.304C88.2273 159.186 84.1824 168.302 80.0218 177.652L83.6761 179.277ZM95.8144 151.92L99.4626 153.559C103.516 144.542 107.452 135.643 111.273 126.86L107.605 125.266L103.938 123.671C100.13 132.424 96.2063 141.294 92.1662 150.282L95.8144 151.92ZM107.605 125.266L111.273 126.86C111.281 126.841 111.444 126.467 111.452 126.449C111.46 126.43 111.623 126.056 111.631 126.038C111.639 126.019 111.802 125.645 111.81 125.627C111.818 125.608 111.98 125.234 111.988 125.216C111.996 125.197 112.159 124.823 112.167 124.805C112.175 124.786 112.338 124.412 112.346 124.394C112.354 124.375 112.517 124.001 112.525 123.983C112.533 123.964 112.696 123.59 112.704 123.572C112.712 123.553 112.874 123.179 112.882 123.161C112.89 123.142 113.053 122.768 113.061 122.75C113.069 122.731 113.232 122.357 113.24 122.339C113.248 122.32 113.411 121.946 113.419 121.928C113.427 121.909 113.589 121.535 113.598 121.517C113.606 121.498 113.768 121.124 113.776 121.106C113.784 121.087 113.947 120.713 113.955 120.695C113.963 120.676 114.126 120.302 114.134 120.284C114.142 120.265 114.305 119.891 114.313 119.873C114.321 119.854 114.483 119.48 114.491 119.462C114.5 119.443 114.662 119.069 114.67 119.051C114.678 119.032 114.841 118.658 114.849 118.64C114.857 118.621 115.02 118.247 115.028 118.229C115.036 118.21 115.199 117.836 115.207 117.818C115.215 117.799 115.377 117.425 115.385 117.407C115.393 117.388 115.556 117.014 115.564 116.996C115.572 116.977 115.735 116.603 115.743 116.585C115.751 116.566 115.914 116.192 115.922 116.174C115.93 116.155 116.093 115.781 116.101 115.763C116.109 115.744 116.271 115.37 116.279 115.352C116.287 115.333 116.45 114.959 116.458 114.941C116.466 114.922 116.629 114.548 116.637 114.53C116.645 114.511 116.808 114.137 116.816 114.119C116.824 114.1 116.986 113.726 116.995 113.708C117.11 113.443 117.595 112.329 117.71 112.064C117.825 111.799 118.31 110.685 118.425 110.42C118.54 110.155 119.025 109.041 119.14 108.776C119.37 108.247 119.625 107.661 119.855 107.132C120.085 106.603 120.34 106.017 120.57 105.488C120.8 104.959 121.055 104.373 121.285 103.844C121.516 103.315 121.77 102.729 122.001 102.2C122.231 101.671 122.486 101.085 122.716 100.556L119.048 98.9623L115.38 97.3683C115.372 97.3869 115.209 97.7608 115.201 97.7793C115.193 97.7978 115.031 98.1718 115.023 98.1903C115.015 98.2088 114.852 98.5828 114.844 98.6013C114.836 98.6198 114.673 98.9937 114.665 99.0123C114.657 99.0308 114.494 99.4047 114.486 99.4233C114.478 99.4418 114.316 99.8157 114.307 99.8343C114.299 99.8528 114.137 100.227 114.129 100.245C114.121 100.264 113.958 100.638 113.95 100.656C113.942 100.675 113.779 101.049 113.771 101.067C113.763 101.086 113.6 101.46 113.592 101.478C113.584 101.497 113.422 101.871 113.414 101.889C113.405 101.908 113.243 102.282 113.235 102.3C113.227 102.319 113.064 102.693 113.056 102.711C113.048 102.73 112.885 103.104 112.877 103.122C112.869 103.141 112.706 103.515 112.698 103.533C112.69 103.552 112.528 103.926 112.52 103.944C112.511 103.963 112.349 104.337 112.341 104.355C112.333 104.374 112.17 104.748 112.162 104.766C112.154 104.785 111.991 105.159 111.983 105.177C111.975 105.196 111.812 105.57 111.804 105.588C111.796 105.607 111.634 105.981 111.626 105.999C111.618 106.018 111.455 106.392 111.447 106.41C111.439 106.429 111.276 106.803 111.268 106.821C111.26 106.84 111.097 107.213 111.089 107.232C111.081 107.251 110.919 107.624 110.91 107.643C110.902 107.662 110.74 108.035 110.732 108.054C110.724 108.073 110.561 108.446 110.553 108.465C110.545 108.484 110.382 108.857 110.374 108.876C110.366 108.894 110.203 109.268 110.195 109.287C110.187 109.305 110.025 109.679 110.016 109.698C110.008 109.716 109.846 110.09 109.838 110.109C109.83 110.127 109.667 110.501 109.659 110.52C109.544 110.784 109.059 111.899 108.944 112.164C108.829 112.428 108.344 113.543 108.229 113.808C108.114 114.072 107.629 115.187 107.513 115.452C107.398 115.716 106.913 116.831 106.798 117.096C106.683 117.36 106.198 118.475 106.083 118.74C105.968 119.004 105.483 120.119 105.368 120.384C105.253 120.648 104.768 121.763 104.653 122.028C104.538 122.292 104.053 123.407 103.938 123.671L107.605 125.266ZM119.048 98.9623L122.716 100.556C126.527 91.7963 130.396 82.9775 134.323 74.0999L130.665 72.4834L127.007 70.8668C123.073 79.7591 119.198 88.5929 115.38 97.3683L119.048 98.9623ZM130.665 72.4834L134.305 74.1397C138.357 65.2432 142.466 56.1135 146.632 46.7507L142.978 45.1261L139.324 43.5016C135.166 52.8441 131.067 61.9526 127.025 70.827L130.665 72.4834ZM142.978 45.1261L146.632 46.7507C150.785 37.4189 155.112 27.9104 159.613 18.225L155.986 16.5407L152.359 14.8564C147.84 24.5796 143.495 34.128 139.324 43.5016L142.978 45.1261ZM155.986 16.5407L156.003 20.5407L173.152 20.4614L173.136 16.4614L173.12 12.4614L155.97 12.5407L155.986 16.5407ZM173.136 16.4614L171.199 19.9622L206.98 39.7469L208.917 36.2462L210.854 32.7454L175.073 12.9606L173.136 16.4614ZM208.917 36.2462L205.386 34.3692C201.216 42.2085 197.278 49.6388 193.571 56.66L197.108 58.526L200.645 60.392C204.348 53.3789 208.282 45.9559 212.449 38.1231L208.917 36.2462ZM197.108 58.526L193.547 56.7064C189.956 63.7301 186.48 70.5786 183.12 77.2521L186.692 79.0494L190.265 80.8467C193.617 74.189 197.085 67.3553 200.669 60.3457L197.108 58.526ZM186.692 79.0494L183.133 77.2264C179.768 83.792 176.461 90.3576 173.212 96.923L176.797 98.6953L180.382 100.468C183.614 93.9363 186.904 87.4046 190.252 80.8724L186.692 79.0494ZM176.797 98.6953L173.225 96.8971C169.998 103.303 166.654 109.769 163.193 116.295L166.727 118.167L170.261 120.04C173.746 113.466 177.116 106.951 180.369 100.494L176.797 98.6953ZM166.727 118.167L163.167 116.344C159.814 122.886 156.287 129.721 152.586 136.849L156.136 138.691L159.686 140.533C163.393 133.394 166.926 126.546 170.286 119.99L166.727 118.167ZM156.136 138.691L152.575 136.872C149.002 143.859 145.137 151.2 140.982 158.896L144.501 160.795L148.02 162.694C152.202 154.952 156.094 147.557 159.697 140.511L156.136 138.691ZM144.501 160.795L141.059 158.759L124.027 187.538L127.469 189.574L130.911 191.61L147.943 162.831L144.501 160.795ZM127.469 189.574L127.485 193.574L285.683 192.843L285.667 188.843L285.651 184.843L127.452 185.574L127.469 189.574ZM285.667 188.843L281.667 188.861L281.826 227.711L285.826 227.693L289.826 227.674L289.667 188.824L285.667 188.843ZM285.826 227.693L285.809 223.693L83.1616 224.63L83.178 228.63L83.1943 232.63L285.842 231.693L285.826 227.693ZM196.087 279.558L200.087 279.54L199.714 188.19L195.714 188.209L191.714 188.227L192.087 279.577L196.087 279.558ZM195.714 188.209L199.705 188.474L204.653 114.6L200.662 114.335L196.67 114.07L191.723 187.944L195.714 188.209ZM200.662 114.335L200.678 118.335L246.877 118.122L246.861 114.122L246.845 110.122L200.645 110.335L200.662 114.335ZM246.861 114.122L242.861 114.14L243.537 279.339L247.537 279.32L251.537 279.302L250.861 114.103L246.861 114.122ZM247.537 279.32L247.52 275.32L196.071 275.558L196.087 279.558L196.104 283.558L247.553 283.32L247.537 279.32ZM373.085 270.34L371.088 273.806L371.095 273.81L371.102 273.814L373.085 270.34ZM341.461 240.036L338.073 242.163L338.084 242.181L338.095 242.199L341.461 240.036ZM323.607 196.193L319.71 197.096L319.711 197.102L323.607 196.193ZM317.971 144.768L313.972 144.733L313.971 144.747L313.971 144.76L317.971 144.768ZM332.217 76.4516L328.615 74.7141L328.611 74.7231L332.217 76.4516ZM369.833 31.4772L367.601 28.1592L367.601 28.1592L369.833 31.4772ZM469.736 25.7652L467.821 29.2783L467.84 29.2887L467.86 29.2989L469.736 25.7652ZM500.827 54.1468L497.474 56.3286L497.481 56.3399L497.488 56.3512L500.827 54.1468ZM518.149 96.0671L514.246 96.9468L514.248 96.9529L518.149 96.0671ZM523.429 146.268L527.429 146.284L527.429 146.276L523.429 146.268ZM509.894 217.207L506.233 215.597L506.229 215.607L509.894 217.207ZM473.336 264.276L470.994 261.035L473.336 264.276ZM421.088 240.367L421.06 244.367L421.073 244.367L421.088 240.367ZM455.297 217.984L451.757 216.124L451.751 216.135L451.745 216.145L455.297 217.984ZM461.813 99.6526L457.925 100.594L461.813 99.6526ZM446.632 67.6975L449.606 65.0206L446.632 67.6975ZM386.475 78.3007L382.972 76.3719L382.966 76.3828L382.96 76.3936L386.475 78.3007ZM379.944 192.957L376.043 193.843L376.047 193.861L376.051 193.879L379.944 192.957ZM395.31 227.536L398.432 225.034L395.31 227.536ZM419.856 281.324L419.839 277.324C402.189 277.405 387.321 273.856 375.069 266.865L373.085 270.34L371.102 273.814C384.811 281.637 401.123 285.41 419.872 285.323L419.856 281.324ZM373.085 270.34L375.083 266.873C362.787 259.793 352.709 250.144 344.827 237.872L341.461 240.036L338.095 242.199C346.651 255.518 357.656 266.072 371.088 273.806L373.085 270.34ZM341.461 240.036L344.85 237.908C337.004 225.406 331.212 211.21 327.502 195.283L323.607 196.193L319.711 197.102C323.602 213.807 329.712 228.84 338.073 242.163L341.461 240.036ZM323.607 196.193L327.504 195.289C323.776 179.172 321.928 162.337 321.971 144.776L317.971 144.768L313.971 144.76C313.927 162.9 315.836 180.348 319.71 197.096L323.607 196.193ZM317.971 144.768L321.971 144.803C322.21 119.008 326.874 96.8379 335.823 78.18L332.217 76.4516L328.611 74.7231C319.052 94.6512 314.218 118.026 313.972 144.733L317.971 144.768ZM332.217 76.4516L335.819 78.189C344.925 59.3277 357.025 44.9193 372.066 34.7951L369.833 31.4772L367.601 28.1592C351.228 39.1805 338.251 54.7551 328.615 74.7141L332.217 76.4516ZM369.833 31.4772L372.066 34.7951C387.089 24.6824 404.023 19.569 422.985 19.4813L422.968 15.4814L422.952 11.4814C402.481 11.576 383.991 17.1264 367.601 28.1592L369.833 31.4772ZM422.968 15.4814L422.985 19.4813C440.922 19.3984 455.807 22.7353 467.821 29.2783L469.736 25.7652L471.65 22.2522C458.174 14.9128 441.882 11.3939 422.952 11.4814L422.968 15.4814ZM469.736 25.7652L467.86 29.2989C480.127 35.8079 489.981 44.8055 497.474 56.3286L500.827 54.1468L504.181 51.965C495.942 39.2938 485.067 29.3705 471.612 22.2316L469.736 25.7652ZM500.827 54.1468L497.488 56.3512C505.175 67.9982 510.775 81.5119 514.246 96.9468L518.149 96.0671L522.051 95.1874C518.393 78.9217 512.446 64.4885 504.166 51.9423L500.827 54.1468ZM518.149 96.0671L514.248 96.9529C517.739 112.366 519.473 128.798 519.429 146.26L523.429 146.268L527.429 146.276C527.474 128.271 525.687 111.236 522.05 95.1814L518.149 96.0671ZM523.429 146.268L519.429 146.252C519.309 172.891 514.869 195.974 506.233 215.597L509.894 217.207L513.555 218.816C522.721 197.989 527.305 173.78 527.429 146.284L523.429 146.268ZM509.894 217.207L506.229 215.607C497.69 235.153 485.924 250.238 470.994 261.035L473.336 264.276L475.679 267.517C491.924 255.769 504.53 239.475 513.559 218.806L509.894 217.207ZM473.336 264.276L470.994 261.035C456.114 271.795 439.109 277.234 419.839 277.324L419.856 281.324L419.872 285.323C440.735 285.227 459.384 279.301 475.679 267.517L473.336 264.276ZM421.088 240.367L421.073 244.367C429.296 244.393 436.693 242.357 443.117 238.154C449.516 233.966 454.728 227.775 458.848 219.823L455.297 217.984L451.745 216.145C448.11 223.162 443.743 228.186 438.739 231.46C433.76 234.718 427.931 236.389 421.103 236.367L421.088 240.367ZM455.297 217.984L458.837 219.844C467.177 203.986 471.041 179.942 470.912 148.261L466.912 148.28L462.912 148.298C463.04 179.617 459.162 202.043 451.757 216.124L455.297 217.984ZM466.912 148.28L470.912 148.261C470.835 129.376 469.116 112.843 465.701 98.7112L461.813 99.6526L457.925 100.594C461.156 113.965 462.837 129.85 462.912 148.298L466.912 148.28ZM461.813 99.6526L465.701 98.7112C462.28 84.5539 456.988 73.2216 449.606 65.0206L446.632 67.6975L443.659 70.3744C449.872 77.2774 454.7 87.2485 457.925 100.594L461.813 99.6526ZM446.632 67.6975L449.606 65.0206C442.037 56.6118 432.413 52.3881 421.02 52.4407L421.036 56.4407L421.052 60.4407C430.192 60.3984 437.632 63.6792 443.659 70.3744L446.632 67.6975ZM421.036 56.4407L421.02 52.4407C404.349 52.5178 391.578 60.7518 382.972 76.3719L386.475 78.3007L389.978 80.2295C397.354 66.8422 407.623 60.5028 421.052 60.4407L421.036 56.4407ZM386.475 78.3007L382.96 76.3936C374.608 91.7767 370.722 114.183 370.84 143.124L374.84 143.105L378.84 143.087C378.724 114.628 382.594 93.8312 389.99 80.2078L386.475 78.3007ZM374.84 143.105L370.84 143.124C370.917 161.901 372.639 178.817 376.043 193.843L379.944 192.957L383.845 192.071C380.596 177.728 378.915 161.409 378.84 143.087L374.84 143.105ZM379.944 192.957L376.051 193.879C379.582 208.82 384.904 220.951 392.189 230.039L395.31 227.536L398.432 225.034C392.114 217.152 387.191 206.23 383.837 192.035L379.944 192.957ZM395.31 227.536L392.189 230.039C399.702 239.412 409.407 244.29 421.06 244.367L421.088 240.367L421.117 236.367C412.002 236.307 404.522 232.631 398.432 225.034L395.31 227.536ZM604.227 277.671L600.227 277.69L600.243 281.69L604.243 281.671L604.227 277.671ZM603.395 74.3228L607.395 74.3043L607.374 69.203L602.425 70.4427L603.395 74.3228ZM583.813 78.7884L583.013 74.8697L583.813 78.7884ZM564.403 82.5532L560.451 83.1732L561.085 87.2277L565.123 86.4876L564.403 82.5532ZM559.372 50.3761L558.31 46.52L554.868 47.4692L555.42 50.9961L559.372 50.3761ZM578.245 43.8138L576.765 40.0983L576.755 40.1025L576.744 40.1067L578.245 43.8138ZM599.382 34.4409L597.65 30.8364L597.638 30.8419L597.626 30.8476L599.382 34.4409ZM618.765 24.2012L620.786 27.652L620.797 27.6458L620.807 27.6395L618.765 24.2012ZM632.552 14.8624L633.098 10.8995L631.355 10.6604L630 11.7832L632.552 14.8624ZM658.467 18.4176L662.467 18.4018L662.455 14.927L659.013 14.4547L658.467 18.4176ZM659.351 277.416L659.367 281.416L663.365 281.398L663.351 277.4L659.351 277.416ZM604.227 277.671L608.227 277.653L607.395 74.3043L603.395 74.3228L599.395 74.3413L600.227 277.69L604.227 277.671ZM603.395 74.3228L602.425 70.4427C595.835 72.0933 589.365 73.5689 583.013 74.8697L583.813 78.7884L584.614 82.707C591.084 81.3819 597.668 79.8804 604.365 78.2029L603.395 74.3228ZM583.813 78.7884L583.013 74.8697C576.629 76.1771 570.186 77.4268 563.684 78.6187L564.403 82.5532L565.123 86.4876C571.678 85.2858 578.175 84.0256 584.614 82.707L583.813 78.7884ZM564.403 82.5532L568.355 81.9331L563.324 49.756L559.372 50.3761L555.42 50.9961L560.451 83.1732L564.403 82.5532ZM559.372 50.3761L560.433 54.2321C566.212 52.6384 572.654 50.3951 579.746 47.5208L578.245 43.8138L576.744 40.1067C569.859 42.8971 563.718 45.0287 558.31 46.52L559.372 50.3761ZM578.245 43.8138L579.725 47.5292C586.925 44.6585 594.062 41.4933 601.137 38.0342L599.382 34.4409L597.626 30.8476C590.729 34.2198 583.776 37.3033 576.765 40.0983L578.245 43.8138ZM599.382 34.4409L601.114 38.0455C608.299 34.5896 614.858 31.1257 620.786 27.652L618.765 24.2012L616.744 20.7504C611.033 24.0973 604.67 27.4598 597.65 30.8364L599.382 34.4409ZM618.765 24.2012L620.807 27.6395C626.825 24.0633 631.62 20.8291 635.104 17.9415L632.552 14.8624L630 11.7832C626.973 14.2924 622.576 17.2842 616.723 20.7629L618.765 24.2012ZM632.552 14.8624L632.006 18.8253L657.921 22.3805L658.467 18.4176L659.013 14.4547L633.098 10.8995L632.552 14.8624ZM658.467 18.4176L654.467 18.4334L655.351 277.432L659.351 277.416L663.351 277.4L662.467 18.4018L658.467 18.4176ZM659.351 277.416L659.335 273.416L604.21 273.671L604.227 277.671L604.243 281.671L659.367 281.416L659.351 277.416Z" fill="#795CF5" mask="url(#path-1-outside-1_368_2645)"/>
<path d="M71.9228 232.619L59.2377 211.853C63.8642 202.031 68.2586 192.502 72.4208 183.266C76.5826 173.914 80.6286 164.795 84.559 155.91C88.6055 146.908 92.5358 138.023 96.35 129.255C100.164 120.488 103.978 111.72 107.792 102.952C111.607 94.1845 115.479 85.3582 119.409 76.4733C123.456 67.5878 127.561 58.4688 131.722 49.1161C135.884 39.7634 140.22 30.235 144.73 20.5307L161.88 20.4515L197.662 40.2364C193.494 48.0724 189.557 55.499 185.853 62.5162C182.265 69.5328 178.793 76.3739 175.436 83.0395C172.08 89.5884 168.782 96.1371 165.542 102.685C162.301 109.117 158.945 115.608 155.471 122.157C152.115 128.706 148.584 135.547 144.88 142.681C141.292 149.698 137.414 157.066 133.246 164.785L116.213 193.564L274.412 192.833L274.571 231.683L71.9228 232.619ZM184.832 283.548L184.458 192.199L189.406 118.325L235.606 118.112L236.282 283.311L184.832 283.548ZM408.601 285.314C390.401 285.399 374.811 281.737 361.83 274.33C348.966 266.923 338.425 256.822 330.206 244.026C322.103 231.113 316.152 216.499 312.351 200.183C308.551 183.751 306.672 166.609 306.716 148.759C306.958 122.507 311.707 99.7351 320.961 80.4422C330.332 61.032 342.871 46.0406 358.578 35.4679C374.285 24.8953 391.996 19.5634 411.713 19.4723C430.146 19.3871 445.735 22.8151 458.48 29.7563C471.342 36.5803 481.705 46.0409 489.572 58.138C497.554 70.2346 503.328 84.208 506.893 100.058C510.458 115.792 512.218 132.526 512.174 150.26C512.051 177.327 507.54 200.973 498.639 221.198C489.854 241.305 477.669 256.995 462.081 268.267C446.494 279.539 428.667 285.222 408.601 285.314ZM409.833 244.358C424.883 244.405 436.286 236.944 444.042 221.975C451.914 207.005 455.785 183.77 455.657 152.271C455.58 133.604 453.88 117.395 450.557 103.644C447.234 89.8922 442.174 79.2405 435.377 71.6885C428.579 64.1365 420.047 60.3842 409.78 60.4316C394.73 60.5012 383.21 67.7878 375.219 82.2915C367.345 96.7947 363.467 118.396 363.585 147.096C363.66 165.646 365.362 182.263 368.689 196.948C372.132 211.515 377.254 223.042 384.055 231.527C390.857 240.013 399.449 244.29 409.833 244.358ZM592.972 281.663L592.139 78.3143C585.496 79.9784 578.969 81.4669 572.557 82.7799C566.146 84.0928 559.676 85.3477 553.148 86.5446L548.116 54.3675C553.71 52.8249 560.001 50.6375 566.989 47.8052C574.094 44.9724 581.14 41.8481 588.126 38.4325C595.229 35.0163 601.69 31.6031 607.509 28.1928C613.445 24.6654 618.041 21.5524 621.296 18.854L647.211 22.4093L648.096 281.408L592.972 281.663Z" fill="#1AD1B9"/>
</svg>
