<svg width="750" height="312" viewBox="0 0 750 312" fill="none" xmlns="http://www.w3.org/2000/svg">
<g filter="url(#filter0_d_368_2553)">
<mask id="path-1-outside-1_368_2553" maskUnits="userSpaceOnUse" x="53.2927" y="9.14095" width="666.122" height="279.072" fill="black">
<rect fill="white" x="53.2927" y="9.14095" width="666.122" height="279.072"/>
<path d="M82.6672 283.582C79.7505 283.596 75.8999 283.439 71.1151 283.111C66.4471 282.782 62.3614 282.218 58.8581 281.418L58.7035 243.618C60.9207 243.724 63.0794 243.831 65.1799 243.938C67.3965 243.928 69.4965 243.918 71.4798 243.909C91.0796 243.818 108.045 241.523 122.377 237.023C136.825 232.523 147.941 226.172 155.724 217.969C163.508 209.766 167.376 200.065 167.331 188.865C167.277 175.682 163.387 166.016 155.662 159.869C148.053 153.72 135.732 150.686 118.699 150.764C111.349 150.798 103.42 151.827 94.9117 153.85C86.5199 155.872 78.3048 158.301 70.2663 161.139L60.2685 155.585L70.0395 20.0881L213.888 19.423L209.169 63.7203L109.245 64.1823L103.517 118.459C110.858 116.325 118.027 114.717 125.023 113.635C132.018 112.553 138.666 111.997 144.966 111.968C170.049 111.852 189.092 118.355 202.096 131.479C215.216 144.485 221.824 162.713 221.92 186.163C221.976 199.929 218.879 212.719 212.627 224.531C206.375 236.227 197.258 246.477 185.277 255.283C173.297 264.088 158.683 270.981 141.436 275.961C124.19 280.94 104.6 283.481 82.6672 283.582ZM367.219 281.567C349.02 281.651 333.43 277.99 320.449 270.583C307.585 263.176 297.044 253.074 288.825 240.279C280.722 227.366 274.771 212.752 270.971 196.436C267.17 180.003 265.292 162.862 265.335 145.011C265.578 118.76 270.326 95.9879 279.581 76.6949C288.952 57.2847 301.49 42.2933 317.197 31.7205C332.904 21.1478 350.616 15.8159 370.332 15.7247C388.765 15.6395 404.355 19.0674 417.1 26.0086C429.961 32.8325 440.325 42.293 448.191 54.3901C456.174 66.4867 461.948 80.4602 465.513 96.3105C469.077 112.044 470.837 128.778 470.793 146.512C470.67 173.579 466.159 197.225 457.258 217.45C448.474 237.557 436.288 253.247 420.7 264.519C405.113 275.792 387.286 281.474 367.219 281.567ZM368.452 240.611C383.502 240.658 394.905 233.197 402.661 218.227C410.533 203.257 414.405 180.023 414.276 148.523C414.199 129.856 412.5 113.647 409.177 99.896C405.854 86.1445 400.794 75.4928 393.996 67.9408C387.198 60.3889 378.666 56.6366 368.4 56.6841C353.35 56.7536 341.83 64.0403 333.839 78.5441C325.965 93.0473 322.087 114.649 322.204 143.349C322.28 161.898 323.981 178.516 327.308 193.2C330.751 207.768 335.873 219.294 342.674 227.78C349.476 236.265 358.068 240.542 368.452 240.611ZM610.576 280.442C592.376 280.526 576.786 276.865 563.806 269.458C550.942 262.051 540.401 251.949 532.182 239.154C524.079 226.241 518.127 211.627 514.327 195.311C510.527 178.878 508.648 161.737 508.692 143.886C508.935 117.635 513.683 94.8628 522.938 75.5698C532.308 56.1596 544.847 41.1681 560.554 30.5954C576.261 20.0227 593.973 14.6907 613.689 14.5996C632.122 14.5144 647.711 17.9423 660.457 24.8835C673.318 31.7074 683.682 41.1679 691.548 53.265C699.531 65.3616 705.305 79.335 708.869 95.1854C712.434 110.919 714.194 127.653 714.15 145.386C714.027 172.454 709.516 196.1 700.615 216.325C691.83 236.432 679.644 252.122 664.057 263.394C648.47 274.667 630.643 280.349 610.576 280.442ZM611.809 239.486C626.859 239.533 638.262 232.072 646.018 217.102C653.89 202.132 657.761 178.898 657.633 147.398C657.556 128.731 655.857 112.522 652.534 98.7709C649.211 85.0194 644.15 74.3677 637.353 66.8157C630.555 59.2637 622.023 55.5115 611.757 55.5589C596.707 55.6285 585.186 62.9152 577.196 77.4189C569.322 91.9222 565.443 113.524 565.561 142.223C565.637 160.773 567.338 177.391 570.665 192.075C574.107 206.643 579.23 218.169 586.031 226.655C592.833 235.14 601.425 239.417 611.809 239.486Z"/>
</mask>
<path d="M71.1151 283.111L70.8323 287.101L70.8396 287.102L71.1151 283.111ZM58.8581 281.418L54.8582 281.436L54.8711 284.61L57.9651 285.317L58.8581 281.418ZM58.7035 243.618L58.8974 239.622L54.6863 239.42L54.7036 243.636L58.7035 243.618ZM65.1799 243.938L64.9744 247.933L65.0852 247.938L65.1963 247.938L65.1799 243.938ZM122.377 237.023L121.189 233.204L121.181 233.207L122.377 237.023ZM155.724 217.969L158.625 220.721L155.724 217.969ZM155.662 159.869L153.147 162.98L153.158 162.99L153.17 162.999L155.662 159.869ZM94.9117 153.85L93.9886 149.958L93.9767 149.961L94.9117 153.85ZM70.2663 161.139L68.3225 164.635L69.8969 165.51L71.5959 164.91L70.2663 161.139ZM60.2685 155.585L56.2789 155.299L56.0954 157.843L58.3247 159.082L60.2685 155.585ZM70.0395 20.0881L70.0232 16.0881L66.3165 16.1053L66.0499 19.8025L70.0395 20.0881ZM213.888 19.423L217.865 19.8446L218.339 15.4024L213.872 15.4231L213.888 19.423ZM209.169 63.7203L209.185 67.7203L212.767 67.7037L213.147 64.1419L209.169 63.7203ZM109.245 64.1823L109.229 60.1823L105.644 60.1989L105.267 63.7646L109.245 64.1823ZM103.517 118.459L99.5392 118.042L98.9144 123.962L104.632 122.3L103.517 118.459ZM125.023 113.635L124.413 109.682L125.023 113.635ZM202.096 131.479L199.254 134.295L199.267 134.308L199.279 134.32L202.096 131.479ZM212.627 224.531L216.154 226.415L216.158 226.408L216.162 226.401L212.627 224.531ZM185.277 255.283L182.91 252.06L185.277 255.283ZM141.436 275.961L142.544 279.804L141.436 275.961ZM82.6672 283.582L82.6508 279.583C79.8733 279.595 76.1315 279.445 71.3907 279.12L71.1151 283.111L70.8396 287.102C75.6683 287.432 79.6278 287.597 82.6835 287.582L82.6672 283.582ZM71.1151 283.111L71.398 279.121C66.8777 278.803 63.0042 278.261 59.7511 277.518L58.8581 281.418L57.9651 285.317C61.7186 286.175 66.0165 286.762 70.8323 287.101L71.1151 283.111ZM58.8581 281.418L62.8581 281.399L62.7035 243.599L58.7035 243.618L54.7036 243.636L54.8582 281.436L58.8581 281.418ZM58.7035 243.618L58.5096 247.613C60.7231 247.72 62.878 247.826 64.9744 247.933L65.1799 243.938L65.3854 239.943C63.2809 239.836 61.1182 239.729 58.8974 239.622L58.7035 243.618ZM65.1799 243.938L65.1963 247.938C65.2006 247.938 65.2049 247.938 65.2092 247.938C65.2136 247.938 65.2179 247.938 65.2222 247.938C65.2266 247.938 65.2309 247.938 65.2352 247.938C65.2395 247.938 65.2439 247.938 65.2482 247.938C65.2525 247.938 65.2568 247.938 65.2612 247.938C65.2655 247.938 65.2698 247.938 65.2741 247.938C65.2785 247.937 65.2828 247.937 65.2871 247.937C65.2914 247.937 65.2958 247.937 65.3001 247.937C65.3044 247.937 65.3087 247.937 65.313 247.937C65.3174 247.937 65.3217 247.937 65.326 247.937C65.3303 247.937 65.3346 247.937 65.339 247.937C65.3433 247.937 65.3476 247.937 65.3519 247.937C65.3562 247.937 65.3606 247.937 65.3649 247.937C65.3692 247.937 65.3735 247.937 65.3778 247.937C65.3821 247.937 65.3865 247.937 65.3908 247.937C65.3951 247.937 65.3994 247.937 65.4037 247.937C65.408 247.937 65.4124 247.937 65.4167 247.937C65.421 247.937 65.4253 247.937 65.4296 247.937C65.4339 247.937 65.4382 247.937 65.4425 247.937C65.4469 247.937 65.4512 247.937 65.4555 247.937C65.4598 247.937 65.4641 247.937 65.4684 247.937C65.4727 247.937 65.477 247.937 65.4814 247.937C65.4857 247.937 65.49 247.937 65.4943 247.937C65.4986 247.936 65.5029 247.936 65.5072 247.936C65.5115 247.936 65.5158 247.936 65.5201 247.936C65.5244 247.936 65.5287 247.936 65.533 247.936C65.5374 247.936 65.5417 247.936 65.546 247.936C65.5503 247.936 65.5546 247.936 65.5589 247.936C65.5632 247.936 65.5675 247.936 65.5718 247.936C65.5761 247.936 65.5804 247.936 65.5847 247.936C65.589 247.936 65.5933 247.936 65.5976 247.936C65.6019 247.936 65.6062 247.936 65.6105 247.936C65.6148 247.936 65.6191 247.936 65.6234 247.936C65.6277 247.936 65.632 247.936 65.6363 247.936C65.6406 247.936 65.6449 247.936 65.6492 247.936C65.6535 247.936 65.6578 247.936 65.6621 247.936C65.6664 247.936 65.6707 247.936 65.675 247.936C65.6793 247.936 65.6836 247.936 65.6879 247.936C65.6922 247.936 65.6965 247.936 65.7008 247.936C65.7051 247.936 65.7094 247.936 65.7136 247.935C65.7179 247.935 65.7222 247.935 65.7265 247.935C65.7308 247.935 65.7351 247.935 65.7394 247.935C65.7437 247.935 65.748 247.935 65.7523 247.935C65.7566 247.935 65.7609 247.935 65.7652 247.935C65.7694 247.935 65.7737 247.935 65.778 247.935C65.7823 247.935 65.7866 247.935 65.7909 247.935C65.7952 247.935 65.7995 247.935 65.8038 247.935C65.808 247.935 65.8123 247.935 65.8166 247.935C65.8209 247.935 65.8252 247.935 65.8295 247.935C65.8338 247.935 65.838 247.935 65.8423 247.935C65.8466 247.935 65.8509 247.935 65.8552 247.935C65.8595 247.935 65.8637 247.935 65.868 247.935C65.8723 247.935 65.8766 247.935 65.8809 247.935C65.8852 247.935 65.8894 247.935 65.8937 247.935C65.898 247.935 65.9023 247.935 65.9066 247.935C65.9108 247.935 65.9151 247.935 65.9194 247.935C65.9237 247.935 65.928 247.934 65.9322 247.934C65.9365 247.934 65.9408 247.934 65.9451 247.934C65.9494 247.934 65.9536 247.934 65.9579 247.934C65.9622 247.934 65.9665 247.934 65.9707 247.934C65.975 247.934 65.9793 247.934 65.9836 247.934C65.9878 247.934 65.9921 247.934 65.9964 247.934C66.0007 247.934 66.0049 247.934 66.0092 247.934C66.0135 247.934 66.0178 247.934 66.022 247.934C66.0263 247.934 66.0306 247.934 66.0348 247.934C66.0391 247.934 66.0434 247.934 66.0477 247.934C66.0519 247.934 66.0562 247.934 66.0605 247.934C66.0647 247.934 66.069 247.934 66.0733 247.934C66.0775 247.934 66.0818 247.934 66.0861 247.934C66.0904 247.934 66.0946 247.934 66.0989 247.934C66.1032 247.934 66.1074 247.934 66.1117 247.934C66.116 247.934 66.1202 247.934 66.1245 247.934C66.1287 247.934 66.133 247.934 66.1373 247.934C66.1415 247.934 66.1458 247.933 66.1501 247.933C66.1543 247.933 66.1586 247.933 66.1629 247.933C66.1671 247.933 66.1714 247.933 66.1756 247.933C66.1799 247.933 66.1842 247.933 66.1884 247.933C66.1927 247.933 66.197 247.933 66.2012 247.933C66.2055 247.933 66.2097 247.933 66.214 247.933C66.2182 247.933 66.2225 247.933 66.2268 247.933C66.231 247.933 66.2353 247.933 66.2395 247.933C66.2438 247.933 66.2481 247.933 66.2523 247.933C66.2566 247.933 66.2608 247.933 66.2651 247.933C66.2693 247.933 66.2736 247.933 66.2778 247.933C66.2821 247.933 66.2864 247.933 66.2906 247.933C66.2949 247.933 66.2991 247.933 66.3034 247.933C66.3076 247.933 66.3119 247.933 66.3161 247.933C66.3204 247.933 66.3246 247.933 66.3289 247.933C66.3331 247.933 66.3374 247.933 66.3416 247.933C66.3459 247.933 66.3501 247.933 66.3544 247.933C66.3586 247.933 66.3629 247.932 66.3671 247.932C66.3714 247.932 66.3756 247.932 66.3799 247.932C66.3841 247.932 66.3884 247.932 66.3926 247.932C66.3969 247.932 66.4011 247.932 66.4053 247.932C66.4096 247.932 66.4138 247.932 66.4181 247.932C66.4223 247.932 66.4266 247.932 66.4308 247.932C66.4351 247.932 66.4393 247.932 66.4435 247.932C66.4478 247.932 66.452 247.932 66.4563 247.932C66.4605 247.932 66.4648 247.932 66.469 247.932C66.4732 247.932 66.4775 247.932 66.4817 247.932C66.486 247.932 66.4902 247.932 66.4944 247.932C66.4987 247.932 66.5029 247.932 66.5072 247.932C66.5114 247.932 66.5156 247.932 66.5199 247.932C66.5241 247.932 66.5283 247.932 66.5326 247.932C66.5368 247.932 66.5411 247.932 66.5453 247.932C66.5495 247.932 66.5538 247.932 66.558 247.932C66.5622 247.932 66.5665 247.932 66.5707 247.932C66.5749 247.932 66.5792 247.931 66.5834 247.931C66.5876 247.931 66.5919 247.931 66.5961 247.931C66.6003 247.931 66.6046 247.931 66.6088 247.931C66.613 247.931 66.6173 247.931 66.6215 247.931C66.6257 247.931 66.63 247.931 66.6342 247.931C66.6384 247.931 66.6426 247.931 66.6469 247.931C66.6511 247.931 66.6553 247.931 66.6596 247.931C66.6638 247.931 66.668 247.931 66.6722 247.931C66.6765 247.931 66.6807 247.931 66.6849 247.931C66.6891 247.931 66.6934 247.931 66.6976 247.931C66.7018 247.931 66.706 247.931 66.7103 247.931C66.7145 247.931 66.7187 247.931 66.7229 247.931C66.7272 247.931 66.7314 247.931 66.7356 247.931C66.7398 247.931 66.7441 247.931 66.7483 247.931C66.7525 247.931 66.7567 247.931 66.7609 247.931C66.7652 247.931 66.7694 247.931 66.7736 247.931C66.7778 247.931 66.782 247.931 66.7863 247.931C66.7905 247.931 66.7947 247.93 66.7989 247.93C66.8031 247.93 66.8073 247.93 66.8116 247.93C66.8158 247.93 66.82 247.93 66.8242 247.93C66.8284 247.93 66.8326 247.93 66.8369 247.93C66.8411 247.93 66.8453 247.93 66.8495 247.93C66.8537 247.93 66.8579 247.93 66.8622 247.93C66.8664 247.93 66.8706 247.93 66.8748 247.93C66.879 247.93 66.8832 247.93 66.8874 247.93C66.8916 247.93 66.8959 247.93 66.9001 247.93C66.9043 247.93 66.9085 247.93 66.9127 247.93C66.9169 247.93 66.9211 247.93 66.9253 247.93C66.9295 247.93 66.9337 247.93 66.938 247.93C66.9422 247.93 66.9464 247.93 66.9506 247.93C66.9548 247.93 66.959 247.93 66.9632 247.93C66.9674 247.93 66.9716 247.93 66.9758 247.93C66.98 247.93 66.9842 247.93 66.9884 247.93C66.9926 247.93 66.9968 247.93 67.001 247.93C67.0052 247.93 67.0095 247.929 67.0137 247.929C67.0179 247.929 67.0221 247.929 67.0263 247.929C67.0305 247.929 67.0347 247.929 67.0389 247.929C67.0431 247.929 67.0473 247.929 67.0515 247.929C67.0557 247.929 67.0599 247.929 67.0641 247.929C67.0683 247.929 67.0725 247.929 67.0767 247.929C67.0809 247.929 67.0851 247.929 67.0893 247.929C67.0935 247.929 67.0977 247.929 67.1018 247.929C67.106 247.929 67.1102 247.929 67.1144 247.929C67.1186 247.929 67.1228 247.929 67.127 247.929C67.1312 247.929 67.1354 247.929 67.1396 247.929C67.1438 247.929 67.148 247.929 67.1522 247.929C67.1564 247.929 67.1606 247.929 67.1648 247.929C67.169 247.929 67.1732 247.929 67.1773 247.929C67.1815 247.929 67.1857 247.929 67.1899 247.929C67.1941 247.929 67.1983 247.929 67.2025 247.929C67.2067 247.929 67.2109 247.929 67.2151 247.929C67.2192 247.929 67.2234 247.929 67.2276 247.928C67.2318 247.928 67.236 247.928 67.2402 247.928C67.2444 247.928 67.2486 247.928 67.2527 247.928C67.2569 247.928 67.2611 247.928 67.2653 247.928C67.2695 247.928 67.2737 247.928 67.2779 247.928C67.282 247.928 67.2862 247.928 67.2904 247.928C67.2946 247.928 67.2988 247.928 67.303 247.928C67.3071 247.928 67.3113 247.928 67.3155 247.928C67.3197 247.928 67.3239 247.928 67.328 247.928C67.3322 247.928 67.3364 247.928 67.3406 247.928C67.3448 247.928 67.3489 247.928 67.3531 247.928C67.3573 247.928 67.3615 247.928 67.3657 247.928C67.3698 247.928 67.374 247.928 67.3782 247.928C67.3824 247.928 67.3865 247.928 67.3907 247.928C67.3949 247.928 67.3991 247.928 67.4032 247.928C67.4074 247.928 67.4116 247.928 67.4158 247.928C67.4199 247.928 67.4241 247.928 67.4283 247.928C67.4325 247.928 67.4366 247.928 67.4408 247.928C67.445 247.927 67.4492 247.927 67.4533 247.927C67.4575 247.927 67.4617 247.927 67.4658 247.927C67.47 247.927 67.4742 247.927 67.4784 247.927C67.4825 247.927 67.4867 247.927 67.4909 247.927C67.495 247.927 67.4992 247.927 67.5034 247.927C67.5075 247.927 67.5117 247.927 67.5159 247.927C67.52 247.927 67.5242 247.927 67.5284 247.927C67.5325 247.927 67.5367 247.927 67.5409 247.927C67.545 247.927 67.5492 247.927 67.5534 247.927C67.5575 247.927 67.5617 247.927 67.5659 247.927C67.57 247.927 67.5742 247.927 67.5784 247.927C67.5825 247.927 67.5867 247.927 67.5908 247.927C67.595 247.927 67.5992 247.927 67.6033 247.927C67.6075 247.927 67.6116 247.927 67.6158 247.927C67.62 247.927 67.6241 247.927 67.6283 247.927C67.6324 247.927 67.6366 247.927 67.6408 247.927C67.6449 247.927 67.6491 247.927 67.6532 247.927C67.6574 247.927 67.6616 247.926 67.6657 247.926C67.6699 247.926 67.674 247.926 67.6782 247.926C67.6823 247.926 67.6865 247.926 67.6906 247.926C67.6948 247.926 67.699 247.926 67.7031 247.926C67.7073 247.926 67.7114 247.926 67.7156 247.926C67.7197 247.926 67.7239 247.926 67.728 247.926C67.7322 247.926 67.7363 247.926 67.7405 247.926C67.7446 247.926 67.7488 247.926 67.7529 247.926C67.7571 247.926 67.7612 247.926 67.7654 247.926C67.7695 247.926 67.7737 247.926 67.7778 247.926C67.782 247.926 67.7861 247.926 67.7903 247.926C67.7944 247.926 67.7986 247.926 67.8027 247.926C67.8069 247.926 67.811 247.926 67.8152 247.926C67.8193 247.926 67.8234 247.926 67.8276 247.926C67.8317 247.926 67.8359 247.926 67.84 247.926C67.8442 247.926 67.8483 247.926 67.8525 247.926C67.8566 247.926 67.8607 247.926 67.8649 247.926C67.869 247.926 67.8732 247.926 67.8773 247.925C67.8815 247.925 67.8856 247.925 67.8897 247.925C67.8939 247.925 67.898 247.925 67.9022 247.925C67.9063 247.925 67.9104 247.925 67.9146 247.925C67.9187 247.925 67.9229 247.925 67.927 247.925C67.9311 247.925 67.9353 247.925 67.9394 247.925C67.9435 247.925 67.9477 247.925 67.9518 247.925C67.956 247.925 67.9601 247.925 67.9642 247.925C67.9684 247.925 67.9725 247.925 67.9766 247.925C67.9808 247.925 67.9849 247.925 67.989 247.925C67.9932 247.925 67.9973 247.925 68.0014 247.925C68.0056 247.925 68.0097 247.925 68.0138 247.925C68.018 247.925 68.0221 247.925 68.0262 247.925C68.0304 247.925 68.0345 247.925 68.0386 247.925C68.0427 247.925 68.0469 247.925 68.051 247.925C68.0551 247.925 68.0593 247.925 68.0634 247.925C68.0675 247.925 68.0716 247.925 68.0758 247.925C68.0799 247.925 68.084 247.925 68.0882 247.925C68.0923 247.924 68.0964 247.924 68.1005 247.924C68.1047 247.924 68.1088 247.924 68.1129 247.924C68.117 247.924 68.1212 247.924 68.1253 247.924C68.1294 247.924 68.1335 247.924 68.1376 247.924C68.1418 247.924 68.1459 247.924 68.15 247.924C68.1541 247.924 68.1583 247.924 68.1624 247.924C68.1665 247.924 68.1706 247.924 68.1747 247.924C68.1789 247.924 68.183 247.924 68.1871 247.924C68.1912 247.924 68.1953 247.924 68.1995 247.924C68.2036 247.924 68.2077 247.924 68.2118 247.924C68.2159 247.924 68.22 247.924 68.2242 247.924C68.2283 247.924 68.2324 247.924 68.2365 247.924C68.2406 247.924 68.2447 247.924 68.2489 247.924C68.253 247.924 68.2571 247.924 68.2612 247.924C68.2653 247.924 68.2694 247.924 68.2735 247.924C68.2777 247.924 68.2818 247.924 68.2859 247.924C68.29 247.924 68.2941 247.924 68.2982 247.924C68.3023 247.924 68.3064 247.924 68.3105 247.923C68.3147 247.923 68.3188 247.923 68.3229 247.923C68.327 247.923 68.3311 247.923 68.3352 247.923C68.3393 247.923 68.3434 247.923 68.3475 247.923C68.3516 247.923 68.3557 247.923 68.3598 247.923C68.364 247.923 68.3681 247.923 68.3722 247.923C68.3763 247.923 68.3804 247.923 68.3845 247.923C68.3886 247.923 68.3927 247.923 68.3968 247.923C68.4009 247.923 68.405 247.923 68.4091 247.923C68.4132 247.923 68.4173 247.923 68.4214 247.923C68.4255 247.923 68.4296 247.923 68.4337 247.923C68.4378 247.923 68.4419 247.923 68.446 247.923C68.4501 247.923 68.4542 247.923 68.4583 247.923C68.4624 247.923 68.4665 247.923 68.4706 247.923C68.4747 247.923 68.4788 247.923 68.4829 247.923C68.487 247.923 68.4911 247.923 68.4952 247.923C68.4993 247.923 68.5034 247.923 68.5075 247.923C68.5116 247.923 68.5157 247.923 68.5198 247.923C68.5239 247.922 68.528 247.922 68.5321 247.922C68.5362 247.922 68.5403 247.922 68.5444 247.922C68.5485 247.922 68.5525 247.922 68.5566 247.922C68.5607 247.922 68.5648 247.922 68.5689 247.922C68.573 247.922 68.5771 247.922 68.5812 247.922C68.5853 247.922 68.5894 247.922 68.5935 247.922C68.5975 247.922 68.6016 247.922 68.6057 247.922C68.6098 247.922 68.6139 247.922 68.618 247.922C68.6221 247.922 68.6262 247.922 68.6303 247.922C68.6343 247.922 68.6384 247.922 68.6425 247.922C68.6466 247.922 68.6507 247.922 68.6548 247.922C68.6589 247.922 68.6629 247.922 68.667 247.922C68.6711 247.922 68.6752 247.922 68.6793 247.922C68.6834 247.922 68.6874 247.922 68.6915 247.922C68.6956 247.922 68.6997 247.922 68.7038 247.922C68.7079 247.922 68.7119 247.922 68.716 247.922C68.7201 247.922 68.7242 247.922 68.7283 247.922C68.7323 247.922 68.7364 247.922 68.7405 247.921C68.7446 247.921 68.7487 247.921 68.7527 247.921C68.7568 247.921 68.7609 247.921 68.765 247.921C68.7691 247.921 68.7731 247.921 68.7772 247.921C68.7813 247.921 68.7854 247.921 68.7894 247.921C68.7935 247.921 68.7976 247.921 68.8017 247.921C68.8057 247.921 68.8098 247.921 68.8139 247.921C68.818 247.921 68.822 247.921 68.8261 247.921C68.8302 247.921 68.8342 247.921 68.8383 247.921C68.8424 247.921 68.8465 247.921 68.8505 247.921C68.8546 247.921 68.8587 247.921 68.8627 247.921C68.8668 247.921 68.8709 247.921 68.875 247.921C68.879 247.921 68.8831 247.921 68.8872 247.921C68.8912 247.921 68.8953 247.921 68.8994 247.921C68.9034 247.921 68.9075 247.921 68.9116 247.921C68.9156 247.921 68.9197 247.921 68.9238 247.921C68.9278 247.921 68.9319 247.921 68.936 247.921C68.94 247.921 68.9441 247.921 68.9482 247.921C68.9522 247.921 68.9563 247.92 68.9603 247.92C68.9644 247.92 68.9685 247.92 68.9725 247.92C68.9766 247.92 68.9807 247.92 68.9847 247.92C68.9888 247.92 68.9928 247.92 68.9969 247.92C69.001 247.92 69.005 247.92 69.0091 247.92C69.0131 247.92 69.0172 247.92 69.0213 247.92C69.0253 247.92 69.0294 247.92 69.0334 247.92C69.0375 247.92 69.0416 247.92 69.0456 247.92C69.0497 247.92 69.0537 247.92 69.0578 247.92C69.0618 247.92 69.0659 247.92 69.07 247.92C69.074 247.92 69.0781 247.92 69.0821 247.92C69.0862 247.92 69.0902 247.92 69.0943 247.92C69.0983 247.92 69.1024 247.92 69.1064 247.92C69.1105 247.92 69.1145 247.92 69.1186 247.92C69.1226 247.92 69.1267 247.92 69.1307 247.92C69.1348 247.92 69.1388 247.92 69.1429 247.92C69.1469 247.92 69.151 247.92 69.155 247.92C69.1591 247.92 69.1631 247.92 69.1672 247.92C69.1712 247.92 69.1753 247.919 69.1793 247.919C69.1834 247.919 69.1874 247.919 69.1915 247.919C69.1955 247.919 69.1996 247.919 69.2036 247.919C69.2077 247.919 69.2117 247.919 69.2157 247.919C69.2198 247.919 69.2238 247.919 69.2279 247.919C69.2319 247.919 69.236 247.919 69.24 247.919C69.2441 247.919 69.2481 247.919 69.2521 247.919C69.2562 247.919 69.2602 247.919 69.2643 247.919C69.2683 247.919 69.2723 247.919 69.2764 247.919C69.2804 247.919 69.2845 247.919 69.2885 247.919C69.2925 247.919 69.2966 247.919 69.3006 247.919C69.3047 247.919 69.3087 247.919 69.3127 247.919C69.3168 247.919 69.3208 247.919 69.3248 247.919C69.3289 247.919 69.3329 247.919 69.337 247.919C69.341 247.919 69.345 247.919 69.3491 247.919C69.3531 247.919 69.3571 247.919 69.3612 247.919C69.3652 247.919 69.3692 247.919 69.3733 247.919C69.3773 247.919 69.3813 247.919 69.3854 247.919C69.3894 247.918 69.3934 247.918 69.3975 247.918C69.4015 247.918 69.4055 247.918 69.4095 247.918C69.4136 247.918 69.4176 247.918 69.4216 247.918C69.4257 247.918 69.4297 247.918 69.4337 247.918C69.4377 247.918 69.4418 247.918 69.4458 247.918C69.4498 247.918 69.4539 247.918 69.4579 247.918C69.4619 247.918 69.4659 247.918 69.47 247.918C69.474 247.918 69.478 247.918 69.482 247.918C69.4861 247.918 69.4901 247.918 69.4941 247.918C69.4981 247.918 69.5022 247.918 69.5062 247.918C69.5102 247.918 69.5142 247.918 69.5183 247.918C69.5223 247.918 69.5263 247.918 69.5303 247.918C69.5343 247.918 69.5384 247.918 69.5424 247.918C69.5464 247.918 69.5504 247.918 69.5544 247.918C69.5585 247.918 69.5625 247.918 69.5665 247.918C69.5705 247.918 69.5745 247.918 69.5786 247.918C69.5826 247.918 69.5866 247.918 69.5906 247.918C69.5946 247.918 69.5986 247.918 69.6027 247.918C69.6067 247.917 69.6107 247.917 69.6147 247.917C69.6187 247.917 69.6227 247.917 69.6267 247.917C69.6308 247.917 69.6348 247.917 69.6388 247.917C69.6428 247.917 69.6468 247.917 69.6508 247.917C69.6548 247.917 69.6589 247.917 69.6629 247.917C69.6669 247.917 69.6709 247.917 69.6749 247.917C69.6789 247.917 69.6829 247.917 69.6869 247.917C69.6909 247.917 69.6949 247.917 69.699 247.917C69.703 247.917 69.707 247.917 69.711 247.917C69.715 247.917 69.719 247.917 69.723 247.917C69.727 247.917 69.731 247.917 69.735 247.917C69.739 247.917 69.743 247.917 69.747 247.917C69.751 247.917 69.7551 247.917 69.7591 247.917C69.7631 247.917 69.7671 247.917 69.7711 247.917C69.7751 247.917 69.7791 247.917 69.7831 247.917C69.7871 247.917 69.7911 247.917 69.7951 247.917C69.7991 247.917 69.8031 247.917 69.8071 247.917C69.8111 247.917 69.8151 247.917 69.8191 247.917C69.8231 247.916 69.8271 247.916 69.8311 247.916C69.8351 247.916 69.8391 247.916 69.8431 247.916C69.8471 247.916 69.8511 247.916 69.8551 247.916C69.8591 247.916 69.8631 247.916 69.8671 247.916C69.8711 247.916 69.8751 247.916 69.8791 247.916C69.8831 247.916 69.8871 247.916 69.891 247.916C69.895 247.916 69.899 247.916 69.903 247.916C69.907 247.916 69.911 247.916 69.915 247.916C69.919 247.916 69.923 247.916 69.927 247.916C69.931 247.916 69.935 247.916 69.939 247.916C69.943 247.916 69.9469 247.916 69.9509 247.916C69.9549 247.916 69.9589 247.916 69.9629 247.916C69.9669 247.916 69.9709 247.916 69.9749 247.916C69.9789 247.916 69.9828 247.916 69.9868 247.916C69.9908 247.916 69.9948 247.916 69.9988 247.916C70.0028 247.916 70.0068 247.916 70.0108 247.916C70.0147 247.916 70.0187 247.916 70.0227 247.916C70.0267 247.916 70.0307 247.916 70.0347 247.916C70.0386 247.915 70.0426 247.915 70.0466 247.915C70.0506 247.915 70.0546 247.915 70.0586 247.915C70.0625 247.915 70.0665 247.915 70.0705 247.915C70.0745 247.915 70.0785 247.915 70.0824 247.915C70.0864 247.915 70.0904 247.915 70.0944 247.915C70.0984 247.915 70.1023 247.915 70.1063 247.915C70.1103 247.915 70.1143 247.915 70.1183 247.915C70.1222 247.915 70.1262 247.915 70.1302 247.915C70.1342 247.915 70.1381 247.915 70.1421 247.915C70.1461 247.915 70.1501 247.915 70.154 247.915C70.158 247.915 70.162 247.915 70.166 247.915C70.1699 247.915 70.1739 247.915 70.1779 247.915C70.1819 247.915 70.1858 247.915 70.1898 247.915C70.1938 247.915 70.1978 247.915 70.2017 247.915C70.2057 247.915 70.2097 247.915 70.2136 247.915C70.2176 247.915 70.2216 247.915 70.2256 247.915C70.2295 247.915 70.2335 247.915 70.2375 247.915C70.2414 247.915 70.2454 247.915 70.2494 247.915C70.2533 247.914 70.2573 247.914 70.2613 247.914C70.2652 247.914 70.2692 247.914 70.2732 247.914C70.2771 247.914 70.2811 247.914 70.2851 247.914C70.289 247.914 70.293 247.914 70.297 247.914C70.3009 247.914 70.3049 247.914 70.3089 247.914C70.3128 247.914 70.3168 247.914 70.3207 247.914C70.3247 247.914 70.3287 247.914 70.3326 247.914C70.3366 247.914 70.3406 247.914 70.3445 247.914C70.3485 247.914 70.3524 247.914 70.3564 247.914C70.3604 247.914 70.3643 247.914 70.3683 247.914C70.3722 247.914 70.3762 247.914 70.3801 247.914C70.3841 247.914 70.3881 247.914 70.392 247.914C70.396 247.914 70.3999 247.914 70.4039 247.914C70.4078 247.914 70.4118 247.914 70.4158 247.914C70.4197 247.914 70.4237 247.914 70.4276 247.914C70.4316 247.914 70.4355 247.914 70.4395 247.914C70.4434 247.914 70.4474 247.914 70.4513 247.914C70.4553 247.914 70.4593 247.914 70.4632 247.914C70.4672 247.914 70.4711 247.913 70.4751 247.913C70.479 247.913 70.483 247.913 70.4869 247.913C70.4909 247.913 70.4948 247.913 70.4988 247.913C70.5027 247.913 70.5067 247.913 70.5106 247.913C70.5146 247.913 70.5185 247.913 70.5225 247.913C70.5264 247.913 70.5303 247.913 70.5343 247.913C70.5382 247.913 70.5422 247.913 70.5461 247.913C70.5501 247.913 70.554 247.913 70.558 247.913C70.5619 247.913 70.5659 247.913 70.5698 247.913C70.5737 247.913 70.5777 247.913 70.5816 247.913C70.5856 247.913 70.5895 247.913 70.5935 247.913C70.5974 247.913 70.6013 247.913 70.6053 247.913C70.6092 247.913 70.6132 247.913 70.6171 247.913C70.621 247.913 70.625 247.913 70.6289 247.913C70.6329 247.913 70.6368 247.913 70.6407 247.913C70.6447 247.913 70.6486 247.913 70.6526 247.913C70.6565 247.913 70.6604 247.913 70.6644 247.913C70.6683 247.913 70.6722 247.913 70.6762 247.913C70.6801 247.913 70.6841 247.913 70.688 247.912C70.6919 247.912 70.6959 247.912 70.6998 247.912C70.7037 247.912 70.7077 247.912 70.7116 247.912C70.7155 247.912 70.7195 247.912 70.7234 247.912C70.7273 247.912 70.7313 247.912 70.7352 247.912C70.7391 247.912 70.743 247.912 70.747 247.912C70.7509 247.912 70.7548 247.912 70.7588 247.912C70.7627 247.912 70.7666 247.912 70.7706 247.912C70.7745 247.912 70.7784 247.912 70.7823 247.912C70.7863 247.912 70.7902 247.912 70.7941 247.912C70.7981 247.912 70.802 247.912 70.8059 247.912C70.8098 247.912 70.8138 247.912 70.8177 247.912C70.8216 247.912 70.8255 247.912 70.8295 247.912C70.8334 247.912 70.8373 247.912 70.8412 247.912C70.8452 247.912 70.8491 247.912 70.853 247.912C70.8569 247.912 70.8608 247.912 70.8648 247.912C70.8687 247.912 70.8726 247.912 70.8765 247.912C70.8804 247.912 70.8844 247.912 70.8883 247.912C70.8922 247.912 70.8961 247.912 70.9 247.912C70.904 247.911 70.9079 247.911 70.9118 247.911C70.9157 247.911 70.9196 247.911 70.9236 247.911C70.9275 247.911 70.9314 247.911 70.9353 247.911C70.9392 247.911 70.9431 247.911 70.9471 247.911C70.951 247.911 70.9549 247.911 70.9588 247.911C70.9627 247.911 70.9666 247.911 70.9705 247.911C70.9745 247.911 70.9784 247.911 70.9823 247.911C70.9862 247.911 70.9901 247.911 70.994 247.911C70.9979 247.911 71.0018 247.911 71.0058 247.911C71.0097 247.911 71.0136 247.911 71.0175 247.911C71.0214 247.911 71.0253 247.911 71.0292 247.911C71.0331 247.911 71.037 247.911 71.0409 247.911C71.0448 247.911 71.0488 247.911 71.0527 247.911C71.0566 247.911 71.0605 247.911 71.0644 247.911C71.0683 247.911 71.0722 247.911 71.0761 247.911C71.08 247.911 71.0839 247.911 71.0878 247.911C71.0917 247.911 71.0956 247.911 71.0995 247.911C71.1034 247.911 71.1073 247.911 71.1112 247.911C71.1151 247.911 71.119 247.91 71.123 247.91C71.1269 247.91 71.1308 247.91 71.1347 247.91C71.1386 247.91 71.1425 247.91 71.1464 247.91C71.1503 247.91 71.1542 247.91 71.1581 247.91C71.162 247.91 71.1659 247.91 71.1698 247.91C71.1737 247.91 71.1776 247.91 71.1815 247.91C71.1853 247.91 71.1892 247.91 71.1931 247.91C71.197 247.91 71.2009 247.91 71.2048 247.91C71.2087 247.91 71.2126 247.91 71.2165 247.91C71.2204 247.91 71.2243 247.91 71.2282 247.91C71.2321 247.91 71.236 247.91 71.2399 247.91C71.2438 247.91 71.2477 247.91 71.2516 247.91C71.2555 247.91 71.2593 247.91 71.2632 247.91C71.2671 247.91 71.271 247.91 71.2749 247.91C71.2788 247.91 71.2827 247.91 71.2866 247.91C71.2905 247.91 71.2944 247.91 71.2982 247.91C71.3021 247.91 71.306 247.91 71.3099 247.91C71.3138 247.91 71.3177 247.91 71.3216 247.91C71.3255 247.91 71.3294 247.91 71.3332 247.91C71.3371 247.909 71.341 247.909 71.3449 247.909C71.3488 247.909 71.3527 247.909 71.3565 247.909C71.3604 247.909 71.3643 247.909 71.3682 247.909C71.3721 247.909 71.376 247.909 71.3798 247.909C71.3837 247.909 71.3876 247.909 71.3915 247.909C71.3954 247.909 71.3993 247.909 71.4031 247.909C71.407 247.909 71.4109 247.909 71.4148 247.909C71.4187 247.909 71.4225 247.909 71.4264 247.909C71.4303 247.909 71.4342 247.909 71.4381 247.909C71.4419 247.909 71.4458 247.909 71.4497 247.909C71.4536 247.909 71.4574 247.909 71.4613 247.909C71.4652 247.909 71.4691 247.909 71.4729 247.909C71.4768 247.909 71.4807 247.909 71.4846 247.909C71.4884 247.909 71.4923 247.909 71.4962 247.909L71.4798 243.909L71.4635 239.909C71.4596 239.909 71.4557 239.909 71.4519 239.909C71.448 239.909 71.4441 239.909 71.4402 239.909C71.4364 239.909 71.4325 239.909 71.4286 239.909C71.4247 239.909 71.4208 239.909 71.417 239.909C71.4131 239.909 71.4092 239.909 71.4053 239.909C71.4015 239.909 71.3976 239.909 71.3937 239.909C71.3898 239.909 71.3859 239.909 71.3821 239.909C71.3782 239.909 71.3743 239.909 71.3704 239.909C71.3665 239.909 71.3627 239.909 71.3588 239.909C71.3549 239.909 71.351 239.909 71.3471 239.909C71.3432 239.909 71.3394 239.909 71.3355 239.909C71.3316 239.909 71.3277 239.909 71.3238 239.909C71.3199 239.909 71.3161 239.91 71.3122 239.91C71.3083 239.91 71.3044 239.91 71.3005 239.91C71.2966 239.91 71.2927 239.91 71.2889 239.91C71.285 239.91 71.2811 239.91 71.2772 239.91C71.2733 239.91 71.2694 239.91 71.2655 239.91C71.2616 239.91 71.2578 239.91 71.2539 239.91C71.25 239.91 71.2461 239.91 71.2422 239.91C71.2383 239.91 71.2344 239.91 71.2305 239.91C71.2266 239.91 71.2227 239.91 71.2188 239.91C71.215 239.91 71.2111 239.91 71.2072 239.91C71.2033 239.91 71.1994 239.91 71.1955 239.91C71.1916 239.91 71.1877 239.91 71.1838 239.91C71.1799 239.91 71.176 239.91 71.1721 239.91C71.1682 239.91 71.1643 239.91 71.1604 239.91C71.1565 239.91 71.1526 239.91 71.1487 239.91C71.1448 239.91 71.1409 239.91 71.137 239.91C71.1331 239.91 71.1292 239.91 71.1253 239.91C71.1214 239.91 71.1175 239.91 71.1136 239.91C71.1097 239.91 71.1058 239.91 71.1019 239.91C71.098 239.911 71.0941 239.911 71.0902 239.911C71.0863 239.911 71.0824 239.911 71.0785 239.911C71.0746 239.911 71.0707 239.911 71.0668 239.911C71.0629 239.911 71.059 239.911 71.0551 239.911C71.0512 239.911 71.0473 239.911 71.0434 239.911C71.0395 239.911 71.0356 239.911 71.0317 239.911C71.0278 239.911 71.0239 239.911 71.02 239.911C71.016 239.911 71.0121 239.911 71.0082 239.911C71.0043 239.911 71.0004 239.911 70.9965 239.911C70.9926 239.911 70.9887 239.911 70.9848 239.911C70.9809 239.911 70.977 239.911 70.973 239.911C70.9691 239.911 70.9652 239.911 70.9613 239.911C70.9574 239.911 70.9535 239.911 70.9496 239.911C70.9457 239.911 70.9417 239.911 70.9378 239.911C70.9339 239.911 70.93 239.911 70.9261 239.911C70.9222 239.911 70.9183 239.911 70.9143 239.911C70.9104 239.911 70.9065 239.911 70.9026 239.911C70.8987 239.911 70.8948 239.911 70.8908 239.911C70.8869 239.911 70.883 239.912 70.8791 239.912C70.8752 239.912 70.8713 239.912 70.8673 239.912C70.8634 239.912 70.8595 239.912 70.8556 239.912C70.8517 239.912 70.8477 239.912 70.8438 239.912C70.8399 239.912 70.836 239.912 70.832 239.912C70.8281 239.912 70.8242 239.912 70.8203 239.912C70.8164 239.912 70.8124 239.912 70.8085 239.912C70.8046 239.912 70.8007 239.912 70.7967 239.912C70.7928 239.912 70.7889 239.912 70.785 239.912C70.781 239.912 70.7771 239.912 70.7732 239.912C70.7693 239.912 70.7653 239.912 70.7614 239.912C70.7575 239.912 70.7536 239.912 70.7496 239.912C70.7457 239.912 70.7418 239.912 70.7378 239.912C70.7339 239.912 70.73 239.912 70.7261 239.912C70.7221 239.912 70.7182 239.912 70.7143 239.912C70.7103 239.912 70.7064 239.912 70.7025 239.912C70.6985 239.912 70.6946 239.912 70.6907 239.912C70.6867 239.912 70.6828 239.912 70.6789 239.912C70.6749 239.912 70.671 239.912 70.6671 239.913C70.6631 239.913 70.6592 239.913 70.6553 239.913C70.6513 239.913 70.6474 239.913 70.6435 239.913C70.6395 239.913 70.6356 239.913 70.6317 239.913C70.6277 239.913 70.6238 239.913 70.6198 239.913C70.6159 239.913 70.612 239.913 70.608 239.913C70.6041 239.913 70.6002 239.913 70.5962 239.913C70.5923 239.913 70.5883 239.913 70.5844 239.913C70.5805 239.913 70.5765 239.913 70.5726 239.913C70.5686 239.913 70.5647 239.913 70.5607 239.913C70.5568 239.913 70.5529 239.913 70.5489 239.913C70.545 239.913 70.541 239.913 70.5371 239.913C70.5331 239.913 70.5292 239.913 70.5253 239.913C70.5213 239.913 70.5174 239.913 70.5134 239.913C70.5095 239.913 70.5055 239.913 70.5016 239.913C70.4976 239.913 70.4937 239.913 70.4897 239.913C70.4858 239.913 70.4818 239.913 70.4779 239.913C70.4739 239.913 70.47 239.913 70.466 239.913C70.4621 239.913 70.4581 239.913 70.4542 239.913C70.4502 239.914 70.4463 239.914 70.4423 239.914C70.4384 239.914 70.4344 239.914 70.4305 239.914C70.4265 239.914 70.4226 239.914 70.4186 239.914C70.4147 239.914 70.4107 239.914 70.4068 239.914C70.4028 239.914 70.3989 239.914 70.3949 239.914C70.391 239.914 70.387 239.914 70.383 239.914C70.3791 239.914 70.3751 239.914 70.3712 239.914C70.3672 239.914 70.3633 239.914 70.3593 239.914C70.3553 239.914 70.3514 239.914 70.3474 239.914C70.3435 239.914 70.3395 239.914 70.3356 239.914C70.3316 239.914 70.3276 239.914 70.3237 239.914C70.3197 239.914 70.3158 239.914 70.3118 239.914C70.3078 239.914 70.3039 239.914 70.2999 239.914C70.296 239.914 70.292 239.914 70.288 239.914C70.2841 239.914 70.2801 239.914 70.2761 239.914C70.2722 239.914 70.2682 239.914 70.2642 239.914C70.2603 239.914 70.2563 239.914 70.2523 239.914C70.2484 239.914 70.2444 239.914 70.2405 239.914C70.2365 239.914 70.2325 239.915 70.2286 239.915C70.2246 239.915 70.2206 239.915 70.2167 239.915C70.2127 239.915 70.2087 239.915 70.2047 239.915C70.2008 239.915 70.1968 239.915 70.1928 239.915C70.1889 239.915 70.1849 239.915 70.1809 239.915C70.177 239.915 70.173 239.915 70.169 239.915C70.165 239.915 70.1611 239.915 70.1571 239.915C70.1531 239.915 70.1492 239.915 70.1452 239.915C70.1412 239.915 70.1372 239.915 70.1333 239.915C70.1293 239.915 70.1253 239.915 70.1213 239.915C70.1174 239.915 70.1134 239.915 70.1094 239.915C70.1054 239.915 70.1015 239.915 70.0975 239.915C70.0935 239.915 70.0895 239.915 70.0855 239.915C70.0816 239.915 70.0776 239.915 70.0736 239.915C70.0696 239.915 70.0657 239.915 70.0617 239.915C70.0577 239.915 70.0537 239.915 70.0497 239.915C70.0458 239.915 70.0418 239.915 70.0378 239.915C70.0338 239.915 70.0298 239.915 70.0258 239.915C70.0219 239.915 70.0179 239.916 70.0139 239.916C70.0099 239.916 70.0059 239.916 70.0019 239.916C69.998 239.916 69.994 239.916 69.99 239.916C69.986 239.916 69.982 239.916 69.978 239.916C69.9741 239.916 69.9701 239.916 69.9661 239.916C69.9621 239.916 69.9581 239.916 69.9541 239.916C69.9501 239.916 69.9461 239.916 69.9422 239.916C69.9382 239.916 69.9342 239.916 69.9302 239.916C69.9262 239.916 69.9222 239.916 69.9182 239.916C69.9142 239.916 69.9102 239.916 69.9062 239.916C69.9023 239.916 69.8983 239.916 69.8943 239.916C69.8903 239.916 69.8863 239.916 69.8823 239.916C69.8783 239.916 69.8743 239.916 69.8703 239.916C69.8663 239.916 69.8623 239.916 69.8583 239.916C69.8543 239.916 69.8503 239.916 69.8463 239.916C69.8423 239.916 69.8384 239.916 69.8344 239.916C69.8304 239.916 69.8264 239.916 69.8224 239.916C69.8184 239.916 69.8144 239.916 69.8104 239.916C69.8064 239.916 69.8024 239.917 69.7984 239.917C69.7944 239.917 69.7904 239.917 69.7864 239.917C69.7824 239.917 69.7784 239.917 69.7744 239.917C69.7704 239.917 69.7664 239.917 69.7624 239.917C69.7584 239.917 69.7544 239.917 69.7504 239.917C69.7464 239.917 69.7424 239.917 69.7384 239.917C69.7343 239.917 69.7303 239.917 69.7263 239.917C69.7223 239.917 69.7183 239.917 69.7143 239.917C69.7103 239.917 69.7063 239.917 69.7023 239.917C69.6983 239.917 69.6943 239.917 69.6903 239.917C69.6863 239.917 69.6823 239.917 69.6783 239.917C69.6743 239.917 69.6702 239.917 69.6662 239.917C69.6622 239.917 69.6582 239.917 69.6542 239.917C69.6502 239.917 69.6462 239.917 69.6422 239.917C69.6382 239.917 69.6342 239.917 69.6301 239.917C69.6261 239.917 69.6221 239.917 69.6181 239.917C69.6141 239.917 69.6101 239.917 69.6061 239.917C69.6021 239.917 69.598 239.917 69.594 239.917C69.59 239.917 69.586 239.918 69.582 239.918C69.578 239.918 69.574 239.918 69.5699 239.918C69.5659 239.918 69.5619 239.918 69.5579 239.918C69.5539 239.918 69.5499 239.918 69.5458 239.918C69.5418 239.918 69.5378 239.918 69.5338 239.918C69.5298 239.918 69.5257 239.918 69.5217 239.918C69.5177 239.918 69.5137 239.918 69.5097 239.918C69.5056 239.918 69.5016 239.918 69.4976 239.918C69.4936 239.918 69.4896 239.918 69.4855 239.918C69.4815 239.918 69.4775 239.918 69.4735 239.918C69.4694 239.918 69.4654 239.918 69.4614 239.918C69.4574 239.918 69.4534 239.918 69.4493 239.918C69.4453 239.918 69.4413 239.918 69.4372 239.918C69.4332 239.918 69.4292 239.918 69.4252 239.918C69.4211 239.918 69.4171 239.918 69.4131 239.918C69.4091 239.918 69.405 239.918 69.401 239.918C69.397 239.918 69.3929 239.918 69.3889 239.918C69.3849 239.918 69.3809 239.918 69.3768 239.918C69.3728 239.918 69.3688 239.919 69.3647 239.919C69.3607 239.919 69.3567 239.919 69.3526 239.919C69.3486 239.919 69.3446 239.919 69.3405 239.919C69.3365 239.919 69.3325 239.919 69.3284 239.919C69.3244 239.919 69.3204 239.919 69.3163 239.919C69.3123 239.919 69.3083 239.919 69.3042 239.919C69.3002 239.919 69.2962 239.919 69.2921 239.919C69.2881 239.919 69.2841 239.919 69.28 239.919C69.276 239.919 69.2719 239.919 69.2679 239.919C69.2639 239.919 69.2598 239.919 69.2558 239.919C69.2517 239.919 69.2477 239.919 69.2437 239.919C69.2396 239.919 69.2356 239.919 69.2315 239.919C69.2275 239.919 69.2235 239.919 69.2194 239.919C69.2154 239.919 69.2113 239.919 69.2073 239.919C69.2033 239.919 69.1992 239.919 69.1952 239.919C69.1911 239.919 69.1871 239.919 69.183 239.919C69.179 239.919 69.1749 239.919 69.1709 239.919C69.1669 239.919 69.1628 239.919 69.1588 239.919C69.1547 239.919 69.1507 239.92 69.1466 239.92C69.1426 239.92 69.1385 239.92 69.1345 239.92C69.1304 239.92 69.1264 239.92 69.1223 239.92C69.1183 239.92 69.1142 239.92 69.1102 239.92C69.1061 239.92 69.1021 239.92 69.098 239.92C69.094 239.92 69.0899 239.92 69.0859 239.92C69.0818 239.92 69.0778 239.92 69.0737 239.92C69.0697 239.92 69.0656 239.92 69.0616 239.92C69.0575 239.92 69.0535 239.92 69.0494 239.92C69.0453 239.92 69.0413 239.92 69.0372 239.92C69.0332 239.92 69.0291 239.92 69.0251 239.92C69.021 239.92 69.017 239.92 69.0129 239.92C69.0088 239.92 69.0048 239.92 69.0007 239.92C68.9967 239.92 68.9926 239.92 68.9886 239.92C68.9845 239.92 68.9804 239.92 68.9764 239.92C68.9723 239.92 68.9683 239.92 68.9642 239.92C68.9601 239.92 68.9561 239.92 68.952 239.92C68.9479 239.92 68.9439 239.92 68.9398 239.92C68.9358 239.921 68.9317 239.921 68.9276 239.921C68.9236 239.921 68.9195 239.921 68.9154 239.921C68.9114 239.921 68.9073 239.921 68.9033 239.921C68.8992 239.921 68.8951 239.921 68.8911 239.921C68.887 239.921 68.8829 239.921 68.8789 239.921C68.8748 239.921 68.8707 239.921 68.8667 239.921C68.8626 239.921 68.8585 239.921 68.8544 239.921C68.8504 239.921 68.8463 239.921 68.8422 239.921C68.8382 239.921 68.8341 239.921 68.83 239.921C68.826 239.921 68.8219 239.921 68.8178 239.921C68.8137 239.921 68.8097 239.921 68.8056 239.921C68.8015 239.921 68.7975 239.921 68.7934 239.921C68.7893 239.921 68.7852 239.921 68.7812 239.921C68.7771 239.921 68.773 239.921 68.7689 239.921C68.7649 239.921 68.7608 239.921 68.7567 239.921C68.7526 239.921 68.7486 239.921 68.7445 239.921C68.7404 239.921 68.7363 239.921 68.7323 239.921C68.7282 239.921 68.7241 239.921 68.72 239.922C68.7159 239.922 68.7119 239.922 68.7078 239.922C68.7037 239.922 68.6996 239.922 68.6956 239.922C68.6915 239.922 68.6874 239.922 68.6833 239.922C68.6792 239.922 68.6751 239.922 68.6711 239.922C68.667 239.922 68.6629 239.922 68.6588 239.922C68.6547 239.922 68.6506 239.922 68.6466 239.922C68.6425 239.922 68.6384 239.922 68.6343 239.922C68.6302 239.922 68.6261 239.922 68.6221 239.922C68.618 239.922 68.6139 239.922 68.6098 239.922C68.6057 239.922 68.6016 239.922 68.5975 239.922C68.5935 239.922 68.5894 239.922 68.5853 239.922C68.5812 239.922 68.5771 239.922 68.573 239.922C68.5689 239.922 68.5648 239.922 68.5607 239.922C68.5567 239.922 68.5526 239.922 68.5485 239.922C68.5444 239.922 68.5403 239.922 68.5362 239.922C68.5321 239.922 68.528 239.922 68.5239 239.922C68.5198 239.922 68.5157 239.922 68.5116 239.922C68.5075 239.922 68.5035 239.923 68.4994 239.923C68.4953 239.923 68.4912 239.923 68.4871 239.923C68.483 239.923 68.4789 239.923 68.4748 239.923C68.4707 239.923 68.4666 239.923 68.4625 239.923C68.4584 239.923 68.4543 239.923 68.4502 239.923C68.4461 239.923 68.442 239.923 68.4379 239.923C68.4338 239.923 68.4297 239.923 68.4256 239.923C68.4215 239.923 68.4174 239.923 68.4133 239.923C68.4092 239.923 68.4051 239.923 68.401 239.923C68.3969 239.923 68.3928 239.923 68.3887 239.923C68.3846 239.923 68.3805 239.923 68.3764 239.923C68.3723 239.923 68.3682 239.923 68.3641 239.923C68.36 239.923 68.3559 239.923 68.3518 239.923C68.3477 239.923 68.3436 239.923 68.3395 239.923C68.3353 239.923 68.3312 239.923 68.3271 239.923C68.323 239.923 68.3189 239.923 68.3148 239.923C68.3107 239.923 68.3066 239.923 68.3025 239.923C68.2984 239.923 68.2943 239.923 68.2902 239.923C68.2861 239.924 68.2819 239.924 68.2778 239.924C68.2737 239.924 68.2696 239.924 68.2655 239.924C68.2614 239.924 68.2573 239.924 68.2532 239.924C68.249 239.924 68.2449 239.924 68.2408 239.924C68.2367 239.924 68.2326 239.924 68.2285 239.924C68.2244 239.924 68.2203 239.924 68.2161 239.924C68.212 239.924 68.2079 239.924 68.2038 239.924C68.1997 239.924 68.1956 239.924 68.1914 239.924C68.1873 239.924 68.1832 239.924 68.1791 239.924C68.175 239.924 68.1709 239.924 68.1667 239.924C68.1626 239.924 68.1585 239.924 68.1544 239.924C68.1503 239.924 68.1461 239.924 68.142 239.924C68.1379 239.924 68.1338 239.924 68.1297 239.924C68.1255 239.924 68.1214 239.924 68.1173 239.924C68.1132 239.924 68.1091 239.924 68.1049 239.924C68.1008 239.924 68.0967 239.924 68.0926 239.924C68.0884 239.924 68.0843 239.924 68.0802 239.924C68.0761 239.924 68.0719 239.925 68.0678 239.925C68.0637 239.925 68.0596 239.925 68.0554 239.925C68.0513 239.925 68.0472 239.925 68.0431 239.925C68.0389 239.925 68.0348 239.925 68.0307 239.925C68.0265 239.925 68.0224 239.925 68.0183 239.925C68.0142 239.925 68.01 239.925 68.0059 239.925C68.0018 239.925 67.9976 239.925 67.9935 239.925C67.9894 239.925 67.9852 239.925 67.9811 239.925C67.977 239.925 67.9728 239.925 67.9687 239.925C67.9646 239.925 67.9604 239.925 67.9563 239.925C67.9522 239.925 67.948 239.925 67.9439 239.925C67.9398 239.925 67.9356 239.925 67.9315 239.925C67.9274 239.925 67.9232 239.925 67.9191 239.925C67.915 239.925 67.9108 239.925 67.9067 239.925C67.9026 239.925 67.8984 239.925 67.8943 239.925C67.8901 239.925 67.886 239.925 67.8819 239.925C67.8777 239.925 67.8736 239.925 67.8694 239.925C67.8653 239.925 67.8612 239.925 67.857 239.925C67.8529 239.926 67.8487 239.926 67.8446 239.926C67.8405 239.926 67.8363 239.926 67.8322 239.926C67.828 239.926 67.8239 239.926 67.8197 239.926C67.8156 239.926 67.8115 239.926 67.8073 239.926C67.8032 239.926 67.799 239.926 67.7949 239.926C67.7907 239.926 67.7866 239.926 67.7824 239.926C67.7783 239.926 67.7742 239.926 67.77 239.926C67.7659 239.926 67.7617 239.926 67.7576 239.926C67.7534 239.926 67.7493 239.926 67.7451 239.926C67.741 239.926 67.7368 239.926 67.7327 239.926C67.7285 239.926 67.7244 239.926 67.7202 239.926C67.7161 239.926 67.7119 239.926 67.7078 239.926C67.7036 239.926 67.6995 239.926 67.6953 239.926C67.6912 239.926 67.687 239.926 67.6829 239.926C67.6787 239.926 67.6745 239.926 67.6704 239.926C67.6662 239.926 67.6621 239.926 67.6579 239.926C67.6538 239.926 67.6496 239.926 67.6455 239.926C67.6413 239.926 67.6372 239.927 67.633 239.927C67.6288 239.927 67.6247 239.927 67.6205 239.927C67.6164 239.927 67.6122 239.927 67.608 239.927C67.6039 239.927 67.5997 239.927 67.5956 239.927C67.5914 239.927 67.5873 239.927 67.5831 239.927C67.5789 239.927 67.5748 239.927 67.5706 239.927C67.5665 239.927 67.5623 239.927 67.5581 239.927C67.554 239.927 67.5498 239.927 67.5456 239.927C67.5415 239.927 67.5373 239.927 67.5331 239.927C67.529 239.927 67.5248 239.927 67.5207 239.927C67.5165 239.927 67.5123 239.927 67.5082 239.927C67.504 239.927 67.4998 239.927 67.4957 239.927C67.4915 239.927 67.4873 239.927 67.4832 239.927C67.479 239.927 67.4748 239.927 67.4707 239.927C67.4665 239.927 67.4623 239.927 67.4582 239.927C67.454 239.927 67.4498 239.927 67.4456 239.927C67.4415 239.927 67.4373 239.927 67.4331 239.927C67.429 239.927 67.4248 239.927 67.4206 239.928C67.4164 239.928 67.4123 239.928 67.4081 239.928C67.4039 239.928 67.3998 239.928 67.3956 239.928C67.3914 239.928 67.3872 239.928 67.3831 239.928C67.3789 239.928 67.3747 239.928 67.3705 239.928C67.3664 239.928 67.3622 239.928 67.358 239.928C67.3538 239.928 67.3497 239.928 67.3455 239.928C67.3413 239.928 67.3371 239.928 67.3329 239.928C67.3288 239.928 67.3246 239.928 67.3204 239.928C67.3162 239.928 67.312 239.928 67.3079 239.928C67.3037 239.928 67.2995 239.928 67.2953 239.928C67.2911 239.928 67.287 239.928 67.2828 239.928C67.2786 239.928 67.2744 239.928 67.2702 239.928C67.2661 239.928 67.2619 239.928 67.2577 239.928C67.2535 239.928 67.2493 239.928 67.2451 239.928C67.241 239.928 67.2368 239.928 67.2326 239.928C67.2284 239.928 67.2242 239.928 67.22 239.928C67.2158 239.928 67.2117 239.928 67.2075 239.928C67.2033 239.929 67.1991 239.929 67.1949 239.929C67.1907 239.929 67.1865 239.929 67.1823 239.929C67.1781 239.929 67.174 239.929 67.1698 239.929C67.1656 239.929 67.1614 239.929 67.1572 239.929C67.153 239.929 67.1488 239.929 67.1446 239.929C67.1404 239.929 67.1362 239.929 67.1321 239.929C67.1279 239.929 67.1237 239.929 67.1195 239.929C67.1153 239.929 67.1111 239.929 67.1069 239.929C67.1027 239.929 67.0985 239.929 67.0943 239.929C67.0901 239.929 67.0859 239.929 67.0817 239.929C67.0775 239.929 67.0733 239.929 67.0691 239.929C67.0649 239.929 67.0607 239.929 67.0565 239.929C67.0523 239.929 67.0481 239.929 67.0439 239.929C67.0397 239.929 67.0356 239.929 67.0314 239.929C67.0272 239.929 67.023 239.929 67.0188 239.929C67.0146 239.929 67.0103 239.929 67.0061 239.929C67.0019 239.929 66.9977 239.929 66.9935 239.929C66.9893 239.93 66.9851 239.93 66.9809 239.93C66.9767 239.93 66.9725 239.93 66.9683 239.93C66.9641 239.93 66.9599 239.93 66.9557 239.93C66.9515 239.93 66.9473 239.93 66.9431 239.93C66.9389 239.93 66.9347 239.93 66.9305 239.93C66.9263 239.93 66.9221 239.93 66.9179 239.93C66.9137 239.93 66.9094 239.93 66.9052 239.93C66.901 239.93 66.8968 239.93 66.8926 239.93C66.8884 239.93 66.8842 239.93 66.88 239.93C66.8758 239.93 66.8716 239.93 66.8673 239.93C66.8631 239.93 66.8589 239.93 66.8547 239.93C66.8505 239.93 66.8463 239.93 66.8421 239.93C66.8379 239.93 66.8337 239.93 66.8294 239.93C66.8252 239.93 66.821 239.93 66.8168 239.93C66.8126 239.93 66.8084 239.93 66.8042 239.93C66.7999 239.93 66.7957 239.93 66.7915 239.93C66.7873 239.93 66.7831 239.93 66.7789 239.93C66.7746 239.93 66.7704 239.931 66.7662 239.931C66.762 239.931 66.7578 239.931 66.7535 239.931C66.7493 239.931 66.7451 239.931 66.7409 239.931C66.7367 239.931 66.7324 239.931 66.7282 239.931C66.724 239.931 66.7198 239.931 66.7156 239.931C66.7113 239.931 66.7071 239.931 66.7029 239.931C66.6987 239.931 66.6945 239.931 66.6902 239.931C66.686 239.931 66.6818 239.931 66.6776 239.931C66.6733 239.931 66.6691 239.931 66.6649 239.931C66.6607 239.931 66.6564 239.931 66.6522 239.931C66.648 239.931 66.6437 239.931 66.6395 239.931C66.6353 239.931 66.6311 239.931 66.6268 239.931C66.6226 239.931 66.6184 239.931 66.6142 239.931C66.6099 239.931 66.6057 239.931 66.6015 239.931C66.5972 239.931 66.593 239.931 66.5888 239.931C66.5845 239.931 66.5803 239.931 66.5761 239.931C66.5719 239.931 66.5676 239.931 66.5634 239.931C66.5592 239.931 66.5549 239.932 66.5507 239.932C66.5465 239.932 66.5422 239.932 66.538 239.932C66.5338 239.932 66.5295 239.932 66.5253 239.932C66.5211 239.932 66.5168 239.932 66.5126 239.932C66.5083 239.932 66.5041 239.932 66.4999 239.932C66.4956 239.932 66.4914 239.932 66.4872 239.932C66.4829 239.932 66.4787 239.932 66.4744 239.932C66.4702 239.932 66.466 239.932 66.4617 239.932C66.4575 239.932 66.4532 239.932 66.449 239.932C66.4448 239.932 66.4405 239.932 66.4363 239.932C66.432 239.932 66.4278 239.932 66.4236 239.932C66.4193 239.932 66.4151 239.932 66.4108 239.932C66.4066 239.932 66.4023 239.932 66.3981 239.932C66.3939 239.932 66.3896 239.932 66.3854 239.932C66.3811 239.932 66.3769 239.932 66.3726 239.932C66.3684 239.932 66.3641 239.932 66.3599 239.932C66.3556 239.932 66.3514 239.932 66.3472 239.932C66.3429 239.932 66.3387 239.933 66.3344 239.933C66.3302 239.933 66.3259 239.933 66.3217 239.933C66.3174 239.933 66.3132 239.933 66.3089 239.933C66.3047 239.933 66.3004 239.933 66.2962 239.933C66.2919 239.933 66.2877 239.933 66.2834 239.933C66.2792 239.933 66.2749 239.933 66.2706 239.933C66.2664 239.933 66.2621 239.933 66.2579 239.933C66.2536 239.933 66.2494 239.933 66.2451 239.933C66.2409 239.933 66.2366 239.933 66.2324 239.933C66.2281 239.933 66.2238 239.933 66.2196 239.933C66.2153 239.933 66.2111 239.933 66.2068 239.933C66.2026 239.933 66.1983 239.933 66.194 239.933C66.1898 239.933 66.1855 239.933 66.1813 239.933C66.177 239.933 66.1728 239.933 66.1685 239.933C66.1642 239.933 66.16 239.933 66.1557 239.933C66.1515 239.933 66.1472 239.933 66.1429 239.933C66.1387 239.933 66.1344 239.933 66.1301 239.933C66.1259 239.933 66.1216 239.934 66.1174 239.934C66.1131 239.934 66.1088 239.934 66.1046 239.934C66.1003 239.934 66.096 239.934 66.0918 239.934C66.0875 239.934 66.0832 239.934 66.079 239.934C66.0747 239.934 66.0704 239.934 66.0662 239.934C66.0619 239.934 66.0576 239.934 66.0534 239.934C66.0491 239.934 66.0448 239.934 66.0406 239.934C66.0363 239.934 66.032 239.934 66.0278 239.934C66.0235 239.934 66.0192 239.934 66.0149 239.934C66.0107 239.934 66.0064 239.934 66.0021 239.934C65.9979 239.934 65.9936 239.934 65.9893 239.934C65.985 239.934 65.9808 239.934 65.9765 239.934C65.9722 239.934 65.9679 239.934 65.9637 239.934C65.9594 239.934 65.9551 239.934 65.9509 239.934C65.9466 239.934 65.9423 239.934 65.938 239.934C65.9338 239.934 65.9295 239.934 65.9252 239.934C65.9209 239.934 65.9166 239.934 65.9124 239.934C65.9081 239.935 65.9038 239.935 65.8995 239.935C65.8952 239.935 65.891 239.935 65.8867 239.935C65.8824 239.935 65.8781 239.935 65.8739 239.935C65.8696 239.935 65.8653 239.935 65.861 239.935C65.8567 239.935 65.8524 239.935 65.8482 239.935C65.8439 239.935 65.8396 239.935 65.8353 239.935C65.831 239.935 65.8267 239.935 65.8225 239.935C65.8182 239.935 65.8139 239.935 65.8096 239.935C65.8053 239.935 65.801 239.935 65.7968 239.935C65.7925 239.935 65.7882 239.935 65.7839 239.935C65.7796 239.935 65.7753 239.935 65.771 239.935C65.7667 239.935 65.7625 239.935 65.7582 239.935C65.7539 239.935 65.7496 239.935 65.7453 239.935C65.741 239.935 65.7367 239.935 65.7324 239.935C65.7281 239.935 65.7239 239.935 65.7196 239.935C65.7153 239.935 65.711 239.935 65.7067 239.935C65.7024 239.935 65.6981 239.935 65.6938 239.935C65.6895 239.936 65.6852 239.936 65.6809 239.936C65.6766 239.936 65.6723 239.936 65.668 239.936C65.6638 239.936 65.6595 239.936 65.6552 239.936C65.6509 239.936 65.6466 239.936 65.6423 239.936C65.638 239.936 65.6337 239.936 65.6294 239.936C65.6251 239.936 65.6208 239.936 65.6165 239.936C65.6122 239.936 65.6079 239.936 65.6036 239.936C65.5993 239.936 65.595 239.936 65.5907 239.936C65.5864 239.936 65.5821 239.936 65.5778 239.936C65.5735 239.936 65.5692 239.936 65.5649 239.936C65.5606 239.936 65.5563 239.936 65.552 239.936C65.5477 239.936 65.5434 239.936 65.5391 239.936C65.5348 239.936 65.5305 239.936 65.5262 239.936C65.5219 239.936 65.5176 239.936 65.5132 239.936C65.5089 239.936 65.5046 239.936 65.5003 239.936C65.496 239.936 65.4917 239.936 65.4874 239.936C65.4831 239.936 65.4788 239.936 65.4745 239.937C65.4702 239.937 65.4659 239.937 65.4616 239.937C65.4573 239.937 65.4529 239.937 65.4486 239.937C65.4443 239.937 65.44 239.937 65.4357 239.937C65.4314 239.937 65.4271 239.937 65.4228 239.937C65.4185 239.937 65.4141 239.937 65.4098 239.937C65.4055 239.937 65.4012 239.937 65.3969 239.937C65.3926 239.937 65.3883 239.937 65.384 239.937C65.3796 239.937 65.3753 239.937 65.371 239.937C65.3667 239.937 65.3624 239.937 65.3581 239.937C65.3537 239.937 65.3494 239.937 65.3451 239.937C65.3408 239.937 65.3365 239.937 65.3322 239.937C65.3278 239.937 65.3235 239.937 65.3192 239.937C65.3149 239.937 65.3106 239.937 65.3063 239.937C65.3019 239.937 65.2976 239.937 65.2933 239.937C65.289 239.937 65.2846 239.937 65.2803 239.937C65.276 239.937 65.2717 239.937 65.2674 239.937C65.263 239.937 65.2587 239.938 65.2544 239.938C65.2501 239.938 65.2457 239.938 65.2414 239.938C65.2371 239.938 65.2328 239.938 65.2285 239.938C65.2241 239.938 65.2198 239.938 65.2155 239.938C65.2111 239.938 65.2068 239.938 65.2025 239.938C65.1982 239.938 65.1938 239.938 65.1895 239.938C65.1852 239.938 65.1809 239.938 65.1765 239.938C65.1722 239.938 65.1679 239.938 65.1635 239.938L65.1799 243.938ZM71.4798 243.909L71.4962 247.909C91.3814 247.817 108.764 245.489 123.573 240.84L122.377 237.023L121.181 233.207C107.327 237.557 90.7778 239.82 71.4635 239.909L71.4798 243.909ZM122.377 237.023L123.565 240.842C138.453 236.205 150.239 229.56 158.625 220.721L155.724 217.969L152.824 215.217C145.644 222.783 135.198 228.841 121.189 233.204L122.377 237.023ZM155.724 217.969L158.625 220.721C167.111 211.779 171.381 201.088 171.33 188.847L167.331 188.865L163.331 188.884C163.372 199.042 159.905 207.754 152.823 215.217L155.724 217.969ZM167.331 188.865L171.33 188.847C171.273 174.886 167.122 163.875 158.154 156.738L155.662 159.869L153.17 162.999C159.652 168.157 163.28 176.478 163.331 188.884L167.331 188.865ZM155.662 159.869L158.177 156.757C149.487 149.735 136.022 146.684 118.683 146.765L118.699 150.764L118.716 154.764C135.443 154.687 146.619 157.706 153.147 162.98L155.662 159.869ZM118.699 150.764L118.683 146.765C110.977 146.8 102.74 147.878 93.9886 149.958L94.9117 153.85L95.8349 157.741C104.1 155.776 111.722 154.797 118.716 154.764L118.699 150.764ZM94.9117 153.85L93.9767 149.961C85.4532 152.015 77.1063 154.483 68.9368 157.367L70.2663 161.139L71.5959 164.91C79.5033 162.119 87.5867 159.729 95.8468 157.738L94.9117 153.85ZM70.2663 161.139L72.2102 157.642L62.2124 152.088L60.2685 155.585L58.3247 159.082L68.3225 164.635L70.2663 161.139ZM60.2685 155.585L64.2582 155.87L74.0292 20.3737L70.0395 20.0881L66.0499 19.8025L56.2789 155.299L60.2685 155.585ZM70.0395 20.0881L70.0559 24.0881L213.904 23.423L213.888 19.423L213.872 15.4231L70.0232 16.0881L70.0395 20.0881ZM213.888 19.423L209.911 19.0014L205.192 63.2987L209.169 63.7203L213.147 64.1419L217.865 19.8446L213.888 19.423ZM209.169 63.7203L209.153 59.7203L109.229 60.1823L109.245 64.1823L109.262 68.1823L209.185 67.7203L209.169 63.7203ZM109.245 64.1823L105.267 63.7646L99.5392 118.042L103.517 118.459L107.495 118.877L113.223 64.6L109.245 64.1823ZM103.517 118.459L104.632 122.3C111.82 120.211 118.82 118.642 125.632 117.588L125.023 113.635L124.413 109.682C117.234 110.793 109.897 112.44 102.402 114.618L103.517 118.459ZM125.023 113.635L125.632 117.588C132.455 116.532 138.903 115.996 144.982 115.968L144.966 111.968L144.95 107.968C138.428 107.998 131.581 108.573 124.413 109.682L125.023 113.635ZM144.966 111.968L144.982 115.968C169.387 115.855 187.244 122.175 199.254 134.295L202.096 131.479L204.938 128.662C190.941 114.536 170.711 107.849 144.95 107.968L144.966 111.968ZM202.096 131.479L199.279 134.32C211.457 146.392 217.827 163.492 217.92 186.181L221.92 186.163L225.92 186.144C225.821 161.933 218.975 142.578 204.913 128.637L202.096 131.479ZM221.92 186.163L217.92 186.181C217.974 199.31 215.026 211.449 209.092 222.661L212.627 224.531L216.162 226.401C222.731 213.989 225.979 200.548 225.92 186.144L221.92 186.163ZM212.627 224.531L209.099 222.647C203.161 233.755 194.467 243.565 182.91 252.06L185.277 255.283L187.645 258.505C200.049 249.389 209.588 238.699 216.154 226.415L212.627 224.531ZM185.277 255.283L182.91 252.06C171.379 260.535 157.213 267.242 140.329 272.118L141.436 275.961L142.544 279.804C160.153 274.719 175.214 267.642 187.645 258.505L185.277 255.283ZM141.436 275.961L140.329 272.118C123.505 276.975 104.293 279.482 82.6508 279.583L82.6672 283.582L82.6835 287.582C104.907 287.48 124.875 284.906 142.544 279.804L141.436 275.961ZM320.449 270.583L318.452 274.05L318.459 274.054L318.465 274.057L320.449 270.583ZM288.825 240.279L285.437 242.406L285.448 242.424L285.459 242.442L288.825 240.279ZM270.971 196.436L267.073 197.339L267.075 197.345L270.971 196.436ZM265.335 145.011L261.335 144.977L261.335 144.99L261.335 145.004L265.335 145.011ZM279.581 76.6949L275.979 74.9574L275.975 74.9665L279.581 76.6949ZM317.197 31.7205L314.965 28.4026L314.965 28.4026L317.197 31.7205ZM417.1 26.0086L415.185 29.5217L415.204 29.5321L415.224 29.5423L417.1 26.0086ZM448.191 54.3901L444.837 56.572L444.845 56.5833L444.852 56.5946L448.191 54.3901ZM465.513 96.3105L461.61 97.1902L461.612 97.1963L465.513 96.3105ZM470.793 146.512L474.793 146.528L474.793 146.519L470.793 146.512ZM457.258 217.45L453.597 215.84L453.593 215.85L457.258 217.45ZM420.7 264.519L418.357 261.279L420.7 264.519ZM368.452 240.611L368.423 244.611L368.437 244.611L368.452 240.611ZM402.661 218.227L399.121 216.367L399.115 216.378L399.109 216.389L402.661 218.227ZM409.177 99.896L405.289 100.837L409.177 99.896ZM393.996 67.9408L396.97 65.2639L393.996 67.9408ZM333.839 78.5441L330.336 76.6153L330.33 76.6261L330.324 76.637L333.839 78.5441ZM327.308 193.2L323.407 194.086L323.411 194.104L323.415 194.122L327.308 193.2ZM342.674 227.78L345.796 225.277L342.674 227.78ZM367.219 281.567L367.203 277.567C349.553 277.649 334.685 274.099 322.433 267.109L320.449 270.583L318.465 274.057C332.174 281.88 348.487 285.654 367.236 285.567L367.219 281.567ZM320.449 270.583L322.447 267.116C310.151 260.036 300.073 250.387 292.191 238.116L288.825 240.279L285.459 242.442C294.015 255.761 305.02 266.315 318.452 274.05L320.449 270.583ZM288.825 240.279L292.213 238.151C284.368 225.649 278.576 211.454 274.866 195.527L270.971 196.436L267.075 197.345C270.965 214.05 277.076 229.083 285.437 242.406L288.825 240.279ZM270.971 196.436L274.868 195.533C271.14 179.416 269.292 162.581 269.335 145.019L265.335 145.011L261.335 145.004C261.291 163.143 263.2 180.591 267.073 197.339L270.971 196.436ZM265.335 145.011L269.335 145.046C269.573 119.251 274.237 97.0813 283.187 78.4233L279.581 76.6949L275.975 74.9665C266.415 94.8945 261.582 118.269 261.335 144.977L265.335 145.011ZM279.581 76.6949L283.183 78.4324C292.289 59.571 304.389 45.1627 319.43 35.0384L317.197 31.7205L314.965 28.4026C298.592 39.4238 285.615 54.9984 275.979 74.9574L279.581 76.6949ZM317.197 31.7205L319.43 35.0384C334.453 24.9258 351.387 19.8123 370.349 19.7247L370.332 15.7247L370.316 11.7247C349.845 11.8194 331.355 17.3698 314.965 28.4026L317.197 31.7205ZM370.332 15.7247L370.349 19.7247C388.286 19.6417 403.171 22.9787 415.185 29.5217L417.1 26.0086L419.014 22.4955C405.538 15.1562 389.245 11.6372 370.316 11.7247L370.332 15.7247ZM417.1 26.0086L415.224 29.5423C427.491 36.0512 437.344 45.0489 444.837 56.572L448.191 54.3901L451.545 52.2083C443.305 39.5372 432.431 29.6138 418.976 22.4749L417.1 26.0086ZM448.191 54.3901L444.852 56.5946C452.538 68.2415 458.139 81.7552 461.61 97.1902L465.513 96.3105L469.415 95.4308C465.757 79.1651 459.81 64.7319 451.53 52.1857L448.191 54.3901ZM465.513 96.3105L461.612 97.1963C465.103 112.609 466.837 129.041 466.793 146.504L470.793 146.512L474.793 146.519C474.838 128.514 473.051 111.479 469.414 95.4247L465.513 96.3105ZM470.793 146.512L466.793 146.496C466.672 173.135 462.233 196.218 453.597 215.84L457.258 217.45L460.919 219.06C470.085 198.233 474.668 174.023 474.793 146.528L470.793 146.512ZM457.258 217.45L453.593 215.85C445.053 235.396 433.287 250.482 418.357 261.279L420.7 264.519L423.043 267.76C439.288 256.013 451.894 239.719 460.923 219.05L457.258 217.45ZM420.7 264.519L418.357 261.279C403.478 272.039 386.473 277.478 367.203 277.567L367.219 281.567L367.236 285.567C388.099 285.47 406.748 279.544 423.043 267.76L420.7 264.519ZM368.452 240.611L368.437 244.611C376.66 244.636 384.057 242.6 390.481 238.397C396.88 234.21 402.092 228.019 406.212 220.066L402.661 218.227L399.109 216.389C395.474 223.405 391.106 228.43 386.103 231.703C381.124 234.961 375.294 236.632 368.467 236.611L368.452 240.611ZM402.661 218.227L406.201 220.088C414.54 204.229 418.405 180.185 418.276 148.504L414.276 148.523L410.276 148.541C410.404 179.86 406.525 202.286 399.121 216.367L402.661 218.227ZM414.276 148.523L418.276 148.504C418.199 129.619 416.48 113.086 413.065 98.9545L409.177 99.896L405.289 100.837C408.52 114.208 410.2 130.093 410.276 148.541L414.276 148.523ZM409.177 99.896L413.065 98.9545C409.644 84.7973 404.352 73.4649 396.97 65.2639L393.996 67.9408L391.022 70.6178C397.236 77.5207 402.064 87.4918 405.289 100.837L409.177 99.896ZM393.996 67.9408L396.97 65.2639C389.401 56.8551 379.777 52.6314 368.383 52.6841L368.4 56.6841L368.416 60.684C377.556 60.6418 384.996 63.9226 391.022 70.6178L393.996 67.9408ZM368.4 56.6841L368.383 52.6841C351.713 52.7612 338.942 60.9951 330.336 76.6153L333.839 78.5441L337.342 80.4729C344.718 67.0855 354.987 60.7461 368.416 60.684L368.4 56.6841ZM333.839 78.5441L330.324 76.637C321.972 92.0201 318.086 114.426 318.204 143.367L322.204 143.349L326.204 143.33C326.087 114.872 329.958 94.0745 337.354 80.4512L333.839 78.5441ZM322.204 143.349L318.204 143.367C318.281 162.144 320.003 179.06 323.407 194.086L327.308 193.2L331.209 192.315C327.959 177.971 326.279 161.652 326.204 143.33L322.204 143.349ZM327.308 193.2L323.415 194.122C326.946 209.063 332.268 221.194 339.553 230.283L342.674 227.78L345.796 225.277C339.478 217.395 334.555 206.473 331.201 192.278L327.308 193.2ZM342.674 227.78L339.553 230.283C347.066 239.656 356.771 244.534 368.423 244.611L368.452 240.611L368.481 236.611C359.365 236.551 351.886 232.875 345.796 225.277L342.674 227.78ZM563.806 269.458L561.809 272.925L561.815 272.928L561.822 272.932L563.806 269.458ZM532.182 239.154L528.793 241.281L528.804 241.299L528.816 241.317L532.182 239.154ZM514.327 195.311L510.43 196.214L510.432 196.22L514.327 195.311ZM508.692 143.886L504.692 143.852L504.692 143.865L504.692 143.879L508.692 143.886ZM522.938 75.5698L519.336 73.8323L519.331 73.8413L522.938 75.5698ZM560.554 30.5954L558.322 27.2775L558.322 27.2775L560.554 30.5954ZM660.457 24.8835L658.542 28.3965L658.561 28.4069L658.58 28.4171L660.457 24.8835ZM691.548 53.265L688.194 55.4468L688.202 55.4582L688.209 55.4695L691.548 53.265ZM708.869 95.1854L704.967 96.0651L704.968 96.0711L708.869 95.1854ZM714.15 145.386L718.15 145.402L718.15 145.394L714.15 145.386ZM700.615 216.325L696.954 214.715L696.949 214.725L700.615 216.325ZM664.057 263.394L661.714 260.153L664.057 263.394ZM611.809 239.486L611.78 243.486L611.794 243.486L611.809 239.486ZM646.018 217.102L642.477 215.242L642.472 215.253L642.466 215.264L646.018 217.102ZM652.534 98.7709L648.646 99.7124L652.534 98.7709ZM637.353 66.8157L640.327 64.1388L637.353 66.8157ZM577.196 77.4189L573.693 75.4902L573.687 75.501L573.681 75.5118L577.196 77.4189ZM570.665 192.075L566.763 192.961L566.767 192.979L566.772 192.997L570.665 192.075ZM586.031 226.655L589.153 224.152L586.031 226.655ZM610.576 280.442L610.56 276.442C592.909 276.523 578.041 272.974 565.79 265.983L563.806 269.458L561.822 272.932C575.531 280.755 591.843 284.528 610.593 284.442L610.576 280.442ZM563.806 269.458L565.803 265.991C553.507 258.911 543.43 249.262 535.548 236.991L532.182 239.154L528.816 241.317C537.372 254.636 548.377 265.19 561.809 272.925L563.806 269.458ZM532.182 239.154L535.57 237.026C527.725 224.524 521.933 210.329 518.223 194.402L514.327 195.311L510.432 196.22C514.322 212.925 520.433 227.958 528.793 241.281L532.182 239.154ZM514.327 195.311L518.224 194.408C514.497 178.29 512.649 161.456 512.692 143.894L508.692 143.886L504.692 143.879C504.648 162.018 506.557 179.466 510.43 196.214L514.327 195.311ZM508.692 143.886L512.692 143.921C512.93 118.126 517.594 95.9561 526.544 77.2982L522.938 75.5698L519.331 73.8413C509.772 93.7694 504.939 117.144 504.692 143.852L508.692 143.886ZM522.938 75.5698L526.54 77.3073C535.645 58.4459 547.746 44.0376 562.787 33.9133L560.554 30.5954L558.322 27.2775C541.949 38.2987 528.971 53.8733 519.336 73.8323L522.938 75.5698ZM560.554 30.5954L562.787 33.9133C577.81 23.8007 594.744 18.6872 613.706 18.5995L613.689 14.5996L613.673 10.5996C593.201 10.6943 574.712 16.2447 558.322 27.2775L560.554 30.5954ZM613.689 14.5996L613.706 18.5995C631.642 18.5166 646.528 21.8536 658.542 28.3965L660.457 24.8835L662.371 21.3704C648.895 14.0311 632.602 10.5121 613.673 10.5996L613.689 14.5996ZM660.457 24.8835L658.58 28.4171C670.848 34.9261 680.701 43.9238 688.194 55.4468L691.548 53.265L694.902 51.0832C686.662 38.4121 675.788 28.4887 662.333 21.3498L660.457 24.8835ZM691.548 53.265L688.209 55.4695C695.895 67.1164 701.496 80.6301 704.967 96.0651L708.869 95.1854L712.772 94.3057C709.114 78.0399 703.166 63.6067 694.887 51.0606L691.548 53.265ZM708.869 95.1854L704.968 96.0711C708.46 111.484 710.193 127.916 710.15 145.379L714.15 145.386L718.15 145.394C718.195 127.389 716.408 110.354 712.771 94.2996L708.869 95.1854ZM714.15 145.386L710.15 145.371C710.029 172.01 705.59 195.093 696.954 214.715L700.615 216.325L704.276 217.934C713.441 197.108 718.025 172.898 718.15 145.402L714.15 145.386ZM700.615 216.325L696.949 214.725C688.41 234.271 676.644 249.357 661.714 260.153L664.057 263.394L666.4 266.635C682.644 254.888 695.25 238.593 704.28 217.925L700.615 216.325ZM664.057 263.394L661.714 260.153C646.835 270.914 629.829 276.353 610.56 276.442L610.576 280.442L610.593 284.442C631.456 284.345 650.104 278.419 666.4 266.635L664.057 263.394ZM611.809 239.486L611.794 243.486C620.017 243.511 627.413 241.475 633.838 237.272C640.237 233.085 645.449 226.894 649.569 218.941L646.018 217.102L642.466 215.264C638.831 222.28 634.463 227.304 629.46 230.578C624.481 233.836 618.651 235.507 611.823 235.486L611.809 239.486ZM646.018 217.102L649.558 218.963C657.897 203.104 661.762 179.06 661.633 147.379L657.633 147.398L653.633 147.416C653.761 178.735 649.882 201.161 642.477 215.242L646.018 217.102ZM657.633 147.398L661.633 147.379C661.555 128.494 659.837 111.961 656.422 97.8294L652.534 98.7709L648.646 99.7124C651.877 113.083 653.557 128.968 653.633 147.416L657.633 147.398ZM652.534 98.7709L656.422 97.8294C653.001 83.6721 647.708 72.3398 640.327 64.1388L637.353 66.8157L634.379 69.4926C640.593 76.3956 645.421 86.3667 648.646 99.7124L652.534 98.7709ZM637.353 66.8157L640.327 64.1388C632.758 55.73 623.133 51.5063 611.74 51.559L611.757 55.5589L611.773 59.5589C620.913 59.5167 628.353 62.7975 634.379 69.4926L637.353 66.8157ZM611.757 55.5589L611.74 51.559C595.07 51.636 582.298 59.87 573.693 75.4902L577.196 77.4189L580.699 79.3477C588.075 65.9604 598.344 59.621 611.773 59.5589L611.757 55.5589ZM577.196 77.4189L573.681 75.5118C565.329 90.895 561.442 113.301 561.561 142.242L565.561 142.223L569.561 142.205C569.444 113.746 573.314 92.9494 580.711 79.326L577.196 77.4189ZM565.561 142.223L561.561 142.242C561.637 161.019 563.359 177.935 566.763 192.961L570.665 192.075L574.566 191.19C571.316 176.846 569.636 160.527 569.561 142.205L565.561 142.223ZM570.665 192.075L566.772 192.997C570.303 207.938 575.625 220.069 582.909 229.157L586.031 226.655L589.153 224.152C582.835 216.27 577.912 205.348 574.557 191.153L570.665 192.075ZM586.031 226.655L582.909 229.157C590.423 238.531 600.128 243.409 611.78 243.486L611.809 239.486L611.837 235.486C602.722 235.425 595.243 231.749 589.153 224.152L586.031 226.655Z" fill="#795CF5" mask="url(#path-1-outside-1_368_2553)"/>
<path d="M71.4117 287.572C68.495 287.586 64.6444 287.429 59.8596 287.101C55.1916 286.772 51.1059 286.208 47.6026 285.407L47.4479 247.608C49.665 247.714 51.8238 247.821 53.9243 247.928C56.1409 247.917 58.2409 247.908 60.2242 247.899C79.824 247.808 96.7898 245.513 111.121 241.013C125.57 236.513 136.686 230.162 144.469 221.959C152.252 213.756 156.121 204.055 156.075 192.855C156.021 179.672 152.131 170.006 144.406 163.859C136.797 157.71 124.477 154.676 107.443 154.754C100.093 154.788 92.1643 155.817 83.6558 157.839C75.264 159.861 67.0489 162.291 59.0105 165.128L49.0127 159.574L58.7832 24.0778L202.632 23.4133L197.913 67.7105L97.989 68.1722L92.2611 122.449C99.6024 120.315 106.771 118.707 113.767 117.625C120.762 116.542 127.41 115.987 133.71 115.958C158.793 115.842 177.836 122.346 190.84 135.469C203.96 148.475 210.568 166.703 210.664 190.153C210.72 203.919 207.623 216.709 201.371 228.521C195.119 240.217 186.002 250.467 174.022 259.273C162.041 268.078 147.427 274.971 130.181 279.951C112.935 284.93 93.3448 287.471 71.4117 287.572ZM355.964 285.558C337.764 285.642 322.174 281.98 309.194 274.574C296.33 267.166 285.788 257.065 277.569 244.269C269.466 231.357 263.515 216.742 259.715 200.426C255.914 183.994 254.036 166.852 254.079 149.002C254.322 122.75 259.07 99.9783 268.325 80.6854C277.695 61.2752 290.234 46.2838 305.941 35.7111C321.648 25.1384 339.36 19.8066 359.076 19.7155C377.509 19.6303 393.098 23.0583 405.844 29.9995C418.705 36.8235 429.069 46.284 436.935 58.3812C444.918 70.4777 450.692 84.4512 454.257 100.302C457.821 116.035 459.581 132.769 459.537 150.503C459.415 177.57 454.903 201.216 446.002 221.441C437.218 241.548 425.032 257.238 409.445 268.51C393.857 279.783 376.03 285.465 355.964 285.558ZM357.196 244.602C372.247 244.649 383.65 237.188 391.405 222.218C399.277 207.248 403.149 184.014 403.02 152.514C402.943 133.847 401.244 117.638 397.921 103.887C394.598 90.1354 389.538 79.4837 382.74 71.9317C375.942 64.3797 367.41 60.6274 357.144 60.6748C342.094 60.7443 330.574 68.031 322.583 82.5347C314.709 97.0379 310.83 118.639 310.948 147.339C311.024 165.889 312.725 182.506 316.052 197.191C319.495 211.759 324.617 223.285 331.419 231.77C338.22 240.256 346.813 244.533 357.196 244.602ZM599.321 284.433C581.121 284.517 565.531 280.856 552.55 273.449C539.687 266.042 529.145 255.941 520.926 243.145C512.823 230.232 506.872 215.618 503.072 199.302C499.271 182.869 497.392 165.728 497.436 147.878C497.679 121.626 502.427 98.854 511.682 79.5611C521.052 60.1509 533.591 45.1595 549.298 34.5868C565.005 24.0141 582.716 18.6823 602.433 18.5912C620.866 18.506 636.455 21.934 649.2 28.8752C662.062 35.6992 672.425 45.1597 680.292 57.2569C688.275 69.3535 694.049 83.3269 697.613 99.1773C701.178 114.911 702.938 131.645 702.894 149.378C702.771 176.446 698.26 200.092 689.359 220.317C680.575 240.424 668.389 256.114 652.801 267.386C637.214 278.658 619.387 284.341 599.321 284.433ZM600.553 243.477C615.603 243.524 627.006 236.063 634.762 221.094C642.634 206.124 646.506 182.889 646.377 151.39C646.3 132.723 644.601 116.514 641.278 102.763C637.955 89.0111 632.894 78.3594 626.097 70.8074C619.299 63.2554 610.767 59.5031 600.5 59.5505C585.451 59.62 573.93 66.9067 565.94 81.4104C558.066 95.9136 554.187 117.515 554.305 146.215C554.381 164.765 556.082 181.382 559.409 196.067C562.852 210.634 567.974 222.161 574.775 230.646C581.577 239.132 590.169 243.409 600.553 243.477Z" fill="#1AD1B9"/>
</g>
<defs>
<filter id="filter0_d_368_2553" x="42.5212" y="10.598" width="679.629" height="285.084" filterUnits="userSpaceOnUse" color-interpolation-filters="sRGB">
<feFlood flood-opacity="0" result="BackgroundImageFix"/>
<feColorMatrix in="SourceAlpha" type="matrix" values="0 0 0 0 0 0 0 0 0 0 0 0 0 0 0 0 0 0 127 0" result="hardAlpha"/>
<feOffset dy="4"/>
<feGaussianBlur stdDeviation="2"/>
<feComposite in2="hardAlpha" operator="out"/>
<feColorMatrix type="matrix" values="0 0 0 0 0 0 0 0 0 0 0 0 0 0 0 0 0 0 0.25 0"/>
<feBlend mode="normal" in2="BackgroundImageFix" result="effect1_dropShadow_368_2553"/>
<feBlend mode="normal" in="SourceGraphic" in2="effect1_dropShadow_368_2553" result="shape"/>
</filter>
</defs>
</svg>
