<svg width="17" height="18" viewBox="0 0 17 18" fill="none" xmlns="http://www.w3.org/2000/svg">
<g clip-path="url(#clip0_1477_2537)">
<path fill-rule="evenodd" clip-rule="evenodd" d="M15.3205 1.7765C15.4745 1.93709 15.4718 2.1947 15.3144 2.35187L1.42018 16.2297C1.26283 16.3869 1.01042 16.3841 0.856419 16.2235C0.702418 16.0629 0.70514 15.8053 0.862498 15.6481L14.7568 1.77029C14.9141 1.61312 15.1665 1.6159 15.3205 1.7765Z" fill="black" stroke="black" stroke-miterlimit="10" stroke-linecap="round"/>
<path fill-rule="evenodd" clip-rule="evenodd" d="M0.856419 1.7765C1.01042 1.6159 1.26283 1.61312 1.42018 1.77029L15.3144 15.6481C15.4718 15.8053 15.4745 16.0629 15.3205 16.2235C15.1665 16.3841 14.9141 16.3869 14.7568 16.2297L0.862498 2.35187C0.70514 2.1947 0.702418 1.93709 0.856419 1.7765Z" fill="black" stroke="black" stroke-miterlimit="10" stroke-linecap="round"/>
</g>
<defs>
<clipPath id="clip0_1477_2537">
<rect width="16.0272" height="16.0272" fill="white" transform="translate(0.0748291 0.986406)"/>
</clipPath>
</defs>
</svg>
