<svg width="20" height="20" viewBox="0 0 20 20" fill="none" xmlns="http://www.w3.org/2000/svg">
<path d="M6.64529 16.4035L2.2466 16.339C1.41291 16.3316 0.742727 15.6497 0.75006 14.8157L0.860778 2.24659C0.868111 1.4129 1.55002 0.742727 2.38408 0.75006L14.9532 0.861145C15.7869 0.868477 16.4571 1.55038 16.4494 2.38407L16.3841 6.87183" stroke="white" stroke-width="1.5" stroke-miterlimit="10" stroke-linecap="round" stroke-linejoin="round"/>
<path d="M14.1541 12.7404C13.3241 12.7404 12.6514 13.413 12.6514 14.2431C12.6514 15.0731 13.3241 15.7457 14.1541 15.7457C14.9841 15.7457 15.6567 15.0731 15.6567 14.2431C15.6567 13.413 14.9841 12.7404 14.1541 12.7404ZM18.3716 13.1706L17.9649 13.5054C17.5011 13.8877 17.5011 14.598 17.9649 14.9802L18.3716 15.3151C18.5159 15.4338 18.553 15.6391 18.4596 15.8009L17.6565 17.1921C17.5631 17.3539 17.3666 17.4243 17.1916 17.3588L16.6984 17.174C16.1358 16.9634 15.5203 17.3182 15.4211 17.9112L15.3346 18.4308C15.3038 18.6151 15.1444 18.75 14.9577 18.75H13.3509C13.1642 18.75 13.0049 18.6151 12.9741 18.4308L12.8875 17.9112C12.7888 17.3182 12.1734 16.9629 11.6102 17.174L11.117 17.3588C10.942 17.4243 10.7455 17.3539 10.6521 17.1921L9.84901 15.8009C9.75565 15.6391 9.7928 15.4338 9.937 15.3151L10.3437 14.9802C10.8076 14.598 10.8076 13.8877 10.3437 13.5054L9.937 13.1706C9.7928 13.0518 9.75565 12.8465 9.84901 12.6847L10.6521 11.2935C10.7455 11.1317 10.942 11.0613 11.117 11.1268L11.6102 11.3116C12.1729 11.5223 12.7883 11.1674 12.8875 10.5745L12.9741 10.0548C13.0049 9.87056 13.1642 9.73565 13.3509 9.73565H14.9577C15.1444 9.73565 15.3038 9.87056 15.3346 10.0548L15.4211 10.5745C15.5199 11.1674 16.1353 11.5228 16.6984 11.3116L17.1916 11.1268C17.3666 11.0613 17.5631 11.1317 17.6565 11.2935L18.4596 12.6847C18.553 12.8465 18.5159 13.0518 18.3716 13.1706Z" stroke="white" stroke-width="1.5" stroke-miterlimit="10" stroke-linecap="round" stroke-linejoin="round"/>
<path d="M9.64932 8.12181H7.55006C7.18051 8.12181 6.88062 7.82228 6.88062 7.45237V1.0538C6.88062 1.00907 6.91691 0.973145 6.96127 0.973145H10.2377C10.2825 0.973145 10.3184 1.00944 10.3184 1.0538V7.45273C10.3188 7.82228 10.0192 8.12181 9.64932 8.12181Z" stroke="white" stroke-width="1.5" stroke-miterlimit="10" stroke-linecap="round" stroke-linejoin="round"/>
</svg>
