<svg width="22" height="18" viewBox="0 0 22 18" fill="none" xmlns="http://www.w3.org/2000/svg">
<path d="M5.3007 13.3527C2.92541 13.3527 1 11.6732 1 9.60117C1 7.52916 2.92541 5.84959 5.3007 5.84959C5.32821 5.84959 5.35571 5.85 5.38322 5.85041C5.41026 3.45103 7.41399 1.46483 10.0424 1.07117C10.3534 1.0244 10.6737 1 11 1C11.3263 1 11.6466 1.0244 11.9576 1.07117C14.586 1.46483 16.5897 3.45103 16.6168 5.85041C16.6443 5.85 16.6718 5.84959 16.6993 5.84959C19.0746 5.84959 21 7.52916 21 9.60117C21 11.6732 19.0746 13.3527 16.6993 13.3527" stroke="white" stroke-width="1.5" stroke-miterlimit="10" stroke-linecap="round" stroke-linejoin="round"/>
<path d="M8.27277 12.7896C8.53833 12.1672 9.01421 11.6189 9.66932 11.2529C11.2214 10.386 13.1908 10.8731 14.0681 12.3413C14.08 12.3607 14.091 12.3805 14.1021 12.4003" stroke="white" stroke-width="1.5" stroke-miterlimit="10" stroke-linecap="round"/>
<path d="M14.1499 15.2319C13.8729 15.772 13.4309 16.244 12.8466 16.5704C11.2946 17.4373 9.32514 16.9503 8.44784 15.482C8.43598 15.4626 8.42493 15.4428 8.41388 15.423" stroke="white" stroke-width="1.5" stroke-miterlimit="10" stroke-linecap="round"/>
<path d="M14.1818 11.1575V12.4691H12.8347" stroke="white" stroke-width="1.5" stroke-miterlimit="10" stroke-linecap="round"/>
<path d="M8.37463 16.7027V15.3911H9.72168" stroke="white" stroke-width="1.5" stroke-miterlimit="10" stroke-linecap="round"/>
</svg>
