<svg width="18" height="15" viewBox="0 0 18 15" fill="none" xmlns="http://www.w3.org/2000/svg">
<mask id="path-1-inside-1_520_109" fill="white">
<path d="M16.969 2.79077L16.8955 8.97979H7.70003L6.31667 3.04453C6.31257 3.02701 6.30779 3.00949 6.30266 2.99196L6.24354 2.79077H16.969ZM4.56322 0H0.652035C0.472623 0 0.309956 0.0671732 0.192398 0.180751C0.0727901 0.292382 0 0.446848 0 0.617214C0 0.958272 0.292869 1.23443 0.652035 1.23443H4.71905L5.31572 3.25482L6.72915 9.31987L6.78895 9.5837C6.84021 9.79885 7.05209 9.95331 7.29985 9.95331H17.3927C17.677 9.95331 17.9101 9.74822 17.9146 9.4964L18 2.28616C18.002 2.03045 17.769 1.81725 17.4782 1.81725H6.19467L5.95101 0.998836C5.89121 0.789853 5.77775 0.602936 5.63251 0.44847C5.36493 0.170691 4.98219 0 4.56322 0Z"/>
</mask>
<path d="M16.969 2.79077L16.8955 8.97979H7.70003L6.31667 3.04453C6.31257 3.02701 6.30779 3.00949 6.30266 2.99196L6.24354 2.79077H16.969ZM4.56322 0H0.652035C0.472623 0 0.309956 0.0671732 0.192398 0.180751C0.0727901 0.292382 0 0.446848 0 0.617214C0 0.958272 0.292869 1.23443 0.652035 1.23443H4.71905L5.31572 3.25482L6.72915 9.31987L6.78895 9.5837C6.84021 9.79885 7.05209 9.95331 7.29985 9.95331H17.3927C17.677 9.95331 17.9101 9.74822 17.9146 9.4964L18 2.28616C18.002 2.03045 17.769 1.81725 17.4782 1.81725H6.19467L5.95101 0.998836C5.89121 0.789853 5.77775 0.602936 5.63251 0.44847C5.36493 0.170691 4.98219 0 4.56322 0Z" fill="#F95C5B"/>
<path d="M16.969 2.79077L18.4689 2.80858L18.4869 1.29077H16.969V2.79077ZM16.8955 8.97979V10.4798H18.3778L18.3954 8.99759L16.8955 8.97979ZM7.70003 8.97979L6.23918 9.32027L6.50943 10.4798H7.70003V8.97979ZM6.31667 3.04453L7.77752 2.70405L7.77721 2.70274L6.31667 3.04453ZM6.30266 2.99196L7.74233 2.57082L7.74182 2.56907L6.30266 2.99196ZM6.24354 2.79077V1.29077H4.23935L4.80439 3.21366L6.24354 2.79077ZM0.192398 0.180751L1.21586 1.27735L1.22533 1.26851L1.23464 1.25951L0.192398 0.180751ZM4.71905 1.23443L6.15763 0.809579L5.84011 -0.265571H4.71905V1.23443ZM5.31572 3.25482L6.77658 2.91437L6.76667 2.87185L6.7543 2.82997L5.31572 3.25482ZM6.72915 9.31987L8.19206 8.98826L8.19001 8.97943L6.72915 9.31987ZM6.78895 9.5837L5.32607 9.91531L5.32789 9.92334L5.3298 9.93135L6.78895 9.5837ZM17.9146 9.4964L19.4143 9.52286L19.4144 9.51418L17.9146 9.4964ZM18 2.28616L19.4999 2.30393L19.4999 2.29819L18 2.28616ZM6.19467 1.81725L4.75704 2.24526L5.07619 3.31725H6.19467V1.81725ZM5.95101 0.998836L4.5089 1.41152L4.5111 1.4192L4.51338 1.42685L5.95101 0.998836ZM5.63251 0.44847L6.72531 -0.579047L6.71911 -0.585648L6.71282 -0.592173L5.63251 0.44847ZM16.969 2.79077L15.4691 2.77296L15.3956 8.96198L16.8955 8.97979L18.3954 8.99759L18.4689 2.80858L16.969 2.79077ZM16.8955 8.97979V7.47979H7.70003V8.97979V10.4798H16.8955V8.97979ZM7.70003 8.97979L9.16087 8.6393L7.77752 2.70405L6.31667 3.04453L4.85583 3.38502L6.23918 9.32027L7.70003 8.97979ZM6.31667 3.04453L7.77721 2.70274C7.7649 2.65013 7.75223 2.60468 7.74233 2.57082L6.30266 2.99196L4.86299 3.4131C4.86334 3.4143 4.86024 3.4039 4.85613 3.38633L6.31667 3.04453ZM6.30266 2.99196L7.74182 2.56907L7.68269 2.36788L6.24354 2.79077L4.80439 3.21366L4.86351 3.41485L6.30266 2.99196ZM6.24354 2.79077V4.29077H16.969V2.79077V1.29077H6.24354V2.79077ZM4.56322 0V-1.5H0.652035V0V1.5H4.56322V0ZM0.652035 0V-1.5C0.094519 -1.5 -0.444954 -1.2892 -0.849844 -0.898012L0.192398 0.180751L1.23464 1.25951C1.06487 1.42354 0.850726 1.5 0.652035 1.5V0ZM0.192398 0.180751L-0.831062 -0.915848C-1.23543 -0.538452 -1.5 0.00550501 -1.5 0.617214H0H1.5C1.5 0.88819 1.38101 1.12322 1.21586 1.27735L0.192398 0.180751ZM0 0.617214H-1.5C-1.5 1.86485 -0.455188 2.73443 0.652035 2.73443V1.23443V-0.265571C1.04093 -0.265571 1.5 0.0516967 1.5 0.617214H0ZM0.652035 1.23443V2.73443H4.71905V1.23443V-0.265571H0.652035V1.23443ZM4.71905 1.23443L3.28047 1.65928L3.87715 3.67967L5.31572 3.25482L6.7543 2.82997L6.15763 0.809579L4.71905 1.23443ZM5.31572 3.25482L3.85487 3.59526L5.26829 9.66032L6.72915 9.31987L8.19001 8.97943L6.77658 2.91437L5.31572 3.25482ZM6.72915 9.31987L5.26626 9.65148L5.32607 9.91531L6.78895 9.5837L8.25184 9.25209L8.19204 8.98826L6.72915 9.31987ZM6.78895 9.5837L5.3298 9.93135C5.56565 10.9213 6.46497 11.4533 7.29985 11.4533V9.95331V8.45331C7.63922 8.45331 8.11478 8.67644 8.24811 9.23604L6.78895 9.5837ZM7.29985 9.95331V11.4533H17.3927V9.95331V8.45331H7.29985V9.95331ZM17.3927 9.95331V11.4533C18.3318 11.4533 19.3927 10.7468 19.4143 9.52286L17.9146 9.4964L16.4148 9.46995C16.4275 8.74963 17.0223 8.45331 17.3927 8.45331V9.95331ZM17.9146 9.4964L19.4144 9.51418L19.4999 2.30393L18 2.28616L16.5001 2.26839L16.4147 9.47863L17.9146 9.4964ZM18 2.28616L19.4999 2.29819C19.5099 1.05857 18.4429 0.317245 17.4782 0.317245V1.81725V3.31725C17.0951 3.31725 16.4942 3.00233 16.5 2.27413L18 2.28616ZM17.4782 1.81725V0.317245H6.19467V1.81725V3.31725H17.4782V1.81725ZM6.19467 1.81725L7.63231 1.38923L7.38865 0.570819L5.95101 0.998836L4.51338 1.42685L4.75704 2.24526L6.19467 1.81725ZM5.95101 0.998836L7.39313 0.586151C7.26022 0.121721 7.01506 -0.270891 6.72531 -0.579047L5.63251 0.44847L4.53972 1.47599C4.53935 1.4756 4.53532 1.47129 4.52957 1.46147C4.52366 1.45139 4.51556 1.43478 4.5089 1.41152L5.95101 0.998836ZM5.63251 0.44847L6.71282 -0.592173C6.16403 -1.16188 5.39194 -1.5 4.56322 -1.5V0V1.5C4.56811 1.5 4.56859 1.50085 4.56628 1.49986C4.56474 1.49921 4.55952 1.4967 4.55221 1.48911L5.63251 0.44847Z" fill="white" mask="url(#path-1-inside-1_520_109)"/>
<path d="M10.8603 12.7979C10.8603 13.4619 10.2938 13.9999 9.59661 13.9999C8.89741 13.9999 8.33081 13.4619 8.33081 12.7979C8.33081 12.7736 8.33286 12.7493 8.33525 12.7249C8.37592 12.0954 8.92338 11.5979 9.59695 11.5979C10.2685 11.5979 10.818 12.0954 10.8586 12.7249C10.8604 12.7489 10.8603 12.7733 10.8603 12.7979Z" stroke="white" stroke-width="1.5" stroke-miterlimit="10" stroke-linecap="round" stroke-linejoin="round"/>
<path d="M16.4072 12.7979C16.4072 13.4619 15.8406 13.9999 15.1434 13.9999C14.4442 13.9999 13.8776 13.4619 13.8776 12.7979C13.8776 12.7736 13.8797 12.7493 13.8797 12.7249C13.9203 12.0954 14.4699 11.5979 15.1434 11.5979C15.8149 11.5979 16.3644 12.0954 16.4027 12.7249C16.4051 12.7489 16.4072 12.7733 16.4072 12.7979Z" stroke="white" stroke-width="1.5" stroke-miterlimit="10" stroke-linecap="round" stroke-linejoin="round"/>
</svg>
