<svg width="18" height="16" viewBox="0 0 18 16" fill="none" xmlns="http://www.w3.org/2000/svg">
<path d="M7.64155 8.746V14.7008C7.64155 14.8665 7.50621 15.0001 7.33829 15.0001H1.30326C1.13534 15.0001 1 14.8665 1 14.7008V8.746C1 8.58032 1.13534 8.44678 1.30326 8.44678H7.33829C7.50621 8.44678 7.64155 8.58032 7.64155 8.746Z" stroke="white" stroke-width="1.5"/>
<path d="M16.6969 15.0001H10.6616C10.4937 15.0001 10.3585 14.8666 10.3585 14.701V8.74589C10.3585 8.58027 10.4937 8.44678 10.6616 8.44678H16.6969C16.8647 8.44678 17 8.58027 17 8.74589V14.701C16.9975 14.8666 16.8622 15.0001 16.6969 15.0001Z" stroke="white" stroke-width="1.5"/>
<path d="M12.4717 1.29911V7.25418C12.4717 7.41981 12.3363 7.5533 12.1684 7.5533H6.13339C5.96548 7.5533 5.83014 7.41981 5.83014 7.25418V1.29911C5.83014 1.13349 5.96548 1 6.13339 1H12.1684C12.3363 1 12.4717 1.13349 12.4717 1.29911Z" stroke="white" stroke-width="1.5"/>
</svg>
