<svg width="22" height="22" viewBox="0 0 22 22" fill="none" xmlns="http://www.w3.org/2000/svg">
<path d="M16.014 18.7996C15.8188 20.046 14.7192 21 13.3915 21H3.65302C2.18759 21 1 19.8377 1 18.4035V3.59646C1 2.16228 2.18759 1 3.65302 1H13.3915C14.7192 1 15.8188 1.95403 16.014 3.20039" stroke="white" stroke-width="1.5" stroke-miterlimit="10" stroke-linecap="round" stroke-linejoin="round"/>
<path d="M12.5238 17.3655H4.48969V17.3832H12.5238V17.3655Z" stroke="white" stroke-width="1.5" stroke-miterlimit="10" stroke-linecap="round" stroke-linejoin="round"/>
<path d="M20.9999 6.73402V15.2656C20.9999 15.671 20.6573 16 20.2342 16H15.0922C15.041 16 14.9999 15.9602 14.9999 15.9115V6.08849C14.9999 6.03942 15.0415 6 15.0922 6H20.2346C20.6573 5.9996 20.9999 6.3286 20.9999 6.73402Z" stroke="white" stroke-width="1.5" stroke-miterlimit="10" stroke-linecap="round" stroke-linejoin="round"/>
<path d="M14.9999 9H17.9999H14.9999Z" stroke="white" stroke-width="1.5" stroke-miterlimit="10" stroke-linecap="round" stroke-linejoin="round"/>
</svg>
