<svg width="22" height="22" viewBox="0 0 22 22" fill="none" xmlns="http://www.w3.org/2000/svg">
<path d="M7.9952 19.2046L2.77582 19.1296C1.78659 19.121 0.99137 18.328 1.00007 17.358L1.13145 2.74049C1.14015 1.77094 1.94928 0.991542 2.93896 1.00007L17.8532 1.12926C18.8424 1.13779 19.6376 1.93083 19.6285 2.90038L19.5511 8.11953" stroke="#1AD1B9" stroke-width="1.5" stroke-linecap="round" stroke-linejoin="round"/>
<path d="M8.37068 1.25928H12.2585C12.3115 1.25928 12.3542 1.30149 12.3542 1.35308V8.79487C12.3542 9.22464 11.9983 9.57341 11.5598 9.57341H9.06888C8.63038 9.57341 8.27454 9.22464 8.27454 8.79487V1.3535C8.27454 1.30149 8.3176 1.2597 8.37024 1.2597L8.37068 1.25928Z" stroke="#1AD1B9" stroke-width="1.5" stroke-linecap="round" stroke-linejoin="round"/>
<path d="M11.7341 14.5619H21.0001L16.1713 10.8525" stroke="#795CF5" stroke-width="1.5" stroke-linecap="round" stroke-linejoin="round"/>
<path d="M21.0001 17.2906H11.7341L16.5629 21" stroke="#F95C5B" stroke-width="1.5" stroke-linecap="round" stroke-linejoin="round"/>
</svg>
