<svg width="23" height="23" viewBox="0 0 23 23" fill="none" xmlns="http://www.w3.org/2000/svg">
<path d="M17.8341 5.15625L15.2761 7.71423" stroke="#795CF5" stroke-width="1.5" stroke-linecap="round" stroke-linejoin="round"/>
<path d="M7.71423 15.276L5.15625 17.834" stroke="#795CF5" stroke-width="1.5" stroke-linecap="round" stroke-linejoin="round"/>
<path d="M7.71423 7.71423L5.15625 5.15625" stroke="#795CF5" stroke-width="1.5" stroke-linecap="round" stroke-linejoin="round"/>
<path d="M17.8341 17.834L15.2761 15.276" stroke="#795CF5" stroke-width="1.5" stroke-linecap="round" stroke-linejoin="round"/>
<path d="M19.3507 5.78388C20.5351 5.78388 21.4952 4.82378 21.4952 3.63944C21.4952 2.45509 20.5351 1.495 19.3507 1.495C18.1664 1.495 17.2063 2.45509 17.2063 3.63944C17.2063 4.82378 18.1664 5.78388 19.3507 5.78388Z" stroke="#1AD1B9" stroke-width="1.5" stroke-linecap="round" stroke-linejoin="round"/>
<path d="M19.3507 21.4949C20.5351 21.4949 21.4952 20.5348 21.4952 19.3505C21.4952 18.1662 20.5351 17.2061 19.3507 17.2061C18.1664 17.2061 17.2063 18.1662 17.2063 19.3505C17.2063 20.5348 18.1664 21.4949 19.3507 21.4949Z" stroke="#1AD1B9" stroke-width="1.5" stroke-linecap="round" stroke-linejoin="round"/>
<path d="M3.63956 21.4949C4.8239 21.4949 5.784 20.5348 5.784 19.3505C5.784 18.1662 4.8239 17.2061 3.63956 17.2061C2.45522 17.2061 1.49512 18.1662 1.49512 19.3505C1.49512 20.5348 2.45522 21.4949 3.63956 21.4949Z" stroke="#1AD1B9" stroke-width="1.5" stroke-linecap="round" stroke-linejoin="round"/>
<path d="M3.63956 5.78388C4.8239 5.78388 5.784 4.82378 5.784 3.63944C5.784 2.45509 4.8239 1.495 3.63956 1.495C2.45522 1.495 1.49512 2.45509 1.49512 3.63944C1.49512 4.82378 2.45522 5.78388 3.63956 5.78388Z" stroke="#1AD1B9" stroke-width="1.5" stroke-linecap="round" stroke-linejoin="round"/>
<path d="M11.4952 16.8423C14.4484 16.8423 16.8424 14.4482 16.8424 11.495C16.8424 8.54186 14.4484 6.14783 11.4952 6.14783C8.54198 6.14783 6.14795 8.54186 6.14795 11.495C6.14795 14.4482 8.54198 16.8423 11.4952 16.8423Z" stroke="#795CF5" stroke-width="1.5" stroke-linecap="round" stroke-linejoin="round"/>
</svg>
