<svg width="24" height="22" viewBox="0 0 24 22" fill="none" xmlns="http://www.w3.org/2000/svg">
<path d="M1.92271 1L1 20.9996H6.34997L5.18648 1H1.92271Z" stroke="#1AD1B9" stroke-width="1.5" stroke-linecap="round" stroke-linejoin="round"/>
<path d="M7.72729 9.21098L9.95938 8.00023C10.3333 7.79742 10.7766 8.08688 10.7766 8.53418V9.89012C10.7766 10.3398 11.2244 10.6292 11.5983 10.4217L15.9364 8.01334C16.3107 7.80539 16.758 8.09484 16.758 8.54495V9.77162C16.758 10.2119 17.1886 10.5018 17.5617 10.3131L22.1963 7.96463C22.5693 7.77541 22.9999 8.06533 22.9999 8.50607V20.4009C22.9999 20.7321 22.7482 21 22.438 21H8.60695" stroke="#795CF5" stroke-width="1.5" stroke-linecap="round" stroke-linejoin="round"/>
<path d="M13.0699 13.8328L10.9469 13.7495C10.7803 13.7429 10.6403 13.8816 10.6341 14.0592L10.5476 16.5633C10.5415 16.7409 10.6715 16.8901 10.8381 16.8967L12.9611 16.9801C13.1277 16.9866 13.2678 16.8479 13.2739 16.6703L13.3605 14.1662C13.3666 13.9886 13.2365 13.8394 13.0699 13.8328Z" stroke="#795CF5" stroke-width="1.5" stroke-linecap="round" stroke-linejoin="round"/>
<path d="M18.8258 13.833L16.7028 13.7496C16.5362 13.743 16.3961 13.8817 16.39 14.0593L16.3035 16.5634C16.2973 16.741 16.4274 16.8903 16.594 16.8968L18.717 16.9802C18.8836 16.9867 19.0236 16.8481 19.0298 16.6705L19.1163 14.1664C19.1225 13.9888 18.9924 13.8395 18.8258 13.833Z" stroke="#795CF5" stroke-width="1.5" stroke-linecap="round" stroke-linejoin="round"/>
</svg>
