<svg width="22" height="24" viewBox="0 0 22 24" fill="none" xmlns="http://www.w3.org/2000/svg">
<path d="M21 6.64171C21 8.31443 19.5579 9.67042 17.7789 9.67042C16 9.67042 14.5579 8.31443 14.5579 6.64171C14.5579 6.54154 14.5629 6.44257 14.5731 6.34478H14.2059C14.216 6.44257 14.2211 6.54154 14.2211 6.64171C14.2211 8.31443 12.7789 9.67042 11 9.67042C9.22105 9.67042 7.77895 8.31443 7.77895 6.64171C7.77895 6.54154 7.784 6.44257 7.79411 6.34478H7.42695C7.43705 6.44257 7.44211 6.54154 7.44211 6.64171C7.44211 8.31443 6 9.67042 4.22105 9.67042C2.44211 9.67042 1 8.31443 1 6.64171C1 6.64052 1 6.63933 1 6.63815C1.04547 6.44336 1.08968 6.25411 1.13516 6.05933L1.80716 4.63722L2.79958 2.53732C3.24168 1.60257 4.22737 1 5.31537 1H16.6846C17.7726 1 18.7587 1.60257 19.2004 2.53732L20.1928 4.63722L20.8648 6.05933C20.9103 6.25411 20.9545 6.44336 21 6.63815C21 6.63933 21 6.64052 21 6.64171Z" stroke="#F95C5B" stroke-width="1.5" stroke-miterlimit="10" stroke-linecap="round" stroke-linejoin="round"/>
<path d="M2.91406 11.6499V15.9701C2.91406 17.1701 3.98017 18.1428 5.29512 18.1428H9.77175" stroke="#F95C5B" stroke-width="1.5" stroke-miterlimit="10" stroke-linecap="round" stroke-linejoin="round"/>
<path d="M20.1803 15.1894L20.1325 19.5019H14.1476L13.2472 15.3662C13.2446 15.354 13.2414 15.3418 13.2381 15.3296L13.1996 15.1894H20.1803ZM12.106 13.2448H9.56037C9.4436 13.2448 9.33772 13.2916 9.26121 13.3707C9.18336 13.4485 9.13599 13.5561 9.13599 13.6748C9.13599 13.9125 9.3266 14.1049 9.56037 14.1049H12.2074L12.5958 15.5127L13.5157 19.7388L13.5546 19.9227C13.588 20.0726 13.7259 20.1802 13.8871 20.1802H20.4561C20.6412 20.1802 20.7929 20.0373 20.7958 19.8619L20.8514 14.8377C20.8527 14.6596 20.701 14.511 20.5117 14.511H13.1678L13.0092 13.9407C12.9703 13.7951 12.8965 13.6649 12.8019 13.5572C12.6278 13.3637 12.3787 13.2448 12.106 13.2448Z" fill="#1AD1B9" stroke="#1AD1B9" stroke-width="0.5"/>
<path d="M15.965 22.512C15.965 22.7817 15.7464 23.0003 15.4775 23.0003C15.2077 23.0003 14.9891 22.7817 14.9891 22.512C14.9891 22.5021 14.9899 22.4922 14.9908 22.4823C15.0065 22.2265 15.2178 22.0244 15.4776 22.0244C15.7367 22.0244 15.9487 22.2265 15.9644 22.4823C15.965 22.4921 15.965 22.5019 15.965 22.512Z" fill="#1AD1B9" stroke="#1AD1B9" stroke-width="0.5" stroke-miterlimit="10" stroke-linecap="round" stroke-linejoin="round"/>
<path d="M19.8671 22.512C19.8671 22.7817 19.6485 23.0003 19.3796 23.0003C19.1098 23.0003 18.8912 22.7817 18.8912 22.512C18.8912 22.5021 18.892 22.4922 18.892 22.4823C18.9077 22.2265 19.1197 22.0244 19.3796 22.0244C19.6387 22.0244 19.8507 22.2265 19.8654 22.4823C19.8663 22.4921 19.8671 22.5019 19.8671 22.512Z" fill="#1AD1B9" stroke="#1AD1B9" stroke-width="0.5" stroke-miterlimit="10" stroke-linecap="round" stroke-linejoin="round"/>
</svg>
