<svg width="58" height="58" viewBox="0 0 58 58" fill="none" xmlns="http://www.w3.org/2000/svg">
<path d="M30.6387 9.11182C39.6117 9.68333 46.9189 16.3875 48.4128 25.0784" stroke="#795CF5" stroke-width="2.5" stroke-miterlimit="10" stroke-linecap="round"/>
<path d="M10.3715 25.079C11.8618 16.4089 19.1361 9.71686 28.079 9.1167" stroke="#795CF5" stroke-width="2.5" stroke-miterlimit="10" stroke-linecap="round"/>
<path d="M10.3715 31.668C11.8618 40.3388 19.1361 47.0308 28.0797 47.631" stroke="#795CF5" stroke-width="2.5" stroke-miterlimit="10" stroke-linecap="round"/>
<path d="M30.6379 47.6352C39.6117 47.0645 46.9189 40.3603 48.4128 31.668" stroke="#795CF5" stroke-width="2.5" stroke-miterlimit="10" stroke-linecap="round"/>
<path d="M30.663 9.18506C35.5831 10.0645 39.5866 15.9945 40.7375 23.773" stroke="#795CF5" stroke-width="2.5" stroke-miterlimit="10" stroke-linecap="round"/>
<path d="M18.053 23.7274C19.2075 16.0077 23.173 10.1193 28.0516 9.19824" stroke="#795CF5" stroke-width="2.5" stroke-miterlimit="10" stroke-linecap="round"/>
<path d="M18.053 33.02C19.2075 40.7405 23.173 46.6289 28.0516 47.5499" stroke="#795CF5" stroke-width="2.5" stroke-miterlimit="10" stroke-linecap="round"/>
<path d="M30.663 47.5618C35.5831 46.6823 39.5866 40.7523 40.7375 32.9731" stroke="#795CF5" stroke-width="2.5" stroke-miterlimit="10" stroke-linecap="round"/>
<path d="M37.5059 27.8141L41.1391 29.0366L37.5059 30.2591C34.0897 31.4086 31.4083 34.0907 30.2582 37.5069L29.0356 41.1401L27.8131 37.5069C26.6637 34.0907 23.9816 31.4093 20.5654 30.2591L16.9322 29.0366L20.5654 27.8141C23.9816 26.6646 26.6629 23.9825 27.8131 20.5663L29.0356 16.9331L30.2582 20.5663C31.4083 23.9825 34.0897 26.6639 37.5059 27.8141Z" stroke="#1AD1B9" stroke-width="2.5" stroke-miterlimit="10" stroke-linecap="round"/>
<path d="M28.9771 2L29.0229 17.1114" stroke="#1AD1B9" stroke-width="2.5" stroke-miterlimit="10" stroke-linecap="round" stroke-linejoin="round"/>
<path d="M28.9771 40.8887L29.0229 56.0001" stroke="#1AD1B9" stroke-width="2.5" stroke-miterlimit="10" stroke-linecap="round" stroke-linejoin="round"/>
<path d="M56 28.9771L40.8886 29.0229" stroke="#1AD1B9" stroke-width="2.5" stroke-miterlimit="10" stroke-linecap="round" stroke-linejoin="round"/>
<path d="M17.1114 28.9771L2 29.0229" stroke="#1AD1B9" stroke-width="2.5" stroke-miterlimit="10" stroke-linecap="round" stroke-linejoin="round"/>
<path d="M37.5778 27.8141L41.211 29.0366L37.5778 30.2591C34.1616 31.4086 31.4802 34.0907 30.3301 37.5069L29.1075 41.1401L27.885 37.5069C26.7355 34.0907 24.0535 31.4093 20.6373 30.2591L17.0041 29.0366L20.6373 27.8141C24.0535 26.6646 26.7348 23.9825 27.885 20.5663L29.1075 16.9331L30.3301 20.5663C31.4802 23.9825 34.1616 26.6639 37.5778 27.8141Z" stroke="#1AD1B9" stroke-width="2.5" stroke-miterlimit="10" stroke-linecap="round"/>
</svg>
