<svg width="60" height="60" viewBox="0 0 60 60" fill="none" xmlns="http://www.w3.org/2000/svg">
<path d="M51.7176 27.9743C51.7255 27.7271 51.7289 27.48 51.7289 27.2305C51.7289 13.2959 40.5968 2 26.8644 2C13.132 2 2 13.2959 2 27.2305C2 41.1456 13.1016 52.4301 26.808 52.461" stroke="#B11E67" stroke-width="2.5" stroke-miterlimit="10" stroke-linecap="round" stroke-linejoin="round"/>
<path d="M27.09 37.3562V38.3402V39.3242" stroke="#B11E67" stroke-width="2.5" stroke-linecap="round"/>
<path d="M27.09 15.7085V16.6925V17.6765" stroke="#B11E67" stroke-width="2.5" stroke-linecap="round"/>
<path d="M32.9939 22.5973C32.9939 19.88 30.3507 17.6772 27.09 17.6772C23.8293 17.6772 21.1862 19.88 21.1862 22.5973C21.1862 25.3145 23.8293 27.5173 27.09 27.5173C30.3507 27.5173 32.9939 29.7201 32.9939 32.4373C32.9939 35.1545 30.3507 37.3573 27.09 37.3573C23.8293 37.3573 21.1862 35.1545 21.1862 32.4373" stroke="#B11E67" stroke-width="2.5" stroke-linecap="round"/>
<path d="M52.6238 43.4062L56 44.5615L52.6238 45.7169C49.4493 46.8032 46.9576 49.3379 45.8888 52.5664L44.7528 56L43.6167 52.5664C42.5486 49.3379 40.0562 46.8039 36.8817 45.7169L33.5056 44.5615L36.8817 43.4062C40.0562 42.3199 42.5479 39.7851 43.6167 36.5566L44.7528 33.123L45.8888 36.5566C46.9576 39.7851 49.4493 42.3192 52.6238 43.4062Z" stroke="#1AD1B9" stroke-width="2.5" stroke-miterlimit="10" stroke-linecap="round"/>
</svg>
