<svg width="62" height="58" viewBox="0 0 62 58" fill="none" xmlns="http://www.w3.org/2000/svg">
<path d="M23.0514 23.6917C25.019 23.6917 26.614 22.1364 26.614 20.2178C26.614 18.2992 25.019 16.7439 23.0514 16.7439C21.0839 16.7439 19.4888 18.2992 19.4888 20.2178C19.4888 22.1364 21.0839 23.6917 23.0514 23.6917Z" stroke="#1AD1B9" stroke-width="2.5" stroke-miterlimit="10" stroke-linecap="round" stroke-linejoin="round"/>
<path d="M56.4373 23.7949C58.4049 23.7949 59.9999 22.2396 59.9999 20.3211C59.9999 18.4025 58.4049 16.8472 56.4373 16.8472C54.4698 16.8472 52.8748 18.4025 52.8748 20.3211C52.8748 22.2396 54.4698 23.7949 56.4373 23.7949Z" stroke="#1AD1B9" stroke-width="2.5" stroke-miterlimit="10" stroke-linecap="round" stroke-linejoin="round"/>
<path d="M5.56258 40.7439C7.53014 40.7439 9.12516 39.1886 9.12516 37.27C9.12516 35.3515 7.53014 33.7961 5.56258 33.7961C3.59502 33.7961 2 35.3515 2 37.27C2 39.1886 3.59502 40.7439 5.56258 40.7439Z" stroke="#1AD1B9" stroke-width="2.5" stroke-miterlimit="10" stroke-linecap="round" stroke-linejoin="round"/>
<path d="M39.7974 40.0208C41.7649 40.0208 43.36 38.4655 43.36 36.5469C43.36 34.6283 41.7649 33.073 39.7974 33.073C37.8298 33.073 36.2348 34.6283 36.2348 36.5469C36.2348 38.4655 37.8298 40.0208 39.7974 40.0208Z" stroke="#1AD1B9" stroke-width="2.5" stroke-miterlimit="10" stroke-linecap="round" stroke-linejoin="round"/>
<path d="M37.275 34.094L25.5658 22.6763" stroke="#1AD1B9" stroke-width="2.5" stroke-miterlimit="10" stroke-linecap="round" stroke-linejoin="round"/>
<path d="M20.5038 22.646L8.05286 34.787" stroke="#1AD1B9" stroke-width="2.5" stroke-miterlimit="10" stroke-linecap="round" stroke-linejoin="round"/>
<path d="M53.9097 22.7688L42.3076 34.0821" stroke="#1AD1B9" stroke-width="2.5" stroke-miterlimit="10" stroke-linecap="round" stroke-linejoin="round"/>
<path d="M56.2412 31V51.2347C56.2412 53.8667 54.2469 56 51.7863 56H10.2137C7.75316 56 5.75879 53.8667 5.75879 51.2347V48.0667" stroke="#F95C5B" stroke-width="2.5" stroke-miterlimit="10" stroke-linecap="round" stroke-linejoin="round"/>
<path d="M5.75879 27.4V6.76533C5.75879 4.13333 7.75316 2 10.2137 2H51.7863C54.2469 2 56.2412 4.13333 56.2412 6.76533V10.3333" stroke="#F95C5B" stroke-width="2.5" stroke-miterlimit="10" stroke-linecap="round" stroke-linejoin="round"/>
</svg>
