<svg width="54" height="54" viewBox="0 0 54 54" fill="none" xmlns="http://www.w3.org/2000/svg">
<path d="M34.0615 2.61719C37.1957 3.62089 40.1147 5.30572 42.5735 7.61031" stroke="#1AD1B9" stroke-width="2.5" stroke-miterlimit="10" stroke-linecap="round" stroke-linejoin="round"/>
<path d="M49.1019 28.8872C49.8973 25.4335 49.8674 21.7902 48.9369 18.2617" stroke="#1AD1B9" stroke-width="2.5" stroke-miterlimit="10" stroke-linecap="round" stroke-linejoin="round"/>
<path d="M5.3318 28.9202C4.5426 25.5808 4.55504 22.1513 5.30115 18.8889" stroke="#795CF5" stroke-width="2.5" stroke-miterlimit="10" stroke-linecap="round" stroke-linejoin="round"/>
<path d="M11.294 8.06271C12.6521 6.71289 14.2079 5.51407 15.9518 4.51376C17.7924 3.45796 19.7183 2.69103 21.6811 2.2011" stroke="#795CF5" stroke-width="2.5" stroke-miterlimit="10" stroke-linecap="round" stroke-linejoin="round"/>
<path d="M11.4276 39.7507C14.0883 42.3786 17.3266 44.2501 20.8126 45.2843" stroke="#F95C5B" stroke-width="2.5" stroke-miterlimit="10" stroke-linecap="round" stroke-linejoin="round"/>
<path d="M33.1661 45.4405C34.9758 44.9462 36.7545 44.2192 38.4575 43.2423C40.2324 42.2242 41.8159 41.0005 43.1912 39.6177" stroke="#F95C5B" stroke-width="2.5" stroke-miterlimit="10" stroke-linecap="round" stroke-linejoin="round"/>
<path d="M6.04744 19.1391C9.38734 20.033 12.817 18.0657 13.7078 14.7451C14.5986 11.4245 12.6132 8.00802 9.27325 7.11413C5.93335 6.22024 2.50371 8.18748 1.61293 11.5081C0.722142 14.8287 2.70754 18.2452 6.04744 19.1391Z" stroke="#795CF5" stroke-width="2.5" stroke-miterlimit="10" stroke-linecap="round" stroke-linejoin="round"/>
<path d="M25.3651 52.3815C28.705 53.2754 32.1347 51.3082 33.0255 47.9876C33.9162 44.667 31.9308 41.2504 28.5909 40.3566C25.251 39.4627 21.8214 41.4299 20.9306 44.7505C20.0398 48.0711 22.0252 51.4876 25.3651 52.3815Z" stroke="#F95C5B" stroke-width="2.5" stroke-miterlimit="10" stroke-linecap="round" stroke-linejoin="round"/>
<path d="M44.7267 18.601C48.0666 19.4949 51.4963 17.5276 52.387 14.207C53.2778 10.8864 51.2924 7.46993 47.9525 6.57605C44.6126 5.68216 41.183 7.6494 40.2922 10.97C39.4014 14.2906 41.3868 17.7071 44.7267 18.601Z" stroke="#1AD1B9" stroke-width="2.5" stroke-miterlimit="10" stroke-linecap="round" stroke-linejoin="round"/>
</svg>
