<svg width="17" height="18" viewBox="0 0 17 18" fill="none" xmlns="http://www.w3.org/2000/svg">
<path d="M12 7.51852V2.3545C11.9341 1.94533 11.5647 1.10159 10.6151 1H2.42446C1.98921 1.04233 1.09496 1.41481 1 2.56614V15.1799C1 15.716 1.26906 16.8307 2.34532 17H7.64748" stroke="#231F20"/>
<path d="M3.83203 5.14551H9.41411" stroke="#231F20" stroke-linecap="round"/>
<path d="M3.83203 8.18262H8.51113" stroke="#231F20" stroke-linecap="round"/>
<path d="M3.83203 11.3022H6.3768" stroke="#231F20" stroke-linecap="round"/>
<circle cx="13" cy="13" r="3.5" stroke="#231F20"/>
<path d="M13.1143 12.0664C13.3901 12.0668 13.6143 12.2905 13.6143 12.5664C13.6143 12.5693 13.6133 12.5723 13.6133 12.5752V13.96H13.7705C14.0465 13.96 14.2704 14.1839 14.2705 14.46C14.2705 14.7361 14.0466 14.9599 13.7705 14.96H12.457C12.1809 14.96 11.957 14.7361 11.957 14.46C11.9572 14.1839 12.181 13.96 12.457 13.96H12.6133V13.0664H12.375C12.0989 13.0664 11.875 12.8425 11.875 12.5664C11.875 12.2903 12.0989 12.0664 12.375 12.0664H13.1143Z" fill="black"/>
<circle cx="12.8206" cy="11.4104" r="0.410447" fill="#231F20"/>
</svg>
