<svg width="131" height="40" viewBox="0 0 131 40" fill="none" xmlns="http://www.w3.org/2000/svg">
<path d="M75.8719 19.2222C75.1205 19.2222 74.4233 19.0683 73.7762 18.7647C73.1291 18.4612 72.6115 17.9952 72.2232 17.3711C71.8308 16.7469 71.6388 15.9603 71.6388 15.0156V9.46661C71.6388 8.53466 72.3777 7.77799 73.2878 7.77799C74.1978 7.77799 74.9368 8.53466 74.9368 9.46661V15.4473C74.9368 15.6226 74.9785 15.7808 75.0662 15.9261C75.1497 16.0715 75.2666 16.1869 75.4085 16.2767C75.5505 16.3622 75.7049 16.4092 75.8761 16.4092C76.0472 16.4092 76.2017 16.3665 76.3436 16.2767C76.4856 16.1912 76.5983 16.0715 76.686 15.9261C76.7695 15.7808 76.8154 15.6226 76.8154 15.4473V11.7195C76.8154 10.8175 76.9991 10.0566 77.3706 9.43241C77.738 8.80826 78.2473 8.33374 78.8902 8.00456C79.5373 7.67966 80.2637 7.51294 81.0694 7.51294C81.8793 7.51294 82.6015 7.67539 83.2402 8.00456C83.879 8.32946 84.3841 8.80826 84.7515 9.43241C85.1189 10.0566 85.3067 10.8218 85.3067 11.7195V15.4473C85.3067 15.6226 85.3485 15.7808 85.4361 15.9261C85.5196 16.0715 85.6365 16.1869 85.7868 16.2767C85.9371 16.3622 86.0957 16.4092 86.2669 16.4092C86.4381 16.4092 86.5925 16.3665 86.7345 16.2767C86.8764 16.1912 86.9891 16.0715 87.0768 15.9261C87.1603 15.7808 87.2062 15.6226 87.2062 15.4473V14.1862H90.5042V15.0113C90.5042 15.9561 90.308 16.7384 89.9198 17.3668C89.5273 17.991 89.0097 18.4569 88.3668 18.7605C87.7197 19.064 87.0225 19.2179 86.2711 19.2179C85.5196 19.2179 84.8224 19.064 84.1754 18.7605C83.5283 18.4569 83.0065 17.991 82.6099 17.3668C82.2133 16.7427 82.0129 15.9561 82.0129 15.0113V11.3049C82.0129 11.1168 81.9711 10.95 81.8835 10.8047C81.8 10.6593 81.6831 10.5439 81.5411 10.4541C81.3992 10.3686 81.2447 10.3216 81.0736 10.3216C80.9024 10.3216 80.7438 10.3644 80.5935 10.4541C80.4432 10.5396 80.3263 10.6593 80.2428 10.8047C80.1593 10.95 80.1134 11.1168 80.1134 11.3049V15.0113C80.1134 15.9561 79.9172 16.7384 79.5289 17.3668C79.1407 17.991 78.6189 18.4569 77.976 18.7605C77.3205 19.0683 76.6233 19.2222 75.8719 19.2222Z" fill="#231F20"/>
<path d="M87.1853 12.9508V12.5746C87.1853 11.647 87.4066 10.8005 87.8449 10.0481C88.2832 9.29143 88.9136 8.68866 89.7277 8.23978C90.5418 7.79091 91.5103 7.56433 92.6333 7.56433C93.7688 7.56433 94.7373 7.79091 95.5389 8.23978C96.3404 8.68866 96.9541 9.29143 97.3799 10.0481C97.8057 10.8048 98.0186 11.647 98.0186 12.5746V17.3156C98.0186 18.2476 97.2797 19.0042 96.3696 19.0042C95.4595 19.0042 94.7206 18.2476 94.7206 17.3156V12.6644C94.7206 12.2711 94.6288 11.912 94.4451 11.5871C94.2614 11.2622 94.0109 10.9972 93.6895 10.8048C93.3722 10.6081 93.0132 10.5098 92.6166 10.5098C92.2033 10.5098 91.8401 10.6081 91.5186 10.8048C91.2014 11.0014 90.9467 11.2622 90.763 11.5871C90.5793 11.912 90.4875 12.2754 90.4875 12.6644V12.9508H87.1853Z" fill="#231F20"/>
<path d="M106.051 18.9571C104.815 18.9571 103.73 18.722 102.794 18.2475C101.859 17.7772 101.129 17.1231 100.615 16.2852C100.098 15.4516 99.8388 14.4812 99.8388 13.374C99.8388 12.1556 100.085 11.1082 100.582 10.2361C101.079 9.36402 101.742 8.69284 102.573 8.21832C103.404 7.74807 104.322 7.50867 105.329 7.50867C106.477 7.50867 107.437 7.75662 108.213 8.24824C108.986 8.74414 109.57 9.41532 109.967 10.266C110.363 11.1168 110.564 12.0872 110.564 13.1773C110.564 13.3654 110.551 13.5877 110.53 13.8399C110.526 13.8784 110.526 13.9126 110.522 13.9468C110.497 14.229 110.267 14.4384 109.992 14.4384H103.65C103.475 14.4384 103.35 14.6223 103.417 14.789C103.508 15.0156 103.634 15.2208 103.796 15.396C104.039 15.6568 104.343 15.8492 104.711 15.9732C105.078 16.0971 105.491 16.157 105.946 16.157H108.752C109.048 16.157 109.286 16.4007 109.286 16.7042V18.4014C109.286 18.7049 109.048 18.9486 108.752 18.9486H106.051V18.9571ZM103.333 12.3351H107.266C107.32 12.3351 107.366 12.2838 107.357 12.224C107.328 12.0316 107.291 11.8435 107.245 11.6597C107.186 11.4417 107.099 11.2493 106.978 11.0826C106.856 10.9158 106.719 10.7705 106.564 10.6465C106.41 10.5225 106.226 10.4242 106.022 10.3515C105.817 10.2789 105.583 10.2404 105.329 10.2404C105.003 10.2404 104.711 10.3002 104.456 10.4157C104.201 10.5311 103.988 10.6893 103.817 10.8859C103.646 11.0826 103.517 11.3091 103.425 11.5614C103.346 11.7794 103.287 12.0017 103.241 12.224C103.229 12.2796 103.275 12.3351 103.333 12.3351Z" fill="#231F20"/>
<path d="M113.732 18.9572C112.993 18.9572 112.392 18.3416 112.392 17.5849V11.0698C112.392 10.0524 112.676 9.25294 113.244 8.67154C113.811 8.09014 114.6 7.79944 115.607 7.79944H117.435C118.174 7.79944 118.775 8.41504 118.775 9.17171C118.775 9.92839 118.174 10.544 117.435 10.544H116.412C116.212 10.544 116.045 10.6124 115.903 10.7492C115.761 10.886 115.69 11.0655 115.69 11.2836V17.5806C115.69 18.3373 115.089 18.9529 114.35 18.9529H113.732V18.9572Z" fill="#231F20"/>
<path d="M120.929 17.6191C120.929 16.8796 121.514 16.2768 122.24 16.2768H126.189C126.331 16.2768 126.461 16.2426 126.574 16.1785C126.686 16.1143 126.778 16.0246 126.849 15.9049C126.92 15.7894 126.958 15.6655 126.958 15.5329C126.958 15.3876 126.92 15.2551 126.849 15.1396C126.778 15.0242 126.686 14.9344 126.574 14.866C126.461 14.8019 126.331 14.7677 126.189 14.7677H124.273C123.564 14.7677 122.921 14.648 122.349 14.4086C121.777 14.1692 121.322 13.793 120.988 13.2757C120.654 12.7585 120.487 12.0873 120.487 11.2579C120.487 10.6167 120.637 10.0353 120.946 9.51373C121.251 8.99218 121.668 8.56896 122.203 8.24833C122.733 7.92771 123.321 7.76953 123.96 7.76953H127.909C128.632 7.76953 129.22 8.36803 129.22 9.11188V9.13326C129.22 9.87283 128.636 10.4756 127.909 10.4756H124.474C124.273 10.4756 124.106 10.5397 123.973 10.6723C123.839 10.8048 123.772 10.963 123.772 11.1511C123.772 11.3563 123.839 11.5273 123.973 11.6641C124.106 11.8009 124.273 11.8693 124.474 11.8693H126.348C127.141 11.8693 127.826 11.989 128.402 12.2284C128.978 12.4678 129.425 12.8482 129.742 13.3741C130.059 13.8956 130.222 14.5711 130.222 15.4004C130.222 16.0545 130.064 16.6487 129.742 17.1874C129.425 17.726 128.999 18.1535 128.465 18.4741C127.934 18.7948 127.333 18.9529 126.665 18.9529H122.24C121.518 18.9572 120.929 18.3587 120.929 17.6191Z" fill="#231F20"/>
<path d="M64.0992 19.0726C62.9428 19.0726 61.9033 18.8118 60.9849 18.286C60.0623 17.7602 59.3359 17.042 58.8015 16.1271C58.2672 15.2123 58 14.1863 58 13.0491C58 11.8949 58.2672 10.8646 58.8015 9.9583C59.3359 9.052 60.0623 8.3338 60.9849 7.79942C61.9075 7.26932 62.947 7 64.0992 7C65.2556 7 66.2909 7.26505 67.2052 7.79942C68.1195 8.32952 68.8417 9.052 69.376 9.9583C69.9104 10.8646 70.1776 11.8949 70.1776 13.0491C70.1776 14.1863 69.9104 15.2123 69.376 16.1271C68.8417 17.042 68.1153 17.7602 67.1927 18.286C66.2701 18.8118 65.2389 19.0726 64.0992 19.0726ZM64.0992 16.0373C64.6419 16.0373 65.1095 15.9005 65.5019 15.6312C65.8985 15.3619 66.2033 15.0028 66.4245 14.5539C66.6458 14.105 66.7543 13.5963 66.7543 13.0277C66.7543 12.472 66.6458 11.9718 66.4245 11.5229C66.2033 11.0741 65.8985 10.715 65.5019 10.4456C65.1053 10.1763 64.6378 10.0395 64.0992 10.0395C63.5565 10.0395 63.0848 10.1763 62.684 10.4456C62.2832 10.715 61.9701 11.0741 61.7531 11.5229C61.5318 11.9718 61.4233 12.4763 61.4233 13.0277C61.4233 13.5963 61.5318 14.105 61.7531 14.5539C61.9743 15.0028 62.2832 15.3619 62.684 15.6312C63.0848 15.9048 63.5565 16.0373 64.0992 16.0373Z" fill="#231F20"/>
<path d="M58.4999 32.5376C58.3391 32.5376 58.213 32.4926 58.1304 32.3982C58.0435 32.3037 58 32.1733 58 32.0069V25.8865C58 25.7156 58.0435 25.5807 58.1304 25.4907C58.2174 25.4008 58.3391 25.3558 58.4999 25.3558C58.6608 25.3558 58.7868 25.4008 58.8694 25.4907C58.9564 25.5807 58.9998 25.7111 58.9998 25.8865V32.0069C58.9998 32.1733 58.9564 32.3037 58.8738 32.3982C58.7912 32.4881 58.6651 32.5376 58.4999 32.5376Z" fill="#231F20"/>
<path d="M63.373 32.5376C63.2252 32.5376 63.1078 32.4926 63.0252 32.4072C62.9426 32.3217 62.8992 32.1958 62.8992 32.0384V25.8775C62.8992 25.7111 62.9383 25.5852 63.0209 25.4952C63.0991 25.4053 63.2078 25.3603 63.3426 25.3603C63.4599 25.3603 63.5469 25.3828 63.6077 25.4233C63.6686 25.4638 63.7425 25.5447 63.8251 25.6571L67.8026 31.076H67.5592V25.846C67.5592 25.6931 67.5983 25.5717 67.6809 25.4862C67.7635 25.4008 67.8765 25.3558 68.0243 25.3558C68.1808 25.3558 68.2938 25.4008 68.3721 25.4862C68.4503 25.5717 68.4895 25.6931 68.4895 25.846V32.0474C68.4895 32.2003 68.4503 32.3217 68.3764 32.4072C68.3025 32.4926 68.2026 32.5376 68.0808 32.5376C67.9635 32.5376 67.8678 32.5151 67.7939 32.4656C67.72 32.4162 67.6418 32.3397 67.5592 32.2273L63.6034 26.8174H63.8251V32.0384C63.8251 32.1958 63.7859 32.3217 63.7077 32.4072C63.6338 32.4926 63.5208 32.5376 63.373 32.5376Z" fill="#231F20"/>
<path d="M74.9709 32.5377C74.8275 32.5377 74.7101 32.5018 74.6188 32.4343C74.5275 32.3668 74.4493 32.2589 74.3927 32.1195L71.7976 26.0395C71.7454 25.9001 71.7324 25.7787 71.7584 25.6798C71.7845 25.5808 71.8367 25.4999 71.9193 25.4459C71.9975 25.3875 72.0975 25.3605 72.2149 25.3605C72.3627 25.3605 72.4757 25.392 72.5539 25.4594C72.6322 25.5269 72.6974 25.6258 72.7452 25.7607L75.1752 31.5889H74.8188L77.2314 25.7472C77.2879 25.6213 77.3574 25.5224 77.44 25.4594C77.5183 25.392 77.6313 25.3605 77.7748 25.3605C77.8921 25.3605 77.9834 25.3875 78.0617 25.4459C78.1356 25.5044 78.1834 25.5808 78.2008 25.6798C78.2181 25.7787 78.2008 25.9001 78.1443 26.0395L75.5578 32.1195C75.5012 32.2589 75.4273 32.3623 75.3361 32.4343C75.2448 32.5062 75.1187 32.5377 74.9709 32.5377Z" fill="#231F20"/>
<path d="M81.9958 32.4656C81.8219 32.4656 81.6871 32.4161 81.5958 32.3217C81.5045 32.2272 81.4567 32.0878 81.4567 31.908V25.9854C81.4567 25.8055 81.5045 25.6661 81.5958 25.5716C81.6871 25.4772 81.8219 25.4277 81.9958 25.4277H85.5169C85.6516 25.4277 85.756 25.4637 85.8255 25.5312C85.8951 25.5986 85.9298 25.7021 85.9298 25.837C85.9298 25.9764 85.8951 26.0843 85.8255 26.1563C85.756 26.2282 85.6516 26.2642 85.5169 26.2642H82.4174V28.4722H85.3039C85.4473 28.4722 85.5517 28.5082 85.6169 28.5801C85.6864 28.6521 85.7168 28.7555 85.7168 28.8904C85.7168 29.0299 85.6821 29.1333 85.6169 29.2052C85.5473 29.2772 85.443 29.3087 85.3039 29.3087H82.4174V31.6246H85.5169C85.6516 31.6246 85.756 31.6606 85.8255 31.7326C85.8951 31.8045 85.9298 31.9079 85.9298 32.0429C85.9298 32.1823 85.8951 32.2857 85.8255 32.3577C85.756 32.4296 85.6516 32.4611 85.5169 32.4611H81.9958V32.4656Z" fill="#231F20"/>
<path d="M89.9291 32.5376C89.7813 32.5376 89.664 32.4926 89.5814 32.4072C89.4988 32.3217 89.4553 32.1958 89.4553 32.0384V25.8775C89.4553 25.7111 89.4944 25.5852 89.577 25.4952C89.6553 25.4053 89.7639 25.3603 89.8987 25.3603C90.0161 25.3603 90.103 25.3828 90.1639 25.4233C90.2247 25.4638 90.2986 25.5447 90.3812 25.6571L94.3588 31.076H94.1153V25.846C94.1153 25.6931 94.1545 25.5717 94.2371 25.4862C94.3197 25.4008 94.4327 25.3558 94.5805 25.3558C94.737 25.3558 94.85 25.4008 94.9282 25.4862C95.0065 25.5717 95.0456 25.6931 95.0456 25.846V32.0474C95.0456 32.2003 95.0065 32.3217 94.9326 32.4072C94.8587 32.4926 94.7587 32.5376 94.637 32.5376C94.5196 32.5376 94.424 32.5151 94.3501 32.4656C94.2762 32.4162 94.1979 32.3397 94.1153 32.2273L90.1595 26.8174H90.3812V32.0384C90.3812 32.1958 90.3421 32.3217 90.2639 32.4072C90.19 32.4926 90.0769 32.5376 89.9291 32.5376Z" fill="#231F20"/>
<path d="M101.105 32.5375C100.945 32.5375 100.818 32.4926 100.736 32.3981C100.649 32.3037 100.605 32.1733 100.605 32.0069V26.2957H98.558C98.4232 26.2957 98.3146 26.2597 98.2407 26.1787C98.1624 26.1023 98.1233 25.9944 98.1233 25.855C98.1233 25.7155 98.1624 25.6076 98.2407 25.5357C98.3189 25.4637 98.4232 25.4277 98.558 25.4277H103.644C103.788 25.4277 103.896 25.4637 103.97 25.5357C104.048 25.6076 104.087 25.7155 104.087 25.855C104.087 25.9944 104.048 26.1023 103.97 26.1787C103.892 26.2552 103.783 26.2957 103.644 26.2957H101.597V32.0069C101.597 32.1733 101.557 32.3037 101.475 32.3981C101.392 32.4881 101.271 32.5375 101.105 32.5375Z" fill="#231F20"/>
<path d="M109.682 32.5556C109.039 32.5556 108.478 32.4072 108 32.1104C107.522 31.8136 107.152 31.3954 106.891 30.8512C106.631 30.3071 106.5 29.673 106.5 28.94C106.5 28.3869 106.574 27.8922 106.722 27.447C106.87 27.0018 107.083 26.624 107.361 26.3092C107.639 25.9944 107.974 25.7516 108.365 25.5852C108.756 25.4188 109.2 25.3334 109.686 25.3334C110.334 25.3334 110.899 25.4818 111.373 25.7741C111.847 26.0664 112.216 26.4846 112.477 27.0198C112.738 27.5594 112.869 28.1935 112.869 28.9265C112.869 29.4796 112.795 29.9788 112.647 30.424C112.499 30.8692 112.286 31.2515 112.003 31.5707C111.721 31.89 111.386 32.1329 110.995 32.2993C110.604 32.4746 110.165 32.5556 109.682 32.5556ZM109.682 31.6562C110.134 31.6562 110.517 31.5483 110.834 31.3369C111.151 31.1255 111.395 30.8152 111.569 30.4105C111.738 30.0058 111.825 29.5156 111.825 28.9445C111.825 28.0856 111.638 27.42 111.264 26.9478C110.891 26.4756 110.365 26.2373 109.682 26.2373C109.23 26.2373 108.847 26.3407 108.53 26.5521C108.213 26.7634 107.969 27.0692 107.796 27.474C107.626 27.8787 107.539 28.3689 107.539 28.94C107.539 29.7899 107.726 30.4555 108.104 30.9367C108.482 31.4178 109.008 31.6562 109.682 31.6562Z" fill="#231F20"/>
<path d="M117.024 32.5375C116.863 32.5375 116.737 32.4926 116.655 32.3981C116.568 32.3037 116.524 32.1733 116.524 32.0069V25.9584C116.524 25.7875 116.568 25.6526 116.659 25.5626C116.75 25.4727 116.876 25.4277 117.037 25.4277H119.346C120.08 25.4277 120.645 25.6076 121.045 25.9674C121.445 26.3271 121.645 26.8353 121.645 27.4964C121.645 27.9236 121.554 28.2878 121.376 28.5936C121.197 28.8994 120.932 29.1333 120.589 29.2907C120.245 29.4481 119.832 29.529 119.35 29.529L119.437 29.3896H119.689C119.945 29.3896 120.172 29.4571 120.358 29.5875C120.545 29.7179 120.719 29.9338 120.876 30.2261L121.706 31.8225C121.771 31.9439 121.802 32.0563 121.797 32.1688C121.793 32.2812 121.754 32.3666 121.68 32.4341C121.606 32.5016 121.502 32.533 121.367 32.533C121.223 32.533 121.11 32.5016 121.024 32.4386C120.937 32.3756 120.858 32.2812 120.789 32.1553L119.776 30.2171C119.641 29.9562 119.485 29.7809 119.311 29.6909C119.137 29.601 118.907 29.556 118.624 29.556H117.533V32.0024C117.533 32.1688 117.489 32.2992 117.407 32.3936C117.32 32.4881 117.194 32.5375 117.024 32.5375ZM117.529 28.7825H119.18C119.667 28.7825 120.041 28.6746 120.289 28.4632C120.541 28.2519 120.667 27.9326 120.667 27.5144C120.667 27.1006 120.541 26.7903 120.289 26.5745C120.037 26.3586 119.667 26.2552 119.18 26.2552H117.529V28.7825Z" fill="#231F20"/>
<path d="M127.44 32.5377C127.279 32.5377 127.153 32.4928 127.07 32.3983C126.983 32.3039 126.94 32.1735 126.94 31.9981V28.8322L127.162 29.4932L124.779 26.071C124.71 25.9721 124.675 25.8641 124.684 25.7562C124.693 25.6483 124.736 25.5538 124.814 25.4774C124.897 25.4009 125.001 25.3605 125.136 25.3605C125.24 25.3605 125.336 25.3875 125.418 25.4414C125.505 25.4954 125.588 25.5763 125.666 25.6933L127.579 28.4364H127.349L129.261 25.6933C129.344 25.5718 129.426 25.4864 129.5 25.4369C129.579 25.3875 129.674 25.3605 129.792 25.3605C129.926 25.3605 130.031 25.3965 130.105 25.4639C130.178 25.5359 130.218 25.6213 130.222 25.7337C130.226 25.8417 130.187 25.9586 130.1 26.08L127.735 29.4932L127.94 28.8322V31.9981C127.931 32.3578 127.766 32.5377 127.44 32.5377Z" fill="#231F20"/>
<path d="M30.459 25.478H34.6341C33.6424 27.7021 32.2123 29.6851 30.459 31.323V25.478Z" fill="#795CF5"/>
<path d="M30.459 25.4779H34.6341C33.6424 27.702 32.2123 29.685 30.459 31.3229V25.4779Z" fill="#795CF5"/>
<path d="M34.7382 10.9559H25.429V25.478H15.939V36.0669C6.9586 34.9987 0 27.3624 0 18.0992C0 8.1019 8.10376 0 18.1033 0C25.566 0 31.9712 4.51384 34.7382 10.9559Z" fill="#795CF5"/>
<path d="M30.459 25.4779V31.3229C28.4207 33.2292 25.9386 34.6699 23.1881 35.4697C21.5772 35.9408 19.8676 36.1928 18.0979 36.1928C17.3636 36.1928 16.6404 36.149 15.9336 36.0613V25.4779H30.459Z" fill="#795CF5"/>
<path d="M36.2067 18.0992C36.2067 19.8302 35.9656 21.501 35.5108 23.0896C35.2752 23.9113 34.9848 24.7111 34.6396 25.478H25.4345V10.9559H34.7382C35.6862 13.1471 36.2067 15.5629 36.2067 18.0992Z" fill="#795CF5"/>
<path d="M34.7382 10.9559H25.429V25.478H15.939V36.0669C6.9586 34.9987 0 27.3624 0 18.0992C0 8.1019 8.10376 0 18.1033 0C25.566 0 31.9712 4.51384 34.7382 10.9559Z" fill="#795CF5"/>
<path d="M29.459 25.478C30.0113 25.478 30.459 25.9257 30.459 26.478V31.323C28.4207 33.2293 25.9386 34.67 23.1881 35.4698C21.5772 35.9409 19.8676 36.1929 18.0979 36.1929C17.3636 36.1929 16.6404 36.1491 15.9336 36.0614V26.478C15.9336 25.9257 16.3813 25.478 16.9336 25.478H29.459Z" fill="#137F6A"/>
<path d="M30.459 31.3229V39C30.459 39.5522 30.0112 40 29.459 40H16.939C16.3867 40 15.939 39.5522 15.939 39V36.0668C16.6513 36.149 17.3746 36.1983 18.1033 36.1983C19.8676 36.1983 21.5771 35.9463 23.1935 35.4752C25.9441 34.6699 28.4207 33.2292 30.459 31.3229Z" fill="#1AD1B9"/>
<path d="M48.4445 25.478H35.9191C35.3668 25.478 34.9191 25.9257 34.9191 26.478V39.0001C34.9191 39.5524 35.3668 40.0001 35.9191 40.0001H48.4445C48.9968 40.0001 49.4445 39.5524 49.4445 39.0001V26.478C49.4445 25.9257 48.9968 25.478 48.4445 25.478Z" fill="#FFCB00"/>
<path d="M36.2067 18.0992C36.2067 19.8302 35.9656 21.501 35.5108 23.0896C35.2752 23.9113 34.9848 24.7111 34.6396 25.478H26.4345C25.8823 25.478 25.4345 25.0303 25.4345 24.478V11.9559C25.4345 11.4036 25.8823 10.9559 26.4345 10.9559H34.7382C35.6862 13.1471 36.2067 15.5629 36.2067 18.0992Z" fill="#B11E67"/>
<path d="M38.9489 10.9559C39.5012 10.9559 39.9489 11.4036 39.9489 11.9559V24.478C39.9489 25.0303 39.5012 25.478 38.9489 25.478H34.6341C34.9793 24.7111 35.2697 23.9113 35.5053 23.0896C35.9601 21.5065 36.2012 19.8302 36.2012 18.0992C36.2012 15.5629 35.6806 13.1471 34.7327 10.9559H38.9489Z" fill="#F95C5B"/>
</svg>
