<svg width="22" height="19" viewBox="0 0 22 19" fill="none" xmlns="http://www.w3.org/2000/svg">
<path d="M1 6.35693C1 4.70008 2.34315 3.35693 4 3.35693H6.49986V12.7855H4C2.34315 12.7855 1 11.4424 1 9.78553V6.35693Z" stroke="#795CF5" stroke-width="1.5"/>
<path d="M3.35742 12.7856H5.7145V16.3214C5.7145 16.9723 5.18685 17.4999 4.53596 17.4999V17.4999C3.88507 17.4999 3.35742 16.9723 3.35742 16.3214V12.7856Z" stroke="#795CF5" stroke-width="1.5"/>
<path d="M6.5 3.35715L12.255 1.43876C12.9025 1.22291 13.5712 1.70488 13.5712 2.38744V13.7555C13.5712 14.438 12.9025 14.92 12.255 14.7041L6.5 12.7857V3.35715Z" stroke="#795CF5" stroke-width="1.5"/>
<path d="M18 8H21" stroke="#F95C5B" stroke-width="1.5" stroke-linecap="round"/>
<path d="M16.2422 4.53613L18.8402 3.0361" stroke="#F95C5B" stroke-width="1.5" stroke-linecap="round"/>
<path d="M16.2461 11.6077L18.8442 13.1077" stroke="#F95C5B" stroke-width="1.5" stroke-linecap="round"/>
</svg>
