<svg width="24" height="20" viewBox="0 0 24 20" fill="none" xmlns="http://www.w3.org/2000/svg">
<path d="M18.0903 8.82283C19.705 8.82283 21.014 7.51079 21.014 5.89231C21.014 4.27383 19.705 2.96179 18.0903 2.96179C16.4755 2.96179 15.1665 4.27383 15.1665 5.89231C15.1665 7.51079 16.4755 8.82283 18.0903 8.82283Z" stroke="#795CF5" stroke-width="1.5" stroke-linecap="round" stroke-linejoin="round"/>
<path d="M7.55636 8.47858C9.61676 8.47858 11.287 6.80445 11.287 4.73929C11.287 2.67414 9.61676 1 7.55636 1C5.49596 1 3.82568 2.67414 3.82568 4.73929C3.82568 6.80445 5.49596 8.47858 7.55636 8.47858Z" stroke="#1AD1B9" stroke-width="1.5" stroke-linecap="round" stroke-linejoin="round"/>
<path d="M13.2705 19C13.3224 18.6748 13.3503 18.3398 13.3503 17.998C13.3503 14.579 10.586 11.8083 7.1749 11.8083C3.76375 11.8083 1 14.579 1 17.998C1 18.3398 1.02838 18.6748 1.07976 19" stroke="#1AD1B9" stroke-width="1.5" stroke-linecap="round" stroke-linejoin="round"/>
<path d="M14.4541 13.1635C15.3418 12.105 16.6727 11.4326 18.1603 11.4326C20.8335 11.4326 22.9998 13.6034 22.9998 16.2828C22.9998 16.5511 22.9778 16.8135 22.9372 17.0685" stroke="#795CF5" stroke-width="1.5" stroke-linecap="round" stroke-linejoin="round"/>
</svg>
