<svg width="26" height="24" viewBox="0 0 26 24" fill="none" xmlns="http://www.w3.org/2000/svg">
<path d="M19.8065 1.36589e-06C21.4409 1.50878e-06 22.8889 0.589042 24.1505 1.76712C25.3835 2.94521 26 4.73973 26 7.15068C26 9.53425 25.5842 11.8219 24.7527 14.0137C23.9211 16.2329 22.8746 18.2055 21.6129 19.9315C20.3226 21.6575 19.0179 23.0137 17.6989 24L14.086 22.6849C15.3763 21.2329 16.595 19.4247 17.7419 17.2603C18.8602 15.0959 19.448 13.0137 19.5054 11.0137C17.8996 10.8767 16.5806 10.3288 15.5484 9.36986C14.5161 8.41096 14 7.15069 14 5.58904C14 3.91781 14.5735 2.56164 15.7204 1.52055C16.8674 0.50685 18.2294 1.22802e-06 19.8065 1.36589e-06Z" fill="#795CF5"/>
<path d="M5.80645 1.36589e-06C7.44086 1.50878e-06 8.88889 0.589042 10.1505 1.76712C11.3835 2.94521 12 4.73973 12 7.15068C12 9.53425 11.5842 11.8219 10.7527 14.0137C9.92115 16.2329 8.87455 18.2055 7.6129 19.9315C6.32258 21.6575 5.01792 23.0137 3.69892 24L0.0860187 22.6849C1.37634 21.2329 2.59498 19.4247 3.74194 17.2603C4.86022 15.0959 5.44803 13.0137 5.50538 11.0137C3.89964 10.8767 2.58064 10.3288 1.54839 9.36986C0.516129 8.41096 -4.34335e-07 7.15069 -2.97811e-07 5.58904C-1.51708e-07 3.91781 0.573477 2.56164 1.72043 1.52055C2.86738 0.50685 4.22939 1.22802e-06 5.80645 1.36589e-06Z" fill="#795CF5"/>
</svg>
