<svg width="36" height="34" viewBox="0 0 36 34" fill="none" xmlns="http://www.w3.org/2000/svg">
<path d="M8.57583 -5.03408e-05C6.31281 -5.01429e-05 4.30784 0.815544 2.56094 2.44674C0.853748 4.07792 0.000150256 6.56264 0.000150548 9.90089C0.000150837 13.2012 0.575833 16.3688 1.7272 19.4035C2.87856 22.4762 4.32769 25.2075 6.07459 27.5974C7.8612 29.9873 9.66765 31.8651 11.494 33.2307L16.4964 31.4098C14.7098 29.3993 13.0225 26.8956 11.4344 23.8988C9.88601 20.9019 9.07211 18.0189 8.99271 15.2497C11.216 15.06 13.0423 14.3013 14.4716 12.9736C15.9009 11.6459 16.6155 9.90089 16.6155 7.73862C16.6155 5.4246 15.8215 3.54684 14.2334 2.10532C12.6453 0.701739 10.7595 -5.05317e-05 8.57583 -5.03408e-05Z" fill="#795CF5"/>
<path d="M27.9605 -5.03408e-05C25.6974 -5.01429e-05 23.6925 0.815544 21.9456 2.44674C20.2384 4.07792 19.3848 6.56264 19.3848 9.90089C19.3848 13.2012 19.9605 16.3688 21.1118 19.4035C22.2632 22.4762 23.7123 25.2075 25.4592 27.5974C27.2458 29.9873 29.0523 31.8651 30.8786 33.2307L35.8811 31.4098C34.0945 29.3993 32.4071 26.8956 30.819 23.8988C29.2707 20.9019 28.4568 18.0189 28.3773 15.2497C30.6007 15.06 32.427 14.3013 33.8563 12.9736C35.2855 11.6459 36.0002 9.90089 36.0002 7.73862C36.0002 5.4246 35.2061 3.54684 33.618 2.10532C32.03 0.701739 30.1441 -5.05317e-05 27.9605 -5.03408e-05Z" fill="#795CF5"/>
</svg>
