<svg width="51" height="64" viewBox="0 0 51 64" fill="none" xmlns="http://www.w3.org/2000/svg">
<rect x="1" width="50" height="50" rx="25" fill="url(#paint0_linear_2001_1174)" fill-opacity="0.33"/>
<path d="M28.2058 21.6911C28.2058 21.8941 28.3704 22.0587 28.5734 22.0587H37.7982C38.0948 22.0587 38.2693 22.3918 38.1005 22.6357L25.9345 40.2087C25.7294 40.5051 25.2646 40.3599 25.2646 39.9995V28.3087C25.2646 28.1057 25.1 27.9411 24.897 27.9411H15.6722C15.3756 27.9411 15.2011 27.608 15.3699 27.3642L27.5359 9.79112C27.741 9.49478 28.2058 9.63996 28.2058 10.0004V21.6911Z" fill="#9333EA"/>
<path d="M14.552 43.487L3.665 52.476C3.3752 52.715 3.16647 53.0379 3.06744 53.4003C2.96841 53.7626 2.98394 54.1468 3.11189 54.5C3.23985 54.8532 3.47397 55.1581 3.78211 55.373C4.09026 55.5878 4.45735 55.7021 4.833 55.7H8.743C9.31005 55.6998 9.86944 55.8309 10.3773 56.0832C10.8851 56.3355 11.3276 56.702 11.67 57.154L14.026 60.271C14.2522 60.5706 14.5651 60.7934 14.9222 60.9092C15.2793 61.025 15.6634 61.0281 16.0224 60.9181C16.3814 60.8082 16.6978 60.5905 16.9289 60.2946C17.1599 59.9987 17.2944 59.6389 17.314 59.264L18 45.2C18.0204 44.7918 17.9213 44.3864 17.7147 44.0337C17.5081 43.681 17.203 43.3962 16.837 43.2144C16.4709 43.0325 16.0597 42.9614 15.6538 43.0098C15.2479 43.0583 14.865 43.2241 14.552 43.487Z" fill="#F95C5B"/>
<defs>
<linearGradient id="paint0_linear_2001_1174" x1="1" y1="0" x2="51" y2="0" gradientUnits="userSpaceOnUse">
<stop stop-color="#F3E8FF"/>
<stop offset="1" stop-color="#FCE7F3"/>
</linearGradient>
</defs>
</svg>
