<svg width="36" height="32" viewBox="0 0 36 32" fill="none" xmlns="http://www.w3.org/2000/svg">
<path d="M14.7103 17.4475V30.0916C14.7103 30.4434 14.4309 30.727 14.0843 30.727H1.62602C1.27938 30.727 1 30.4434 1 30.0916V17.4475C1 17.0957 1.27938 16.8121 1.62602 16.8121H14.0843C14.4309 16.8121 14.7103 17.0957 14.7103 17.4475Z" stroke="#795CF5" stroke-width="2"/>
<path d="M33.4042 30.727H20.9455C20.599 30.727 20.3197 30.4435 20.3197 30.0918V17.4473C20.3197 17.0956 20.599 16.8121 20.9455 16.8121H33.4042C33.7507 16.8121 34.03 17.0956 34.03 17.4473V30.0918C34.0248 30.4435 33.7456 30.727 33.4042 30.727Z" stroke="#F95C5B" stroke-width="2"/>
<path d="M24.6797 1.63512V14.2797C24.6797 14.6314 24.4003 14.9148 24.0537 14.9148H11.5954C11.2487 14.9148 10.9694 14.6314 10.9694 14.2797V1.63512C10.9694 1.28344 11.2487 1 11.5954 1H24.0537C24.4003 1 24.6797 1.28344 24.6797 1.63512Z" stroke="#1AD1B9" stroke-width="2"/>
</svg>
