<svg width="36" height="33" viewBox="0 0 36 33" fill="none" xmlns="http://www.w3.org/2000/svg">
<path d="M1.12508 2.86003L3.82009 2.59774C5.37621 2.44654 6.83788 3.38244 7.37491 4.87515L14.5353 24.7806" stroke="#795CF5" stroke-width="2.25" stroke-miterlimit="10" stroke-linecap="round" stroke-linejoin="round"/>
<path d="M34.15 19.5281L16.9454 25.9267" stroke="#795CF5" stroke-width="2.25" stroke-miterlimit="10" stroke-linecap="round" stroke-linejoin="round"/>
<path d="M14.5416 31.1258C16.2655 31.1258 17.663 29.7048 17.663 27.9519C17.663 26.199 16.2655 24.778 14.5416 24.778C12.8177 24.778 11.4202 26.199 11.4202 27.9519C11.4202 29.7048 12.8177 31.1258 14.5416 31.1258Z" stroke="#795CF5" stroke-width="2.25" stroke-miterlimit="10" stroke-linecap="round" stroke-linejoin="round"/>
<path d="M29.5223 15.255L21.2562 18.3293C19.7508 18.889 18.084 18.1021 17.5329 16.5714L14.5095 8.16626C13.9591 6.63556 14.7329 4.94077 16.2383 4.38037L24.5044 1.30609C26.0098 0.746414 27.6766 1.53326 28.2277 3.06395L31.2511 11.4691C31.8015 12.9998 31.0277 14.6946 29.5223 15.255Z" stroke="#F95C5B" stroke-width="2.25" stroke-miterlimit="10" stroke-linecap="round" stroke-linejoin="round"/>
<path d="M22.02 2.92523L23.888 8.11811L22.02 2.92523Z" stroke="#F95C5B" stroke-width="2.25" stroke-miterlimit="10" stroke-linecap="round" stroke-linejoin="round"/>
</svg>
