<svg width="36" height="36" viewBox="0 0 36 36" fill="none" xmlns="http://www.w3.org/2000/svg">
<path d="M33.6143 18.476C33.3982 27.4336 25.8961 34.5862 16.8046 34.2387C8.41666 33.9209 1.58426 27.0904 1.26213 18.7048C0.91458 9.61164 8.07758 2.10318 17.0462 1.89131C17.2581 1.88707 17.4361 2.0608 17.4361 2.27267V17.7006C17.4361 17.9125 17.6057 18.082 17.8176 18.082H33.2329C33.4448 18.0862 33.6228 18.2599 33.6143 18.476Z" stroke="#F95C5B" stroke-width="2.5"/>
<path d="M33.9111 13.6252H22.2162C22.0285 13.6252 21.8746 13.4705 21.8746 13.2819V1.59446C21.8746 1.39829 22.0398 1.23607 22.2387 1.25116C28.6362 1.72273 33.7497 6.83832 34.249 13.2592C34.264 13.4554 34.1064 13.6252 33.9111 13.6252Z" stroke="#795CF5" stroke-width="2.5"/>
</svg>
