<svg width="100" height="118" viewBox="0 0 100 118" fill="none" xmlns="http://www.w3.org/2000/svg">
<rect width="100" height="100" rx="50" fill="white" fill-opacity="0.33"/>
<path d="M77.0124 32.485C76.9842 32.0397 76.8216 31.6505 76.5245 31.3175C76.2275 30.9845 75.8593 30.7787 75.42 30.7001C64.9454 28.8207 60.5727 27.4621 50.798 23.047C50.5444 22.9323 50.2784 22.875 50 22.875C49.7217 22.875 49.4557 22.9323 49.202 23.047C39.4273 27.462 35.0546 28.8207 24.58 30.7001C24.1407 30.7787 23.7726 30.9845 23.4755 31.3175C23.1784 31.6505 23.0158 32.0397 22.9876 32.485C22.5214 39.8851 23.5156 46.7801 25.946 52.9789C26.9411 55.5071 28.1682 57.917 29.6275 60.2088C31.0868 62.5005 32.7513 64.632 34.6211 66.6032C41.096 73.4728 47.9705 76.4566 49.2819 76.9845C49.515 77.0788 49.7571 77.1259 50.0085 77.1259C50.2599 77.1259 50.502 77.0788 50.7351 76.9845C52.0465 76.4566 58.921 73.4728 65.3959 66.6032C67.2626 64.6313 68.9242 62.4995 70.3806 60.2077C71.837 57.916 73.0615 55.5064 74.0541 52.9789C76.4844 46.7801 77.4786 39.8851 77.0124 32.485ZM61.1491 41.5804L47.7319 57.0804C47.5576 57.2824 47.3504 57.4415 47.1103 57.5579C46.8702 57.6743 46.6168 57.7383 46.3503 57.75H46.2703C46.0168 57.7501 45.7726 57.7022 45.5379 57.6064C45.3031 57.5106 45.0952 57.374 44.9141 57.1966L38.9563 51.3599C38.5741 50.9854 38.3802 50.5306 38.3748 49.9955C38.3694 49.4604 38.5539 49.0018 38.9284 48.6195C39.3029 48.2373 39.7577 48.0435 40.2928 48.0381C40.8279 48.0326 41.2866 48.2172 41.6688 48.5917L46.1492 52.9862L58.2223 39.0447C58.5725 38.6404 59.0143 38.419 59.5478 38.3806C60.0813 38.3422 60.5503 38.498 60.9548 38.848C61.3592 39.198 61.5808 39.6397 61.6195 40.1732C61.6581 40.7067 61.5025 41.1757 61.1528 41.5804L61.1491 41.5804Z" fill="url(#paint0_linear_2001_1175)"/>
<path d="M70.5658 86.3756L87.3499 100.234C87.7967 100.602 88.1185 101.1 88.2712 101.659C88.4238 102.217 88.3999 102.809 88.2026 103.354C88.0054 103.898 87.6444 104.369 87.1694 104.7C86.6943 105.031 86.1284 105.207 85.5493 105.204H79.5213C78.6471 105.204 77.7847 105.406 77.0018 105.795C76.2189 106.184 75.5367 106.749 75.0089 107.446L71.3767 112.251C71.028 112.713 70.5456 113.056 69.9951 113.235C69.4445 113.413 68.8523 113.418 68.2989 113.249C67.7455 113.079 67.2577 112.744 66.9015 112.287C66.5453 111.831 66.338 111.276 66.3077 110.698L65.2501 89.0165C65.2186 88.3871 65.3715 87.7622 65.69 87.2184C66.0085 86.6747 66.4788 86.2357 67.0431 85.9553C67.6075 85.6749 68.2414 85.5653 68.8672 85.64C69.4929 85.7147 70.0833 85.9703 70.5658 86.3756Z" fill="#0E848F"/>
<defs>
<linearGradient id="paint0_linear_2001_1175" x1="36.0502" y1="22.875" x2="61.9999" y2="93.5" gradientUnits="userSpaceOnUse">
<stop stop-color="#795CF5"/>
<stop offset="0.315791" stop-color="#6F4BFA"/>
<stop offset="1" stop-color="#DAB9F9"/>
</linearGradient>
</defs>
</svg>
