<svg width="22" height="19" viewBox="0 0 22 19" fill="none" xmlns="http://www.w3.org/2000/svg">
<path d="M7.2552 9.66707H1.52198C1.25137 9.66707 1.03198 9.44768 1.03198 9.17708V3.44385C1.03198 3.17325 1.25137 2.95386 1.52198 2.95386H7.2552C7.52581 2.95386 7.7452 3.17325 7.7452 3.44385V9.17708C7.7452 9.44768 7.52581 9.66707 7.2552 9.66707Z" stroke="#795CF5" stroke-width="1.5" stroke-miterlimit="10"/>
<path d="M17.6112 7.71322C19.4651 7.71322 20.9679 6.21041 20.9679 4.35661C20.9679 2.5028 19.4651 1 17.6112 1C15.7574 1 14.2546 2.5028 14.2546 4.35661C14.2546 6.21041 15.7574 7.71322 17.6112 7.71322Z" stroke="#F95C5B" stroke-width="1.5" stroke-miterlimit="10"/>
<path d="M10.6549 12.4352L7.71592 17.2561C7.51936 17.5787 7.74227 18 8.10993 18H13.9875C14.3552 18 14.5784 17.5787 14.3815 17.2561L11.4429 12.4352C11.2599 12.1347 10.8378 12.1347 10.6549 12.4352Z" stroke="#1AD1B9" stroke-width="1.5" stroke-miterlimit="10"/>
<path d="M1 13.2467L21 10.2363" stroke="#1AD1B9" stroke-width="1.5" stroke-linecap="round"/>
</svg>
