<svg width="22" height="22" viewBox="0 0 22 22" fill="none" xmlns="http://www.w3.org/2000/svg">
<path d="M19 8V6.55955C19 3.48494 15.4121 1 11 1C6.57573 1 3 3.49337 3 6.55955V8" stroke="#F95C5B" stroke-width="1.5" stroke-miterlimit="10" stroke-linecap="round" stroke-linejoin="round"/>
<path d="M17 16.2292V12.25C17 11.4136 17.9 10.7292 19 10.7292C20.1 10.7292 21 11.4136 21 12.25V16.2292" stroke="#795CF5" stroke-width="1.5" stroke-miterlimit="10" stroke-linecap="round" stroke-linejoin="round"/>
<path d="M18.9255 18.6598C18.9255 19.9469 17.9536 21 16.7656 21H14.7136" stroke="#F95C5B" stroke-width="1.5" stroke-miterlimit="10" stroke-linecap="round" stroke-linejoin="round"/>
<path d="M3 18.3132C1.89999 18.3132 1 17.574 1 16.6705V12.372C1 11.4685 1.89999 10.7292 3 10.7292C4.1 10.7292 4.99999 11.4685 4.99999 12.372V16.6705C4.99999 17.574 4.1 18.3132 3 18.3132Z" stroke="#795CF5" stroke-width="1.5" stroke-miterlimit="10" stroke-linecap="round" stroke-linejoin="round"/>
</svg>
