<svg width="222" height="78" viewBox="0 0 222 78" fill="none" xmlns="http://www.w3.org/2000/svg">
<g filter="url(#filter0_d_2_1775)">
<path d="M202 10C207.523 10 212 14.4772 212 20V48C212 53.5228 207.523 58 202 58H125.689C124.334 58 123.019 58.4585 121.958 59.3009L111.622 67.5068C111.258 67.7959 110.742 67.7959 110.378 67.5068L100.042 59.3009C98.9808 58.4585 97.6659 58 96.3112 58H20C14.4772 58 10 53.5228 10 48V20C10 14.4772 14.4772 10 20 10H202Z" fill="white"/>
</g>
<path d="M33.5734 23.3906C34.0224 22.0086 35.9776 22.0086 36.4266 23.3906L38.0309 28.3283C38.2318 28.9463 38.8077 29.3647 39.4575 29.3647H44.6493C46.1024 29.3647 46.7066 31.2242 45.531 32.0783L41.3307 35.1299C40.805 35.5119 40.585 36.1889 40.7858 36.807L42.3902 41.7447C42.8392 43.1266 41.2575 44.2758 40.0819 43.4217L35.8817 40.3701C35.3559 39.9881 34.6441 39.9881 34.1183 40.3701L29.9181 43.4217C28.7425 44.2758 27.1608 43.1266 27.6098 41.7447L29.2142 36.807C29.415 36.189 29.195 35.5119 28.6693 35.1299L24.469 32.0783C23.2934 31.2242 23.8976 29.3647 25.3507 29.3647H30.5425C31.1923 29.3647 31.7682 28.9463 31.9691 28.3283L33.5734 23.3906Z" fill="#D9D9D9"/>
<path d="M71.5734 23.3906C72.0224 22.0086 73.9776 22.0086 74.4266 23.3906L76.0309 28.3283C76.2318 28.9463 76.8077 29.3647 77.4575 29.3647H82.6493C84.1024 29.3647 84.7066 31.2242 83.531 32.0783L79.3307 35.1299C78.805 35.5119 78.585 36.1889 78.7858 36.807L80.3902 41.7447C80.8392 43.1266 79.2575 44.2758 78.0819 43.4217L73.8817 40.3701C73.3559 39.9881 72.6441 39.9881 72.1183 40.3701L67.9181 43.4217C66.7425 44.2758 65.1608 43.1266 65.6098 41.7447L67.2142 36.807C67.415 36.189 67.195 35.5119 66.6693 35.1299L62.469 32.0783C61.2934 31.2242 61.8976 29.3647 63.3507 29.3647H68.5425C69.1923 29.3647 69.7682 28.9463 69.9691 28.3283L71.5734 23.3906Z" fill="#D9D9D9"/>
<path d="M147.573 23.3906C148.022 22.0086 149.978 22.0086 150.427 23.3906L152.031 28.3283C152.232 28.9463 152.808 29.3647 153.458 29.3647H158.649C160.102 29.3647 160.707 31.2242 159.531 32.0783L155.331 35.1299C154.805 35.5119 154.585 36.1889 154.786 36.807L156.39 41.7447C156.839 43.1266 155.258 44.2758 154.082 43.4217L149.882 40.3701C149.356 39.9881 148.644 39.9881 148.118 40.3701L143.918 43.4217C142.742 44.2758 141.161 43.1266 141.61 41.7447L143.214 36.807C143.415 36.189 143.195 35.5119 142.669 35.1299L138.469 32.0783C137.293 31.2242 137.898 29.3647 139.351 29.3647H144.542C145.192 29.3647 145.768 28.9463 145.969 28.3283L147.573 23.3906Z" fill="#D9D9D9"/>
<path d="M185.573 23.3906C186.022 22.0086 187.978 22.0086 188.427 23.3906L190.031 28.3283C190.232 28.9463 190.808 29.3647 191.458 29.3647H196.649C198.102 29.3647 198.707 31.2242 197.531 32.0783L193.331 35.1299C192.805 35.5119 192.585 36.1889 192.786 36.807L194.39 41.7447C194.839 43.1266 193.258 44.2758 192.082 43.4217L187.882 40.3701C187.356 39.9881 186.644 39.9881 186.118 40.3701L181.918 43.4217C180.742 44.2758 179.161 43.1266 179.61 41.7447L181.214 36.807C181.415 36.189 181.195 35.5119 180.669 35.1299L176.469 32.0783C175.293 31.2242 175.898 29.3647 177.351 29.3647H182.542C183.192 29.3647 183.768 28.9463 183.969 28.3283L185.573 23.3906Z" fill="#D9D9D9"/>
<path d="M109.573 23.3906C110.022 22.0086 111.978 22.0086 112.427 23.3906L114.031 28.3283C114.232 28.9463 114.808 29.3647 115.458 29.3647H120.649C122.102 29.3647 122.707 31.2242 121.531 32.0783L117.331 35.1299C116.805 35.5119 116.585 36.1889 116.786 36.807L118.39 41.7447C118.839 43.1266 117.258 44.2758 116.082 43.4217L111.882 40.3701C111.356 39.9881 110.644 39.9881 110.118 40.3701L105.918 43.4217C104.742 44.2758 103.161 43.1266 103.61 41.7447L105.214 36.807C105.415 36.189 105.195 35.5119 104.669 35.1299L100.469 32.0783C99.2934 31.2242 99.8976 29.3647 101.351 29.3647H106.542C107.192 29.3647 107.768 28.9463 107.969 28.3283L109.573 23.3906Z" fill="#D9D9D9"/>
<g clip-path="url(#clip0_2_1775)">
<path d="M33.5734 23.3906C34.0224 22.0086 35.9776 22.0086 36.4266 23.3906L38.0309 28.3283C38.2318 28.9463 38.8077 29.3647 39.4575 29.3647H44.6493C46.1024 29.3647 46.7066 31.2242 45.531 32.0783L41.3307 35.1299C40.805 35.5119 40.585 36.1889 40.7858 36.807L42.3902 41.7447C42.8392 43.1266 41.2575 44.2758 40.0819 43.4217L35.8817 40.3701C35.3559 39.9881 34.6441 39.9881 34.1183 40.3701L29.9181 43.4217C28.7425 44.2758 27.1608 43.1266 27.6098 41.7447L29.2142 36.807C29.415 36.189 29.195 35.5119 28.6693 35.1299L24.469 32.0783C23.2934 31.2242 23.8976 29.3647 25.3507 29.3647H30.5425C31.1923 29.3647 31.7682 28.9463 31.9691 28.3283L33.5734 23.3906Z" fill="#FFCB00"/>
<path d="M71.5734 23.3906C72.0224 22.0086 73.9776 22.0086 74.4266 23.3906L76.0309 28.3283C76.2318 28.9463 76.8077 29.3647 77.4575 29.3647H82.6493C84.1024 29.3647 84.7066 31.2242 83.531 32.0783L79.3307 35.1299C78.805 35.5119 78.585 36.1889 78.7858 36.807L80.3902 41.7447C80.8392 43.1266 79.2575 44.2758 78.0819 43.4217L73.8817 40.3701C73.3559 39.9881 72.6441 39.9881 72.1183 40.3701L67.9181 43.4217C66.7425 44.2758 65.1608 43.1266 65.6098 41.7447L67.2142 36.807C67.415 36.189 67.195 35.5119 66.6693 35.1299L62.469 32.0783C61.2934 31.2242 61.8976 29.3647 63.3507 29.3647H68.5425C69.1923 29.3647 69.7682 28.9463 69.9691 28.3283L71.5734 23.3906Z" fill="#FFCB00"/>
<path d="M147.573 23.3906C148.022 22.0086 149.978 22.0086 150.427 23.3906L152.031 28.3283C152.232 28.9463 152.808 29.3647 153.458 29.3647H158.649C160.102 29.3647 160.707 31.2242 159.531 32.0783L155.331 35.1299C154.805 35.5119 154.585 36.1889 154.786 36.807L156.39 41.7447C156.839 43.1266 155.258 44.2758 154.082 43.4217L149.882 40.3701C149.356 39.9881 148.644 39.9881 148.118 40.3701L143.918 43.4217C142.742 44.2758 141.161 43.1266 141.61 41.7447L143.214 36.807C143.415 36.189 143.195 35.5119 142.669 35.1299L138.469 32.0783C137.293 31.2242 137.898 29.3647 139.351 29.3647H144.542C145.192 29.3647 145.768 28.9463 145.969 28.3283L147.573 23.3906Z" fill="#FFCB00"/>
<path d="M185.573 23.3906C186.022 22.0086 187.978 22.0086 188.427 23.3906L190.031 28.3283C190.232 28.9463 190.808 29.3647 191.458 29.3647H196.649C198.102 29.3647 198.707 31.2242 197.531 32.0783L193.331 35.1299C192.805 35.5119 192.585 36.1889 192.786 36.807L194.39 41.7447C194.839 43.1266 193.258 44.2758 192.082 43.4217L187.882 40.3701C187.356 39.9881 186.644 39.9881 186.118 40.3701L181.918 43.4217C180.742 44.2758 179.161 43.1266 179.61 41.7447L181.214 36.807C181.415 36.189 181.195 35.5119 180.669 35.1299L176.469 32.0783C175.293 31.2242 175.898 29.3647 177.351 29.3647H182.542C183.192 29.3647 183.768 28.9463 183.969 28.3283L185.573 23.3906Z" fill="#FFCB00"/>
<path d="M109.573 23.3906C110.022 22.0086 111.978 22.0086 112.427 23.3906L114.031 28.3283C114.232 28.9463 114.808 29.3647 115.458 29.3647H120.649C122.102 29.3647 122.707 31.2242 121.531 32.0783L117.331 35.1299C116.805 35.5119 116.585 36.1889 116.786 36.807L118.39 41.7447C118.839 43.1266 117.258 44.2758 116.082 43.4217L111.882 40.3701C111.356 39.9881 110.644 39.9881 110.118 40.3701L105.918 43.4217C104.742 44.2758 103.161 43.1266 103.61 41.7447L105.214 36.807C105.415 36.189 105.195 35.5119 104.669 35.1299L100.469 32.0783C99.2934 31.2242 99.8976 29.3647 101.351 29.3647H106.542C107.192 29.3647 107.768 28.9463 107.969 28.3283L109.573 23.3906Z" fill="#FFCB00"/>
</g>
<defs>
<filter id="filter0_d_2_1775" x="0" y="0" width="222" height="77.7236" filterUnits="userSpaceOnUse" color-interpolation-filters="sRGB">
<feFlood flood-opacity="0" result="BackgroundImageFix"/>
<feColorMatrix in="SourceAlpha" type="matrix" values="0 0 0 0 0 0 0 0 0 0 0 0 0 0 0 0 0 0 127 0" result="hardAlpha"/>
<feOffset/>
<feGaussianBlur stdDeviation="5"/>
<feComposite in2="hardAlpha" operator="out"/>
<feColorMatrix type="matrix" values="0 0 0 0 0 0 0 0 0 0 0 0 0 0 0 0 0 0 0.1 0"/>
<feBlend mode="normal" in2="BackgroundImageFix" result="effect1_dropShadow_2_1775"/>
<feBlend mode="normal" in="SourceGraphic" in2="effect1_dropShadow_2_1775" result="shape"/>
</filter>
<clipPath id="clip0_2_1775">
<rect width="171" height="30" fill="white" transform="translate(20 19)"/>
</clipPath>
</defs>
</svg>
