<svg width="171" height="30" viewBox="0 0 171 30" fill="none" xmlns="http://www.w3.org/2000/svg">
<g clip-path="url(#clip0_408_1420)">
<path d="M13.5734 4.39058C14.0224 3.00861 15.9776 3.00861 16.4266 4.39058L18.0309 9.32827C18.2318 9.9463 18.8077 10.3647 19.4575 10.3647H24.6493C26.1024 10.3647 26.7066 12.2242 25.531 13.0783L21.3307 16.1299C20.805 16.5119 20.585 17.1889 20.7858 17.807L22.3902 22.7447C22.8392 24.1266 21.2575 25.2758 20.0819 24.4217L15.8817 21.3701C15.3559 20.9881 14.6441 20.9881 14.1183 21.3701L9.91807 24.4217C8.7425 25.2758 7.16078 24.1266 7.60981 22.7447L9.21416 17.807C9.41497 17.189 9.19498 16.5119 8.66925 16.1299L4.469 13.0783C3.29343 12.2242 3.89759 10.3647 5.35068 10.3647H10.5425C11.1923 10.3647 11.7682 9.9463 11.9691 9.32827L13.5734 4.39058Z" fill="#FFCB00"/>
<path d="M51.5734 4.39058C52.0224 3.00861 53.9776 3.00861 54.4266 4.39058L56.0309 9.32827C56.2318 9.9463 56.8077 10.3647 57.4575 10.3647H62.6493C64.1024 10.3647 64.7066 12.2242 63.531 13.0783L59.3307 16.1299C58.805 16.5119 58.585 17.1889 58.7858 17.807L60.3902 22.7447C60.8392 24.1266 59.2575 25.2758 58.0819 24.4217L53.8817 21.3701C53.3559 20.9881 52.6441 20.9881 52.1183 21.3701L47.9181 24.4217C46.7425 25.2758 45.1608 24.1266 45.6098 22.7447L47.2142 17.807C47.415 17.189 47.195 16.5119 46.6693 16.1299L42.469 13.0783C41.2934 12.2242 41.8976 10.3647 43.3507 10.3647H48.5425C49.1923 10.3647 49.7682 9.9463 49.9691 9.32827L51.5734 4.39058Z" fill="#FFCB00"/>
<path d="M127.573 4.39058C128.022 3.00861 129.978 3.00861 130.427 4.39058L132.031 9.32827C132.232 9.9463 132.808 10.3647 133.458 10.3647H138.649C140.102 10.3647 140.707 12.2242 139.531 13.0783L135.331 16.1299C134.805 16.5119 134.585 17.1889 134.786 17.807L136.39 22.7447C136.839 24.1266 135.258 25.2758 134.082 24.4217L129.882 21.3701C129.356 20.9881 128.644 20.9881 128.118 21.3701L123.918 24.4217C122.742 25.2758 121.161 24.1266 121.61 22.7447L123.214 17.807C123.415 17.189 123.195 16.5119 122.669 16.1299L118.469 13.0783C117.293 12.2242 117.898 10.3647 119.351 10.3647H124.542C125.192 10.3647 125.768 9.9463 125.969 9.32827L127.573 4.39058Z" fill="#FFCB00"/>
<path d="M165.573 4.39058C166.022 3.00861 167.978 3.00861 168.427 4.39058L170.031 9.32827C170.232 9.9463 170.808 10.3647 171.458 10.3647H176.649C178.102 10.3647 178.707 12.2242 177.531 13.0783L173.331 16.1299C172.805 16.5119 172.585 17.1889 172.786 17.807L174.39 22.7447C174.839 24.1266 173.258 25.2758 172.082 24.4217L167.882 21.3701C167.356 20.9881 166.644 20.9881 166.118 21.3701L161.918 24.4217C160.742 25.2758 159.161 24.1266 159.61 22.7447L161.214 17.807C161.415 17.189 161.195 16.5119 160.669 16.1299L156.469 13.0783C155.293 12.2242 155.898 10.3647 157.351 10.3647H162.542C163.192 10.3647 163.768 9.9463 163.969 9.32827L165.573 4.39058Z" fill="#FFCB00"/>
<path d="M89.5734 4.39058C90.0224 3.00861 91.9776 3.00861 92.4266 4.39058L94.0309 9.32827C94.2318 9.9463 94.8077 10.3647 95.4575 10.3647H100.649C102.102 10.3647 102.707 12.2242 101.531 13.0783L97.3307 16.1299C96.805 16.5119 96.585 17.1889 96.7858 17.807L98.3902 22.7447C98.8392 24.1266 97.2575 25.2758 96.0819 24.4217L91.8817 21.3701C91.3559 20.9881 90.6441 20.9881 90.1183 21.3701L85.9181 24.4217C84.7425 25.2758 83.1608 24.1266 83.6098 22.7447L85.2142 17.807C85.415 17.189 85.195 16.5119 84.6693 16.1299L80.469 13.0783C79.2934 12.2242 79.8976 10.3647 81.3507 10.3647H86.5425C87.1923 10.3647 87.7682 9.9463 87.9691 9.32827L89.5734 4.39058Z" fill="#FFCB00"/>
</g>
<defs>
<clipPath id="clip0_408_1420">
<rect width="171" height="30" fill="white"/>
</clipPath>
</defs>
</svg>
