<svg width="24" height="24" viewBox="0 0 24 24" fill="none" xmlns="http://www.w3.org/2000/svg">
<g clip-path="url(#clip0_1013_170)">
<path d="M20.034 14.739L12.776 8.746C12.455 8.48051 12.0638 8.31386 11.6499 8.26625C11.2361 8.21864 10.8173 8.29214 10.4444 8.47781C10.0714 8.66348 9.76037 8.95337 9.5489 9.3123C9.33744 9.67123 9.23465 10.0838 9.25301 10.5L9.70801 19.875C9.72488 20.2789 9.86724 20.6675 10.1153 20.9867C10.3634 21.306 10.7048 21.5399 11.092 21.656C11.2843 21.716 11.4846 21.7466 11.686 21.747C11.9895 21.7466 12.2887 21.6755 12.5599 21.5392C12.831 21.403 13.0666 21.2053 13.248 20.962L14.819 18.883C14.9775 18.6746 15.1819 18.5056 15.4165 18.3892C15.651 18.2728 15.9092 18.2122 16.171 18.212H18.778C19.1828 18.2133 19.5781 18.0895 19.9097 17.8575C20.2414 17.6255 20.4933 17.2966 20.6308 16.9159C20.7683 16.5352 20.7848 16.1213 20.6779 15.7309C20.5711 15.3405 20.3462 14.9926 20.034 14.735V14.739ZM19.221 16.407C19.1903 16.4993 19.1305 16.5793 19.0507 16.6349C18.9709 16.6906 18.8753 16.7191 18.778 16.716H16.171C15.6773 16.7169 15.1905 16.8318 14.7484 17.0515C14.3063 17.2713 13.9208 17.59 13.622 17.983L12.051 20.062C11.994 20.1414 11.9129 20.2003 11.8198 20.23C11.7267 20.2597 11.6265 20.2587 11.534 20.227C11.4414 20.2013 11.3595 20.1465 11.3005 20.0707C11.2414 19.9949 11.2083 19.9021 11.206 19.806L10.751 10.431C10.7439 10.3057 10.774 10.1812 10.8375 10.073C10.9011 9.96481 10.9952 9.87784 11.108 9.823C11.2215 9.76463 11.3497 9.74107 11.4766 9.75531C11.6034 9.76955 11.7233 9.82092 11.821 9.903L19.079 15.9C19.1538 15.9582 19.2079 16.0388 19.2335 16.1301C19.2591 16.2214 19.2547 16.3184 19.221 16.407ZM9.25001 5V3C9.25001 2.80109 9.32902 2.61032 9.46967 2.46967C9.61033 2.32901 9.80109 2.25 10 2.25C10.1989 2.25 10.3897 2.32901 10.5303 2.46967C10.671 2.61032 10.75 2.80109 10.75 3V5C10.75 5.19891 10.671 5.38968 10.5303 5.53033C10.3897 5.67099 10.1989 5.75 10 5.75C9.80109 5.75 9.61033 5.67099 9.46967 5.53033C9.32902 5.38968 9.25001 5.19891 9.25001 5ZM7.40501 7.024C7.33995 7.14079 7.24479 7.23801 7.12942 7.30554C7.01405 7.37308 6.88269 7.40846 6.74901 7.408C6.62106 7.40674 6.49564 7.37228 6.38501 7.308L4.38501 6.192C4.29681 6.14526 4.21882 6.08138 4.15562 6.0041C4.09243 5.92683 4.0453 5.83772 4.01699 5.742C3.98868 5.64629 3.97976 5.54587 3.99076 5.44666C4.00176 5.34744 4.03246 5.25142 4.08105 5.16422C4.12964 5.07701 4.19514 5.00041 4.27374 4.93886C4.35233 4.8773 4.44241 4.83206 4.5387 4.80577C4.635 4.77948 4.73558 4.77269 4.83454 4.78578C4.9335 4.79887 5.02885 4.83159 5.11501 4.882L7.11501 6C7.20153 6.04794 7.27771 6.11253 7.33917 6.19005C7.40063 6.26756 7.44615 6.35646 7.47311 6.45164C7.50006 6.54683 7.50792 6.64639 7.49623 6.74463C7.48454 6.84286 7.45354 6.93781 7.40501 7.024ZM6.67101 9.66499C6.75985 9.84296 6.77436 10.0489 6.71135 10.2376C6.64834 10.4262 6.51296 10.5822 6.33501 10.671L4.33501 11.671C4.23109 11.7233 4.11633 11.7503 4.00001 11.75C3.83094 11.7502 3.66676 11.6933 3.5341 11.5885C3.40144 11.4837 3.30808 11.3371 3.26918 11.1726C3.23028 11.008 3.2481 10.8352 3.31977 10.6821C3.39144 10.5289 3.51275 10.4045 3.66401 10.329L5.66401 9.32899C5.75217 9.28485 5.84818 9.25853 5.94653 9.25153C6.04488 9.24452 6.14365 9.25699 6.23718 9.28819C6.33071 9.3194 6.41717 9.36874 6.49161 9.4334C6.56605 9.49805 6.62701 9.57675 6.67101 9.66499ZM13.329 6.33501C13.2402 6.15704 13.2257 5.95108 13.2887 5.76242C13.3517 5.57376 13.4871 5.41785 13.665 5.32899L15.665 4.32899C15.8428 4.24197 16.0477 4.22873 16.2351 4.29216C16.4226 4.35559 16.5774 4.49052 16.6658 4.66759C16.7542 4.84465 16.769 5.04947 16.7071 5.23743C16.6451 5.42538 16.5114 5.58124 16.335 5.67101L14.335 6.67101C14.2311 6.72327 14.1163 6.75032 14 6.75C13.8607 6.74977 13.7242 6.71083 13.6057 6.63756C13.4872 6.56429 13.3914 6.45955 13.329 6.33501Z" fill="#FFCB00"/>
<path d="M-72.75 -131V-129C-72.75 -128.801 -72.671 -128.61 -72.5303 -128.47C-72.3897 -128.329 -72.1989 -128.25 -72 -128.25C-71.8011 -128.25 -71.6103 -128.329 -71.4697 -128.47C-71.329 -128.61 -71.25 -128.801 -71.25 -129V-131C-71.25 -131.199 -71.329 -131.39 -71.4697 -131.53C-71.6103 -131.671 -71.8011 -131.75 -72 -131.75C-72.1989 -131.75 -72.3897 -131.671 -72.5303 -131.53C-72.671 -131.39 -72.75 -131.199 -72.75 -131Z" fill="#FFCB00"/>
<path d="M-74.8706 -126.694C-74.7552 -126.762 -74.66 -126.859 -74.595 -126.976C-74.5465 -127.062 -74.5155 -127.157 -74.5038 -127.255C-74.4921 -127.354 -74.4999 -127.453 -74.5269 -127.548C-74.5538 -127.644 -74.5994 -127.732 -74.6608 -127.81C-74.7223 -127.887 -74.7985 -127.952 -74.885 -128L-76.885 -129.118C-76.9711 -129.168 -77.0665 -129.201 -77.1655 -129.214C-77.2644 -129.227 -77.365 -129.221 -77.4613 -129.194C-77.5576 -129.168 -77.6477 -129.123 -77.7263 -129.061C-77.8049 -129 -77.8704 -128.923 -77.919 -128.836C-77.9675 -128.749 -77.9982 -128.653 -78.0092 -128.553C-78.0202 -128.454 -78.0113 -128.354 -77.983 -128.258C-77.9547 -128.162 -77.9076 -128.073 -77.8444 -127.996C-77.7812 -127.919 -77.7032 -127.855 -77.615 -127.808L-75.615 -126.692C-75.5044 -126.628 -75.3789 -126.593 -75.251 -126.592C-75.1173 -126.592 -74.986 -126.627 -74.8706 -126.694Z" fill="#FFCB00"/>
<path d="M-75.2887 -123.762C-75.2256 -123.951 -75.2402 -124.157 -75.329 -124.335C-75.373 -124.423 -75.434 -124.502 -75.5084 -124.567C-75.5828 -124.631 -75.6693 -124.681 -75.7628 -124.712C-75.8564 -124.743 -75.9551 -124.755 -76.0535 -124.748C-76.1518 -124.741 -76.2478 -124.715 -76.336 -124.671L-78.336 -123.671C-78.4873 -123.595 -78.6086 -123.471 -78.6802 -123.318C-78.7519 -123.165 -78.7697 -122.992 -78.7308 -122.827C-78.6919 -122.663 -78.5986 -122.516 -78.4659 -122.412C-78.3332 -122.307 -78.1691 -122.25 -78 -122.25C-77.8837 -122.25 -77.7689 -122.277 -77.665 -122.329L-75.665 -123.329C-75.487 -123.418 -75.3517 -123.574 -75.2887 -123.762Z" fill="#FFCB00"/>
<path d="M-68.7113 -128.238C-68.7743 -128.049 -68.7598 -127.843 -68.671 -127.665C-68.6086 -127.54 -68.5128 -127.436 -68.3943 -127.362C-68.2758 -127.289 -68.1393 -127.25 -68 -127.25C-67.8837 -127.25 -67.7689 -127.277 -67.665 -127.329L-65.665 -128.329C-65.4886 -128.419 -65.3549 -128.575 -65.2929 -128.763C-65.231 -128.951 -65.2458 -129.155 -65.3342 -129.332C-65.4226 -129.509 -65.5774 -129.644 -65.7649 -129.708C-65.9523 -129.771 -66.1572 -129.758 -66.335 -129.671L-68.335 -128.671C-68.5129 -128.582 -68.6483 -128.426 -68.7113 -128.238Z" fill="#FFCB00"/>
</g>
<defs>
<clipPath id="clip0_1013_170">
<rect width="24" height="24" fill="white"/>
</clipPath>
</defs>
</svg>
