<svg width="44" height="40" viewBox="0 0 44 40" fill="none" xmlns="http://www.w3.org/2000/svg">
<path d="M42 13.8476C42 17.3603 39.1158 20.2079 35.5579 20.2079C32 20.2079 29.1158 17.3603 29.1158 13.8476C29.1158 13.6373 29.1259 13.4294 29.1461 13.2241H28.4118C28.432 13.4294 28.4421 13.6373 28.4421 13.8476C28.4421 17.3603 25.5579 20.2079 22 20.2079C18.4421 20.2079 15.5579 17.3603 15.5579 13.8476C15.5579 13.6373 15.568 13.4294 15.5882 13.2241H14.8539C14.8741 13.4294 14.8842 13.6373 14.8842 13.8476C14.8842 17.3603 12 20.2079 8.44211 20.2079C4.88421 20.2079 2 17.3603 2 13.8476C2 13.8451 2 13.8426 2 13.8401C2.09095 13.4311 2.17937 13.0337 2.27032 12.6246L3.61432 9.63818L5.59916 5.22837C6.48337 3.26541 8.45474 2 10.6307 2H33.3693C35.5453 2 37.5175 3.26541 38.4008 5.22837L40.3857 9.63818L41.7297 12.6246C41.8206 13.0337 41.9091 13.4311 42 13.8401C42 13.8426 42 13.8451 42 13.8476Z" stroke="#1AD1B9" stroke-width="2.5" stroke-miterlimit="10" stroke-linecap="round" stroke-linejoin="round"/>
<path d="M5.828 24.3649V33.4372C5.828 35.9572 7.96021 38 10.5901 38H33.5324C36.1623 38 38.2945 35.9572 38.2945 33.4372V24.3649" stroke="#F95C5B" stroke-width="2.5" stroke-miterlimit="10" stroke-linecap="round" stroke-linejoin="round"/>
</svg>
