<svg width="21" height="22" viewBox="0 0 21 22" fill="none" xmlns="http://www.w3.org/2000/svg">
<path d="M19.5258 13.6583L13.3505 19.9874L10.8804 18.2152L7.17529 21" stroke="#F95C5B" stroke-width="1.5" stroke-miterlimit="10" stroke-linecap="round" stroke-linejoin="round"/>
<path d="M14.9661 13.4835H19.7235V18.205" stroke="#F95C5B" stroke-width="1.5" stroke-miterlimit="10" stroke-linecap="round" stroke-linejoin="round"/>
<path d="M4.45814 18.2658C2.3462 16.4785 1 13.7721 1 10.7468C1 5.36455 5.25845 1 10.5099 1C15.5538 1 19.6814 5.02531 20 10.1139" stroke="#1AD1B9" stroke-width="1.5" stroke-miterlimit="10" stroke-linecap="round" stroke-linejoin="round"/>
<path d="M10.5305 12.8514V13.1847V13.5181" stroke="#1AD1B9" stroke-width="1.5" stroke-linecap="round"/>
<path d="M10.5305 5.51807V5.8514V6.18474" stroke="#1AD1B9" stroke-width="1.5" stroke-linecap="round"/>
<path d="M12.5305 7.85149C12.5305 6.93101 11.6351 6.18481 10.5305 6.18481C9.42592 6.18481 8.53052 6.93101 8.53052 7.85149C8.53052 8.77197 9.42592 9.51817 10.5305 9.51817C11.6351 9.51817 12.5305 10.2644 12.5305 11.1848C12.5305 12.1053 11.6351 12.8515 10.5305 12.8515C9.42592 12.8515 8.53052 12.1053 8.53052 11.1848" stroke="#1AD1B9" stroke-width="1.5" stroke-linecap="round"/>
</svg>
