<svg width="24" height="21" viewBox="0 0 24 21" fill="none" xmlns="http://www.w3.org/2000/svg">
<path d="M22.6253 3.98683L22.5273 12.8283H10.2667L8.42223 4.34935C8.41676 4.32432 8.41038 4.29928 8.40355 4.27425L8.32472 3.98683H22.6253ZM6.08429 0H0.86938C0.630164 0 0.413274 0.095962 0.256531 0.258217C0.0970534 0.41769 0 0.638356 0 0.881738C0 1.36897 0.390492 1.76348 0.86938 1.76348H6.29207L7.08763 4.64975L8.9722 13.3142L9.05194 13.691C9.12029 13.9984 9.40279 14.2191 9.73313 14.2191H23.1903C23.5694 14.2191 23.8801 13.9261 23.8861 13.5663L24 3.26595C24.0027 2.90065 23.692 2.59607 23.3042 2.59607H8.25956L7.93468 1.42691C7.85495 1.12837 7.70367 0.86134 7.51002 0.640674C7.15325 0.243845 6.64292 0 6.08429 0Z" fill="#F95C5B"/>
<path d="M14.4806 18.2829C14.4806 19.2314 13.7252 20.0001 12.7956 20.0001C11.8634 20.0001 11.1079 19.2314 11.1079 18.2829C11.1079 18.2482 11.1106 18.2134 11.1138 18.1786C11.1681 17.2793 11.898 16.5686 12.7961 16.5686C13.6914 16.5686 14.4241 17.2793 14.4784 18.1786C14.4806 18.2129 14.4806 18.2477 14.4806 18.2829Z" stroke="#1AD1B9" stroke-width="1.5" stroke-miterlimit="10" stroke-linecap="round" stroke-linejoin="round"/>
<path d="M21.8764 18.2829C21.8764 19.2314 21.1209 20.0001 20.1914 20.0001C19.2591 20.0001 18.5037 19.2314 18.5037 18.2829C18.5037 18.2482 18.5064 18.2134 18.5064 18.1786C18.5606 17.2793 19.2933 16.5686 20.1914 16.5686C21.0867 16.5686 21.8194 17.2793 21.8705 18.1786C21.8736 18.2129 21.8764 18.2477 21.8764 18.2829Z" stroke="#1AD1B9" stroke-width="1.5" stroke-miterlimit="10" stroke-linecap="round" stroke-linejoin="round"/>
</svg>
