<svg width="22" height="20" viewBox="0 0 22 20" fill="none" xmlns="http://www.w3.org/2000/svg">
<path d="M21 6.92379C21 8.68015 19.5579 10.1039 17.7789 10.1039C16 10.1039 14.5579 8.68015 14.5579 6.92379C14.5579 6.81862 14.5629 6.7147 14.5731 6.61202H14.2059C14.216 6.7147 14.2211 6.81862 14.2211 6.92379C14.2211 8.68015 12.7789 10.1039 11 10.1039C9.22105 10.1039 7.77895 8.68015 7.77895 6.92379C7.77895 6.81862 7.784 6.7147 7.79411 6.61202H7.42695C7.43705 6.7147 7.44211 6.81862 7.44211 6.92379C7.44211 8.68015 6 10.1039 4.22105 10.1039C2.44211 10.1039 1 8.68015 1 6.92379C1 6.92255 1 6.9213 1 6.92005C1.04547 6.71553 1.08968 6.51682 1.13516 6.31229L1.80716 4.81908L2.79958 2.61418C3.24168 1.6327 4.22737 1 5.31537 1H16.6846C17.7726 1 18.7587 1.6327 19.2004 2.61418L20.1928 4.81908L20.8648 6.31229C20.9103 6.51682 20.9545 6.71553 21 6.92005C21 6.9213 21 6.92255 21 6.92379Z" stroke="#1AD1B9" stroke-width="1.5" stroke-miterlimit="10" stroke-linecap="round" stroke-linejoin="round"/>
<path d="M2.91406 12.1824V16.7186C2.91406 17.9786 3.98017 19 5.29512 19H16.7663C18.0812 19 19.1473 17.9786 19.1473 16.7186V12.1824" stroke="#F95C5B" stroke-width="1.5" stroke-miterlimit="10" stroke-linecap="round" stroke-linejoin="round"/>
</svg>
