<svg width="20" height="22" viewBox="0 0 20 22" fill="none" xmlns="http://www.w3.org/2000/svg">
<path d="M8.84128 11.7506C8.21056 11.649 7.6278 11.2767 7.27912 10.6826C6.65897 9.62597 7.01293 8.26619 8.06995 7.64604C9.08512 7.05027 10.3791 7.35344 11.0297 8.31496" stroke="#B11E67" stroke-width="1.5" stroke-miterlimit="10" stroke-linecap="round" stroke-linejoin="round"/>
<path d="M15.4816 9.54011C15.4182 8.97117 15.6289 8.3773 16.1144 7.97741L16.8676 7.35753C17.1342 7.13808 17.2036 6.7577 17.0307 6.45806L15.5439 3.88318C15.371 3.58407 15.0074 3.45349 14.6834 3.57486L13.7698 3.91677C12.7284 4.3069 11.5894 3.64964 11.4068 2.55239L11.2464 1.5906C11.1895 1.24977 10.8948 0.999983 10.5491 0.999983H7.57539C7.22969 0.999983 6.93492 1.24977 6.87802 1.5906L6.71763 2.55239C6.53503 3.64964 5.39606 4.3069 4.35408 3.91677L3.44105 3.57486C3.11757 3.45349 2.75344 3.58407 2.58059 3.88318L1.09484 6.4586C0.921985 6.7577 0.9908 7.13808 1.25739 7.35807L2.01057 7.97795C2.8694 8.68507 2.8694 10.0001 2.01057 10.7067L1.25739 11.3266C0.9908 11.546 0.921985 11.9264 1.09484 12.2261L2.58114 14.801C2.75399 15.1001 3.11811 15.2306 3.4416 15.1098L4.35462 14.7674C5.3966 14.3772 6.53557 15.0345 6.71818 16.1317L6.87856 17.0935C6.93546 17.4344 7.23023 17.6847 7.57593 17.6847H9.54961C9.56099 17.6847 8.57237 17.6842 9.58375 17.6842" stroke="#B11E67" stroke-width="1.5" stroke-miterlimit="10" stroke-linecap="round" stroke-linejoin="round"/>
<path d="M17.008 21V17.4296C18.1994 16.7813 19 15.5734 19 14.1906C19 12.8416 18.2373 11.6591 17.0938 11V13.6651L15.0624 15.1578L12.9062 13.6651V11C11.7627 11.6591 11 12.8416 11 14.1906C11 15.5734 11.801 16.7809 12.9923 17.4296V21" stroke="#1AD1B9" stroke-width="1.5" stroke-miterlimit="10" stroke-linecap="round" stroke-linejoin="round"/>
</svg>
