<svg width="24" height="22" viewBox="0 0 24 22" fill="none" xmlns="http://www.w3.org/2000/svg">
<path d="M11.9887 15.0125C13.7636 15.0125 15.2025 13.4962 15.2025 11.6256C15.2025 9.75504 13.7636 8.23865 11.9887 8.23865C10.2138 8.23865 8.7749 9.75504 8.7749 11.6256C8.7749 13.4962 10.2138 15.0125 11.9887 15.0125Z" stroke="#795CF5" stroke-width="1.5" stroke-miterlimit="10" stroke-linecap="round" stroke-linejoin="round"/>
<path d="M5.33179 20.9974C7.08782 19.3086 9.4226 18.2783 11.9888 18.2783C14.553 18.2783 16.8897 19.3091 18.6458 21" stroke="#795CF5" stroke-width="1.5" stroke-miterlimit="10" stroke-linecap="round" stroke-linejoin="round"/>
<path d="M21.5849 18.2846C22.4857 16.6032 23 14.6611 23 12.5927C23 6.19009 18.0753 1 12 1C5.92473 1 1 6.19009 1 12.5927C1 14.6611 1.51432 16.6032 2.41514 18.2846" stroke="#F95C5B" stroke-width="1.5" stroke-miterlimit="10" stroke-linecap="round" stroke-linejoin="round"/>
</svg>
