<svg width="22" height="22" viewBox="0 0 22 22" fill="none" xmlns="http://www.w3.org/2000/svg">
<path d="M14.6351 15.1667H7.36478C7.07124 15.1667 6.83325 14.9287 6.83325 14.6352V7.36491C6.83325 7.07136 7.07124 6.83337 7.36478 6.83337H14.6351C14.9286 6.83337 15.1666 7.07136 15.1666 7.36491V14.6352C15.1666 14.9287 14.9286 15.1667 14.6351 15.1667Z" stroke="#795CF5" stroke-width="1.5" stroke-miterlimit="10"/>
<path d="M13.6763 4.61254V3.20769L14.5822 2.30176" stroke="#1AD1B9" stroke-width="1.5" stroke-miterlimit="10" stroke-linecap="round" stroke-linejoin="round"/>
<path d="M8.40642 4.61254V3.20769L7.50049 2.30176" stroke="#1AD1B9" stroke-width="1.5" stroke-miterlimit="10" stroke-linecap="round" stroke-linejoin="round"/>
<path d="M11.0002 4.61254V1" stroke="#1AD1B9" stroke-width="1.5" stroke-miterlimit="10" stroke-linecap="round" stroke-linejoin="round"/>
<path d="M8.40642 17.3875V18.7923L7.50049 19.6982" stroke="#1AD1B9" stroke-width="1.5" stroke-miterlimit="10" stroke-linecap="round" stroke-linejoin="round"/>
<path d="M13.6763 17.3875V18.7923L14.5822 19.6982" stroke="#1AD1B9" stroke-width="1.5" stroke-miterlimit="10" stroke-linecap="round" stroke-linejoin="round"/>
<path d="M11.083 17.3875V21" stroke="#1AD1B9" stroke-width="1.5" stroke-miterlimit="10" stroke-linecap="round" stroke-linejoin="round"/>
<path d="M17.3875 13.635H18.7923L19.6982 14.5409" stroke="#1AD1B9" stroke-width="1.5" stroke-miterlimit="10" stroke-linecap="round" stroke-linejoin="round"/>
<path d="M17.3875 8.36516H18.7923L19.6982 7.45923" stroke="#1AD1B9" stroke-width="1.5" stroke-miterlimit="10" stroke-linecap="round" stroke-linejoin="round"/>
<path d="M17.3875 10.959H21" stroke="#1AD1B9" stroke-width="1.5" stroke-miterlimit="10" stroke-linecap="round" stroke-linejoin="round"/>
<path d="M4.61254 8.36516H3.20769L2.30176 7.45923" stroke="#1AD1B9" stroke-width="1.5" stroke-miterlimit="10" stroke-linecap="round" stroke-linejoin="round"/>
<path d="M4.61254 13.635H3.20769L2.30176 14.5409" stroke="#1AD1B9" stroke-width="1.5" stroke-miterlimit="10" stroke-linecap="round" stroke-linejoin="round"/>
<path d="M4.61254 11.0416H1" stroke="#1AD1B9" stroke-width="1.5" stroke-miterlimit="10" stroke-linecap="round" stroke-linejoin="round"/>
</svg>
