<svg width="22" height="20" viewBox="0 0 22 20" fill="none" xmlns="http://www.w3.org/2000/svg">
<path d="M9.30193 10.9592V18.6153C9.30193 18.8283 9.13276 19 8.92286 19H1.37907C1.16917 19 1 18.8283 1 18.6153V10.9592C1 10.7462 1.16917 10.5745 1.37907 10.5745H8.92286C9.13276 10.5745 9.30193 10.7462 9.30193 10.9592Z" stroke="#795CF5" stroke-width="1.5"/>
<path d="M20.621 19H13.0769C12.8671 19 12.698 18.8284 12.698 18.6154V10.959C12.698 10.7461 12.8671 10.5745 13.0769 10.5745H20.621C20.8308 10.5745 20.9999 10.7461 20.9999 10.959V18.6154C20.9968 18.8284 20.8277 19 20.621 19Z" stroke="#F95C5B" stroke-width="1.5"/>
<path d="M15.3395 1.38457V9.04096C15.3395 9.2539 15.1704 9.42553 14.9605 9.42553H7.41667C7.20677 9.42553 7.0376 9.2539 7.0376 9.04096V1.38457C7.0376 1.17163 7.20677 1 7.41667 1H14.9605C15.1704 1 15.3395 1.17163 15.3395 1.38457Z" stroke="#1AD1B9" stroke-width="1.5"/>
</svg>
