<svg width="22" height="22" viewBox="0 0 22 22" fill="none" xmlns="http://www.w3.org/2000/svg">
<path d="M7.55029 18.3928L2.66288 18.3211C1.73656 18.3129 0.991919 17.5553 1.00007 16.6285L1.12309 2.66288C1.13123 1.73656 1.88891 0.991919 2.81563 1.00007L16.7813 1.12349C17.7076 1.13164 18.4523 1.88932 18.4437 2.81563L18.3712 7.80203" stroke="#795CF5" stroke-width="1.5" stroke-miterlimit="10" stroke-linecap="round" stroke-linejoin="round"/>
<path d="M15.8933 14.3227C14.971 14.3227 14.2237 15.0701 14.2237 15.9923C14.2237 16.9145 14.971 17.6619 15.8933 17.6619C16.8155 17.6619 17.5629 16.9145 17.5629 15.9923C17.5629 15.0701 16.8155 14.3227 15.8933 14.3227ZM20.5794 14.8007L20.1276 15.1727C19.6121 15.5974 19.6121 16.3866 20.1276 16.8113L20.5794 17.1834C20.7397 17.3154 20.7809 17.5435 20.6772 17.7233L19.7848 19.269C19.6811 19.4488 19.4628 19.527 19.2683 19.4542L18.7203 19.2489C18.0951 19.0148 17.4113 19.4092 17.3011 20.068L17.2049 20.6453C17.1707 20.8501 16.9937 21 16.7862 21H15.0009C14.7934 21 14.6164 20.8501 14.5822 20.6453L14.486 20.068C14.3763 19.4092 13.6925 19.0143 13.0668 19.2489L12.5188 19.4542C12.3243 19.527 12.106 19.4488 12.0023 19.269L11.1099 17.7233C11.0062 17.5435 11.0474 17.3154 11.2077 17.1834L11.6595 16.8113C12.175 16.3866 12.175 15.5974 11.6595 15.1727L11.2077 14.8007C11.0474 14.6687 11.0062 14.4406 11.1099 14.2608L12.0023 12.715C12.106 12.5352 12.3243 12.457 12.5188 12.5298L13.0668 12.7351C13.692 12.9692 14.3758 12.5749 14.486 11.9161L14.5822 11.3387C14.6164 11.134 14.7934 10.9841 15.0009 10.9841H16.7862C16.9937 10.9841 17.1707 11.134 17.2049 11.3387L17.3011 11.9161C17.4108 12.5749 18.0946 12.9698 18.7203 12.7351L19.2683 12.5298C19.4628 12.457 19.6811 12.5352 19.7848 12.715L20.6772 14.2608C20.7809 14.4406 20.7397 14.6687 20.5794 14.8007Z" stroke="#F95C5B" stroke-width="1.5" stroke-miterlimit="10" stroke-linecap="round" stroke-linejoin="round"/>
<path d="M10.8881 9.19113H8.55559C8.14498 9.19113 7.81177 8.85832 7.81177 8.4473V1.33779C7.81177 1.28809 7.8521 1.24817 7.90138 1.24817H11.5419C11.5916 1.24817 11.6315 1.2885 11.6315 1.33779V8.44771C11.6319 8.85832 11.2991 9.19113 10.8881 9.19113Z" stroke="#795CF5" stroke-width="1.5" stroke-miterlimit="10" stroke-linecap="round" stroke-linejoin="round"/>
</svg>
