<svg width="22" height="20" viewBox="0 0 22 20" fill="none" xmlns="http://www.w3.org/2000/svg">
<path d="M17.7538 9.02924C17.7278 8.8748 17.7145 8.71641 17.7145 8.55539C17.7145 7.09564 18.809 5.87283 20.2785 5.55561C20.7013 5.46435 21 5.11466 21 4.71232V2.18684C21 1.53133 20.427 1 19.7204 1H2.27963C1.57304 1 1 1.53133 1 2.18684V4.71232C1 5.11466 1.29868 5.46435 1.7211 5.55561C3.19103 5.87283 4.28547 7.09564 4.28547 8.55539C4.28547 10.0147 3.19103 11.2375 1.7211 11.5547C1.29868 11.646 1 11.9957 1 12.398V14.5993C1 15.2548 1.57304 15.7861 2.27963 15.7861H9.56314" stroke="#795CF5" stroke-width="1.5" stroke-miterlimit="10" stroke-linecap="round" stroke-linejoin="round"/>
<path d="M19.0371 12.0681L12.6582 18.6275" stroke="#F95C5B" stroke-width="1.5" stroke-miterlimit="10" stroke-linecap="round" stroke-linejoin="round"/>
<path d="M17.4853 19C18.0038 19 18.424 18.5678 18.424 18.0347C18.424 17.5016 18.0038 17.0695 17.4853 17.0695C16.9669 17.0695 16.5466 17.5016 16.5466 18.0347C16.5466 18.5678 16.9669 19 17.4853 19Z" stroke="#F95C5B" stroke-width="1.5" stroke-miterlimit="10" stroke-linecap="round" stroke-linejoin="round"/>
<path d="M14.188 13.8231C14.7064 13.8231 15.1267 13.3909 15.1267 12.8578C15.1267 12.3247 14.7064 11.8926 14.188 11.8926C13.6695 11.8926 13.2493 12.3247 13.2493 12.8578C13.2493 13.3909 13.6695 13.8231 14.188 13.8231Z" stroke="#F95C5B" stroke-width="1.5" stroke-miterlimit="10" stroke-linecap="round" stroke-linejoin="round"/>
</svg>
