<svg width="22" height="22" viewBox="0 0 22 22" fill="none" xmlns="http://www.w3.org/2000/svg">
<path d="M18.0381 21H3.9614C3.50052 21 3.10515 20.6557 3.02795 20.183L1.01365 7.96483C0.915396 7.36361 1.3599 6.81573 1.94711 6.81573H20.0523C20.6396 6.81573 21.0864 7.36361 20.9858 7.96483L18.9715 20.183C18.8943 20.6557 18.4989 21 18.0381 21Z" stroke="#795CF5" stroke-width="1.5" stroke-miterlimit="10"/>
<path d="M15.4811 6.81818C15.535 6.53212 15.5607 6.24121 15.5607 5.94061C15.5607 3.21091 13.3616 1 10.6478 1C7.93398 1 5.73486 3.21091 5.73486 5.94061C5.73486 6.24121 5.7606 6.53455 5.81441 6.81818" stroke="#795CF5" stroke-width="1.5" stroke-miterlimit="10"/>
<path d="M11 17.3333V17.6666V18" stroke="#1AD1B9" stroke-width="1.5" stroke-linecap="round"/>
<path d="M11 10V10.3333V10.6667" stroke="#1AD1B9" stroke-width="1.5" stroke-linecap="round"/>
<path d="M13 12.3334C13 11.4129 12.1046 10.6667 11 10.6667C9.8954 10.6667 9 11.4129 9 12.3334C9 13.2539 9.8954 14.0001 11 14.0001C12.1046 14.0001 13 14.7463 13 15.6668C13 16.5873 12.1046 17.3335 11 17.3335C9.8954 17.3335 9 16.5873 9 15.6668" stroke="#1AD1B9" stroke-width="1.5" stroke-linecap="round"/>
</svg>
