<svg width="22" height="22" viewBox="0 0 22 22" fill="none" xmlns="http://www.w3.org/2000/svg">
<path d="M16.014 18.7996C15.8188 20.046 14.7192 21 13.3915 21H3.65302C2.18759 21 1 19.8377 1 18.4035V3.59646C1 2.16228 2.18759 1 3.65302 1H13.3915C14.7192 1 15.8188 1.95403 16.014 3.20039" stroke="#B11E67" stroke-width="1.5" stroke-miterlimit="10" stroke-linecap="round" stroke-linejoin="round"/>
<path d="M12.5239 17.3655H4.48975V17.3832H12.5239V17.3655Z" stroke="#B11E67" stroke-width="1.5" stroke-miterlimit="10" stroke-linecap="round" stroke-linejoin="round"/>
<path d="M21 6.73402V15.2656C21 15.671 20.6574 16 20.2343 16H15.0923C15.0411 16 15 15.9602 15 15.9115V6.08849C15 6.03942 15.0415 6 15.0923 6H20.2347C20.6574 5.9996 21 6.3286 21 6.73402Z" stroke="#1AD1B9" stroke-width="1.5" stroke-miterlimit="10" stroke-linecap="round" stroke-linejoin="round"/>
<path d="M15 9H18H15Z" stroke="#1AD1B9" stroke-width="1.5" stroke-miterlimit="10" stroke-linecap="round" stroke-linejoin="round"/>
</svg>
