<svg width="24" height="22" viewBox="0 0 24 22" fill="none" xmlns="http://www.w3.org/2000/svg">
<path d="M1 2.15595L2.79527 1.9811C3.83187 1.88029 4.80555 2.50423 5.16329 3.49936L9.93314 16.7696" stroke="#795CF5" stroke-width="1.5" stroke-miterlimit="10" stroke-linecap="round" stroke-linejoin="round"/>
<path d="M23.0001 13.2682L11.5393 17.534" stroke="#795CF5" stroke-width="1.5" stroke-miterlimit="10" stroke-linecap="round" stroke-linejoin="round"/>
<path d="M9.93745 21C11.0858 21 12.0168 20.0527 12.0168 18.8841C12.0168 17.7155 11.0858 16.7682 9.93745 16.7682C8.78909 16.7682 7.85815 17.7155 7.85815 18.8841C7.85815 20.0527 8.78909 21 9.93745 21Z" stroke="#795CF5" stroke-width="1.5" stroke-miterlimit="10" stroke-linecap="round" stroke-linejoin="round"/>
<path d="M19.9174 10.4195L14.411 12.469C13.4082 12.8421 12.2979 12.3175 11.9307 11.2971L9.9167 5.69363C9.55004 4.67317 10.0655 3.54331 11.0683 3.16972L16.5748 1.1202C17.5776 0.747081 18.6879 1.27164 19.055 2.2921L21.069 7.89555C21.4357 8.91601 20.9202 10.0459 19.9174 10.4195Z" stroke="#F95C5B" stroke-width="1.5" stroke-miterlimit="10" stroke-linecap="round" stroke-linejoin="round"/>
<path d="M14.9202 2.19983L16.1646 5.66205L14.9202 2.19983Z" stroke="#F95C5B" stroke-width="1.5" stroke-miterlimit="10" stroke-linecap="round" stroke-linejoin="round"/>
</svg>
