<svg width="22" height="17" viewBox="0 0 22 17" fill="none" xmlns="http://www.w3.org/2000/svg">
<path d="M15.9215 7.23216C17.5918 7.23216 18.9458 5.83704 18.9458 4.11608C18.9458 2.39512 17.5918 1 15.9215 1C14.2512 1 12.8972 2.39512 12.8972 4.11608C12.8972 5.83704 14.2512 7.23216 15.9215 7.23216Z" stroke="#795CF5" stroke-width="1.5" stroke-miterlimit="10" stroke-linecap="round" stroke-linejoin="round"/>
<path d="M6.31484 7.23216C7.98513 7.23216 9.33916 5.83704 9.33916 4.11608C9.33916 2.39512 7.98513 1 6.31484 1C4.64456 1 3.29053 2.39512 3.29053 4.11608C3.29053 5.83704 4.64456 7.23216 6.31484 7.23216Z" stroke="#1AD1B9" stroke-width="1.5" stroke-miterlimit="10" stroke-linecap="round" stroke-linejoin="round"/>
<path d="M10.9472 16C10.9893 15.729 11.0119 15.4499 11.0119 15.165C11.0119 12.3158 8.77103 10.007 6.00575 10.007C3.24047 10.007 1 12.3158 1 15.165C1 15.4499 1.02301 15.729 1.06466 16" stroke="#1AD1B9" stroke-width="1.5" stroke-miterlimit="10" stroke-linecap="round" stroke-linejoin="round"/>
<path d="M20.9354 16C20.9775 15.729 21.0001 15.4499 21.0001 15.165C21.0001 12.3158 18.7592 10.007 15.9939 10.007C13.2287 10.007 10.9878 12.3158 10.9878 15.165C10.9878 15.4499 11.0108 15.729 11.0525 16" stroke="#795CF5" stroke-width="1.5" stroke-miterlimit="10" stroke-linecap="round" stroke-linejoin="round"/>
</svg>
