<svg width="22" height="22" viewBox="0 0 22 22" fill="none" xmlns="http://www.w3.org/2000/svg">
<path d="M20.6136 11.4396C20.4826 16.8684 15.9362 21.2032 10.4265 20.9926C5.34319 20.8 1.20257 16.6604 1.00735 11.5783C0.796727 6.06738 5.1377 1.51687 10.5729 1.38847C10.7013 1.38591 10.8092 1.49119 10.8092 1.61959V10.9697C10.8092 11.0981 10.912 11.2008 11.0404 11.2008H20.3825C20.5109 11.2034 20.6188 11.3087 20.6136 11.4396Z" stroke="#F95C5B" stroke-width="1.5"/>
<path d="M20.7942 8.49986H13.7068C13.593 8.49986 13.4998 8.40612 13.4998 8.2918V1.20865C13.4998 1.08976 13.5999 0.991445 13.7205 1.00059C17.5975 1.28639 20.6964 4.38669 20.999 8.27808C21.0081 8.39697 20.9125 8.49986 20.7942 8.49986Z" stroke="#795CF5" stroke-width="1.5"/>
</svg>
