<svg width="24" height="22" viewBox="0 0 24 22" fill="none" xmlns="http://www.w3.org/2000/svg">
<path d="M12.2173 8.39531C12.5384 7.52052 13.0614 6.7389 13.7429 6.13536L16.8476 3.38248C17.8978 2.45124 19.192 1.92434 20.5254 1.88487L22.6533 1.82107C22.9628 1.8119 23.1171 2.22175 22.8956 2.46546L14.8624 11.3061" stroke="#1AD1B9" stroke-width="1.5" stroke-miterlimit="10" stroke-linecap="round" stroke-linejoin="round"/>
<path d="M10.0105 16.7443L7.29074 20.2421C7.25695 20.2857 7.22192 20.327 7.18563 20.367C6.41738 21.2124 5.14948 21.217 4.35704 20.3449C3.5354 19.4408 3.56876 17.9716 4.42919 17.1372L7.80124 14.3127" stroke="#1AD1B9" stroke-width="1.5" stroke-miterlimit="10" stroke-linecap="round" stroke-linejoin="round"/>
<path d="M1 6.15465L4.83875 10.379C5.31005 10.8976 5.94859 11.189 6.61507 11.1895L8.15241 11.1909C8.67751 11.1913 9.17341 11.4571 9.49748 11.9115L15.2681 20.0012C16.0589 21.1101 17.5529 21.2087 18.4587 20.2119C19.3646 19.215 19.275 17.5714 18.2673 16.7008L10.9164 10.3519C10.503 9.99482 10.2616 9.44819 10.2616 8.86989V7.18365C10.2616 6.44976 9.99671 5.74571 9.525 5.22662L5.68416 1" stroke="#F95C5B" stroke-width="1.5" stroke-miterlimit="10" stroke-linecap="round" stroke-linejoin="round"/>
<path d="M6.74848 8.96564L2.59692 4.39709" stroke="#F95C5B" stroke-width="1.5" stroke-miterlimit="10" stroke-linecap="round" stroke-linejoin="round"/>
<path d="M8.28015 7.28092L4.12817 2.71191" stroke="#F95C5B" stroke-width="1.5" stroke-miterlimit="10" stroke-linecap="round" stroke-linejoin="round"/>
</svg>
