<svg width="18" height="22" viewBox="0 0 18 22" fill="none" xmlns="http://www.w3.org/2000/svg">
<path d="M2.57755 14.6037C1.58924 13.3362 1 11.7386 1 10.0024C1 5.88738 4.31114 2.55115 8.39602 2.55115C8.45048 2.55115 8.50493 2.55195 8.55857 2.55355" stroke="#B11E67" stroke-width="1.5" stroke-miterlimit="10" stroke-linecap="round"/>
<path d="M11 2.5H16.5" stroke="#B11E67" stroke-width="1.5" stroke-miterlimit="10" stroke-linecap="round"/>
<path d="M15.5078 1L17 2.47102" stroke="#B11E67" stroke-width="1.5" stroke-miterlimit="10" stroke-linecap="round"/>
<path d="M15.5078 3.94196L17 2.47095" stroke="#B11E67" stroke-width="1.5" stroke-miterlimit="10" stroke-linecap="round"/>
<path d="M15.5102 7.82178C16.314 9.01397 16.7829 10.4529 16.7829 12.0025C16.7829 16.1175 13.4718 19.4537 9.38692 19.4537C9.33246 19.4537 9.27801 19.4529 9.22437 19.4513" stroke="#1AD1B9" stroke-width="1.5" stroke-miterlimit="10" stroke-linecap="round"/>
<path d="M6.99998 19.5H1.5" stroke="#1AD1B9" stroke-width="1.5" stroke-miterlimit="10" stroke-linecap="round"/>
<path d="M2.63698 20.9999L1.14478 19.5289" stroke="#1AD1B9" stroke-width="1.5" stroke-miterlimit="10" stroke-linecap="round"/>
<path d="M2.63698 18.0579L1.14478 19.5289" stroke="#1AD1B9" stroke-width="1.5" stroke-miterlimit="10" stroke-linecap="round"/>
<path d="M9 14.3334V14.6667V15" stroke="#1AD1B9" stroke-width="1.5" stroke-linecap="round"/>
<path d="M9 7V7.33334V7.66667" stroke="#1AD1B9" stroke-width="1.5" stroke-linecap="round"/>
<path d="M11 9.33343C11 8.41295 10.1046 7.66675 9 7.66675C7.8954 7.66675 7 8.41295 7 9.33343C7 10.2539 7.8954 11.0001 9 11.0001C10.1046 11.0001 11 11.7463 11 12.6668C11 13.5873 10.1046 14.3335 9 14.3335C7.8954 14.3335 7 13.5873 7 12.6668" stroke="#1AD1B9" stroke-width="1.5" stroke-linecap="round"/>
</svg>
