<svg width="44" height="44" viewBox="0 0 44 44" fill="none" xmlns="http://www.w3.org/2000/svg">
<path d="M29.2702 30.3333H14.7297C14.1426 30.3333 13.6666 29.8573 13.6666 29.2703V14.7297C13.6666 14.1426 14.1426 13.6666 14.7297 13.6666H29.2702C29.8573 13.6666 30.3333 14.1426 30.3333 14.7297V29.2703C30.3333 29.8573 29.8573 30.3333 29.2702 30.3333Z" stroke="#795CF5" stroke-width="2.5" stroke-miterlimit="10"/>
<path d="M27.3524 9.22327V6.41467L29.1636 4.60352" stroke="#1AD1B9" stroke-width="2.5" stroke-miterlimit="10" stroke-linecap="round" stroke-linejoin="round"/>
<path d="M16.8124 9.22327V6.41467L15.0012 4.60352" stroke="#1AD1B9" stroke-width="2.5" stroke-miterlimit="10" stroke-linecap="round" stroke-linejoin="round"/>
<path d="M22.0007 9.22508V2" stroke="#1AD1B9" stroke-width="2.5" stroke-miterlimit="10" stroke-linecap="round" stroke-linejoin="round"/>
<path d="M16.8124 34.7748V37.5834L15.0012 39.3945" stroke="#1AD1B9" stroke-width="2.5" stroke-miterlimit="10" stroke-linecap="round" stroke-linejoin="round"/>
<path d="M27.3524 34.7748V37.5834L29.1636 39.3945" stroke="#1AD1B9" stroke-width="2.5" stroke-miterlimit="10" stroke-linecap="round" stroke-linejoin="round"/>
<path d="M22.1659 34.7748V41.9999" stroke="#1AD1B9" stroke-width="2.5" stroke-miterlimit="10" stroke-linecap="round" stroke-linejoin="round"/>
<path d="M34.7748 27.2699H37.5834L39.3945 29.0811" stroke="#1AD1B9" stroke-width="2.5" stroke-miterlimit="10" stroke-linecap="round" stroke-linejoin="round"/>
<path d="M34.7748 16.73H37.5834L39.3945 14.9188" stroke="#1AD1B9" stroke-width="2.5" stroke-miterlimit="10" stroke-linecap="round" stroke-linejoin="round"/>
<path d="M34.7748 21.9182H41.9999" stroke="#1AD1B9" stroke-width="2.5" stroke-miterlimit="10" stroke-linecap="round" stroke-linejoin="round"/>
<path d="M9.22326 16.73H6.41467L4.60352 14.9188" stroke="#1AD1B9" stroke-width="2.5" stroke-miterlimit="10" stroke-linecap="round" stroke-linejoin="round"/>
<path d="M9.22326 27.2699H6.41467L4.60352 29.0811" stroke="#1AD1B9" stroke-width="2.5" stroke-miterlimit="10" stroke-linecap="round" stroke-linejoin="round"/>
<path d="M9.22507 22.0835H2" stroke="#1AD1B9" stroke-width="2.5" stroke-miterlimit="10" stroke-linecap="round" stroke-linejoin="round"/>
</svg>
